<?xml version="1.0" encoding="utf-8"?>
<!-- Generator: Adobe Illustrator 22.1.0, SVG Export Plug-In . SVG Version: 6.00 Build 0)  -->
<svg version="1.1" id="Layer_1" xmlns="http://www.w3.org/2000/svg" xmlns:xlink="http://www.w3.org/1999/xlink" x="0px" y="0px"
	 viewBox="0 0 1237.8 667.9" style="enable-background:new 0 0 1237.8 667.9;" xml:space="preserve">
<style type="text/css">
	.st0{clip-path:url(#SVGID_2_);fill:#3B4167;}
	.st1{fill:#FFFFFF;}
	.st2{display:none;}
	.st3{display:inline;}
	.st4{fill:url(#SVGID_3_);}
	.st5{fill:url(#SVGID_4_);}
	.st6{fill:url(#SVGID_5_);}
	.st7{fill:url(#SVGID_6_);}
	.st8{fill:url(#SVGID_7_);}
	.st9{fill:url(#SVGID_8_);}
	.st10{fill:url(#SVGID_9_);}
	.st11{fill:url(#SVGID_10_);}
	.st12{fill:url(#SVGID_11_);}
	.st13{fill:url(#SVGID_12_);}
	.st14{fill:url(#SVGID_13_);}
	.st15{fill:url(#SVGID_14_);}
	.st16{fill:url(#SVGID_15_);}
	.st17{fill:url(#SVGID_16_);}
	.st18{fill:url(#SVGID_17_);}
	.st19{fill:url(#SVGID_18_);}
	.st20{fill:url(#SVGID_19_);}
	.st21{fill:url(#SVGID_20_);}
	.st22{fill:url(#SVGID_21_);}
	.st23{fill:url(#SVGID_22_);}
	.st24{fill:url(#SVGID_23_);}
	.st25{fill:url(#SVGID_24_);}
	.st26{fill:url(#SVGID_25_);}
	.st27{fill:url(#SVGID_26_);}
	.st28{fill:url(#SVGID_27_);}
	.st29{fill:url(#SVGID_28_);}
	.st30{fill:url(#SVGID_29_);}
	.st31{fill:url(#SVGID_30_);}
	.st32{fill:url(#SVGID_31_);}
	.st33{fill:url(#SVGID_32_);}
	.st34{fill:url(#SVGID_33_);}
	.st35{fill:url(#SVGID_34_);}
	.st36{fill:url(#SVGID_35_);}
	.st37{fill:url(#SVGID_36_);}
	.st38{fill:url(#SVGID_37_);}
	.st39{fill:url(#SVGID_38_);}
	.st40{fill:url(#SVGID_39_);}
	.st41{fill:url(#SVGID_40_);}
	.st42{fill:url(#SVGID_41_);}
	.st43{fill:url(#SVGID_42_);}
	.st44{fill:url(#SVGID_43_);}
	.st45{fill:url(#SVGID_44_);}
	.st46{fill:url(#SVGID_45_);}
	.st47{fill:url(#SVGID_46_);}
	.st48{fill:url(#SVGID_47_);}
	.st49{fill:url(#SVGID_48_);}
	.st50{fill:url(#SVGID_49_);}
	.st51{fill:url(#SVGID_50_);}
	.st52{fill:url(#SVGID_51_);}
	.st53{fill:url(#SVGID_52_);}
	.st54{fill:none;}
	.st55{font-family:'ArialMT';}
	.st56{font-size:12px;}
</style>
<g id="Слой_3">
	<g>
		<g>
			<defs>
				<rect id="SVGID_1_" x="-2052.1" y="-741.8" width="1884.9" height="2551.2"/>
			</defs>
			<clipPath id="SVGID_2_">
				<use xlink:href="#SVGID_1_"  style="overflow:visible;"/>
			</clipPath>
			<path class="st0" d="M-2290.1,1809.4h2187.7V-857.5h-2187.7v528.7c0,15.6,0,31.3,0,47.7c0,8.2,0.2,16.9,0.8,26.8
				c5.9,49.6-11.1,99.1-1.2,149.6c0.2,8,0.3,16.4,0.3,25c0.1,17.2,0.1,34.8,0.1,52.6L-2290.1,1809.4L-2290.1,1809.4z"/>
		</g>
	</g>
	<g>
		<g>
			<path class="st1" d="M-836.3-172c5.8,0,5.8-9,0-9S-842.1-172-836.3-172L-836.3-172z"/>
		</g>
	</g>
	<g>
		<g>
			<path class="st1" d="M-518.6-283.7c5.8,0,5.8-9,0-9C-524.4-292.7-524.4-283.7-518.6-283.7L-518.6-283.7z"/>
		</g>
	</g>
	<g>
		<g>
			<path class="st1" d="M-468.6-110.2c5.8,0,5.8-9,0-9S-474.4-110.2-468.6-110.2L-468.6-110.2z"/>
		</g>
	</g>
	<g>
		<g>
			<path class="st1" d="M-1142-387.6c5.8,0,5.8-9,0-9S-1147.8-387.6-1142-387.6L-1142-387.6z"/>
		</g>
	</g>
	<g>
		<g>
			<path class="st1" d="M1933.4-338.4c5.8,0,5.8-9,0-9S1927.6-338.4,1933.4-338.4L1933.4-338.4z"/>
		</g>
	</g>
	<g>
		<g>
			<path class="st1" d="M1739-190.4c5.8,0,5.8-9,0-9C1733.3-199.4,1733.2-190.4,1739-190.4L1739-190.4z"/>
		</g>
	</g>
	<g>
		<g>
			<path class="st1" d="M2092.2-209c5.8,0,5.8-9,0-9S2086.4-209,2092.2-209L2092.2-209z"/>
		</g>
	</g>
	<g>
		<g>
			<path class="st1" d="M1433.4-447.2c5.8,0,5.8-9,0-9S1427.6-447.2,1433.4-447.2L1433.4-447.2z"/>
		</g>
	</g>
	<g>
		<g>
			<path class="st1" d="M-1071.6-227.9c5.8,0,5.8-9,0-9S-1077.4-227.9-1071.6-227.9L-1071.6-227.9z"/>
		</g>
	</g>
	<g>
		<g>
			<path class="st1" d="M-1956.9,4.5c5.8,0,5.8-9,0-9C-1962.7-4.5-1962.7,4.5-1956.9,4.5L-1956.9,4.5z"/>
		</g>
	</g>
	<g>
		<g>
			<path class="st1" d="M-1180.4-310.2c5.8,0,5.8-9,0-9C-1186.2-319.2-1186.2-310.2-1180.4-310.2L-1180.4-310.2z"/>
		</g>
	</g>
	<g>
		<g>
			<path class="st1" d="M-994.9-375.8c5.8,0,5.8-9,0-9S-1000.7-375.8-994.9-375.8L-994.9-375.8z"/>
		</g>
	</g>
	<g>
		<g>
			<path class="st1" d="M1752.5-466.9c5.8,0,5.8-9,0-9S1746.7-466.9,1752.5-466.9L1752.5-466.9z"/>
		</g>
	</g>
	<g>
		<g>
			<path class="st1" d="M2164.5-331.6c5.8,0,5.8-9,0-9S2158.7-331.6,2164.5-331.6L2164.5-331.6z"/>
		</g>
	</g>
	<g>
		<g>
			<path class="st1" d="M1654-317.8c5.8,0,5.8-9,0-9S1648.2-317.8,1654-317.8L1654-317.8z"/>
		</g>
	</g>
	<g>
		<g>
			<path class="st1" d="M1212.8-259c5.8,0,5.8-9,0-9S1207-259,1212.8-259L1212.8-259z"/>
		</g>
	</g>
	<g>
		<g>
			<path class="st1" d="M1342.2-276.7c5.8,0,5.8-9,0-9C1336.4-285.7,1336.4-276.7,1342.2-276.7L1342.2-276.7z"/>
		</g>
	</g>
	<g>
		<g>
			<path class="st1" d="M1177.8-336.5c5.8,0,5.8-9,0-9S1172-336.5,1177.8-336.5L1177.8-336.5z"/>
		</g>
	</g>
	<g>
		<g>
			<path class="st1" d="M1474.8-333.6c5.8,0,5.8-9,0-9S1469-333.6,1474.8-333.6L1474.8-333.6z"/>
		</g>
	</g>
	<g>
		<g>
			<path class="st1" d="M1467.2-446.3c5.8,0,5.8-9,0-9C1461.5-455.3,1461.4-446.3,1467.2-446.3L1467.2-446.3z"/>
		</g>
	</g>
	<g>
		<g>
			<path class="st1" d="M1936.6-413c5.8,0,5.8-9,0-9C1930.8-422,1930.8-413,1936.6-413L1936.6-413z"/>
		</g>
	</g>
	<g>
		<g>
			<path class="st1" d="M1998.3-301.2c5.8,0,5.8-9,0-9C1992.6-310.2,1992.5-301.2,1998.3-301.2L1998.3-301.2z"/>
		</g>
	</g>
	<g>
		<g>
			<path class="st1" d="M2124.8-389.5c5.8,0,5.8-9,0-9S2119-389.5,2124.8-389.5L2124.8-389.5z"/>
		</g>
	</g>
	<g>
		<g>
			<path class="st1" d="M-392.2-363.1c5.8,0,5.8-9,0-9S-398-363.1-392.2-363.1L-392.2-363.1z"/>
		</g>
	</g>
	<g>
		<g>
			<path class="st1" d="M1789.3-461.9c5.8,0,5.8-9,0-9S1783.5-461.9,1789.3-461.9L1789.3-461.9z"/>
		</g>
	</g>
	<g>
		<g>
			<path class="st1" d="M796.7-461c5.8,0,5.8-9,0-9S790.9-461,796.7-461L796.7-461z"/>
		</g>
	</g>
	<g>
		<g>
			<path class="st1" d="M809.8-473.7c5.8,0,5.8-9,0-9C804.1-482.7,804-473.7,809.8-473.7L809.8-473.7z"/>
		</g>
	</g>
	<g>
		<g>
			<path class="st1" d="M1179.2-319.9c5.8,0,5.8-9,0-9C1173.4-328.9,1173.4-319.9,1179.2-319.9L1179.2-319.9z"/>
		</g>
	</g>
	<g>
		<g>
			<path class="st1" d="M963-318.9c5.8,0,5.8-9,0-9C957.3-327.9,957.2-318.9,963-318.9L963-318.9z"/>
		</g>
	</g>
	<g>
		<g>
			<path class="st1" d="M1386.6-457.1c5.8,0,5.8-9,0-9C1380.8-466.1,1380.8-457.1,1386.6-457.1L1386.6-457.1z"/>
		</g>
	</g>
	<g>
		<g>
			<path class="st1" d="M1668.9-436.5c5.8,0,5.8-9,0-9S1663.1-436.5,1668.9-436.5L1668.9-436.5z"/>
		</g>
	</g>
	<g>
		<g>
			<path class="st1" d="M795.4-418.9c5.8,0,5.8-9,0-9C789.6-427.9,789.6-418.9,795.4-418.9L795.4-418.9z"/>
		</g>
	</g>
	<g>
		<g>
			<path class="st1" d="M596.7-428.6c5.8,0,5.8-9,0-9S590.9-428.6,596.7-428.6L596.7-428.6z"/>
		</g>
	</g>
	<g>
		<g>
			<path class="st1" d="M1045.4-454.2c5.8,0,5.8-9,0-9S1039.6-454.2,1045.4-454.2L1045.4-454.2z"/>
		</g>
	</g>
	<g>
		<g>
			<path class="st1" d="M-1842.2,57.4c5.8,0,5.8-9,0-9S-1848,57.4-1842.2,57.4L-1842.2,57.4z"/>
		</g>
	</g>
	<g>
		<g>
			<path class="st1" d="M-1956.9-86.7c5.8,0,5.8-9,0-9C-1962.7-95.7-1962.7-86.7-1956.9-86.7L-1956.9-86.7z"/>
		</g>
	</g>
	<g>
		<g>
			<path class="st1" d="M-1971.6,139.8c5.8,0,5.8-9,0-9S-1977.4,139.8-1971.6,139.8L-1971.6,139.8z"/>
		</g>
	</g>
	<g>
		<g>
			<path class="st1" d="M-353.9-4.3c5.8,0,5.8-9,0-9C-359.7-13.3-359.7-4.3-353.9-4.3L-353.9-4.3z"/>
		</g>
	</g>
	<g>
		<g>
			<path class="st1" d="M-662.8-77.9c5.8,0,5.8-9,0-9S-668.6-77.9-662.8-77.9L-662.8-77.9z"/>
		</g>
	</g>
	<g>
		<g>
			<path class="st1" d="M-659.8-436.7c5.8,0,5.8-9,0-9S-665.6-436.7-659.8-436.7L-659.8-436.7z"/>
		</g>
	</g>
	<g>
		<g>
			<path class="st1" d="M2221.6-288.4c5.8,0,5.8-9,0-9S2215.8-288.4,2221.6-288.4L2221.6-288.4z"/>
		</g>
	</g>
	<g class="st2">
		<g class="st3">
			<path class="st1" d="M592.5-401.2c5.8,0,5.8-9,0-9S586.7-401.2,592.5-401.2L592.5-401.2z"/>
		</g>
	</g>
	<g>
		
			<linearGradient id="SVGID_3_" gradientUnits="userSpaceOnUse" x1="2610.0657" y1="236.3151" x2="2900.7905" y2="236.3151" gradientTransform="matrix(-0.9946 -0.1034 0.1034 -0.9946 3398.1616 952.1815)">
			<stop  offset="0" style="stop-color:#6CD6D2"/>
			<stop  offset="1" style="stop-color:#6CD6D2;stop-opacity:0"/>
		</linearGradient>
		<path class="st4" d="M798.2,660.7c22.6-47,7.8-108.6-34-140.9c-1.4-1.1-2.8-2.2-3.2-3.9c-0.6-2.8,2.1-5,4.2-6.9
			c4.8-4.3,7.7-10.4,8.1-16.7c0.1-1,0-2.1-0.8-2.8c-1.3-1.1-3.3-0.1-5-0.3c-1.7-0.2-1.5-3.7-0.2-2.6c-8.8,4.7-15.8,12.8-18.9,22.1
			c-10.8-5.2-18.4-15.5-22.4-26.6s-4.8-23-4.9-34.8c-0.1-15.8,0.9-31.6,3-47.2c2.6-18.9,9.5-40.7,28-46.7c3-1,6.4-1.6,8.5-3.9
			c2-2.3,2.3-5.6,4-8.1c3.3-4.7,10.3-4.6,16.1-5.4c17.1-2.3,30.9-18.5,30.3-35.4s-15.6-32.2-32.8-33.5c-2.6-0.2-5.4-0.2-7.3-1.8
			c-2.4-2-2.5-5.5-2.8-8.6c-2.2-20.6-22.8-34.7-43-40.6c-9.5-2.8-19.6-4.3-29.1-1.7c-5.8,1.6-11,4.8-16.3,7.6
			c-14.4,7.8-29.9,13.5-45.3,19.3c-13.9,5.2-28.2,10.5-43.1,10.2c-12.7-0.2-28.6-3.1-35.4,7.4c-1.5,2.3-2.2,4.9-2.7,7.6
			c-3.4,20.3,13.2,41.7,34.1,43.9c2.5,0.3,5.1,0.3,7.2,1.7c3.9,2.6,3.6,8.2,4.2,12.8c1.4,9.6,9.1,17.6,18.3,21.3
			c9.1,3.7,19.5,3.7,29.2,1.9c10.3-1.9,20.8-5.8,31-3.4c10,2.3,18.2,11.1,19.6,21.1c-6.6,18.3-4.8,38.5-3,57.9
			c0.6,6.7,1.3,13.6,3.5,20c2,6,5.3,11.5,7.3,17.5c6.4,18.5,1.9,41.6,15.8,55.6c5.2,5.2,12.3,8.3,17.3,13.6
			c4.2,4.5,6.6,10.4,8.9,16.1c9.8,24.3,19.6,48.8,23.3,74.7c2,14,2.4,29.2,11.2,40.5c1.1,1.4,2.4,2.8,4.1,3.2
			c5.6,1.3,12.2-7.8,15.6-3.2"/>
	</g>
	<g>
		
			<linearGradient id="SVGID_4_" gradientUnits="userSpaceOnUse" x1="2213.9761" y1="513.0869" x2="2537.2449" y2="513.0869" gradientTransform="matrix(-1 0 0 -1 3447.6309 687.8898)">
			<stop  offset="0" style="stop-color:#6CD6D2"/>
			<stop  offset="1" style="stop-color:#6CD6D2;stop-opacity:0"/>
		</linearGradient>
		<path class="st5" d="M1085.8,83.5c35.7,6.4,68.7,24.1,91.9,49.3c6.4,7,12.2,14.7,14.9,23.4c3.7,12.1,1.5,26,9.3,36.4
			c5.4,7.1,14.5,11.1,21.7,16.7c7.3,5.6,13,15.1,8.4,22.7c-1.8,3.1-5.1,5.3-8.4,7c-11.6,6-26,7.5-38.9,4c-4.6-1.3-9.6-3.1-14-1.4
			c-2.3,0.9-4.1,2.6-5.8,4.2c-7.9,7.3-17.3,13.4-27.6,17.8c-3.2,1.4-6.7,2.6-10.3,2.5c-3.5-0.1-6.8-1.6-9.8-3.2
			c-11.2-6-20.8-14.3-27.7-24.2c-11.9,10.3-30.1,14.1-45.8,9.6s-28.1-17.2-31.2-31.8c-2.3,8.6-13.1,14-22.8,13s-18.2-7-23.7-14.4
			c-5.5-7.3-8.6-15.9-11.7-24.3c-0.6-1.7-1.5-3.6-3.5-4c-1-0.2-2.1,0.1-3.1,0.4c-6.9,2.3-14,5.3-21.2,4.2
			c-10.9-1.7-17.4-13.1-15.9-23s9.1-18.2,17.4-24.7c23.2-18.1,53.6-26.1,82.6-35c7.4-2.3,14.9-4.7,21.2-8.9
			c8.5-5.6,15.9-14.8,26.4-14.2c5,0.2,9.6,2.8,14.7,2.8c7.8,0.1,15-5.9,22.5-4.2"/>
	</g>
	<g>
		
			<linearGradient id="SVGID_5_" gradientUnits="userSpaceOnUse" x1="2373.9438" y1="258.4677" x2="2749.1716" y2="258.4677" gradientTransform="matrix(-1 0 0 -1 3447.6309 687.8898)">
			<stop  offset="0" style="stop-color:#6CD6D2"/>
			<stop  offset="1" style="stop-color:#6CD6D2;stop-opacity:0"/>
		</linearGradient>
		<path class="st6" d="M1041.5,238.2c8.7,24.6-0.9,53.6-23.1,70c-7.5,5.5-16.3,9.7-22.5,16.5c-6.2,6.7-8.9,17.3-2.7,24
			c6.6,7.1,18.7,6,29,6.3c8.5,0.2,16.9,1.9,24.7,4.8c5.6,2.1,11.5,5.5,12.4,10.9c0.6,3.4-1,6.8-3.2,9.5c-6.9,8.2-20.9,10.6-30.6,5.1
			c4.7,7.3,0.1,18-8.8,20.5c-8.9,2.5-19.4-4.1-19.8-12.5c-3.1,6.5-11.9,10.3-19.4,8.4c-7.6-1.9-12.9-9.2-11.9-16.2
			c-13.7,1.2-18.4,17-28.5,25.6c-5.3,4.4-12.2,6.9-19.1,9c-22.8,6.9-46.5,11.2-70.5,12.6c-15.9,1-32.4,0.6-47.1-5
			c-7.9-3-15.1-7.5-23.2-9.6c-8.2-2.2-18.2-1.4-23.6,4.5c-6.7,7.3-3.4,18.3,0.6,27.1c2.1,4.6,4.4,9.4,8.6,12.7
			c4.1,3.2,9.6,4.5,14.8,5.8c24,5.7,48.2,11.3,73,12.7c13.8,0.8,27.8,0.2,41.1,3.3c8.4,1.9,16.2,5.2,24.1,8.4
			c15.7,6.5,31.4,13,47,19.7c30.6,13.1,45.2,38.4,37,69.3c3.7,2.4,8.9,0.7,12.3-2.1s5.7-6.4,9.4-8.7c5-3.1,11.4-3.4,17.5-3.6
			c7.3-0.2,15.1-0.3,21.4,3s10.3,11.3,6.2,16.8c-5.3,7-20.3,6.8-21.1,15.2c-0.5,5.3,5.8,9,11.5,10.5c5.6,1.5,12.2,2.7,15.3,7.3
			c3.2,4.8,0.5,11.4-4.4,14.9s-11.3,4.5-17.5,5.1c-42,4.1-84.1-6.5-126.3-5.7c-8.5,0.2-17.2,0.8-25.3-1.6
			c-8.1-2.3-15.6-8.5-15.8-16.2c-0.3-8.6,7.9-15.2,14.7-21.1c6.8-6,13.3-14.9,9.1-22.6c-3.9-7.2-14.6-8.5-23.4-7.9
			c-1.7,0.1-3.5,0.3-4.6,1.4c-1.6,1.7-0.7,4.2-1.2,6.4c-1.3,5.7-11.9,5.1-14.7-0.1c-2.8-5.2,0.1-11.5,3.9-16.2
			c5.8-7.2,15.5-15.4,8.9-25c-2.5-3.7-6.6-6.2-10.7-8.4c-42.1-23.1-94-29.7-133.8-56c-14.8-9.8-28.1-23-31.9-39.2
			c-3.7-16.3,5-35.5,22.4-40.7c7.2-2.1,15-1.8,22.5-2.5c17.8-1.7,34.4-9.2,52.2-10.6c14.2-1.1,28.6,1.9,42.7,0.2
			c16.8-2,31.9-10.4,48.3-14.3c12-2.8,24.6-3.2,36.3-6.9s22.9-12,24-23.1c-6.3,2-14.1-1-16.9-6.6c-2.7-5.6,0-12.8,5.9-15.7
			c-7.6,3.1-16.9-2.1-19.7-9.2s-0.8-14.9,2.5-21.8c1.5-3.1,4.4-6.6,8-5.8c3.2,0.7,4.4,4.4,7.3,5.8c5,2.4,10.1-3.1,15.6-4.1
			c6.5-1.2,12.1,3.9,18.3,6.4c8.1,3.2,18.4,1.2,24.4-4.7c8.3-8.3,7-20.9,7.9-32s7.7-24.5,20-24.3
			C1023.3,227.2,1031.4,235.2,1041.5,238.2"/>
	</g>
	<g>
		
			<linearGradient id="SVGID_6_" gradientUnits="userSpaceOnUse" x1="3739.2852" y1="-582.6851" x2="4847.731" y2="-582.6851" gradientTransform="matrix(-1 0 0 -1 3447.6309 687.8898)">
			<stop  offset="0" style="stop-color:#6CD6D2"/>
			<stop  offset="1" style="stop-color:#6CD6D2;stop-opacity:0"/>
		</linearGradient>
		<path class="st7" d="M-921.7,1093.2c29.3,18.5,66.8,14,101.4,17.1c74.9,6.7,140.7,51.2,199,98.6s114.5,100.1,184.1,128.6
			c41,16.8,85.1,24.6,128.9,30.9c5,0.7,10.4,1.6,13.7,5.4c5.3,5.9,2.5,15.3-1,22.4c-41.1,83.3-151.8,123.9-237,86.8
			c-5.8-2.5-12-5.5-18.3-4.4c-4.4,0.7-8.2,3.3-11.8,5.9c-34.8,25-64.1,57.6-101.5,78.5c-37.4,20.8-88.2,27-120.5-1.1
			c-5.8-5-11.7-11.4-19.4-11.2c-5,0.1-9.4,3.1-13.4,6.1c-31.7,23.2-62.1,50.8-100,61.1c-70.2,19-142.4-27.6-187.5-84.6
			c-26.8,27.9-55.4,56.8-92.4,67.9c-36.8,10.9-77.1,2.3-111.2-15.3c-34.1-17.6-63-43.5-91.5-69.1c14.4-11.6,28.8-23.2,43.2-34.8
			c10-8.1,20.4-16.6,25.8-28.3c7.5-16.3,3.7-35.3,0.3-53c-16.7-86.6-20.1-182.1,26.3-257.1c21.1-33.9,51-61.3,80.5-88.2
			c26.1-23.8,52.2-47.6,78.4-71.4c13.3-12.1,26.7-24.3,42.1-33.6c17-10.2,35.9-16.5,55.1-21.3c48.8-12.2,100.9-14.8,148.9-0.1
			s91.5,48.2,111.8,94.2c7.2,16.3,11.6,34.1,22,48.4c14.4,19.7,37.9,30.1,60,40.5c37.5,17.7,73.9,37.8,108.7,60.2
			c19.2,12.3,38.5,25.9,51,45s16.9,45.1,5.2,64.7"/>
	</g>
	<g>
		
			<linearGradient id="SVGID_7_" gradientUnits="userSpaceOnUse" x1="3483.731" y1="-385.4161" x2="4192.2988" y2="-385.4161" gradientTransform="matrix(-1 0 0 -1 3447.6309 687.8898)">
			<stop  offset="0" style="stop-color:#6CD6D2"/>
			<stop  offset="1" style="stop-color:#6CD6D2;stop-opacity:0"/>
		</linearGradient>
		<path class="st8" d="M-78.4,1108.1c-56.3-51.7-145.6-51.6-204.4-100.4c-31.8-26.4-51.4-64.5-80.1-94.2s-74.7-50.8-110.9-30.9
			c-36.2,19.9-43.2,68.6-68.8,101.1c-20.9,26.5-53.4,40.9-84.9,53.1c-31.5,12.2-64.4,24-88.8,47.4c-24.4,23.4-37.6,62.3-20.9,91.7
			c4.8,8.4,11.7,15.5,19.9,20.5c17.2,10.4,38.5,11.1,58.5,8.9c34.4-3.7,68-14.7,98-32.1c20,26.1,7.2,70.3,33,90.7
			c23.5,18.5,57.5,1.1,81.2-17.2c3.7-2.9,7.8-5.9,12.5-6.2c11.6-0.8,17.1,13.5,25.2,21.8c15.1,15.4,41.4,9.1,59.8-2.3
			s35.5-27.3,56.9-29.2c7.8-0.7,15.7,0.6,23.6,0.9c39.9,1.4,76.2-23.3,104.3-51.6c6.6-6.7,13.2-13.7,21.4-18.2
			c7.5-4.1,15.9-5.8,24.1-8.3c30.5-9.2,56.9-28.2,82.7-46.9c-9.3-4.7-20.2-6-30.3-3.6"/>
	</g>
	<g>
		
			<linearGradient id="SVGID_8_" gradientUnits="userSpaceOnUse" x1="3679.4495" y1="-709.8686" x2="3957.1309" y2="-709.8686" gradientTransform="matrix(-1 0 0 -1 3447.6309 687.8898)">
			<stop  offset="0" style="stop-color:#6CD6D2"/>
			<stop  offset="1" style="stop-color:#6CD6D2;stop-opacity:0"/>
		</linearGradient>
		<path class="st9" d="M-509.5,1230.4c12.6,27.4,34.1,50.6,60.5,65.1c37.5,20.7,85.4,25.3,113.7,57.5c3.1,3.6,6.1,7.7,6.7,12.4
			c1.8,13.9-15.9,21.7-29.9,21.5c-20.4-0.4-39.9-7.9-60.1-11c-20.1-3.2-43.2-0.9-56.9,14.2c-1.5,1.7-3,3.6-3.3,5.9
			c-0.4,2.9,1.2,5.7,3,8c9.6,11.7,26.4,13.6,41.2,17.1s31.4,12.3,32.2,27.5c0.9,15.6-15.2,26-28.5,34.1
			c-13.4,8.1-27.8,22.4-21.9,36.9c2.6,6.5,8.8,10.9,15,14.4c40.2,23.1,88.1,27.3,134.3,30.9c3.9,0.3,8,0.6,11.4-1.4
			c9.4-5.3,3.7-20.8-5.7-26c-9.5-5.2-21.4-5.9-29.6-13c-16.1-14-5.7-42,11.9-54.3c17.5-12.3,39.9-16.3,57.1-28.9
			c30.3-22.3,35.7-71.5,11-99.8c-12.6-14.5-30.6-22.8-47-32.9c-28.8-17.6-53.8-41.3-72.9-69.1"/>
	</g>
	<g>
		
			<linearGradient id="SVGID_9_" gradientUnits="userSpaceOnUse" x1="3181.5771" y1="370.9758" x2="3417.5901" y2="370.9758" gradientTransform="matrix(-1 0 0 -1 3447.6309 687.8898)">
			<stop  offset="0" style="stop-color:#6CD6D2"/>
			<stop  offset="1" style="stop-color:#6CD6D2;stop-opacity:0"/>
		</linearGradient>
		<path class="st10" d="M206.1,216.3c-4.9,3.9-10.8,5.7-16.2,8.7c-6.6,3.6-12.4,9.1-18.1,14.5c-13.1,12.4-26.2,24.8-39.3,37.1
			c-2.7,2.6-5.7,6-5,10c0.4,2.3,1.9,4,3.5,5.5c6.3,6.1,13.8,10.6,21.8,13c3.8,1.2,7.9,1.9,11.4,4s6.6,6,6.7,10.6
			c0.1,7.2-6.9,11.7-13.1,12.5c-6.2,0.8-12.8-0.5-18.5,2.5c-1.5,0.8-3.1,2-3.7,3.9c-1.1,3.2,0.8,6.7,2.9,9.1
			c5.5,6.4,12.8,10.4,19.9,14.2c26.7,14.3,53.4,28.7,80.1,43c11.4,6.1,24.2,14.1,27,28.2c3.2,16.2-8.2,30.6-15.5,44.9
			c-4.7,9.2-8,19.5-9.5,30.1c-16.2-0.1-31.4-14.6-34.5-32.9c-0.9-5.5-0.9-11.3-2.6-16.6c-3.1-9.6-11.3-15.6-19.1-20.7
			c-22.3-14.7-45-28.4-68.1-41.2c-10.2-5.6-20.8-11.3-28.2-21.1c-7.5-9.8-11-24.9-5.1-36c1.5-2.9,3.7-5.6,4.2-8.9
			c0.7-4.6-1.9-9.1-5.3-11.6s-7.4-3.6-11.3-4.9c-18.2-6.2-35.4-21.4-39.8-42.8c-0.7-3.3-1-6.8-0.1-9.9c1.8-5.9,7.7-9.1,13.1-8.9
			s10.5,3,15.4,5.8c1.5-7.6,10.8-9.2,17.1-6.3s11.9,8.4,18.7,9.1c7.2,0.8,14-4,19.4-9.6c6.7-7,12.1-15.5,17.5-23.9
			c5.9-9.2,11.8-18.4,17.8-27.7c1.2-1.9,2.5-3.9,3-6.3c0.6-2.7,0.1-5.4-0.3-8.1c-2-13.5-5.3-35.4,3.1-46.5c7.3-9.6,19-14,30.1-13.3
			c14.3,1,27.9,10.2,35.7,24c2.4,4.3,4.3,9.2,3.7,14.2c-1.1,9.7-7.5,15.8-8.4,25.8C215.6,200.5,214.3,209.7,206.1,216.3z"/>
	</g>
	<g>
		
			<linearGradient id="SVGID_10_" gradientUnits="userSpaceOnUse" x1="3102.9172" y1="568.4949" x2="3415.6655" y2="568.4949" gradientTransform="matrix(-1 0 0 -1 3447.6309 687.8898)">
			<stop  offset="0" style="stop-color:#6CD6D2"/>
			<stop  offset="1" style="stop-color:#6CD6D2;stop-opacity:0"/>
		</linearGradient>
		<path class="st11" d="M223.6,9.9c11.9,5.7,23.5,12.3,34.7,19.6c6.2,4.1,12.6,8.9,15.6,16.3c2.6,6.5,2.2,14,2.1,21.1
			c-0.2,17.6,2.1,35.7,10,50.7s22.2,26.4,37.5,25.7c6.9-0.3,15.4-2.3,19.6,4.1c3,4.7,1.5,11.6-1.9,15.8s-8.4,6.3-13.1,8.1
			c2.4,7.8,4.7,16.2,2.8,24.1c-2.4,10.1-11.2,16.5-20,19c-13.8,3.8-29-0.3-39.9-10.7c-3.1,6.7-6.3,13.5-11,18.9
			c-4.7,5.4-11.2,9.2-17.7,8.4c-6.6-0.8-12.7-7.2-12.7-14.8c-3.5,2.2-6.5,5.6-10.4,6.6c-5.5,1.4-11.2-2.5-14.4-7.9
			s-4.3-11.9-5.5-18.3c-9.9,6.1-17.8,16.2-28.1,21.7c-17.5,9.4-40.6,2.3-51.7-16c-5.5,9.7-17.5,13.6-26.6,8.6
			c-7.2-4-12-12.7-13.3-21.8s0.4-18.5,3.6-27c0.4-1,0.7-2,0.5-3c-0.5-2.2-3.2-2.2-5.2-1.7c-9.5,2.5-19.7,4.8-28.8,0.7
			c-9.1-4-15.8-17.1-11-26.8c-6.7-10-8.6-24.1-4.8-36.1S47.3,74.1,58,71.5c1.1-0.3,2.5-0.6,3-1.8c0.3-0.7,0.2-1.5,0.2-2.3
			C60.4,48.3,77.7,31.2,94,35c-3.6,2.6-0.8,9,2.4,12.3c4.8,4.9,10.2,9,15.9,12.2c1.1,0.6,2.3,1.2,3.5,1.1c1.5-0.1,2.9-1.2,4.1-2.3
			c3.5-3.2,6.8-6.6,10-10c4.8-5,9.6-9.9,14.3-14.9c4.9-5,9.8-10.1,15.3-14.1c18.6-13.2,41.9-12.2,63.7-10.9c3.8,0.2,9.2,2.9,7.7,7"
			/>
	</g>
	<g>
		
			<linearGradient id="SVGID_11_" gradientUnits="userSpaceOnUse" x1="4447.6675" y1="1942.3749" x2="5146.1182" y2="1942.3749" gradientTransform="matrix(-0.8705 0.4923 -0.4923 -0.8705 3194.1157 -528.4489)">
			<stop  offset="0" style="stop-color:#6CD6D2"/>
			<stop  offset="1" style="stop-color:#6CD6D2;stop-opacity:0"/>
		</linearGradient>
		<path class="st12" d="M-1925.1-136.4c58.5-2.4,117.1,29.4,147.1,79.6c21.1,35.4,36,84.6,76.8,90.6c15.2,2.3,30.6-2.8,45.9-3.7
			c35.9-2.1,72,20.9,85.2,54.4s2.6,74.9-25.1,97.9c8.6,14.3,30.5,8.2,46.4,13.4c21.5,7,28.4,36.6,18.4,56.8s-31.3,32.3-52.5,40.1
			c-31.4,11.7-65.2,16.8-98.7,15.1c17.6,35.8-2.5,82.5-37.6,101.5s-79.5,13.8-114.5-5.4c-12.8,30.3-31.7,65.2-64.5,67.7
			c-16.9,1.3-33-6.8-47.7-15.2c-45.2-25.7-87.9-56-127.1-90.1c-7.6-6.6-17.3-13.9-26.8-10.5c-4.5,1.6-7.8,5.4-11.1,8.9
			c-12.6,13.4-28,25-46,28.8s-38.7-1.7-49.3-16.8c-11.4-16.1-8.7-37.9-12.8-57.2c-8.9-41.5-48.3-68.3-72-103.5
			c-21.2-31.5-29.7-71.1-23.5-108.5c8.9-53.3,45.7-97.7,86-133.8s85.6-67,120.5-108.3c10.6-12.5,20.3-26.1,33.5-35.9
			c27.6-20.4,64.7-20.6,99-20c15.6,0.3,34.5,2.6,41,16.8c5.3,11.6,3.1,30.5,15.7,32.2"/>
	</g>
	<g>
		
			<linearGradient id="SVGID_12_" gradientUnits="userSpaceOnUse" x1="5061.6934" y1="-456.1272" x2="5803.6362" y2="-456.1272" gradientTransform="matrix(-1 0 0 -1 3447.6309 687.8898)">
			<stop  offset="0" style="stop-color:#6CD6D2"/>
			<stop  offset="1" style="stop-color:#6CD6D2;stop-opacity:0"/>
		</linearGradient>
		<path class="st13" d="M-1823.5,390.4c2.7,5.6,5.4,11.2,8.1,16.8c14.7,30.5,31.6,63.2,62.3,77.4c29.3,13.6,72.4,13,81.7,43.9
			c6.1,20.3-9.5,41.7-28.8,50.4s-41.2,8.3-62.3,9.2c-10.7,0.5-22,1.6-30.6,7.9c-23.2,17-10.4,53,0.3,79.7
			c44.5,111.4-0.2,251.4-101.1,316.4c-58.4,37.6-134.6,54.7-172.2,113.1c-21.3,33-25.8,76.2-12,113c25,66.2,98.7,98.9,167,117.4
			c36.1,9.8,73.7,18,104.4,39.3c32.6,22.6,54.9,60.2,59.6,99.6c3.9,32.5,9.3,85.6-19.9,107.5c-11,8.3-25.2,12.6-34.2,23
			c-8.1,9.3-10.9,22.8-7.2,34.5c37.8,5.1,76.8,3.3,113.6,13.4s73,35.9,79.9,73.4c1.8,10,1.1,21.4-6.1,28.6
			c-4.7,4.7-11.4,6.8-17.8,8.7c-40.1,11.9-84.7,23.5-122.4,5.3c-7.8-3.7-15.2-8.7-23.8-9.6c-20.2-2-35.1,19.6-38.7,39.6
			s-1.3,41.5-10,59.8c-17.5,36.9-67.3,41.6-108.1,41.1c-21.5-0.3-43.4-0.7-63.7-7.7c-23.8-8.3-43.5-25.1-65.7-36.9
			c-35.2-18.7-75.8-24.3-112.1-40.7c-6.4-2.9-12.8-6.3-17.1-11.8c-5.2-6.8-6.4-15.7-7.4-24.2c-5.7-48.1-8.8-104,26.3-137.5
			c17.6-16.8,41.7-24.5,62.9-36.3s41.5-31.7,40.7-56c-0.3-8.6-2.7-18.9,3.9-24.5c4.2-3.6,10.3-3.4,15.8-3c36.3,2.4,72.7,4.8,109,7.2
			c7-29.9,11.5-67.5-13.3-85.6c-23.2-17-37.8-37.8-61.2-53.5c-39.1-26.3-86.2-45.4-127.9-67.5c-23.8-12.6-47.9-25.4-68.9-42.2
			c-33.2-26.5-57.7-62.2-81-97.7c-33.4-50.8-66.7-110.9-50.1-169.4c14-49.4,61-83.1,109.6-99.7s100.7-20.2,150.6-32.4
			s100.7-35.6,127.4-79.5c12.7-20.9,19.1-44.9,24.6-68.7c10.3-44.7,18-90,23.1-135.6c-33.6,14.1-69.5,22.5-105.8,24.8
			c-7.6,0.5-15.7,0.6-22.1-3.4c-8.5-5.2-11.7-15.7-14.3-25.3c-4.2-15.5-8.4-32.1-3.4-47.4c7.9-24.2,34.8-35.7,52.1-54.4
			c16.6-17.9,24.3-43.7,20.1-67.7c10.9-4.8,21.2,6.7,30.5,14.1c20.4,16.3,50.7,14.5,73.9,2.6s40.9-32,58-51.7"/>
	</g>
	<g>
		
			<linearGradient id="SVGID_13_" gradientUnits="userSpaceOnUse" x1="2786.1257" y1="341.4597" x2="3158.8127" y2="341.4597" gradientTransform="matrix(-1 0 0 -1 3447.6309 687.8898)">
			<stop  offset="0" style="stop-color:#6CD6D2"/>
			<stop  offset="1" style="stop-color:#6CD6D2;stop-opacity:0"/>
		</linearGradient>
		<path class="st14" d="M573.7,150c18.2,8.5,39.7,12.2,60.5,10.3c10.2-0.9,21.5-3.9,25.7-11.6c3.6-6.5,0.7-14.3-4.3-20.1
			c-5-5.9-11.8-10.4-17.3-15.9c-12.4-12.2-17.8-28-27.6-41.7s-27.4-26.1-46.4-23.2c-13.4,2-23.5,11-32.5,19.4
			c-16.8,15.7-34.9,31.9-59,38.8c-9.2,2.6-20.7,5.1-22.9,12.9c-2.4,8.3,8.1,15.1,17.6,18.7c23.2,8.8,48.8,13.3,74.3,13
			c4.2,0,9.5,0.3,11,3.5c0.8,1.6,0.3,3.4-0.4,5c-7.4,16.8-35.7,20.2-48.2,34.9c-7,8.2-8.1,18.8-11.9,28.3c-0.8,2-1.9,4.2-4.3,5.1
			c-3,1.2-6.5-0.3-9.7-0.8c-5.7-0.9-11.9,1.4-15,5.4c-3,4.1-2.7,9.7,0.9,13.4c3.7,3.9,10,5.6,13.5,9.6c6.9,7.7,0.2,18.2-2.1,27.6
			c-3.4,14,3.9,28.3,13.3,40.3s21.2,22.9,28.2,35.9c3.6,6.7,11.1,15.4,13.3,22.1c2.6,7.6-3.5,16.4-7.7,23.2
			c-10,16-25.2,29.9-43.8,39.4c-27.6,14.1-62.3,18.6-93.8,12c-0.6,4.9-6.1,8.8-6.6,13.7c-0.9,8.3,11.7,12.7,21.7,14.3
			c10,1.6,22.6,5.7,22.1,14c-0.4,7.4-11.1,11-19.9,12.8c-18.1,3.7-36.2,7.2-53.3,13.3c-14.5,5.2-28,12.1-41.4,19
			c-9.7,5-20.8,12.4-18.6,21.6c1.6,6.9,10,11,17.1,14.8s14.6,9.7,13,16.6c-0.6,2.6-2.5,5-2.6,7.7c-0.2,5.6,7.2,9.2,13.6,11
			c37.7,10.8,80.8,8,115.5,24.4c2.2,1,4.4,2.2,6.9,2.2s4.7-1,7-1.8c12.7-4.3,26.9,0.3,39.6,4.5c7.4,2.5,18.7,3.4,20.7-3
			c-14.5-0.8-22.8-13.3-34.2-20.7c-10.7-6.9-24.6-9.2-37.6-12.6c-14.7-3.9-28.8-9.3-41.8-16.2c-5.8-3.1-11.9-7.3-11.9-12.9
			c0-8.5,13-12.2,23.3-13.2c12.9-1.2,26.2-1.9,37.9-6.5s21.8-14.1,21-24.7c-0.7-10.3-10.7-21.9-2.5-29.8c5.4-5.2,15.6-4.5,23.4-2
			c7.8,2.6,15.2,6.6,23.6,6.8c8.4,0.1,17.5-6.5,14.3-12.8c-1.7-3.3-6.1-5.2-8.5-8.3c-3.7-4.7-1.8-11.2,2.2-15.7
			c4.1-4.5,9.9-7.6,15.1-11.3c18.2-12.9,27.8-33.4,24.8-53c-0.7-4.9-2.2-9.8-1.7-14.7c0.4-4.4,2.4-8.6,3.1-13
			c1.5-10.6-5.2-20.7-11.2-30.2c-7.6-12.1-17.1-25.7-20.6-39c-3.7-13.9-0.6-29.6,1.7-43.5c7.6-4.3,17.7-2.8,26.8-4.1
			s18.7-9,13.8-15.4c-2-2.6-5.8-3.8-9.2-5.2c-14.1-5.9-24.2-17.9-25.8-30.9s5.2-26.4,17.5-34.6c5.5-3.7,12.1-6.4,16.5-11
			s5.3-12.2-0.4-15.7"/>
	</g>
	<g>
		
			<linearGradient id="SVGID_14_" gradientUnits="userSpaceOnUse" x1="3596.9756" y1="-913.963" x2="5178.8145" y2="-913.963" gradientTransform="matrix(-1 0 0 -1 3447.6309 687.8898)">
			<stop  offset="0" style="stop-color:#6CD6D2"/>
			<stop  offset="1" style="stop-color:#6CD6D2;stop-opacity:0"/>
		</linearGradient>
		<path class="st15" d="M-1707.2,1443.8c-14.2-25.9-28.9-54.9-22.4-83.8c4.8-21.5,20.7-38.6,35.9-54.6
			c14.8-15.5,29.6-31.1,44.3-46.6c10.5-11.1,21.8-22.6,36.5-26.8c14.7-4.2,33.6,2.2,37.4,17c2.5,9.6-1.8,19.5-4.6,29.1
			c-11.5,39.6,6.1,85.9,41,107.9c15.1,9.5,32.6,14.7,48,23.6c16.7,9.7,30.6,23.5,44.3,37.2c28.5,28.6,140.5,180.5,186.3,145
			c15.7-12.2,16.9-34.9,20.9-54.4c11.6-57.1,61-104.6,118.5-113.9c15.2-2.5,32.6-1.7,43.3,9.4c11.5,12,10.4,30.9,9.2,47.5
			c-2.3,31.5-1.3,65.9,18.2,90.8c21.1,27,58.9,35.5,93.1,32.4c34.1-3.1,66.6-15.7,100-23.3c53-12,108-11.3,162.3-8.2
			c180.6,10.3,369.2,50.6,504,171.3c19.1,17.1,37.8,37.5,41.1,62.8c5,37.6-24.7,70-52.3,96c-20.9,19.7-42.4,39.5-68.4,51.5
			c-32.3,14.8-68.8,16.2-104.3,17.4c-85.5,2.9-172.6,5.5-255.1-17.3c-14.7-4.1-32-12.4-32.6-27.7c-0.6-14.7,14.6-24.2,27.5-31.2
			c26-14.1,51.9-31.9,65.1-58.4c13.2-26.5,8.9-63.7-16.3-79.3c-11.3-7-24.9-8.8-38.1-10.5c-76.4-9.7-152.9-19.4-229.3-29.1
			c-5.9-0.7-12.1-1.5-17.6,0.8c-9.7,4-13.4,15.4-17.2,25.2c-14.5,37-46.1,66.9-83.9,79.3c-37.8,12.3-81,6.9-114.5-14.5
			c-6.2-4-12.4-8.8-15.3-15.6c-3.2-7.7-1.6-16.4-0.4-24.6c3.5-24.3,2.7-50.8-11.3-71s-44.4-30.1-64-15.4
			c-29.6,22.2-14.1,77.5-44.7,98.3c-6.3,4.3-13.9,6.4-21.3,8.2c-70.5,16.6-147.5,6.8-209.9-30c-68.1-40.2-90.3-96.6-120.6-164.5
			c-13.6-30.4-33.6-38.9-60-58.2C-1667.8,1511.5-1687.8,1479.2-1707.2,1443.8z"/>
	</g>
	<g id="Слой_5">
		<g>
			<g>
				<path class="st1" d="M1362.4-380.5c5.8,0,5.8-9,0-9S1356.6-380.5,1362.4-380.5L1362.4-380.5z"/>
			</g>
		</g>
		<g>
			<g>
				<path class="st1" d="M1226.1-271.4c5.8,0,5.8-9,0-9C1220.3-280.4,1220.3-271.4,1226.1-271.4L1226.1-271.4z"/>
			</g>
		</g>
		<g>
			<g>
				<path class="st1" d="M761.1-298.9c5.8,0,5.8-9,0-9S755.3-298.9,761.1-298.9L761.1-298.9z"/>
			</g>
		</g>
		<g>
			<g>
				<path class="st1" d="M1013.9-422.9c5.8,0,5.8-9,0-9C1008.2-431.9,1008.1-422.9,1013.9-422.9L1013.9-422.9z"/>
			</g>
		</g>
		<g>
			<g>
				<path class="st1" d="M610.9-286.6c5.8,0,5.8-9,0-9C605.1-295.6,605.1-286.6,610.9-286.6L610.9-286.6z"/>
			</g>
		</g>
		<g>
			<g>
				<path class="st1" d="M1312.6-317c5.8,0,5.8-9,0-9C1306.8-326,1306.8-317,1312.6-317L1312.6-317z"/>
			</g>
		</g>
		<g>
			<g>
				<path class="st1" d="M1192.7-456.3c5.8,0,5.8-9,0-9C1186.9-465.3,1186.9-456.3,1192.7-456.3L1192.7-456.3z"/>
			</g>
		</g>
		<g>
			<g>
				<path class="st1" d="M1688.4-368.5c5.8,0,5.8-9,0-9S1682.6-368.5,1688.4-368.5L1688.4-368.5z"/>
			</g>
		</g>
		<g>
			<g>
				<path class="st1" d="M1595.8-419.9c5.8,0,5.8-9,0-9S1590-419.9,1595.8-419.9L1595.8-419.9z"/>
			</g>
		</g>
		<g>
			<g>
				<path class="st1" d="M1418.7-468.5c5.8,0,5.8-9,0-9C1412.9-477.5,1412.9-468.5,1418.7-468.5L1418.7-468.5z"/>
			</g>
		</g>
		<g>
			<g>
				<path class="st1" d="M1212.6-359.5c5.8,0,5.8-9,0-9C1206.8-368.5,1206.8-359.5,1212.6-359.5L1212.6-359.5z"/>
			</g>
		</g>
		<g>
			<g>
				<path class="st1" d="M2010.9-507.8c5.8,0,5.8-9,0-9S2005.1-507.8,2010.9-507.8L2010.9-507.8z"/>
			</g>
		</g>
		<g>
			<g>
				<path class="st1" d="M1998.8-389.6c5.8,0,5.8-9,0-9S1993-389.6,1998.8-389.6L1998.8-389.6z"/>
			</g>
		</g>
		<g>
			<g>
				<path class="st1" d="M1774.5-441.1c5.8,0,5.8-9,0-9C1768.8-450.1,1768.7-441.1,1774.5-441.1L1774.5-441.1z"/>
			</g>
		</g>
		<g>
			<g>
				<path class="st1" d="M2204.9-398.7c5.8,0,5.8-9,0-9C2199.1-407.7,2199-398.7,2204.9-398.7L2204.9-398.7z"/>
			</g>
		</g>
		<g>
			<g>
				<path class="st1" d="M2106.5-404.9c5.8,0,5.8-9,0-9S2100.7-404.9,2106.5-404.9L2106.5-404.9z"/>
			</g>
		</g>
		<g>
			<g>
				<path class="st1" d="M1885.3-359.5c5.8,0,5.8-9,0-9S1879.5-359.5,1885.3-359.5L1885.3-359.5z"/>
			</g>
		</g>
		<g>
			<g>
				<path class="st1" d="M1821.7-474.6c5.8,0,5.8-9,0-9C1815.9-483.6,1815.9-474.6,1821.7-474.6L1821.7-474.6z"/>
			</g>
		</g>
		<g>
			<g>
				<path class="st1" d="M1503.5-320.1c5.8,0,5.8-9,0-9S1497.7-320.1,1503.5-320.1L1503.5-320.1z"/>
			</g>
		</g>
		<g>
			<g>
				<path class="st1" d="M1204.5-451.6c5.8,0,5.8-9,0-9S1198.7-451.6,1204.5-451.6L1204.5-451.6z"/>
			</g>
		</g>
		<g>
			<g>
				<path class="st1" d="M2224.7-304.9c5.8,0,5.8-9,0-9S2218.9-304.9,2224.7-304.9L2224.7-304.9z"/>
			</g>
		</g>
		<g>
			<g>
				<path class="st1" d="M1004.9-241.1c5.8,0,5.8-9,0-9C999.1-250.1,999-241.1,1004.9-241.1L1004.9-241.1z"/>
			</g>
		</g>
		<g>
			<g>
				<path class="st1" d="M-1971.2-419.9c5.8,0,5.8-9,0-9S-1977-419.9-1971.2-419.9L-1971.2-419.9z"/>
			</g>
		</g>
		<g>
			<g>
				<path class="st1" d="M-1824.8-184.7c5.8,0,5.8-9,0-9C-1830.5-193.7-1830.6-184.7-1824.8-184.7L-1824.8-184.7z"/>
			</g>
		</g>
		<g>
			<g>
				<path class="st1" d="M-1630.8-33.2c5.8,0,5.8-9,0-9C-1636.6-42.2-1636.6-33.2-1630.8-33.2L-1630.8-33.2z"/>
			</g>
		</g>
		<g>
			<g>
				<path class="st1" d="M-1630.8-281.7c5.8,0,5.8-9,0-9C-1636.6-290.7-1636.6-281.7-1630.8-281.7L-1630.8-281.7z"/>
			</g>
		</g>
		<g>
			<g>
				<path class="st1" d="M-1770.2-399.9c5.8,0,5.8-9,0-9S-1776-399.9-1770.2-399.9L-1770.2-399.9z"/>
			</g>
		</g>
		<g>
			<g>
				<path class="st1" d="M-1961.1-263.5c5.8,0,5.8-9,0-9S-1966.9-263.5-1961.1-263.5L-1961.1-263.5z"/>
			</g>
		</g>
		<g>
			<g>
				<path class="st1" d="M-1500.5-396.9c5.8,0,5.8-9,0-9S-1506.3-396.9-1500.5-396.9L-1500.5-396.9z"/>
			</g>
		</g>
		<g>
			<g>
				<path class="st1" d="M-1488.4-196.9c5.8,0,5.8-9,0-9C-1494.2-205.9-1494.2-196.9-1488.4-196.9L-1488.4-196.9z"/>
			</g>
		</g>
		<g>
			<g>
				<path class="st1" d="M836.1-266.6c5.8,0,5.8-9,0-9S830.3-266.6,836.1-266.6L836.1-266.6z"/>
			</g>
		</g>
		<g>
			<g>
				<path class="st1" d="M-1312.6-15c5.8,0,5.8-9,0-9S-1318.4-15-1312.6-15L-1312.6-15z"/>
			</g>
		</g>
		<g>
			<g>
				<path class="st1" d="M-1285.4,142.5c5.8,0,5.8-9,0-9C-1291.2,133.5-1291.2,142.5-1285.4,142.5L-1285.4,142.5z"/>
			</g>
		</g>
		<g>
			<g>
				<path class="st1" d="M-1036.9,88c5.8,0,5.8-9,0-9C-1042.7,79-1042.7,88-1036.9,88L-1036.9,88z"/>
			</g>
		</g>
		<g>
			<g>
				<path class="st1" d="M-1109.6,321.3c5.8,0,5.8-9,0-9S-1115.4,321.3-1109.6,321.3L-1109.6,321.3z"/>
			</g>
		</g>
		<g>
			<g>
				<path class="st1" d="M-1242.9,306.2c5.8,0,5.8-9,0-9C-1248.7,297.2-1248.7,306.2-1242.9,306.2L-1242.9,306.2z"/>
			</g>
		</g>
		<g>
			<g>
				<path class="st1" d="M-776.3,106.2c5.8,0,5.8-9,0-9S-782.1,106.2-776.3,106.2L-776.3,106.2z"/>
			</g>
		</g>
		<g>
			<g>
				<path class="st1" d="M-606.6,409.2c5.8,0,5.8-9,0-9C-612.4,400.2-612.4,409.2-606.6,409.2L-606.6,409.2z"/>
			</g>
		</g>
		<g>
			<g>
				<path class="st1" d="M-600.5,548.6c5.8,0,5.8-9,0-9S-606.3,548.6-600.5,548.6L-600.5,548.6z"/>
			</g>
		</g>
		<g>
			<g>
				<path class="st1" d="M-773.2,591c5.8,0,5.8-9,0-9S-779,591-773.2,591L-773.2,591z"/>
			</g>
		</g>
		<g>
			<g>
				<path class="st1" d="M-361.1,536.5c5.8,0,5.8-9,0-9S-366.9,536.5-361.1,536.5L-361.1,536.5z"/>
			</g>
		</g>
		<g>
			<g>
				<path class="st1" d="M-518.7,742.5c5.8,0,5.8-9,0-9S-524.5,742.5-518.7,742.5L-518.7,742.5z"/>
			</g>
		</g>
		<g>
			<g>
				<path class="st1" d="M-330.8-115c5.8,0,5.8-9,0-9C-336.6-124-336.6-115-330.8-115L-330.8-115z"/>
			</g>
		</g>
		<g>
			<g>
				<path class="st1" d="M1836.1-366.6c5.8,0,5.8-9,0-9C1830.3-375.6,1830.3-366.6,1836.1-366.6L1836.1-366.6z"/>
			</g>
		</g>
		<g>
			<g>
				<path class="st1" d="M-1721.7-24.1c5.8,0,5.8-9,0-9S-1727.5-24.1-1721.7-24.1L-1721.7-24.1z"/>
			</g>
		</g>
		<g>
			<g>
				<path class="st1" d="M-1952,651.6c5.8,0,5.8-9,0-9S-1957.8,651.6-1952,651.6L-1952,651.6z"/>
			</g>
		</g>
		<g>
			<g>
				<path class="st1" d="M-1712.6,460.7c5.8,0,5.8-9,0-9S-1718.4,460.7-1712.6,460.7L-1712.6,460.7z"/>
			</g>
		</g>
		<g>
			<g>
				<path class="st1" d="M-664.2,12.2c5.8,0,5.8-9,0-9C-669.9,3.2-670,12.2-664.2,12.2L-664.2,12.2z"/>
			</g>
		</g>
	</g>
	<g>
		
			<linearGradient id="SVGID_15_" gradientUnits="userSpaceOnUse" x1="2442.6665" y1="414.4006" x2="2591.5852" y2="414.4006" gradientTransform="matrix(-1 0 0 -1 3447.6309 687.8898)">
			<stop  offset="0" style="stop-color:#6CD6D2"/>
			<stop  offset="1" style="stop-color:#6CD6D2;stop-opacity:0"/>
		</linearGradient>
		<path class="st16" d="M912.4,220.4c8.6-1.8,17.3,1.6,25.5,4.9c9.9,4,20.2,8.3,27.5,16.5c9.9,11.1,13.5,28.3,25.7,36.5
			c6.1,4.1,15.2,8.1,13.7,15.6c-0.6,3.2-3.2,5.4-5.5,7.4c-7.9,6.7-17.7,13.8-27.3,10.4c-2.1-0.8-4.2-2-6.4-2.3
			c-5.8-0.5-9.8,5.8-14,10.1c-10.8,11.3-30.8,9.9-40.2-2.7c-1-1.3-1.9-2.7-3.4-3.2c-2.1-0.7-4.1,0.8-5.9,2.1
			c-11.9,8.3-28.7,7.8-40.2-1.2c-2.4-1.9-4.7-4.3-5.5-7.4c-1.8-6.7,3.7-12.8,6.6-19c7.1-15.4-0.6-36.7,10.3-49.3
			c3.1-3.6,7.3-5.8,11.5-7.8c10.6-5,21.7-8.8,33.1-11.2"/>
	</g>
	<g>
		
			<linearGradient id="SVGID_16_" gradientUnits="userSpaceOnUse" x1="2461.6631" y1="267.5951" x2="2552.9199" y2="267.5951" gradientTransform="matrix(-1 0 0 -1 3447.6309 687.8898)">
			<stop  offset="0" style="stop-color:#6CD6D2"/>
			<stop  offset="1" style="stop-color:#6CD6D2;stop-opacity:0"/>
		</linearGradient>
		<path class="st17" d="M942.8,309.8c4.1-13.1,19.5-16.6,26.5-27.5c2.9-4.5,5.9-10.5,3.1-15.1c-2.7-4.5-9.1-4.3-13.9-2.6
			c-22.5,7.9-22,30.4-35.7,47.4c-6.2,7.7-12.1,17.9-8.8,27.4c1.3,3.7,3.5,8.6,0.5,10.8c-1,0.7-2.3,0.8-3.6,0.9
			c-5.1,0.3-10.5,1.9-13.9,6s-3.5,11.4,0.8,14.5c4.8,3.4,12,0.1,16.7,3.6c4.9,3.8,3.4,11.8,4.4,18.1c1.8,11.5,12.8,18.4,22.2,24.4
			s19.6,15.2,18.3,26.8c-0.7,6.7-5.1,12.1-8.7,17.7c-15.3,23.7-16.6,56.8-3.3,81.9c4.1,7.7,9.6,14.9,11.3,23.6
			c0.3,1.7,0.5,3.4,1.2,4.9c1.4,2.9,4.6,4.4,7.7,4.5c10.8,0.3,17-13.9,15.3-25.2s-8.1-21.2-10.7-32.3c-4.3-18.3,2.2-37.3,7.6-55.2
			c5.4-18,9.6-38.4,1.2-55.1c-6.2-12.4-18.2-20.2-27-30.7c-3.4-4.1-6.5-8.9-7.3-14.3s1.3-11.6,6-14.1c2.9-1.5,6.4-1.4,9.3-2.8
			c4.4-2.1,7-7.5,6.1-12.5s-5.4-8.9-10.2-9c-2.4,0-4.7,0.8-7.1,0.5C944.3,325.8,940.7,316.6,942.8,309.8z"/>
	</g>
	<g>
		
			<linearGradient id="SVGID_17_" gradientUnits="userSpaceOnUse" x1="4261.4751" y1="-246.5784" x2="5699.6807" y2="-246.5784" gradientTransform="matrix(-1 0 0 -1 3447.6309 687.8898)">
			<stop  offset="0" style="stop-color:#6CD6D2"/>
			<stop  offset="1" style="stop-color:#6CD6D2;stop-opacity:0"/>
		</linearGradient>
		<path class="st18" d="M-1755.3,531.3c7.7-20.7,28.9-34.1,50.5-38.5c21.7-4.4,44.1-1.2,66,2c134.7,20.3,278.5,51.9,369.8,153.1
			c68,75.4,102.3,185.1,192,232.7c70.7,37.5,159.4,26.1,230.4,62.9c8.2,4.2,16.3,9.3,21.9,16.7c5.6,7.3,8.3,16.5,9.7,25.6
			c8.7,55.6-32.8,114.3-88.1,124.7c-8.3,1.6-17,2.3-24.1,6.8c-11.5,7.3-15,22.1-18.9,35.1c-23.1,76.8-93.9,137-173.4,147.5
			c-50.1,6.7-102.4-4.8-150.8,9.6c-27.6,8.2-52.2,24.3-78.1,36.9c-31,15.1-64.4,25.2-98.5,30c-22.4,3.1-46.7,3.6-66.1-8.1
			c-42.3-25.6-40.2-94.3-82.1-120.5c-32.4-20.2-74.7-5.3-108.7,12c-34.1,17.2-72.4,37-108.6,24.8c-11.4-3.9-21.6-10.7-33.1-14.3
			c-33.1-10.3-67.4,8.3-101.2,16.1c-46.5,10.6-98.1-0.9-134.1-32.1c-36.1-31.2-55-81.9-45.8-128.7c3.4-17.3,10.3-34.1,11.3-51.7
			s-6.1-37.6-22.4-44.3c-11.9-4.9-25.5-1.7-38.3-3.2c-44.3-5.1-62.1-58.8-70-102.6c-6.2-34.3-11.9-72.1,5.9-102.1
			c21.7-36.5,69-47,111-53.3c10.3-1.6,21.2-3,31,0.7c11.5,4.4,19.2,15.3,29.5,22.2c27.3,18.2,63.8,4.7,93.6-9.3
			c56.9-26.6,119.7-60,137.1-120.3c4.7-16.4,5.7-34.2,14.4-48.9c9.8-16.6,27.6-26.5,42.6-38.6s28.6-30.4,24.2-49.2"/>
	</g>
	<g>
		
			<linearGradient id="SVGID_18_" gradientUnits="userSpaceOnUse" x1="3145.4827" y1="431.9848" x2="3294.8716" y2="431.9848" gradientTransform="matrix(-0.9621 0.2727 -0.2727 -0.9621 3452.2617 -116.0899)">
			<stop  offset="0" style="stop-color:#6CD6D2"/>
			<stop  offset="1" style="stop-color:#6CD6D2;stop-opacity:0"/>
		</linearGradient>
		<path class="st19" d="M226.4,287.8c12.6,1.4,25.1,6.4,35.9,14.4c4.2,3.1,8.1,6.6,12.4,9.5c4.9,3.3,10.1,5.6,15.6,7
			c6.8,1.7,14.9,2.8,18.3,9.6c1.9,3.8,1.7,8.5,0,12.2c-1.6,3.7-4.5,6.5-7.5,8.8c-1.2,0.9-2.5,1.8-3.4,3.1c-1.2,1.8-1.4,4.2-1.7,6.5
			c-0.7,7.1-1.7,14.3-5.1,20.2s-9.7,10.1-16,8.4c1.1,5.6-2.6,11.1-7.4,12.6s-10.2-0.3-14.6-3.5s-7.9-7.7-11.3-12.1
			c-3.2,6.6-10.5,10.1-17.4,8.9s-13.2-6.7-16.6-13.7c-3.2,4.8-9.8,4.2-15.3,2.8c-5.6-1.4-11.1-3.2-16.5-5.3
			c-2.1-0.8-4.4-1.9-5.5-4.2c-0.6-1.4-0.6-3-1.3-4.3c-1-2.3-3.4-3.4-4.9-5.3c-2.4-3.1-2.2-7.8-0.5-11.1s4.8-5.5,7.7-7.5
			c1.2-0.8,2.5-1.7,3.1-3.1c0.7-1.6,0.5-3.5,0.3-5.2c-0.5-6.6,0.9-13.3,3.9-18.7c4.2-7.6,11.1-12.7,18.1-17
			c9.9-6,20.4-10.9,31.3-14.5"/>
	</g>
	<g>
		
			<linearGradient id="SVGID_19_" gradientUnits="userSpaceOnUse" x1="4128.4619" y1="-890.1609" x2="4795.3218" y2="-890.1609" gradientTransform="matrix(-1 0 0 -1 3447.6309 687.8898)">
			<stop  offset="0" style="stop-color:#6CD6D2"/>
			<stop  offset="1" style="stop-color:#6CD6D2;stop-opacity:0"/>
		</linearGradient>
		<path class="st20" d="M-849.1,1237.4c7.4,28.9-9.9,58.2-29.7,80.5s-43.4,42.8-53.1,71c-13.8,40,4.5,83.7,27.1,119.4
			c13.9,21.9,15.5,35.9,16.5,60c0.8,20.4-3.4,42.5,18.3,56.9c11.4,7.5,26,7.4,39.7,7.1c24.4-0.6,48.7-1.3,73.1-1.9
			c15.3-0.4,33,0.2,42.6,12.2c12.1,15,2.2,39.3-14.6,48.8s-37.4,8.5-56.7,7.2c-10.4,20.6,12.3,43.8,34.9,48.8
			c22.5,5,47,0.6,68.3,9.4c7.9,27.3-10.3,56.7-34.8,71c-24.6,14.3-54,16.9-82.3,18.8c-83.6,5.7-167.4,8.1-251.2,7.3
			c-24.7-0.2-52.7,0.6-68.9,19.2c-6.3,7.2-10,16.3-16.3,23.5c-15.9,18.5-43.5,20.3-67.9,20.7c-24,0.4-48,0.8-72,1.3
			c-15.1,0.3-30.9,0.4-44.2-6.8c-19.5-10.5-28.4-34.6-27.3-56.7s10.5-42.8,19.6-63c2.7-5.9,5.7-12.2,11.3-15.4
			c9.2-5.4,21.2-0.5,31.5-3.2s17-12.3,24.3-20c41.6-43.7,112.3-33,171.8-22.7c5.8,1,12.5,1.7,16.7-2.3c3.8-3.6,4.1-9.5,3.8-14.8
			c-1.4-29.5-9-58.8-22.2-85.2c-2.4-4.8-5-10.4-2.9-15.3c1.9-4.3,6.7-6.4,11.2-7.8c18.8-6.2,38.8-8.9,58.6-7.8"/>
	</g>
	<g>
		<g>
			
				<linearGradient id="SVGID_20_" gradientUnits="userSpaceOnUse" x1="-84.8355" y1="759.0898" x2="-81.9376" y2="759.0898" gradientTransform="matrix(1 0 0 -1 0 687.8898)">
				<stop  offset="0" style="stop-color:#6CD6D2"/>
				<stop  offset="1" style="stop-color:#6CD6D2;stop-opacity:0"/>
			</linearGradient>
			<path class="st21" d="M-83.4-69.7c1.9,0,1.9-3,0-3S-85.3-69.7-83.4-69.7L-83.4-69.7z"/>
		</g>
	</g>
	<g>
		
			<linearGradient id="SVGID_21_" gradientUnits="userSpaceOnUse" x1="-1951.4055" y1="493.546" x2="-1561.6349" y2="493.546" gradientTransform="matrix(1 0 0 -1 0 687.8898)">
			<stop  offset="0" style="stop-color:#763FF5"/>
			<stop  offset="8.104095e-02" style="stop-color:#7248F2"/>
			<stop  offset="0.2158" style="stop-color:#6862E9"/>
			<stop  offset="0.3876" style="stop-color:#578BDB"/>
			<stop  offset="0.5674" style="stop-color:#43BEC9"/>
			<stop  offset="0.8652" style="stop-color:#E828CB"/>
			<stop  offset="0.9944" style="stop-color:#FF1E44"/>
		</linearGradient>
		<path class="st22" d="M-1900.1-129.6c52.9,11.6,94.9,53.2,121.7,100.3c17,29.9,34.1,66.7,67.9,72.9c40.7,7.5,84.8-35.2,119.8-13.1
			c14.9,9.4,21.4,27.7,25.5,44.8c4.3,17.8,6.6,38.3-4.4,53c-9,12.1-24.6,16.9-37.5,24.8s-24,24.1-16.9,37.4
			c4.6,8.5,14.7,12,23.2,16.7c27.5,15.3,41,51.8,30.2,81.3c-5.2,14.2-15.1,26.5-18,41.3c-3.2,16.6,2.9,33.4,4.4,50.2
			c3.5,38.9-20.6,78.7-56.7,93.6c-6.8,2.8-15.3,4.5-20.8-0.4c-3.8-3.4-4.8-8.9-5.3-14c-3.3-32.7,3.3-65.7,1.5-98.5
			s-15-68.5-44.7-82.6c-15.2-7.2-37.6-5.1-43.5,10.7c-5.5,14.9,7,29.7,13.5,44.2c10.8,24.1,5.1,52-0.9,77.7
			c-4.5,19.3-8.9,38.5-13.4,57.8c-4.3,18.3-10.4,39.1-27.5,47c-26.2,12.1-54.6-17.4-58.4-46s5.8-57.7,2.4-86.3
			c-3.4-28.7-30.5-58.9-57.2-48.1c-6.1,2.5-11.4,6.9-17.8,8.7c-16.2,4.7-33-9.5-37-25.9c-4-16.3,1.2-33.4,7.3-49.1
			c25.6-66.1,67.3-133.3,51.5-202.4c-8.9-39-35.2-71.7-48.8-109.3c-6.6-18.3-10-38.7-3.3-56.9s26.2-32.7,45.1-28.5"/>
		<g>
			
				<linearGradient id="SVGID_22_" gradientUnits="userSpaceOnUse" x1="-1952.1295" y1="493.2902" x2="-1561.1882" y2="493.2902" gradientTransform="matrix(1 0 0 -1 0 687.8898)">
				<stop  offset="0" style="stop-color:#763FF5"/>
				<stop  offset="8.104095e-02" style="stop-color:#7248F2"/>
				<stop  offset="0.2158" style="stop-color:#6862E9"/>
				<stop  offset="0.3876" style="stop-color:#578BDB"/>
				<stop  offset="0.5674" style="stop-color:#43BEC9"/>
				<stop  offset="0.8652" style="stop-color:#E828CB"/>
				<stop  offset="0.9944" style="stop-color:#FF1E44"/>
			</linearGradient>
			<path class="st23" d="M-1900.5-128.1c36,8.1,67,30,91,57.5c12.1,13.9,22.4,29.1,31.4,45.2c8,14.3,15.7,29,25.8,42.1
				c9.2,12,20.8,22.6,35.5,27.1c15,4.6,30.7,1.7,45.4-2.7c29.3-8.9,68.8-29.9,91.7,2.4c10.3,14.5,15.2,35.1,16.4,52.6
				c0.7,10-0.4,20.5-5.8,29.2c-5.3,8.5-13.9,13.6-22.6,18.2c-14.2,7.5-30.6,15.3-35.1,32.3c-1.9,6.9-0.5,14.2,4.2,19.7
				c5.5,6.4,13.9,9.4,21.1,13.4c14.8,8.3,25.5,22.8,30.3,39c5.3,17.9,2.6,35.3-5.8,51.8c-4.2,8.3-9.1,16.4-11.8,25.4
				c-2.9,9.7-2.4,19.8-0.9,29.7c1.7,11,4.4,21.8,4.4,33c0,8.8-1.3,17.5-3.8,25.8c-5.1,17-15.1,32.6-28.5,44.3
				c-10.9,9.5-43.2,30.8-47.5,5c-3.8-22.5-0.5-46.2,0.8-68.8c1-19.2,1.3-38.5-3.1-57.3c-6.5-28.1-25.9-61.7-58.2-63.5
				c-12.9-0.7-27.3,4.8-30.3,18.7c-3.9,18,12.6,33.9,17.4,50.1c6.2,21.1,1.8,43.6-2.9,64.4c-5,22.1-10,44.2-15.4,66.1
				c-4,16.1-10.1,35.6-26.9,42.5c-17.6,7.2-35.2-5.3-44.8-19.4c-25-36.6,1.3-81.3-9.6-121c-4.1-15.1-13.9-29.9-27.7-37.9
				c-6.1-3.5-13.1-5.5-20.1-5c-8.8,0.6-15.4,5.6-23.1,9.3c-20.3,9.5-38.7-10.8-40.5-29.8c-2.1-22.1,9.2-44.4,17.6-64.1
				c16-37.5,34.6-74.8,42.4-115.1c3.7-18.8,4.7-38.2,1.6-57.2c-3.2-19.4-10.9-37.6-19.7-55c-9.3-18.3-19.8-35.9-27.6-54.9
				c-8.1-19.6-14-42.4-6.6-63.2c6.2-17.5,24.4-32,43.6-28.3c1.9,0.4,2.7-2.5,0.8-2.9c-16.4-3.2-32.1,5.6-41.4,18.8
				c-11.3,16.1-10.8,37.4-6.2,55.7c10.2,40.7,38.8,73.8,50.5,113.9c12.3,41.9,1.7,85-13.6,124.6c-8,20.7-17.3,40.8-26,61.2
				c-8,18.7-17.8,38.7-18.6,59.4c-0.6,16.7,7.3,34,23.6,40.5c7.2,2.8,14.7,2.3,21.6-1c9.3-4.4,17-10.2,27.9-8.6
				c18.6,2.7,32.4,20.8,37.8,37.7c6.9,21.5,1.5,45.3-0.2,67.2c-1.6,19.3-1,38.6,9.7,55.4c8,12.5,21,24,36.4,24.8
				c16.2,0.8,28.4-11.1,34.8-24.9c8.1-17.6,11-37.9,15.3-56.7c5-21.7,11.5-43.6,13-65.9c0.7-9.9,0.2-20-2.4-29.7s-7.9-18.1-12.4-27
				c-4.7-9.1-9-20.5-2.6-30c4.6-6.8,13.1-9.5,20.9-9.8c18-0.6,33.7,11.3,43.6,25.4c24.3,34.5,19,78,16.9,117.6
				c-0.6,11.6-0.9,23.2-0.2,34.7c0.5,7.5,0.7,17.3,7.7,22c6.3,4.2,14.7,2.1,21.2-0.5c7.7-3.2,14.8-7.5,21.3-12.7
				c28-22.4,40.6-57.9,34.7-92.9c-2-12.3-5.2-24.8-3.3-37.3c1.6-10.5,7-19.8,11.9-29.1c8.1-15.4,12.2-31,9.2-48.4
				c-2.8-15.6-10.8-30.5-22.7-41c-6.4-5.7-13.9-9.1-21.3-13.2c-9.3-5.1-16.4-13-13.4-24.3c5.5-20.7,28.6-26,44.2-36.6
				c15.1-10.2,20.6-26.1,19.4-43.8c-2.1-30.8-15.4-72.4-52.2-73.3c-33.6-0.8-63.4,25.7-97.5,19.5c-35.5-6.4-51.8-45.8-67.8-73.6
				c-18-31.3-42.4-60-73.2-79.4c-15-9.4-31.4-16.4-48.6-20.3C-1901.6-131.4-1902.4-128.6-1900.5-128.1L-1900.5-128.1z"/>
		</g>
	</g>
	<g>
		
			<linearGradient id="SVGID_23_" gradientUnits="userSpaceOnUse" x1="194.6105" y1="523.9579" x2="332.7246" y2="523.9579" gradientTransform="matrix(1 0 0 -1 0 687.8898)">
			<stop  offset="0" style="stop-color:#763FF5"/>
			<stop  offset="8.104095e-02" style="stop-color:#7248F2"/>
			<stop  offset="0.2158" style="stop-color:#6862E9"/>
			<stop  offset="0.3876" style="stop-color:#578BDB"/>
			<stop  offset="0.5674" style="stop-color:#43BEC9"/>
			<stop  offset="0.8652" style="stop-color:#E828CB"/>
			<stop  offset="0.9944" style="stop-color:#FF1E44"/>
		</linearGradient>
		<path class="st24" d="M238.4,36.5c14.1-1,26,12.8,31.2,27.8s5.6,31.7,8.7,47.5s10,32.3,22.9,38.7c6.8,3.4,14.7,3.7,20.8,8.6
			c10.1,8.1,10.9,24.6,10.7,38.8c-0.2,10.8-0.3,21.6-0.5,32.4c-0.1,3.6-0.1,7.5-1.7,10.6c-4.1,8.5-16,8.4-19.9,17.1
			c-2.3,5.1-0.8,11.4-1.6,17.1c-1,6.5-5.2,12-10.2,15.1c-3.8,2.4-8.6,3.5-12.5,1.4c-5.9-3.1-7.7-12.1-6.5-19.5
			c1.1-7.4,4.3-14.2,5.3-21.7c2.2-17.1-7.8-33.7-20.4-43.2c-5.8,13.5-8.8,28.5-8.7,43.5c0,5.3,0.4,11-2.2,15.4
			c-4.6,7.9-16.1,6.2-21.3-1.3s-5.4-17.9-4.5-27.3s2.9-19,1.3-28.4c-2.3-13.6-11.8-25.6-10.3-39.3c0.8-6.7,4.3-13.2,3.3-19.9
			c-2-13.7-19.7-16.2-25.1-28.7c-1.5-3.6-1.9-7.6-2.2-11.6c-0.6-7.7-1-16,2.7-22.4c4.8-8.1,14.7-10.3,19.7-18.3
			c4-6.4,3.8-15.1,6.1-22.6s10.1-14.3,15.7-9.6"/>
		<g>
			
				<linearGradient id="SVGID_24_" gradientUnits="userSpaceOnUse" x1="194.1939" y1="523.8987" x2="333.2517" y2="523.8987" gradientTransform="matrix(1 0 0 -1 0 687.8898)">
				<stop  offset="0" style="stop-color:#763FF5"/>
				<stop  offset="8.104095e-02" style="stop-color:#7248F2"/>
				<stop  offset="0.2158" style="stop-color:#6862E9"/>
				<stop  offset="0.3876" style="stop-color:#578BDB"/>
				<stop  offset="0.5674" style="stop-color:#43BEC9"/>
				<stop  offset="0.8652" style="stop-color:#E828CB"/>
				<stop  offset="0.9944" style="stop-color:#FF1E44"/>
			</linearGradient>
			<path class="st25" d="M238.4,38c14.8-0.6,24.9,13.5,29.5,26c5.1,14,5.7,29.2,8.2,43.8c2,11.9,5.4,24.2,12.8,34
				c3.3,4.3,7.4,8,12.3,10.3c6.4,3,14,3.6,19.7,8c10.2,8,10.4,23.8,10.3,35.5c0,8-0.2,16-0.3,24.1c-0.1,7,1.5,17.2-3.4,23
				c-3.3,3.9-8.7,5.4-12.8,8.3c-3.9,2.8-6.1,6.4-6.7,11.1c-0.9,7.1,0.7,13.9-3.5,20.4c-4.5,6.9-16.2,13.2-21.4,3.7
				c-4.1-7.4-1.7-16.2,0.5-23.7c2.1-7.1,3.8-14.1,2.9-21.6c-1.6-13.9-10-26.2-20.8-34.7c-1-0.7-2-0.4-2.5,0.7
				c-4.7,11.1-7.6,22.9-8.5,34.9c-0.7,9.1,2.6,31.7-13.2,27.7c-12.5-3.2-13-20-12.2-30.3c1-12.4,3.6-24.3-0.1-36.5
				c-3.4-11.1-10.5-21.9-8.5-34c1.5-9.3,6-18-0.1-26.6c-4.7-6.6-12.6-9.7-18.1-15.6c-4.3-4.5-5.4-9.8-5.9-15.9
				c-0.5-6.5-1.2-13.5,1.2-19.8c4.2-10.7,17.6-13.1,22.3-23.6c2.4-5.4,2.7-11.5,4-17.2c1.3-5.5,6.9-17,14.3-11.7
				c1.6,1.1,3.1-1.5,1.5-2.6c-8.4-6-16.3,4.7-18.3,12C220,54,220.1,61.1,217,67c-3,5.7-8.8,8.6-13.7,12.4
				c-10.4,8-10.6,19.7-9.5,31.9c1,10.7,5.2,16.8,13.7,23c4,2.9,8.5,5.7,11.2,10c4.5,7,1.1,14.4-0.5,21.7
				c-2.7,12.9,3.7,23.9,7.7,35.7c4.9,14.7,0.2,28.8,0.2,43.7c0,9.7,2.5,21.8,12.4,26c11,4.6,18.3-3.9,18.9-14.4
				c0.5-8.7,0.1-17.1,1.6-25.7c1.4-8.2,3.8-16.1,7.1-23.8c-0.8,0.2-1.7,0.4-2.5,0.7c12.6,9.9,22.1,25.5,19.9,42
				c-1.6,12.4-10.3,26.5-2.4,38.5c7.3,11,21.8,3,26.8-6c3.4-6.1,2.5-12.2,3-18.9c0.6-8.4,6.6-11,13-14.7c4.4-2.5,7.9-5.8,9.1-10.8
				c1.9-7.6,0.9-16.5,1-24.4c0.2-14,1.9-29.4-2.5-43c-1.7-5.1-4.4-10-8.7-13.3c-6.1-4.8-14-5.2-20.8-8.6
				c-13.3-6.6-19.1-22.7-21.9-36.3c-3.7-17.8-3.4-36.8-10.8-53.7c-5.5-12.1-16.3-24.6-30.9-24C236.5,35,236.5,38,238.4,38L238.4,38z
				"/>
		</g>
	</g>
	<g>
		
			<linearGradient id="SVGID_25_" gradientUnits="userSpaceOnUse" x1="-992.8856" y1="-273.3308" x2="-851.1777" y2="-273.3308" gradientTransform="matrix(1 0 0 -1 0 687.8898)">
			<stop  offset="0" style="stop-color:#763FF5"/>
			<stop  offset="8.104095e-02" style="stop-color:#7248F2"/>
			<stop  offset="0.2158" style="stop-color:#6862E9"/>
			<stop  offset="0.3876" style="stop-color:#578BDB"/>
			<stop  offset="0.5674" style="stop-color:#43BEC9"/>
			<stop  offset="0.8652" style="stop-color:#E828CB"/>
			<stop  offset="0.9944" style="stop-color:#FF1E44"/>
		</linearGradient>
		<path class="st26" d="M-952,914.1c25.4-2.8,51.5,0.7,75.4,10c8.5,3.3,17.4,7.9,21.5,16.1c2.6,5.1,3.1,11.1,3.4,16.8
			c0.8,12.5,1.5,25.8-4.5,36.8c-6.2,11.2-18.6,18-31.2,20.4c-12.6,2.4-25.6,1.1-38.3-0.2c-6.6-0.7-13.5-1.5-18.8-5.3
			c-9.7-6.9-10.9-20.9-17.8-30.6c-8.5-11.9-25.4-17.5-29.7-31.5c-4.4-14.4,8.3-29.1,22.5-34.1s29.7-3.7,44.6-5.6"/>
		<g>
			
				<linearGradient id="SVGID_26_" gradientUnits="userSpaceOnUse" x1="-993.3345" y1="-273.125" x2="-850.5697" y2="-273.125" gradientTransform="matrix(1 0 0 -1 0 687.8898)">
				<stop  offset="0" style="stop-color:#763FF5"/>
				<stop  offset="8.104095e-02" style="stop-color:#7248F2"/>
				<stop  offset="0.2158" style="stop-color:#6862E9"/>
				<stop  offset="0.3876" style="stop-color:#578BDB"/>
				<stop  offset="0.5674" style="stop-color:#43BEC9"/>
				<stop  offset="0.8652" style="stop-color:#E828CB"/>
				<stop  offset="0.9944" style="stop-color:#FF1E44"/>
			</linearGradient>
			<path class="st27" d="M-952,915.6c15-1.5,30.2-1.1,45.1,1.5c13.3,2.4,27.7,6,39.4,12.9c6.1,3.6,10.8,8.4,12.7,15.3
				c1.9,6.9,1.9,14.8,2.1,21.9c0.3,14.9-3.2,29.1-16.2,37.8c-11.6,7.8-25.8,9.3-39.5,8.7c-6.9-0.3-13.8-0.9-20.6-1.8
				c-8.4-1.1-15.8-3.6-20.5-11.1c-5.5-8.7-7.2-19.3-14.3-27.1c-7.3-8.1-18.2-12.9-24.2-22.2c-8.7-13.5,1.4-28.7,13.8-35.4
				c14.8-8,33.1-5.8,49.2-7.8c1.9-0.2,1.9-3.2,0-3c-15.7,1.9-32.6,0.3-47.4,6.6c-10.8,4.6-21,14.7-22,26.9c-1,12.8,9.1,21,18.2,28.1
				c5.2,4.1,10.5,8.3,13.9,14c3.4,5.6,5.2,12,8.1,17.8c2.6,5.3,6.2,10,11.6,12.7c6.6,3.3,14.4,3.6,21.6,4.3
				c15.5,1.5,31.8,2.3,46.4-4.3c12.8-5.7,21.7-16.3,24-30.3c1.3-7.5,0.9-15.2,0.4-22.7c-0.4-7-0.8-14.4-4.5-20.5
				c-7.9-13.2-27-18.2-40.9-21.6c-18.5-4.6-37.7-5.9-56.6-3.9C-953.9,912.8-953.9,915.8-952,915.6L-952,915.6z"/>
		</g>
	</g>
	<g>
		
			<linearGradient id="SVGID_27_" gradientUnits="userSpaceOnUse" x1="-1473.7117" y1="-272.4921" x2="-1304.8022" y2="-272.4921" gradientTransform="matrix(1 0 0 -1 0 687.8898)">
			<stop  offset="0" style="stop-color:#763FF5"/>
			<stop  offset="8.104095e-02" style="stop-color:#7248F2"/>
			<stop  offset="0.2158" style="stop-color:#6862E9"/>
			<stop  offset="0.3876" style="stop-color:#578BDB"/>
			<stop  offset="0.5674" style="stop-color:#43BEC9"/>
			<stop  offset="0.8652" style="stop-color:#E828CB"/>
			<stop  offset="0.9944" style="stop-color:#FF1E44"/>
		</linearGradient>
		<path class="st28" d="M-1467.5,923.3c42.8-0.1,85.6,4.5,127.4,13.8c8.8,1.9,17.8,4.2,24.8,9.9c13.5,11,14.1,34.4,1.1,46
			c-12.9,11.7-36.1,8.7-45.7-5.9c-2.5-3.8-4.2-8.2-7.2-11.6c-9.6-11.1-27.4-7.5-41.2-2.6s-30.8,9.7-41.8,0
			c-8.7-7.7-9.2-21.1-15.8-30.7c-2.6-3.8-6.2-7.1-7.5-11.6s1.6-10.5,6.2-10"/>
		<g>
			
				<linearGradient id="SVGID_28_" gradientUnits="userSpaceOnUse" x1="-1474.1881" y1="-272.6917" x2="-1304.3134" y2="-272.6917" gradientTransform="matrix(1 0 0 -1 0 687.8898)">
				<stop  offset="0" style="stop-color:#763FF5"/>
				<stop  offset="8.104095e-02" style="stop-color:#7248F2"/>
				<stop  offset="0.2158" style="stop-color:#6862E9"/>
				<stop  offset="0.3876" style="stop-color:#578BDB"/>
				<stop  offset="0.5674" style="stop-color:#43BEC9"/>
				<stop  offset="0.8652" style="stop-color:#E828CB"/>
				<stop  offset="0.9944" style="stop-color:#FF1E44"/>
			</linearGradient>
			<path class="st29" d="M-1467.5,924.8c33.3,0,66.5,2.7,99.4,8.3c14.7,2.5,31.2,4.3,44.8,10.7c11.7,5.5,18.1,17,16.9,29.8
				c-1.1,12.3-9.5,22.3-21.8,24.6c-12,2.3-24.9-2.7-31.3-13.2c-3-5-5.3-10.3-10.2-13.8c-4-2.8-8.8-4.1-13.6-4.3
				c-11.9-0.7-22.8,4.2-33.9,7.5c-7.4,2.1-15.6,3.9-23.2,2c-8-2-12.7-8-15.7-15.3c-2.5-5.9-4.1-12.2-7.3-17.7
				c-1.8-3.1-4.3-5.6-6.3-8.6c-2.3-3.4-4.5-12.4,2.5-12.5c1.9,0,1.9-3,0-3c-4.5,0.1-7.4,3.7-7.9,8c-0.8,6.9,5.4,11.7,8.7,17
				c6.9,11.1,7.2,26.7,20.3,33.2c12.2,6.1,27,0.9,38.9-3.2c14.5-5,33.2-8.6,42.2,7.1c3.3,5.7,6.1,10.8,11.6,14.6
				c4.5,3.1,9.7,4.9,15,5.6c11.3,1.4,23-2.8,29.5-12.4c6.5-9.5,7.1-22.6,2.3-32.9c-6-12.9-19.5-17.4-32.4-20.4
				c-42.2-9.5-85.4-14.1-128.6-14C-1469.4,921.8-1469.4,924.8-1467.5,924.8L-1467.5,924.8z"/>
		</g>
	</g>
	<g>
		
			<linearGradient id="SVGID_29_" gradientUnits="userSpaceOnUse" x1="558.475" y1="551.4581" x2="663.3473" y2="551.4581" gradientTransform="matrix(1 0 0 -1 0 687.8898)">
			<stop  offset="0" style="stop-color:#763FF5"/>
			<stop  offset="8.104095e-02" style="stop-color:#7248F2"/>
			<stop  offset="0.2158" style="stop-color:#6862E9"/>
			<stop  offset="0.3876" style="stop-color:#578BDB"/>
			<stop  offset="0.5674" style="stop-color:#43BEC9"/>
			<stop  offset="0.8652" style="stop-color:#E828CB"/>
			<stop  offset="0.9944" style="stop-color:#FF1E44"/>
		</linearGradient>
		<path class="st30" d="M624,77.5c1.6,19.1,29.3,26.7,37,44.4c6.9,15.6-3.9,33-3.1,49.9c0.1,2.7,0.5,5.5-0.6,8
			c-1,2.1-2.9,3.7-4.8,5.2c-5.7,4.4-11.5,8.9-18.3,11.5c-6.9,2.6-15.1,3-21.4-0.6c-6.7-3.9-9.9-11.5-10.1-18.8
			c-0.2-5.3,0.8-10.8-1.7-15.5s-10.8-7-13.6-2.4c-1.2,1.9-1,4.2-1.5,6.3c-1.9,7.1-12.7,9.5-19.3,5.4c-6.5-4.1-8.8-12.2-7.7-19.4
			c0.7-4.9,2.7-9.6,3.2-14.5c0.6-6.7-1.7-13.3-1.9-20s2.5-14.4,9.3-16.7c6.6-2.2,14.7,1.4,20.7-2.1c3.4-2,5-5.8,6.6-9.2
			c2.7-5.6,6.4-11.3,12.4-13.7c6-2.5,14.7,0,16.1,6"/>
		<g>
			
				<linearGradient id="SVGID_30_" gradientUnits="userSpaceOnUse" x1="557.975" y1="551.3615" x2="663.8473" y2="551.3615" gradientTransform="matrix(1 0 0 -1 0 687.8898)">
				<stop  offset="0" style="stop-color:#763FF5"/>
				<stop  offset="8.104095e-02" style="stop-color:#7248F2"/>
				<stop  offset="0.2158" style="stop-color:#6862E9"/>
				<stop  offset="0.3876" style="stop-color:#578BDB"/>
				<stop  offset="0.5674" style="stop-color:#43BEC9"/>
				<stop  offset="0.8652" style="stop-color:#E828CB"/>
				<stop  offset="0.9944" style="stop-color:#FF1E44"/>
			</linearGradient>
			<path class="st31" d="M622.5,77.5c2.3,20.8,27.7,26.6,36.5,43.6c6.9,13.4-0.5,28.8-2.2,42.5c-0.4,3.3-0.4,6.5-0.3,9.8
				c0.1,5.2-1.8,7.9-5.7,11c-6.3,4.9-12.9,9.9-20.8,11.8c-8.3,2-17.5,0.2-22.4-7.4c-4-6.2-3.2-12.7-3.5-19.7
				c-0.2-4.7-1.4-9.4-5.5-12c-3-1.9-7.6-2.9-10.7-0.7c-4.7,3.2-2.1,9.9-7.2,13.1c-6.3,4-14.5,1.4-18.2-4.8c-4.4-7.4-1.7-15.1,0-22.8
				c1.7-7.3,0.1-14-0.7-21.3c-0.9-8.1,1.1-18.2,10.7-19.5c6.5-0.8,13.8,1.8,19.5-2.5c4.8-3.7,6.1-10.4,9.6-15.2
				c2.7-3.8,6.6-7.1,11.4-7.5c4.3-0.4,9.4,1.2,10.8,5.7c0.6,1.8,3.5,1.1,2.9-0.8c-3.7-11.8-19.1-8.7-25.6-1.5
				c-4.8,5.4-6.6,16.4-14.1,18.5c-7.1,2-14.6-1.8-21.2,2.6c-13.4,9-3.3,28.2-6.1,40.7c-1.6,7.1-3.9,13.7-1.6,21
				c1.7,5.1,5.4,9.7,10.6,11.5c4.7,1.5,10.4,0.9,14.5-2.1c1.6-1.2,2.9-2.7,3.7-4.6c0.8-1.9,0.6-4,1.5-5.9c1.4-2.9,3.8-3.3,6.9-2.2
				c8.8,3.3,5,15.7,6.4,22.8c1.1,5.8,4.2,11.4,9.2,14.8c13.1,8.9,29.1,0.2,39.9-8.1c5.7-4.4,9.1-7.4,8.9-14.9
				c-0.3-8.9,1.7-17.2,3.5-25.8c1.7-8.1,3-16.6,0.1-24.6c-2.1-5.9-6.3-10.8-10.9-14.9c-9.5-8.6-25.1-16.4-26.6-30.6
				C625.3,75.6,622.3,75.6,622.5,77.5L622.5,77.5z"/>
		</g>
	</g>
	<g>
		
			<linearGradient id="SVGID_31_" gradientUnits="userSpaceOnUse" x1="1139.4283" y1="480.4331" x2="1226.3861" y2="480.4331" gradientTransform="matrix(1 0 0 -1 0 687.8898)">
			<stop  offset="0" style="stop-color:#763FF5"/>
			<stop  offset="8.104095e-02" style="stop-color:#7248F2"/>
			<stop  offset="0.2158" style="stop-color:#6862E9"/>
			<stop  offset="0.3876" style="stop-color:#578BDB"/>
			<stop  offset="0.5674" style="stop-color:#43BEC9"/>
			<stop  offset="0.8652" style="stop-color:#E828CB"/>
			<stop  offset="0.9944" style="stop-color:#FF1E44"/>
		</linearGradient>
		<path class="st32" d="M1163.1,152.1c-2.9-2.2-5.8-4.4-9.4-5.5c-3.6-1-7.9-0.5-10.3,2.1c-1.3,1.4-1.8,3.3-2.3,5
			c-2.4,9.8-2.2,20,0.5,29.7c2.7,9.8,8,19.6,5.3,29.4c-0.8,3-2.3,5.8-2.8,8.8c-0.4,3,0.6,6.6,3.6,8c1.6,0.7,3.4,0.8,5.1,1.1
			c5.8,1,10.7,5.2,12.1,10.4c1.7,6.1-1.3,12.4-1.9,18.7c-0.5,6.3,3.6,14.1,10.6,13.5c4.2-0.4,7.3-3.9,8.4-7.5
			c1.2-3.6,0.9-7.5,1.2-11.3c0.5-5.9,2.4-11.8,5.6-17c1.4-2.3,3.1-4.5,5.7-5.7c2.6-1.1,6.2-0.8,7.8,1.4c1.7,2.3,0.4,5.4-0.4,8.1
			c-1.7,5.5-1.3,11.6,1,16.9c0.3,0.7,0.7,1.5,1.5,1.9c0.9,0.4,1.9,0.2,2.8-0.2c6.1-2.6,7.8-9.7,8-15.8s-0.1-12.9,4.4-17.5
			c1.8-1.9,4.4-3.2,5.7-5.4c3.5-5.8-3.7-12.4-10.7-14.5s-15.3-2.8-19.7-8.1c-6.9-8.5,2-21.9-4.4-30.7c-5.6-7.7-20.6-8.7-22.3-17.8
			c-0.4-1.9,0-3.9-0.7-5.8s-3.1-3.4-4.9-2.4c-2.9,1.5-3.2,5.9-0.4,7.7"/>
		<g>
			
				<linearGradient id="SVGID_32_" gradientUnits="userSpaceOnUse" x1="1138.9243" y1="480.3582" x2="1226.8821" y2="480.3582" gradientTransform="matrix(1 0 0 -1 0 687.8898)">
				<stop  offset="0" style="stop-color:#763FF5"/>
				<stop  offset="8.104095e-02" style="stop-color:#7248F2"/>
				<stop  offset="0.2158" style="stop-color:#6862E9"/>
				<stop  offset="0.3876" style="stop-color:#578BDB"/>
				<stop  offset="0.5674" style="stop-color:#43BEC9"/>
				<stop  offset="0.8652" style="stop-color:#E828CB"/>
				<stop  offset="0.9944" style="stop-color:#FF1E44"/>
			</linearGradient>
			<path class="st33" d="M1163.9,150.8c-5.3-4-12.2-8.3-18.9-5c-6.4,3.1-6.6,13-6.9,19.1c-0.5,9.7,1.9,18.5,4.9,27.6
				c1.6,4.9,3.3,10,3.2,15.2c-0.1,4.9-2.8,8.9-3.4,13.6c-0.3,2.6,0,5.3,1.7,7.5c2.2,2.9,5.6,2.8,8.8,3.6c5.3,1.2,9.7,5.1,10.6,10.7
				c0.8,5.1-1.3,10.1-2,15.1c-0.7,5.4,0.8,11.6,5.5,14.9c4.8,3.4,10.9,1.6,14.2-2.8c4.7-6.3,2.5-15.3,4.6-22.4
				c1.3-4.4,3.5-10.2,7.2-13.1c3.6-2.9,9-2.6,7.9,4.3c-0.3,2-1.2,3.8-1.5,5.8c-0.6,4.4-0.7,15.3,4.8,16.9c5.6,1.7,10.1-6,11.3-10.3
				c2.1-7.7-1-17.4,5-23.7c3.8-4,9-6.7,6.3-13.1c-2.7-6.4-10.1-8.9-16.2-10.4c-4-1-8.5-1.8-12-4.2c-4.6-3.1-5.3-8.1-5-13.2
				c0.4-7.1,2.3-14.9-2.8-20.8c-4.4-5.1-11.3-6.6-16.6-10.3c-1.7-1.1-3.2-2.5-4.1-4.4c-0.9-2-0.5-4-0.9-6c-0.6-2.6-2.3-5-5.2-5.2
				c-5.9-0.3-6.6,7.5-3,10.6c1.4,1.3,3.6-0.8,2.1-2.1c1.2,1.1,2.1-2.6,3.3-0.7c0.2,0.4,0.1,1.7,0.2,2.2c0.2,0.9,0.4,1.7,0.7,2.5
				c0.7,1.7,2,3.1,3.3,4.3c3.6,3,8.1,4.6,12.1,6.9c6.3,3.5,8.9,8.3,8.5,15.6c-0.3,5.4-1.7,11.1,0.2,16.4
				c4.5,12.8,21.3,8.7,29.7,16.5c4,3.7,3.8,7.7-0.3,11.3c-2.1,1.8-3.9,3.4-5.2,6c-2.5,5-1.9,10.6-2.2,16c-0.2,3.4-0.9,6.9-2.9,9.8
				c-1.5,2.2-2.5,3.2-5.1,2.1c-2.9-1.3-3.1-4.1-3.3-7.3c-0.3-4.1,1.2-7.7,2-11.6c0.4-2,0.4-4-0.7-5.8c-2.1-3.1-6.7-3.4-9.8-1.9
				c-4.8,2.2-7.6,7.9-9.4,12.5c-1.2,3.1-2.1,6.3-2.5,9.6c-0.5,3.7-0.1,7.5-0.9,11.1c-1.1,4.8-5.1,9.2-10.4,7.5
				c-3.4-1.1-5.4-5-5.9-8.3c-1.1-6.9,3.2-13.6,2-20.6c-0.8-5.1-4.4-9.4-9-11.6c-4.1-2-10.8-1.1-12.1-6.6c-0.9-4.1,2.3-8.7,3-12.6
				c1.4-7.7-1.4-15.3-3.8-22.4c-3.1-9.1-4.7-18.3-3.6-28c0.6-5.3,1.4-13.1,8.2-13.5c4.9-0.3,9.1,2.9,12.8,5.7
				C1163.9,154.6,1165.4,152,1163.9,150.8L1163.9,150.8z"/>
		</g>
	</g>
	<g>
		
			<linearGradient id="SVGID_33_" gradientUnits="userSpaceOnUse" x1="-6.0281" y1="231.6008" x2="1180.969" y2="231.6008" gradientTransform="matrix(1 0 0 -1 0 687.8898)">
			<stop  offset="0" style="stop-color:#6CD6D2"/>
			<stop  offset="1" style="stop-color:#6CD6D2;stop-opacity:0"/>
		</linearGradient>
		<path class="st34" d="M-1.6,521.1c-3.9-40.8-2.2-81.9,5.1-122.5C18.3,452.8,31.2,507.3,42,562.1c5.1-39.8,17.8-79,37.6-115.9
			c11.1,30.6,22.2,61.2,33.4,91.8c9.9-17.4,19.7-34.8,29.6-52.2c3.9,14.3,7.8,28.7,11.7,43c1.1,4.1,3.8,9.3,9.2,9
			c2.9-0.1,5.1-1.8,7-3.5c25.7-22.7,35.1-60.7,72.8-68.1c5.5,28.3,7.5,57,6.1,85.6c-1.2-69.9-0.6-139.8,1.8-209.6
			c0.8-23,2.3-47.4,18.7-66.5c103.4,72.9,164.6,180.9,164,289.6C477.7,515,468.5,440,528,400.6c12.3,45.4,22.9,91,31.9,136.8
			c4.5-53.8,15.3-116.2,74.7-143.9c14,41.1,19.6,83.9,16.5,126.3c10.8-22.4,22.9-44.3,36.4-65.8c5.9-9.4,12.4-19.1,23.5-25
			s27.8-6.7,36.7,1.1c4.4,3.9,6.2,9.1,7.7,14.1c5.7,18.6,9.6,37.5,11.9,56.5c5.4-47.1,14.5-93.9,27.4-140.2
			c42,48.9,68,104.9,93.6,160.3c14.6-35.7,33.7-70.3,57-103.1c21.7,50.3,43.3,100.5,65,150.8c-10.4-39.7-17-80.1-19.8-120.5
			c-2.7-38.6-1.8-78,12.4-115s43-71.9,85.9-91.4c6.9-3.1,15.4-5.9,22.7-3.3c4.8,1.7,7.8,5.4,10.4,8.9c29.1,40,33,90.5,10.2,132.9
			c6.2-6.5,12.4-13,18.6-19.5c30.4,72.5,38.1,150.7,22.2,225.9c-0.9,4.3-2.2,9-6.6,11.8s-46.6,76.9-52.3,76.9
			c-34.9,0.2-33.7-65.2-62-49.2c-9.7,5.5-19.3,12-31.2,13.5c160.1,26.7-508.4,68.4-49-8.6c-34.1-5.3-65.6,13.2-96.5,25.5
			c-36.4,14.4-78,20.8-118.8,18.3c-30.6-1.9-60.4-8.6-91-10c-32.2-1.4-64.3,3.1-96.4,6c-81.4,7.2-166.6,7-246.1-8.2
			c-47.1-2.5-83,0.7-129.6-7c-23.3,0.8-48.3-5.9-71.4-3.6c790.8,39.7-36.8,14.7-58,13.1c-15.7-1.2-34.2-20.3-44.5-29.6
			c-7.5-6.7-10.2-15.8-12.7-24.5c-9-31.1-17.9-63.3-9.4-94.5"/>
	</g>
	<g>
		
			<linearGradient id="SVGID_34_" gradientUnits="userSpaceOnUse" x1="-705.106" y1="156.7625" x2="294.2867" y2="156.7625" gradientTransform="matrix(-1 0 0 -1 451.0884 687.8898)">
			<stop  offset="0" style="stop-color:#6CD6D2"/>
			<stop  offset="1" style="stop-color:#6CD6D2;stop-opacity:0"/>
		</linearGradient>
		<path class="st35" d="M1152.6,566.1c3.3-26.2,1.8-52.6-4.3-78.6c-12.5,34.8-23.3,69.7-32.5,104.9c-4.3-25.5-15-50.7-31.7-74.3
			c-9.4,19.6-18.7,39.3-28.1,58.9c-8.3-11.2-16.6-22.3-24.9-33.5c-3.3,9.2-6.6,18.4-9.8,27.6c-0.9,2.6-3.2,5.9-7.8,5.8
			c-2.4-0.1-4.3-1.2-5.9-2.2c-21.7-14.6-29.5-38.9-61.3-43.7c-4.6,18.2-6.3,36.6-5.1,54.9c1-44.8,0.5-89.7-1.5-134.5
			c-0.7-14.8-2-30.4-15.8-42.7c-87.1,46.8-138.6,116.1-138.1,185.8c-36.9-32.3-29.2-80.4-79.3-105.7c-10.3,29.1-19.3,58.4-26.9,87.7
			c-3.8-34.5-12.9-74.5-62.9-92.3c-11.8,26.4-16.5,53.8-13.9,81c-9.1-14.3-19.3-28.4-30.6-42.2c-5-6-10.5-12.2-19.7-16
			s-23.4-4.3-30.9,0.7c-3.7,2.5-5.2,5.8-6.5,9c-4.8,11.9-8.1,24-10,36.2c-4.5-30.2-12.2-60.3-23.1-89.9
			c-35.3,31.4-57.2,67.3-78.8,102.8c-12.3-22.9-28.4-45.1-48-66.1c-18.3,32.2-36.5,64.5-54.8,96.7c8.7-25.5,14.3-51.4,16.7-77.3
			c2.3-24.8,1.5-50-10.4-73.8s-36.2-46.1-72.3-58.6c-5.8-2-13-3.8-19.1-2.1c-4,1.1-6.6,3.5-8.7,5.7c-24.5,25.6-27.8,58.1-8.6,85.3
			c-5.2-4.2-10.5-8.4-15.7-12.5c-25.6,46.5-32.1,96.7-18.7,144.9c0.8,2.8,1.8,5.8,5.5,7.6s8.9,1.7,13.7,1.8
			c29.4,0.1,58.7,5.8,82.5,16c8.2,3.5,16.3,7.7,26.3,8.7c14,1.4,27.3-3.9,41.2-5.5c28.7-3.4,55.2,8.5,81.3,16.4
			c30.7,9.2,65.7,13.4,100,11.8c25.7-1.2,50.9-5.5,76.6-6.4c-78.6,15.5,55.3,15,82.3,16.8c147,0.8,162.2,7.7,229.2-2.1
			c36.1-5.3,31.7-3.2,68.8-2.2c19.6,0.5,56.5-1.5,76,0c17.8,1.3,49-0.6,66.9-1.7c0.1,6.1,0.1,6.1,20.8-29.7
			c6.3-4.3,8.6-10.1,10.7-15.7c7.5-19.9,15.1-40.6,7.9-60.6"/>
	</g>
</g>
<g id="Слой_2">
	<g>
		
			<linearGradient id="SVGID_35_" gradientUnits="userSpaceOnUse" x1="1455.5386" y1="-2377.7178" x2="2269.9612" y2="-2377.7178" gradientTransform="matrix(1 0 0 -1 0 687.8898)">
			<stop  offset="0" style="stop-color:#763FF5"/>
			<stop  offset="8.104095e-02" style="stop-color:#7248F2"/>
			<stop  offset="0.2158" style="stop-color:#6862E9"/>
			<stop  offset="0.3876" style="stop-color:#578BDB"/>
			<stop  offset="0.5674" style="stop-color:#43BEC9"/>
			<stop  offset="0.8652" style="stop-color:#E828CB"/>
			<stop  offset="0.9944" style="stop-color:#FF1E44"/>
		</linearGradient>
		<path class="st36" d="M1634.8,2467.1c38.6,40.6,96.8,55.8,152.6,61.2c55.7,5.5,112.7,3.2,166.9,17.3
			c54.2,14.1,107.5,49.1,123.5,102.7c20.7,69.4-28.8,142.6-90.9,179.9c-28.3,17-59.9,29.5-84.1,51.9s-39.5,59.6-24.3,88.9
			c13.3,25.6,43.8,36,71.4,44.3c106.5,32.1,219,72.5,284,162.7c16.9,23.4,30.1,50.1,34.4,78.6c5,32.9-1.9,66.5-12.5,98
			c-16.4,49.3-43.8,97.8-88.7,124c-45.2,26.4-100.5,26.3-152.8,25.4c-43.9-0.7-87.9-1.5-131.8-2.2c-15.1-0.3-31.9,0.1-43,10.3
			c-15.1,13.8-12.3,37.5-14.3,57.9c-5.9,62.1-75.5,109.7-135.5,92.6c-57.4-16.4-89.8-75.5-114.5-129.8
			c-74.7-164.7-135.9-344.4-110.8-523.5c12.5-89.5,46.3-180.6,22.5-267.8c-12-44-38.6-87.2-29.5-131.8c4.2-20.7,16-39.2,29.9-55
			c36.8-41.8,90.8-68,146.4-70.9"/>
		<g>
			
				<linearGradient id="SVGID_36_" gradientUnits="userSpaceOnUse" x1="1455.314" y1="-2377.4778" x2="2270.6465" y2="-2377.4778" gradientTransform="matrix(1 0 0 -1 0 687.8898)">
				<stop  offset="0" style="stop-color:#763FF5"/>
				<stop  offset="8.104095e-02" style="stop-color:#7248F2"/>
				<stop  offset="0.2158" style="stop-color:#6862E9"/>
				<stop  offset="0.3876" style="stop-color:#578BDB"/>
				<stop  offset="0.5674" style="stop-color:#43BEC9"/>
				<stop  offset="0.8652" style="stop-color:#E828CB"/>
				<stop  offset="0.9944" style="stop-color:#FF1E44"/>
			</linearGradient>
			<path class="st37" d="M1629.5,2472.4c39.6,41.2,97.1,56.8,152.3,62.8c64.6,7.1,132.2,1.7,194,25.1
				c47.8,18.1,93.9,56.4,98.8,110.5c4.9,54.2-29.5,104.7-70.6,136.7c-44.3,34.6-108.6,47.8-132.2,104.2c-10.4,24.8-9,52.7,8.9,73.6
				c16.8,19.6,43.4,28,67.3,35.2c102.5,31,216,69.6,280.7,161c18,25.5,31.7,54.8,33.6,86.3c1.9,32.5-6.6,64.9-17.9,95.1
				c-19.5,52.1-53.4,101-108,119.6c-28.7,9.8-59.2,11.9-89.4,12.2c-33.6,0.3-67.2-0.8-100.7-1.4c-18-0.3-36.1-0.6-54.1-0.9
				c-13.9-0.2-28.9-1.3-42.3,3.3c-12.9,4.5-22,13.8-26.6,26.6c-4.4,12.3-4.1,25.8-4.8,38.7c-2.7,47.9-41.8,87-88.7,94.4
				c-52.4,8.4-93.4-31.4-118.7-72.4c-14.4-23.3-25.7-48.4-36.8-73.4c-13.5-30.3-26.3-60.9-38.2-91.9
				c-23.8-62.3-43.8-126.3-56.3-191.9c-12.3-64.7-16.9-131.1-10.3-196.8c6.7-66.4,27.3-130.5,32.4-197.1c2.5-32.4,0.8-65.3-8.1-96.6
				c-8.6-30.2-23.2-58.5-28.8-89.6c-5.5-30.7,3.9-58.8,23.4-82.7c17.9-21.9,40.5-39.7,65.7-52.5c24.8-12.6,52.1-19.9,79.9-21.5
				c9.6-0.5,9.7-15.6,0-15c-58.2,3.3-114.8,30.2-153,74.6c-20.2,23.5-34.1,51.5-32.6,83c1.6,32.1,15.6,61.7,25.9,91.6
				c10.9,31.7,14.9,64.3,13.3,97.7c-1.6,34-8,67.5-14.7,100.8c-6.7,33.4-13.8,66.7-17.6,100.6c-3.8,33.4-4.6,67.2-3,100.8
				c6.7,135.9,52.6,266.5,107.2,389.9c21.7,49.1,44.9,102.4,89.4,135.2c20.2,14.9,45.2,24,70.5,23c24.4-1,48.2-10.1,67.5-24.7
				c19.5-14.7,34.9-34.9,42.1-58.3c3.8-12.4,4.3-25.1,5-37.9c0.6-12,1.4-26.5,11.1-35.1c10.6-9.4,26.9-8.3,40.1-8
				c18,0.3,36.1,0.6,54.1,0.9c34.5,0.6,69.1,1.7,103.7,1.5c30.8-0.1,62.2-1.9,91.8-10.9c28.2-8.6,53.4-24.1,73.5-45.6
				c19.5-21,34-46,45.1-72.3c12.4-29.5,22-61.1,23.9-93.2c3.8-62.5-31.4-118.3-75.7-159.5c-41-38.1-91-64.6-142.5-85.4
				c-26.4-10.7-53.5-19.9-80.7-28.5c-25.2-7.9-53-13.5-75.1-28.7c-10.4-7.2-18.7-17.4-21.9-29.8c-3.3-12.8-1-26.4,4.1-38.4
				c11.7-27.9,36.9-45,62.4-59.2c26.1-14.4,52.4-27.4,75.1-47.1c21-18.2,39.2-40.6,51.3-65.7c11.7-24.2,18-51.2,14.9-78.1
				c-3.2-26.9-15.2-51.5-33.2-71.6c-40-44.5-99.9-61.2-157.5-67.2c-63-6.6-127.7-2.7-188.4-23.6c-26.3-9.1-50.7-23-70.1-43.1
				C1633.4,2454.8,1622.8,2465.4,1629.5,2472.4L1629.5,2472.4z"/>
		</g>
	</g>
</g>
<g id="Слой_1">
	<g>
		
			<linearGradient id="SVGID_37_" gradientUnits="userSpaceOnUse" x1="-2826.7" y1="-430.7102" x2="-2188.3018" y2="-430.7102" gradientTransform="matrix(1 0 0 -1 0 687.8898)">
			<stop  offset="0" style="stop-color:#74BF44"/>
			<stop  offset="1" style="stop-color:#74BF44;stop-opacity:0"/>
		</linearGradient>
		<path class="st38" d="M-2633.4,1293.4c-96.5-135.9-163-293.2-193.3-457.4c15.8-9.2,34.3,6,46.2,20
			c100.5,119.1,185.3,251.5,251.7,392.7c-34.4-160.9-22.7-331.5,33.4-486.2c69,122.5,117.8,256.5,143.7,395
			c21.2-106.2,77.2-205.1,157.3-277.5c26.5,133.3-38.2,266-100.9,386.4c-28.3,54.3-56.6,108.5-84.8,162.8
			c-34.3-38.2-73.1-72.2-115.3-101.1c-7.1,48.9-14.2,97.7-21.3,146.6c-48.8-52.9-92.2-110.9-129.1-172.8"/>
	</g>
	<g>
		
			<linearGradient id="SVGID_38_" gradientUnits="userSpaceOnUse" x1="-1134.8" y1="-619.7103" x2="-605.236" y2="-619.7103" gradientTransform="matrix(1 0 0 -1 0 687.8898)">
			<stop  offset="0" style="stop-color:#74BF44"/>
			<stop  offset="1" style="stop-color:#74BF44;stop-opacity:0"/>
		</linearGradient>
		<path class="st39" d="M-974.4,1451.6c-80-111.9-135.2-241.5-160.4-376.8c13.1-7.5,28.5,4.9,38.3,16.5
			c83.3,98.1,153.8,207.2,208.8,323.5c-28.5-132.5-18.8-273.1,27.7-400.5c57.3,100.9,97.7,211.3,119.2,325.4
			c17.6-87.5,64.1-169,130.5-228.6c22,109.8-31.7,219.1-83.7,318.3c-23.5,44.7-46.9,89.4-70.4,134.1c-28.4-31.4-60.6-59.5-95.7-83.3
			c-5.9,40.2-11.8,80.5-17.7,120.7c-40.5-43.6-76.5-91.4-107.1-142.4"/>
	</g>
	<g>
		
			<linearGradient id="SVGID_39_" gradientUnits="userSpaceOnUse" x1="-2143.8" y1="-77.3103" x2="-1540.5178" y2="-77.3103" gradientTransform="matrix(1 0 0 -1 0 687.8898)">
			<stop  offset="0" style="stop-color:#F17AA9"/>
			<stop  offset="1" style="stop-color:#F17AA9;stop-opacity:0"/>
		</linearGradient>
		<path class="st40" d="M-1961.1,909.2c-91.2-111.9-154-241.5-182.7-376.8c15-7.5,32.5,4.9,43.6,16.5
			c94.9,98.1,175.2,207.2,237.9,323.5c-32.5-132.5-21.4-273.1,31.5-400.5c65.3,100.9,111.3,211.3,135.8,325.4
			c20-87.5,73-169,148.7-228.6c25.1,109.8-36.1,219.1-95.4,318.3c-26.7,44.7-53.5,89.4-80.2,134.1c-32.4-31.4-69-59.5-109-83.3
			c-6.7,40.2-13.4,80.5-20.1,120.7c-46.1-43.6-87.1-91.4-122.1-142.4"/>
	</g>
	<g>
		
			<linearGradient id="SVGID_40_" gradientUnits="userSpaceOnUse" x1="-1981.4" y1="-401.9102" x2="-1451.8361" y2="-401.9102" gradientTransform="matrix(1 0 0 -1 0 687.8898)">
			<stop  offset="0" style="stop-color:#F17AA9"/>
			<stop  offset="1" style="stop-color:#F17AA9;stop-opacity:0"/>
		</linearGradient>
		<path class="st41" d="M-1821,1233.8c-80-111.9-135.2-241.5-160.4-376.8c13.1-7.5,28.5,4.9,38.3,16.5
			c83.3,98.1,153.8,207.2,208.8,323.5c-28.5-132.5-18.8-273.1,27.7-400.5c57.3,100.9,97.7,211.3,119.2,325.4
			c17.6-87.5,64.1-169,130.5-228.6c22,109.8-31.7,219.1-83.7,318.3c-23.5,44.7-46.9,89.4-70.4,134.1c-28.4-31.4-60.6-59.5-95.7-83.3
			c-5.9,40.2-11.8,80.5-17.7,120.7c-40.5-43.6-76.5-91.4-107.1-142.4"/>
	</g>
	<g>
		
			<linearGradient id="SVGID_41_" gradientUnits="userSpaceOnUse" x1="4022.7073" y1="-404.1102" x2="4552.1421" y2="-404.1102" gradientTransform="matrix(-0.8889 0 0 -1 2599.4844 687.8898)">
			<stop  offset="0" style="stop-color:#54A3DA"/>
			<stop  offset="1" style="stop-color:#54A3DA;stop-opacity:0"/>
		</linearGradient>
		<path class="st42" d="M-1118.9,1236c71.1-111.9,120.2-241.5,142.6-376.8c-11.7-7.5-25.3,4.9-34,16.5
			c-74.1,98.1-136.7,207.2-185.6,323.5c25.3-132.5,16.7-273.1-24.6-400.5c-50.9,100.9-86.9,211.3-105.9,325.4
			c-15.6-87.5-57-169-116-228.6c-19.6,109.8,28.2,219.1,74.4,318.3c20.9,44.7,41.7,89.4,62.6,134.1c25.3-31.4,53.9-59.5,85-83.3
			c5.2,40.2,10.5,80.5,15.7,120.7c36-43.6,68-91.4,95.2-142.4"/>
	</g>
	<g>
		
			<linearGradient id="SVGID_42_" gradientUnits="userSpaceOnUse" x1="-2189.5" y1="-690.4102" x2="-1572.2753" y2="-690.4102" gradientTransform="matrix(1 0 0 -1 0 687.8898)">
			<stop  offset="0" style="stop-color:#F17AA9"/>
			<stop  offset="1" style="stop-color:#F17AA9;stop-opacity:0"/>
		</linearGradient>
		<path class="st43" d="M-2002.5,1547.8c-93.3-131.8-157.6-284.5-187-443.9c15.3-8.9,33.2,5.8,44.6,19.4
			c97.1,115.6,179.2,244.1,243.4,381.2c-33.2-156.2-21.9-321.8,32.3-471.8c66.8,118.9,113.9,249,138.9,383.3
			c20.5-103.1,74.7-199.1,152.1-269.3c25.7,129.4-36.9,258.2-97.6,375c-27.4,52.7-54.7,105.3-82.1,158
			c-33.1-37-70.7-70.1-111.5-98.1c-6.9,47.4-13.7,94.8-20.6,142.3c-47.2-51.4-89.1-107.7-124.9-167.7"/>
	</g>
	<g>
		
			<linearGradient id="SVGID_43_" gradientUnits="userSpaceOnUse" x1="-2167.5999" y1="-214.8102" x2="-1638.0359" y2="-214.8102" gradientTransform="matrix(1 0 0 -1 0 687.8898)">
			<stop  offset="0" style="stop-color:#F17AA9"/>
			<stop  offset="1" style="stop-color:#F17AA9;stop-opacity:0"/>
		</linearGradient>
		<path class="st44" d="M-2007.2,1046.7c-80-111.9-135.2-241.5-160.4-376.8c13.1-7.5,28.5,4.9,38.3,16.5
			c83.3,98.1,153.8,207.2,208.8,323.5c-28.5-132.5-18.8-273.1,27.7-400.5c57.3,100.9,97.7,211.3,119.2,325.4
			c17.6-87.5,64.1-169,130.5-228.6c22,109.8-31.7,219.1-83.7,318.3c-23.5,44.7-46.9,89.4-70.4,134.1c-28.4-31.4-60.6-59.5-95.7-83.3
			c-5.9,40.2-11.8,80.5-17.7,120.7c-40.5-43.6-76.5-91.4-107.1-142.4"/>
	</g>
	<g>
		
			<linearGradient id="SVGID_44_" gradientUnits="userSpaceOnUse" x1="-2118.5999" y1="-577.2103" x2="-1589.0359" y2="-577.2103" gradientTransform="matrix(1 0 0 -1 0 687.8898)">
			<stop  offset="0" style="stop-color:#F17AA9"/>
			<stop  offset="1" style="stop-color:#F17AA9;stop-opacity:0"/>
		</linearGradient>
		<path class="st45" d="M-1958.2,1409.1c-80-111.9-135.2-241.5-160.4-376.8c13.1-7.5,28.5,4.9,38.3,16.5
			c83.3,98.1,153.8,207.2,208.8,323.5c-28.5-132.5-18.8-273.1,27.7-400.5c57.3,100.9,97.7,211.3,119.2,325.4
			c17.6-87.5,64.1-169,130.5-228.6c22,109.8-31.7,219.1-83.7,318.3c-23.5,44.7-46.9,89.4-70.4,134.1c-28.4-31.4-60.6-59.5-95.7-83.3
			c-5.9,40.2-11.8,80.5-17.7,120.7c-40.5-43.6-76.5-91.4-107.1-142.4"/>
	</g>
	<g>
		
			<linearGradient id="SVGID_45_" gradientUnits="userSpaceOnUse" x1="-1264.4" y1="30.8898" x2="-734.836" y2="30.8898" gradientTransform="matrix(1 0 0 -1 0 687.8898)">
			<stop  offset="0" style="stop-color:#54A3DA"/>
			<stop  offset="1" style="stop-color:#54A3DA;stop-opacity:0"/>
		</linearGradient>
		<path class="st46" d="M-1104,801c-80-111.9-135.2-241.5-160.4-376.8c13.1-7.5,28.5,4.9,38.3,16.5
			c83.3,98.1,153.8,207.2,208.8,323.5c-28.5-132.5-18.8-273.1,27.7-400.5c57.3,100.9,97.7,211.3,119.2,325.4
			c17.6-87.5,64.1-169,130.5-228.6c22,109.8-31.7,219.1-83.7,318.3c-23.5,44.7-46.9,89.4-70.4,134.1c-28.4-31.4-60.6-59.5-95.7-83.3
			c-5.9,40.2-11.8,80.5-17.7,120.7c-40.5-43.6-76.5-91.4-107.1-142.4"/>
	</g>
	<g>
		
			<linearGradient id="SVGID_46_" gradientUnits="userSpaceOnUse" x1="-926.2" y1="-793.7103" x2="-396.636" y2="-793.7103" gradientTransform="matrix(1 0 0 -1 0 687.8898)">
			<stop  offset="0" style="stop-color:#74BF44"/>
			<stop  offset="1" style="stop-color:#74BF44;stop-opacity:0"/>
		</linearGradient>
		<path class="st47" d="M-765.8,1625.6c-80-111.9-135.2-241.5-160.4-376.8c13.1-7.5,28.5,4.9,38.3,16.5
			c83.3,98.1,153.8,207.2,208.8,323.5c-28.5-132.5-18.8-273.1,27.7-400.5c57.3,100.9,97.7,211.3,119.2,325.4
			c17.6-87.5,64.1-169,130.5-228.6c22,109.8-31.7,219.1-83.7,318.3c-23.5,44.7-46.9,89.4-70.4,134.1c-28.4-31.4-60.6-59.5-95.7-83.3
			c-5.9,40.2-11.8,80.5-17.7,120.7c-40.5-43.6-76.5-91.4-107.1-142.4"/>
	</g>
	<g>
		
			<linearGradient id="SVGID_47_" gradientUnits="userSpaceOnUse" x1="-715.7" y1="-718.1104" x2="-77.3015" y2="-718.1104" gradientTransform="matrix(1 0 0 -1 0 687.8898)">
			<stop  offset="0" style="stop-color:#74BF44"/>
			<stop  offset="1" style="stop-color:#74BF44;stop-opacity:0"/>
		</linearGradient>
		<path class="st48" d="M-522.4,1580.8c-96.5-135.9-163-293.2-193.3-457.4c15.8-9.2,34.3,6,46.2,20
			c100.5,119.1,185.3,251.5,251.7,392.7c-34.4-160.9-22.7-331.5,33.4-486.2c69,122.5,117.8,256.5,143.7,395
			c21.2-106.2,77.2-205.1,157.3-277.5c26.5,133.3-38.2,266-100.9,386.4c-28.3,54.3-56.6,108.5-84.8,162.8
			c-34.3-38.2-73.1-72.2-115.3-101.1c-7.1,48.9-14.2,97.7-21.3,146.6c-48.8-52.9-92.2-110.9-129.1-172.8"/>
	</g>
	<g>
		
			<linearGradient id="SVGID_48_" gradientUnits="userSpaceOnUse" x1="-1864.3002" y1="-613.2327" x2="-1377.4851" y2="-613.2327" gradientTransform="matrix(1 0 0 -1 0 687.8898)">
			<stop  offset="0" style="stop-color:#F96161"/>
			<stop  offset="6.759749e-02" style="stop-color:#F05B6A"/>
			<stop  offset="0.18" style="stop-color:#D64C82"/>
			<stop  offset="0.3233" style="stop-color:#AD33A9"/>
			<stop  offset="0.4904" style="stop-color:#7411DE"/>
			<stop  offset="0.5674" style="stop-color:#5700F9"/>
			<stop  offset="0.8652" style="stop-color:#E828CB"/>
			<stop  offset="0.9944" style="stop-color:#A71FCC"/>
		</linearGradient>
		<path class="st49" d="M-1863.6,1351.3c-2.9-40.1,20-77.9,42.2-113.3c28.1-44.8,56.2-89.6,85.6-133.9c8.9-13.4,20.3-28.3,38-30.5
			c22.5-2.8,39.8,15.7,55.1,30.3c15.2,14.6,42.7,27.1,58.8,13.2c15.7-13.5,3.6-38.3,15-54.7c9.6-13.8,33.2-15.8,49.6-8.2
			c16.4,7.6,26.9,22,35.4,36.2c31.2,52.5,45,111.5,71.1,166c12.3,25.7,27.5,50.8,33.2,78.3c5.8,27.4,0.2,58.6-23.4,77.4
			c-14.5,11.5-33.8,17.1-50,26.8s-29.7,26.9-23.3,43c9.7,11.5,19.5,23.8,21.2,37.9s-8,30.3-24.3,32.4c-16,2-29.3-9.5-42.1-18.1
			s-33.7-13.9-43.2-2.6c19.8-40.7,22.2-87.6,6.6-129.7c-25.7,28.9-32.6,69.6-17.5,103.6c3.4,7.6,7.6,16.8,1.9,23.3
			c-3.7,4.2-10.2,5.5-16.2,6.5c-32.6,5.4-78.2,3.9-84.6-24.4c-1.4-5.9-0.5-12.2-2.6-18c-4.8-12.8-22.7-18.1-38.3-17.8
			c-15.5,0.3-31.1,4.2-46.4,2c-29.8-4.3-48.9-29.6-60.2-53.9s-19.6-51.2-42.3-68.5"/>
	</g>
	<g>
		<path class="st1" d="M-1721.3,1114.8c7.3-2.6,12.8-9.1,20.1-11.7c11.5-4,23.7,2.6,34.1,9c-7.5,1.1-12.3,10.2-19.9,10
			c-9-0.3-14.2-13.7-23.1-12.4"/>
	</g>
	<g>
		<path class="st1" d="M-1554.4,1092.2c5.7-2.7,11.5-5.5,17.2-8.2c2.7-1.3,5.5-2.6,8.4-2.3c3.8,0.3,6.8,3,10,5.1
			c6.3,4.1,14,5.9,21.4,5.1c-8.7-2-17,4.1-25,8.1c-8,3.9-20.2,4.5-23.6-3.8"/>
		<g>
			<path class="st1" d="M-1554,1092.9c4.9-2.3,9.8-4.7,14.7-7c3.2-1.5,6.1-3.1,9.7-3.2c3.8-0.1,6.2,1.7,9.2,3.8
				c7,4.7,14.7,6.8,23.1,6.1c0.8-0.1,1.1-1.3,0.2-1.5c-9-1.5-16.3,3.5-24.1,7.4c-7.3,3.7-19.7,6.4-24.1-2.8
				c-0.4-0.9-1.7-0.1-1.3,0.8c3,6.3,9.9,7.6,16.3,6.7c11.6-1.7,20.5-12.6,32.7-10.5c0.1-0.5,0.1-1,0.2-1.5c-6.1,0.5-12-0.4-17.5-3
				c-4.1-2-7.6-5.7-12.1-6.8c-3.8-0.9-7.2,0.6-10.6,2.1c-5.8,2.7-11.5,5.5-17.2,8.2C-1555.6,1092-1554.9,1093.3-1554,1092.9
				L-1554,1092.9z"/>
		</g>
	</g>
	<g>
		
			<linearGradient id="SVGID_49_" gradientUnits="userSpaceOnUse" x1="-1346.6" y1="-638.8101" x2="-817.0359" y2="-638.8101" gradientTransform="matrix(1 0 0 -1 0 687.8898)">
			<stop  offset="0" style="stop-color:#54A3DA"/>
			<stop  offset="1" style="stop-color:#54A3DA;stop-opacity:0"/>
		</linearGradient>
		<path class="st50" d="M-1186.2,1470.7c-80-111.9-135.2-241.5-160.4-376.8c13.1-7.5,28.5,4.9,38.3,16.5
			c83.3,98.1,153.8,207.2,208.8,323.5c-28.5-132.5-18.8-273.1,27.7-400.5c57.3,100.9,97.7,211.3,119.2,325.4
			c17.6-87.5,64.1-169,130.5-228.6c22,109.8-31.7,219.1-83.7,318.3c-23.5,44.7-46.9,89.4-70.4,134.1c-28.4-31.4-60.6-59.5-95.7-83.3
			c-5.9,40.2-11.8,80.5-17.7,120.7c-40.5-43.6-76.5-91.4-107.1-142.4"/>
	</g>
	<g>
		<g>
			<path class="st1" d="M-1663.2,1167.5c34.6-12.6,72.1-15.6,108.2-8.2c9.4,1.9,13.5-12.5,4-14.5c-38.7-7.9-79.1-5.3-116.2,8.2
				C-1676.2,1156.3-1672.3,1170.8-1663.2,1167.5L-1663.2,1167.5z"/>
		</g>
	</g>
	<g>
		<g>
			<path d="M-1688.9,1115.9c9.7,0,9.7-15,0-15S-1698.6,1115.9-1688.9,1115.9L-1688.9,1115.9z"/>
		</g>
	</g>
	<g>
		<g>
			<path d="M-1530.1,1098.9c11.6,0,11.6-18,0-18C-1541.6,1080.9-1541.7,1098.9-1530.1,1098.9L-1530.1,1098.9z"/>
		</g>
	</g>
	<g>
		
			<linearGradient id="SVGID_50_" gradientUnits="userSpaceOnUse" x1="-1248.8" y1="-864.5103" x2="-719.236" y2="-864.5103" gradientTransform="matrix(1 0 0 -1 0 687.8898)">
			<stop  offset="0" style="stop-color:#74BF44"/>
			<stop  offset="1" style="stop-color:#74BF44;stop-opacity:0"/>
		</linearGradient>
		<path class="st51" d="M-1088.4,1696.4c-80-111.9-135.2-241.5-160.4-376.8c13.1-7.5,28.5,4.9,38.3,16.5
			c83.3,98.1,153.8,207.2,208.8,323.5c-28.5-132.5-18.8-273.1,27.7-400.5c57.3,100.9,97.7,211.3,119.2,325.4
			c17.6-87.5,64.1-169,130.5-228.6c22,109.8-31.7,219.1-83.7,318.3c-23.5,44.7-46.9,89.4-70.4,134.1c-28.4-31.4-60.6-59.5-95.7-83.3
			c-5.9,40.2-11.8,80.5-17.7,120.7c-40.5-43.6-76.5-91.4-107.1-142.4"/>
	</g>
	<g>
		
			<linearGradient id="SVGID_51_" gradientUnits="userSpaceOnUse" x1="-1418.6326" y1="-1012.4701" x2="-1225.4188" y2="-1012.4701" gradientTransform="matrix(1 0 0 -1 0 687.8898)">
			<stop  offset="0" style="stop-color:#763FF5"/>
			<stop  offset="8.104095e-02" style="stop-color:#7248F2"/>
			<stop  offset="0.2158" style="stop-color:#6862E9"/>
			<stop  offset="0.3876" style="stop-color:#578BDB"/>
			<stop  offset="0.5674" style="stop-color:#43BEC9"/>
			<stop  offset="0.8652" style="stop-color:#E828CB"/>
			<stop  offset="0.9944" style="stop-color:#FF1E44"/>
		</linearGradient>
		<path class="st52" d="M-1381.4,1640.8c-14.9-1-33.9,3-36.9,17.6c-2,9.8,5.3,19.6,14.4,23.8c9.1,4.2,19.5,4,29.5,3.5
			c8.5-0.5,19.3,0.2,22.3,8.2s-4.7,17-1.8,25.1c3.1,8.7,15.5,8.9,24.3,6s18.9-7.2,26.8-2.2c14.3,9,3.7,36.9,18.6,44.8
			c8.8,4.7,19.8-2.5,24.3-11.3c4.6-8.9,5.3-19.2,9.2-28.4c4.7-11.1,13.8-19.8,19.9-30.2c6-10.5,8.3-25.1-0.1-33.7
			c-4.8-5-12.1-6.8-17.3-11.4c-5.1-4.5-7.8-11.2-13-15.3c-6-4.7-14.2-5.3-21.8-5.5c-33.8-0.9-67.6,1.9-100.8,8.3"/>
		<g>
			
				<linearGradient id="SVGID_52_" gradientUnits="userSpaceOnUse" x1="-1419.0669" y1="-1012.2006" x2="-1224.8588" y2="-1012.2006" gradientTransform="matrix(1 0 0 -1 0 687.8898)">
				<stop  offset="0" style="stop-color:#763FF5"/>
				<stop  offset="8.104095e-02" style="stop-color:#7248F2"/>
				<stop  offset="0.2158" style="stop-color:#6862E9"/>
				<stop  offset="0.3876" style="stop-color:#578BDB"/>
				<stop  offset="0.5674" style="stop-color:#43BEC9"/>
				<stop  offset="0.8652" style="stop-color:#E828CB"/>
				<stop  offset="0.9944" style="stop-color:#FF1E44"/>
			</linearGradient>
			<path class="st53" d="M-1381.4,1639.3c-13.3-0.8-32.7,1.7-37.7,16.5c-2.6,7.8,0.4,16,6,21.7c6.9,7.1,16.7,9.5,26.4,10
				c9,0.4,21.7-2.9,29.7,2.6c9.5,6.5-0.2,18.5,1.3,27.3c1.2,7.1,7.8,10.4,14.4,10.8c9.9,0.6,18.3-5.1,28-6
				c21.7-2,15.7,25.9,21.3,38.7c6.9,15.7,25.7,9.6,32.9-2.6c5.9-10,6-22.3,11.2-32.6c5-9.8,13-17.7,18.5-27.2
				c4.1-7.1,6.6-15.7,5.3-24c-1.4-9-7.5-13.9-15.1-18c-6-3.3-10-6.8-14-12.4c-3-4.2-6.2-8.2-11-10.5c-10.1-4.9-23.4-3.6-34.3-3.5
				c-28.7,0.2-57.4,3.1-85.6,8.5c-1.9,0.4-1.1,3.3,0.8,2.9c22.9-4.4,46-7.1,69.2-8c11.1-0.4,22.3-0.6,33.5-0.1
				c5,0.2,10.3,0.7,14.9,2.9c5.1,2.4,8.1,6.9,11.3,11.3c2.1,2.9,4.4,5.6,7.3,7.8c3.6,2.6,7.8,4.3,11.5,6.8
				c8.9,5.9,10.2,16.4,7.4,26.1c-2.6,9-8.7,16.3-14.2,23.7c-6,8-10.3,16-12.8,25.8c-2.6,9.8-4.5,20.7-13.4,26.8
				c-8.1,5.6-17.8,3.3-21.1-6.2c-3.8-10.8-0.6-25.2-9.1-34.1c-12.8-13.3-30.8,4.3-45.6,0.7c-12.6-3.1-6.8-14.8-5.5-23.5
				c0.9-5.9-1.1-11.4-6.4-14.3c-7.5-4.1-16.8-2.4-24.9-2.3c-12,0.2-25.4-1.9-32.5-12.8c-5.9-9.2-2.7-19.8,6.6-24.9
				c7.8-4.3,17.3-5,26-4.5C-1379.4,1642.4-1379.4,1639.4-1381.4,1639.3L-1381.4,1639.3z"/>
		</g>
	</g>
</g>
<g id="Слой_4">
	<path id="SVGID_x5F_53_x5F_" class="st54" d="M-2675.4-458.7c45.8,38.9,94.7,74.1,146.1,105.1c14.5,8.8,29.8,17.7,39.3,31.8
		c12.7,18.7,12.6,44.6,2.1,64.6s-30.4,34.3-52.1,40.6c-21.5,6.2-49.1,2.5-59.4-17.4c-4.9-9.6-12.5-24.6-21.2-18.3
		c-2,1.5-3.1,3.9-4.3,6.2c-17,34.7-62.3,57.6-96.1,38.7c-28.5-16-37.2-52.8-38.2-85.4c-0.5-16.5,0.2-33.3-5.2-48.9
		c-5.1-14.8-15.2-27.3-22.9-41c-24.9-44.6-21.8-99-18-149.9c0.3-4.4,0.8-9.2,3.8-12.4c4.5-4.9,12.5-4,18.9-2.1
		c45.9,13.4,77.8,53.7,106.6,91.8"/>
	<text transform="matrix(1 0 0 1 0 -6.728313e-06)" class="st55 st56"> </text>
	<text transform="matrix(1 0 0 1 -2807.8074 -472.0537)" class="st55 st56"> </text>
	<text transform="matrix(1 0 0 1 -2807.969 -475.387)" style="font-family:'CenturyGothic-Bold'; font-size:72px;"> </text>
	<text transform="matrix(1 0 0 1 -2807.9187 -495.5485)" style="font-family:'MyriadPro-Regular'; font-size:72px;">У</text>
	<text transform="matrix(1 0 0 1 -2797.7332 -553.4706)" style="font-family:'CenturyGothic-Bold'; font-size:72px;">A</text>
	<text transform="matrix(1 0 0 1 -2749.291 -531.6154)" class="st55 st56"> </text>
	<text transform="matrix(1 0 0 1 0 -6.728313e-06)" class="st55 st56"> </text>
</g>
</svg>
