<?xml version="1.0" encoding="utf-8"?>
<!-- Generator: Adobe Illustrator 22.1.0, SVG Export Plug-In . SVG Version: 6.00 Build 0)  -->
<svg version="1.1" id="Слой_1" xmlns="http://www.w3.org/2000/svg" xmlns:xlink="http://www.w3.org/1999/xlink" x="0px" y="0px"
	 viewBox="0 0 3000 2000" style="enable-background:new 0 0 3000 2000;" xml:space="preserve">
<style type="text/css">
	.st0{clip-path:url(#SVGID_1_);fill:#454A67;}
	.st1{fill:#FFFFFF;}
	.st2{fill:url(#SVGID_2_);}
	.st3{fill:url(#SVGID_3_);}
	.st4{fill:url(#SVGID_4_);}
	.st5{fill:url(#SVGID_5_);}
	.st6{fill:url(#SVGID_6_);}
	.st7{fill:url(#SVGID_7_);}
	.st8{fill:url(#SVGID_8_);}
	.st9{fill:url(#SVGID_9_);}
	.st10{fill:url(#SVGID_10_);}
	.st11{fill:url(#SVGID_11_);}
	.st12{fill:url(#SVGID_12_);}
	.st13{fill:url(#SVGID_13_);}
	.st14{fill:url(#SVGID_14_);}
	.st15{fill:url(#SVGID_15_);}
	.st16{fill:url(#SVGID_16_);}
	.st17{fill:url(#SVGID_17_);}
	.st18{fill:url(#SVGID_18_);}
	.st19{fill:url(#SVGID_19_);}
	.st20{fill:url(#SVGID_20_);}
	.st21{fill:url(#SVGID_21_);}
	.st22{fill:url(#SVGID_22_);}
	.st23{fill:url(#SVGID_23_);}
	.st24{fill:url(#SVGID_24_);}
	.st25{fill:url(#SVGID_25_);}
	.st26{fill:url(#SVGID_26_);}
	.st27{fill:url(#SVGID_27_);}
	.st28{fill:url(#SVGID_28_);}
	.st29{fill:url(#SVGID_29_);}
	.st30{fill:url(#SVGID_30_);}
	.st31{fill:url(#SVGID_31_);}
	.st32{fill:url(#SVGID_32_);}
	.st33{fill:url(#SVGID_33_);}
	.st34{fill:url(#SVGID_34_);}
	.st35{fill:url(#SVGID_35_);}
	.st36{fill:url(#SVGID_36_);}
	.st37{fill:url(#SVGID_37_);}
	.st38{fill:url(#SVGID_38_);}
	.st39{fill:url(#SVGID_39_);}
	.st40{fill:url(#SVGID_40_);}
	.st41{fill:url(#SVGID_41_);}
	.st42{fill:url(#SVGID_42_);}
	.st43{fill:url(#SVGID_43_);}
	.st44{fill:#0E0F0F;}
	.st45{fill:url(#SVGID_44_);}
	.st46{fill:url(#SVGID_45_);}
	.st47{fill:url(#SVGID_47_);}
	.st48{fill:url(#SVGID_48_);}
	.st49{fill:url(#SVGID_49_);}
	.st50{fill:url(#SVGID_50_);}
	.st51{fill:url(#SVGID_51_);}
	.st52{fill:url(#SVGID_52_);}
</style>
<g>
	<defs>
		<rect id="SVGID_46_" x="-9.6" y="-431.2" width="3009.6" height="2551.2"/>
	</defs>
	<clipPath id="SVGID_1_">
		<use xlink:href="#SVGID_46_"  style="overflow:visible;"/>
	</clipPath>
	<path class="st0" d="M-389.6,2120h3493V-546.9h-3493v528.7c0,15.6,0,31.3,0,47.7c0,8.2,0.4,16.9,1.4,26.8
		c9.5,49.6-17.7,99.1-2,149.6c0.3,8,0.4,16.4,0.5,25c0.1,17.2,0.1,34.8,0.1,52.6V2120z"/>
</g>
<g>
	<g>
		<path class="st1" d="M2095.2,138.6c5.8,0,5.8-9,0-9C2089.4,129.6,2089.4,138.6,2095.2,138.6L2095.2,138.6z"/>
	</g>
</g>
<g>
	<g>
		<path class="st1" d="M2412.8,26.8c5.8,0,5.8-9,0-9C2407,17.8,2407,26.8,2412.8,26.8L2412.8,26.8z"/>
	</g>
</g>
<g>
	<g>
		<path class="st1" d="M2462.8,200.4c5.8,0,5.8-9,0-9C2457,191.4,2457,200.4,2462.8,200.4L2462.8,200.4z"/>
	</g>
</g>
<g>
	<g>
		<path class="st1" d="M1789.5-77c5.8,0,5.8-9,0-9C1783.7-86,1783.7-77,1789.5-77L1789.5-77z"/>
	</g>
</g>
<g>
	<g>
		<path class="st1" d="M2118.7-152.6c5.8,0,5.8-9,0-9C2112.9-161.6,2112.9-152.6,2118.7-152.6L2118.7-152.6z"/>
	</g>
</g>
<g>
	<g>
		<path class="st1" d="M2471.8-171.2c5.8,0,5.8-9,0-9C2466-180.2,2466-171.2,2471.8-171.2L2471.8-171.2z"/>
	</g>
</g>
<g>
	<g>
		<path class="st1" d="M1859.9,82.7c5.8,0,5.8-9,0-9C1854.1,73.7,1854.1,82.7,1859.9,82.7L1859.9,82.7z"/>
	</g>
</g>
<g>
	<g>
		<path class="st1" d="M974.6,315.1c5.8,0,5.8-9,0-9C968.8,306.1,968.8,315.1,974.6,315.1L974.6,315.1z"/>
	</g>
</g>
<g>
	<g>
		<path class="st1" d="M1751,0.4c5.8,0,5.8-9,0-9C1745.2-8.6,1745.2,0.4,1751,0.4L1751,0.4z"/>
	</g>
</g>
<g>
	<g>
		<path class="st1" d="M1936.5-65.3c5.8,0,5.8-9,0-9C1930.8-74.3,1930.7-65.3,1936.5-65.3L1936.5-65.3z"/>
	</g>
</g>
<g>
	<g>
		<path class="st1" d="M2539.3-52.6c5.8,0,5.8-9,0-9C2533.5-61.6,2533.5-52.6,2539.3-52.6L2539.3-52.6z"/>
	</g>
</g>
<g>
	<g>
		<path class="st1" d="M1089.3,368c5.8,0,5.8-9,0-9C1083.5,359,1083.5,368,1089.3,368L1089.3,368z"/>
	</g>
</g>
<g>
	<g>
		<path class="st1" d="M974.6,223.9c5.8,0,5.8-9,0-9C968.8,214.9,968.8,223.9,974.6,223.9L974.6,223.9z"/>
	</g>
</g>
<g>
	<g>
		<path class="st1" d="M959.9,450.4c5.8,0,5.8-9,0-9C954.1,441.4,954.1,450.4,959.9,450.4L959.9,450.4z"/>
	</g>
</g>
<g>
	<g>
		<path class="st1" d="M2577.5,306.2c5.8,0,5.8-9,0-9C2571.7,297.2,2571.7,306.2,2577.5,306.2L2577.5,306.2z"/>
	</g>
</g>
<g>
	<g>
		<path class="st1" d="M2268.7,232.7c5.8,0,5.8-9,0-9C2262.9,223.7,2262.9,232.7,2268.7,232.7L2268.7,232.7z"/>
	</g>
</g>
<g>
	<g>
		<path class="st1" d="M2271.6-126.1c5.8,0,5.8-9,0-9C2265.8-135.1,2265.8-126.1,2271.6-126.1L2271.6-126.1z"/>
	</g>
</g>
<g>
	
		<linearGradient id="SVGID_2_" gradientUnits="userSpaceOnUse" x1="-146.6412" y1="982.7357" x2="867.8476" y2="982.7357" gradientTransform="matrix(-1 0 0 1 3018.6462 0)">
		<stop  offset="0" style="stop-color:#72BDC0"/>
		<stop  offset="1" style="stop-color:#72BDC0;stop-opacity:0"/>
	</linearGradient>
	<path class="st2" d="M3143.6,1750.3c61.6-175-12.3-387.8-169-487c-5.1-3.2-10.7-6.8-12.5-12.6c-3-9.6,5.6-18.4,12.2-25.9
		c15-16.9,23.1-39.7,22.1-62.3c-0.1-3.6-0.8-7.6-3.6-9.7c-4.8-3.6-11.4,0.7-17.4,0.6c-6-0.1-6.7-12.5-1.7-9.2
		c-29,19.9-50.1,51-57.7,85.4c-39.3-14.3-69.4-48.1-87.2-85.9c-17.9-37.9-24.8-79.9-29.4-121.5c-6.2-55.9-8.4-112.3-6.5-168.6
		c2.2-68,18.3-147.7,80.3-175.8c10.2-4.6,21.8-8,28.2-17.1c6.2-8.8,5.8-20.8,11-30.2c9.8-18,34.1-20,54-25
		c58.4-14.5,100.7-76.9,92.5-136.6c-8.2-59.7-65.7-108.4-125.9-106.6c-8.9,0.3-18.7,1.3-26.1-3.7c-9.1-6.2-10.7-18.6-12.9-29.4
		c-15-72.2-91.6-114.8-164.1-128.3c-33.8-6.3-69.8-8.2-101.7,4.7c-19.6,7.9-36.6,21-54,33c-47.3,32.8-98.9,59-150.3,85.1
		c-46.4,23.5-94.2,47.5-146,52c-44.3,3.9-100.6-0.6-120.4,39.2c-4.3,8.6-5.9,18.2-6.5,27.8c-4.6,73.1,61,143,134.3,143
		c8.7,0,18-0.7,25.7,3.5c14.5,7.9,15.4,27.7,19.4,43.7c8.4,33.5,38,59,71.1,68.9c33.1,9.9,69,6,102-4.1
		c35.1-10.6,70-28.2,106.3-23.6c35.6,4.6,67.1,32.6,75.7,67.5c-16.3,67.5-2.9,138.1,10.5,206.3c4.7,23.7,9.4,47.6,19.2,69.7
		c9.1,20.5,22.4,38.9,31.7,59.4c29,63.3,21.5,146.9,75,191.4c19.9,16.5,45.6,24.8,64.9,42c16.2,14.5,26.6,34.3,36.6,53.7
		c42.7,82.5,85.8,165.9,107.7,256.2c11.9,49,19,102.7,53.4,139.6c4.2,4.5,9.3,8.9,15.4,9.7c20,2.6,39.5-32.2,53.1-17.3"/>
</g>
<g>
	
		<linearGradient id="SVGID_3_" gradientUnits="userSpaceOnUse" x1="838.8539" y1="621.7152" x2="1828.8181" y2="621.7152" gradientTransform="matrix(-1 0 0 1 3018.6462 0)">
		<stop  offset="0" style="stop-color:#72BDC0"/>
		<stop  offset="1" style="stop-color:#72BDC0;stop-opacity:0"/>
	</linearGradient>
	<path class="st3" d="M1726.7,312.2c109.2,21.6,210.4,81.7,281.6,167.2c19.7,23.7,37.5,49.8,45.7,79.5c11.3,41,4.5,88.2,28.4,123.4
		c16.5,24.2,44.3,37.7,66.6,56.7s39.7,51.1,25.8,76.9c-5.6,10.4-15.5,17.8-25.7,23.7c-35.6,20.4-79.8,25.4-119.1,13.5
		c-14.1-4.3-29.3-10.6-42.8-4.9c-7.1,3-12.4,8.8-17.8,14.3c-24.3,24.9-53.1,45.4-84.5,60.3c-9.9,4.7-20.5,8.9-31.4,8.4
		c-10.7-0.5-20.7-5.5-30-11c-34.2-20.3-63.6-48.7-85-82.2c-36.3,34.9-92.2,47.9-140.3,32.6c-48-15.3-86.1-58.3-95.5-107.8
		c-7,29.3-40,47.3-69.9,44s-55.7-23.8-72.7-48.7s-26.5-53.9-35.9-82.5c-1.9-5.7-4.7-12.3-10.6-13.7c-3.2-0.7-6.4,0.4-9.5,1.5
		c-21.1,7.6-42.8,18-64.9,14.1c-33.4-5.9-53.4-44.4-48.7-77.9c4.7-33.5,27.7-61.7,53.4-83.8c71.1-61.2,164.3-88.4,253-118.8
		c22.7-7.8,45.7-16.1,65-30.3c25.9-19.1,48.6-50.1,80.8-48.3c15.3,0.8,29.5,9.5,44.9,9.6c23.7,0.2,45.8-19.9,68.9-14.2"/>
</g>
<g>
	
		<linearGradient id="SVGID_4_" gradientUnits="userSpaceOnUse" x1="1329.5417" y1="1484.9836" x2="2479.0757" y2="1484.9836" gradientTransform="matrix(-1 0 0 1 3018.6462 0)">
		<stop  offset="0" style="stop-color:#72BDC0"/>
		<stop  offset="1" style="stop-color:#72BDC0;stop-opacity:0"/>
	</linearGradient>
	<path class="st4" d="M1591.1,836.8c26.6,83.5-2.8,181.9-70.8,237.2c-23,18.7-50,33-69,55.8c-19,22.8-27.3,58.8-8.2,81.5
		c20.3,24.1,57.3,20.4,88.7,21.4c25.9,0.8,51.6,6.4,75.6,16.2c17.1,7.1,35.2,18.7,38.1,37c1.8,11.4-2.9,23-9.9,32.2
		c-21,27.9-64.2,35.9-93.8,17.4c14.3,24.7,0.3,61.1-26.9,69.5s-59.5-14-60.7-42.5c-9.6,22-36.4,34.9-59.6,28.5
		c-23.1-6.4-39.6-31.2-36.6-55c-42.1,4-56.4,57.8-87.4,86.7c-16.2,15.1-37.4,23.3-58.4,30.4c-69.7,23.5-142.5,38-215.9,42.9
		c-48.8,3.3-99.2,2-144.2-17c-24.1-10.2-46.1-25.3-71.2-32.7c-25.1-7.3-55.8-4.8-72.4,15.4c-20.5,24.9-10.3,62,1.7,91.9
		c6.3,15.8,13.4,32,26.3,43.1c12.6,10.8,29.4,15.4,45.5,19.6c73.6,19.2,147.7,38.5,223.6,43.2c42.2,2.6,85.1,0.8,126,11.1
		c25.6,6.5,49.7,17.6,73.7,28.6c48.1,22.1,96.1,44.2,143.9,66.9c93.6,44.5,138.5,130.3,113.5,235c11.2,8.1,27.4,2.2,37.7-7
		s17.6-21.7,28.9-29.6c15.2-10.6,35-11.6,53.5-12.1c22.4-0.6,46.2-1,65.7,10.2s31.7,38.3,19.1,56.9c-16.1,23.8-62.2,23-64.5,51.6
		c-1.5,18,17.8,30.4,35.1,35.6c17.3,5.2,37.5,9.2,46.7,24.7c9.8,16.4,1.5,38.8-13.4,50.5s-34.7,15.3-53.6,17.3
		c-128.6,14-257.7-22-387-19.3c-26.1,0.5-52.8,2.6-77.6-5.4c-24.8-7.9-47.7-28.9-48.5-54.9c-0.9-29.1,24.1-51.4,44.9-71.7
		c20.9-20.3,40.8-50.4,28-76.5c-12-24.4-44.6-28.7-71.7-26.8c-5.1,0.4-10.6,1.1-14,4.9c-4.9,5.6-2.2,14.4-3.7,21.7
		c-4,19.3-36.4,17.4-44.9-0.4c-8.5-17.8,0.3-39.1,12-54.9c17.9-24.3,47.4-52.2,27.3-84.7c-7.7-12.4-20.4-20.9-32.9-28.5
		c-129.1-78.2-287.9-100.8-409.8-189.8c-45.5-33.2-86.2-77.9-97.6-133c-11.4-55.1,15.3-120.5,68.7-138.1c22.1-7.3,45.9-6.1,69-8.5
		c54.4-5.6,105.3-31.3,159.8-35.9c43.5-3.7,87.6,6.3,130.9,0.5c51.5-6.9,97.6-35.4,147.9-48.4c36.7-9.5,75.3-10.8,111.1-23.3
		c35.8-12.5,70.1-40.7,73.5-78.4c-19.5,6.8-43.3-3.5-51.7-22.3c-8.4-18.8-0.1-43.4,18-53.3c-23.2,10.5-51.7-7.2-60.4-31.1
		c-8.7-23.9-2.4-50.7,7.6-74c4.5-10.5,13.3-22.5,24.4-19.7c9.7,2.4,13.5,14.8,22.3,19.5c15.3,8.1,31-10.5,47.9-14
		c20-4.1,37.2,13.4,55.9,21.6c24.9,11,56.5,4.2,74.6-16c25.3-28.2,21.4-70.8,24.1-108.6c2.7-37.8,23.5-83,61.3-82.4
		c7.9,31.9,33,59.1,64.2,69.6"/>
</g>
<g>
	
		<linearGradient id="SVGID_5_" gradientUnits="userSpaceOnUse" x1="378.9599" y1="1581.0944" x2="1487.4526" y2="1581.0944" gradientTransform="matrix(-1 0 0 1 3018.6462 0)">
		<stop  offset="0" style="stop-color:#72BDC0"/>
		<stop  offset="1" style="stop-color:#72BDC0;stop-opacity:0"/>
	</linearGradient>
	<path class="st5" d="M2009.7,1403.7c29.3,18.5,66.8,14,101.4,17.1c74.9,6.7,140.7,51.2,199,98.6c58.3,47.4,114.5,100.1,184.1,128.6
		c41,16.8,85.1,24.6,128.9,30.9c5,0.7,10.4,1.6,13.7,5.4c5.3,5.9,2.5,15.3-1,22.4c-41.1,83.3-151.8,123.9-237,86.8
		c-5.8-2.5-12-5.5-18.3-4.4c-4.4,0.7-8.2,3.3-11.8,5.9c-34.8,25-64.1,57.6-101.5,78.5c-37.4,20.8-88.2,27-120.5-1.1
		c-5.8-5-11.7-11.4-19.4-11.2c-5,0.1-9.4,3.1-13.4,6.1c-31.7,23.2-62.1,50.8-100,61.1c-70.2,19-142.4-27.6-187.5-84.6
		c-26.8,27.9-55.4,56.8-92.4,67.9c-36.8,10.9-77.1,2.3-111.2-15.3c-34.1-17.6-63-43.5-91.5-69.1c14.4-11.6,28.8-23.2,43.2-34.8
		c10-8.1,20.4-16.6,25.8-28.3c7.5-16.3,3.7-35.3,0.3-53c-16.7-86.6-20.1-182.1,26.3-257.1c21.1-33.9,51-61.3,80.5-88.2
		c26.1-23.8,52.2-47.6,78.4-71.4c13.3-12.1,26.7-24.3,42.1-33.6c17-10.2,35.9-16.5,55.1-21.3c48.8-12.2,100.9-14.8,148.9-0.1
		c48.1,14.7,91.5,48.2,111.8,94.2c7.2,16.3,11.6,34.1,22,48.4c14.4,19.7,37.9,30.1,60,40.5c37.5,17.7,73.9,37.8,108.7,60.2
		c19.2,12.3,38.5,25.9,51,45c12.5,19.1,16.9,45.1,5.2,64.7"/>
</g>
<g>
	
		<linearGradient id="SVGID_6_" gradientUnits="userSpaceOnUse" x1="123.3303" y1="1384.0208" x2="831.7924" y2="1384.0208" gradientTransform="matrix(-1 0 0 1 3018.6462 0)">
		<stop  offset="0" style="stop-color:#72BDC0"/>
		<stop  offset="1" style="stop-color:#72BDC0;stop-opacity:0"/>
	</linearGradient>
	<path class="st6" d="M2853.1,1418.6c-56.3-51.7-145.6-51.6-204.4-100.4c-31.8-26.4-51.4-64.5-80.1-94.2
		c-28.7-29.7-74.7-50.8-110.9-30.9c-36.2,19.9-43.2,68.6-68.8,101.1c-20.9,26.5-53.4,40.9-84.9,53.1c-31.5,12.2-64.4,24-88.8,47.4
		c-24.4,23.4-37.6,62.3-20.9,91.7c4.8,8.4,11.7,15.5,19.9,20.5c17.2,10.4,38.5,11.1,58.5,8.9c34.4-3.7,68-14.7,98-32.1
		c20,26.1,7.2,70.3,33,90.7c23.5,18.5,57.5,1.1,81.2-17.2c3.7-2.9,7.8-5.9,12.5-6.2c11.6-0.8,17.1,13.5,25.2,21.8
		c15.1,15.4,41.4,9.1,59.8-2.3s35.5-27.3,56.9-29.2c7.8-0.7,15.7,0.6,23.6,0.9c39.9,1.4,76.2-23.3,104.3-51.6
		c6.6-6.7,13.2-13.7,21.4-18.2c7.5-4.1,15.9-5.8,24.1-8.3c30.5-9.2,56.9-28.2,82.7-46.9c-9.3-4.7-20.2-6-30.3-3.6"/>
</g>
<g>
	
		<linearGradient id="SVGID_7_" gradientUnits="userSpaceOnUse" x1="319.1598" y1="1708.2441" x2="596.7443" y2="1708.2441" gradientTransform="matrix(-1 0 0 1 3018.6462 0)">
		<stop  offset="0" style="stop-color:#72BDC0"/>
		<stop  offset="1" style="stop-color:#72BDC0;stop-opacity:0"/>
	</linearGradient>
	<path class="st7" d="M2421.9,1540.9c12.6,27.4,34.1,50.6,60.5,65.1c37.5,20.7,85.4,25.3,113.7,57.5c3.1,3.6,6.1,7.7,6.7,12.4
		c1.8,13.9-15.9,21.7-29.9,21.5c-20.4-0.4-39.9-7.9-60.1-11c-20.1-3.2-43.2-0.9-56.9,14.2c-1.5,1.7-3,3.6-3.3,5.9
		c-0.4,2.9,1.2,5.7,3,8c9.6,11.7,26.4,13.6,41.2,17.1c14.8,3.4,31.4,12.3,32.2,27.5c0.9,15.6-15.2,26-28.5,34.1
		c-13.4,8.1-27.8,22.4-21.9,36.9c2.6,6.5,8.8,10.9,15,14.4c40.2,23.1,88.1,27.3,134.3,30.9c3.9,0.3,8,0.6,11.4-1.4
		c9.4-5.3,3.7-20.8-5.7-26c-9.5-5.2-21.4-5.9-29.6-13c-16.1-14-5.7-42,11.9-54.3c17.5-12.3,39.9-16.3,57.1-28.9
		c30.3-22.3,35.7-71.5,11-99.8c-12.6-14.5-30.6-22.8-47-32.9c-28.8-17.6-53.8-41.3-72.9-69.1"/>
</g>
<g>
	
		<linearGradient id="SVGID_8_" gradientUnits="userSpaceOnUse" x1="1071.1813" y1="568.1234" x2="2008.4194" y2="568.1234" gradientTransform="matrix(-1 0 0 1 3018.6462 0)">
		<stop  offset="0" style="stop-color:#72BDC0"/>
		<stop  offset="1" style="stop-color:#72BDC0;stop-opacity:0"/>
	</linearGradient>
	<path class="st8" d="M1709.6,221.4c-19.5,13.6-43,19.6-64.4,29.9c-26.4,12.6-49.3,31.3-71.9,49.9c-52,42.7-103.9,85.4-155.9,128.1
		c-10.8,8.9-22.7,20.7-20,34.4c1.6,7.8,7.7,13.8,13.8,19c25,21.1,54.8,36.5,86.5,44.8c15.3,4,31.2,6.4,45.3,13.7
		c14.1,7.2,26.3,20.7,26.5,36.5c0.3,24.8-27.6,40.4-52.2,43s-50.9-1.6-73.4,8.7c-6.1,2.8-12.1,7.1-14.7,13.3
		c-4.5,11,3.2,23.1,11.5,31.5c21.9,22.2,50.8,35.8,79.1,48.9c106.1,49.4,212.2,98.9,318.4,148.3c45.4,21.1,96,48.5,107.1,97.3
		c12.7,55.7-32.4,105.6-61.4,154.9c-18.8,31.9-31.7,67.2-37.8,103.7c-64.3-0.3-124.9-50.5-137.1-113.7c-3.7-19.1-3.4-39-10.2-57.2
		c-12.4-33.2-45.1-53.7-75.8-71.3c-88.4-50.6-178.7-98-270.6-142.1c-40.5-19.4-82.5-39-112.2-72.7c-29.7-33.7-43.6-85.8-20.2-124.1
		c6.1-10.1,14.7-19.2,16.8-30.8c2.9-15.7-7.6-31.4-20.9-40.1c-13.4-8.8-29.4-12.3-44.7-16.8c-72.5-21.4-140.8-74-158.3-147.5
		c-2.7-11.3-4.1-23.3-0.3-34.3c7-20.4,30.6-31.3,52.2-30.6c21.6,0.7,41.7,10.5,61.1,20.1c6.1-26.3,42.8-31.6,68-21.8
		c25.2,9.9,47.3,28.9,74.2,31.6c28.7,2.8,55.8-13.9,77.2-33.3c26.7-24.2,48.3-53.4,69.7-82.3c23.5-31.8,47-63.6,70.6-95.4
		c4.9-6.7,10-13.6,12-21.6c2.3-9.2,0.4-18.8-1.2-28.1c-7.8-46.4-20.9-122.2,12.4-160.3c29.1-33.2,75.4-48.4,119.5-45.7
		c56.7,3.4,110.9,35,141.8,82.7c9.5,14.7,17,31.8,14.8,49.1c-4.2,33.4-30,54.6-33.4,89.2C1747.6,166.7,1742.4,198.6,1709.6,221.4z"
		/>
</g>
<g>
	
		<linearGradient id="SVGID_9_" gradientUnits="userSpaceOnUse" x1="758.2659" y1="-57.0869" x2="1999.7053" y2="-57.0869" gradientTransform="matrix(-1 0 0 1 3018.6462 0)">
		<stop  offset="0" style="stop-color:#72BDC0"/>
		<stop  offset="1" style="stop-color:#72BDC0;stop-opacity:0"/>
	</linearGradient>
	<path class="st9" d="M1779.3-435.2c47.3,19.7,93.3,42.3,137.7,67.7c24.7,14.1,50.2,30.6,62.1,56.4c10.3,22.4,8.8,48.1,8.5,72.8
		c-0.7,60.6,8.4,123.1,39.8,175s88.3,91.1,148.8,88.8c27.6-1,61.3-7.9,77.7,14.3c11.8,16,6.1,40.1-7.6,54.6s-33.2,21.7-52.1,28
		c9.4,26.9,18.8,55.8,11.3,83.2c-9.6,34.7-44.4,57.1-79.4,65.5c-54.6,13.2-115.2-0.9-158.3-36.9c-12.4,23.1-25.1,46.6-43.6,65.1
		c-18.6,18.5-44.3,31.6-70.4,28.9c-26.1-2.7-50.6-24.8-50.3-51c-13.9,7.6-26,19.2-41.5,22.6c-21.9,4.9-44.5-8.8-57.1-27.3
		s-17.3-41.2-21.7-63.2c-39.5,21.2-70.9,55.8-111.5,74.8c-69.7,32.5-161.1,8-205.2-55c-21.7,33.5-69.6,47-105.6,29.7
		c-28.7-13.7-47.5-43.7-52.9-75.1s1.6-63.8,14.2-93.1c1.4-3.3,2.9-6.9,2-10.4c-2.1-7.6-12.9-7.5-20.6-5.8
		c-37.8,8.5-78.2,16.4-114.3,2.5s-62.8-58.9-43.6-92.5c-26.8-34.7-34.3-83.3-19.2-124.4c15.1-41.1,52.2-73.4,95-82.6
		c4.5-1,9.7-2.2,11.8-6.3c1.2-2.4,1-5.1,0.8-7.8c-3.2-65.8,65.5-124.9,130.1-111.8c-14.3,9-3.2,31.2,9.5,42.3
		c19.1,16.7,40.5,31,63.3,42.1c4.4,2.1,9,4.2,13.8,4c6.1-0.3,11.4-4.2,16.2-8c13.7-11,26.8-22.7,39.9-34.5c19-17.1,38-34.2,57-51.3
		c19.3-17.4,38.8-34.9,60.9-48.6c73.8-45.4,166.5-42.2,253-37.5c15.3,0.8,36.4,10,30.6,24.1"/>
</g>
<g>
	
		<linearGradient id="SVGID_10_" gradientUnits="userSpaceOnUse" x1="1515.0352" y1="599.5507" x2="2213.5845" y2="599.5507" gradientTransform="matrix(-0.8705 0.4923 0.4923 0.8705 2321.3123 -986.6754)">
		<stop  offset="0" style="stop-color:#72BDC0"/>
		<stop  offset="1" style="stop-color:#72BDC0;stop-opacity:0"/>
	</linearGradient>
	<path class="st10" d="M1006.3,174.1c58.5-2.4,117.1,29.4,147.1,79.6c21.1,35.4,36,84.6,76.8,90.6c15.2,2.3,30.6-2.8,45.9-3.7
		c35.9-2.1,72,20.9,85.2,54.4s2.6,74.9-25.1,97.9c8.6,14.3,30.5,8.2,46.4,13.4c21.5,7,28.4,36.6,18.4,56.8
		c-10,20.2-31.3,32.3-52.5,40.1c-31.4,11.7-65.2,16.8-98.7,15.1c17.6,35.8-2.5,82.5-37.6,101.5c-35,19-79.5,13.8-114.5-5.4
		c-12.8,30.3-31.7,65.2-64.5,67.7c-16.9,1.3-33-6.8-47.7-15.2c-45.2-25.7-87.9-56-127.1-90.1c-7.6-6.6-17.3-13.9-26.8-10.5
		c-4.5,1.6-7.8,5.4-11.1,8.9c-12.6,13.4-28,25-46,28.8c-18,3.8-38.7-1.7-49.3-16.8c-11.4-16.1-8.7-37.9-12.8-57.2
		c-8.9-41.5-48.3-68.3-72-103.5c-21.2-31.5-29.7-71.1-23.5-108.5c8.9-53.3,45.7-97.7,86-133.8c40.3-36.1,85.6-67,120.5-108.3
		c10.6-12.5,20.3-26.1,33.5-35.9c27.6-20.4,64.7-20.6,99-20c15.6,0.3,34.5,2.6,41,16.8c5.3,11.6,3.1,30.5,15.7,32.2"/>
</g>
<g>
	
		<linearGradient id="SVGID_11_" gradientUnits="userSpaceOnUse" x1="1700.9762" y1="1454.547" x2="2443.0339" y2="1454.547" gradientTransform="matrix(-1 0 0 1 3018.6462 0)">
		<stop  offset="0" style="stop-color:#72BDC0"/>
		<stop  offset="1" style="stop-color:#72BDC0;stop-opacity:0"/>
	</linearGradient>
	<path class="st11" d="M1108,701c2.7,5.6,5.4,11.2,8.1,16.8c14.7,30.5,31.6,63.2,62.3,77.4c29.3,13.6,72.4,13,81.7,43.9
		c6.1,20.3-9.5,41.7-28.8,50.4c-19.3,8.7-41.2,8.3-62.3,9.2c-10.7,0.5-22,1.6-30.6,7.9c-23.2,17-10.4,53,0.3,79.7
		c44.5,111.4-0.2,251.4-101.1,316.4c-58.4,37.6-134.6,54.7-172.2,113.1c-21.3,33-25.8,76.2-12,113c25,66.2,98.7,98.9,167,117.4
		c36.1,9.8,73.7,18,104.4,39.3c32.6,22.6,54.9,60.2,59.6,99.6c3.9,32.5,9.3,85.6-19.9,107.5c-11,8.3-25.2,12.6-34.2,23
		c-8.1,9.3-10.9,22.8-7.2,34.5c37.8,5.1,76.8,3.3,113.6,13.4c36.8,10,73,35.9,79.9,73.4c1.8,10,1.1,21.4-6.1,28.6
		c-4.7,4.7-11.4,6.8-17.8,8.7c-40.1,11.9-84.7,23.5-122.4,5.3c-7.8-3.7-15.2-8.7-23.8-9.6c-20.2-2-35.1,19.6-38.7,39.6
		s-1.3,41.5-10,59.8c-17.5,36.9-67.3,41.6-108.1,41.1c-21.5-0.3-43.4-0.7-63.7-7.7c-23.8-8.3-43.5-25.1-65.7-36.9
		c-35.2-18.7-75.8-24.3-112.1-40.7c-6.4-2.9-12.8-6.3-17.1-11.8c-5.2-6.8-6.4-15.7-7.4-24.2c-5.7-48.1-8.8-104,26.3-137.5
		c17.6-16.8,41.7-24.5,62.9-36.3c21.2-11.8,41.5-31.7,40.7-56c-0.3-8.6-2.7-18.9,3.9-24.5c4.2-3.6,10.3-3.4,15.8-3
		c36.3,2.4,72.7,4.8,109,7.2c7-29.9,11.5-67.5-13.3-85.6c-23.2-17-37.8-37.8-61.2-53.5c-39.1-26.3-86.2-45.4-127.9-67.5
		c-23.8-12.6-47.9-25.4-68.9-42.2c-33.2-26.5-57.7-62.2-81-97.7c-33.4-50.8-66.7-110.9-50.1-169.4c14-49.4,61-83.1,109.6-99.7
		c48.6-16.6,100.7-20.2,150.6-32.4c49.9-12.2,100.7-35.6,127.4-79.5c12.7-20.9,19.1-44.9,24.6-68.7c10.3-44.7,18-90,23.1-135.6
		c-33.6,14.1-69.5,22.5-105.8,24.8c-7.6,0.5-15.7,0.6-22.1-3.4c-8.5-5.2-11.7-15.7-14.3-25.3c-4.2-15.5-8.4-32.1-3.4-47.4
		c7.9-24.2,34.8-35.7,52.1-54.4c16.6-17.9,24.3-43.7,20.1-67.7c10.9-4.8,21.2,6.7,30.5,14.1c20.4,16.3,50.7,14.5,73.9,2.6
		c23.2-11.9,40.9-32,58-51.7"/>
</g>
<g>
	
		<linearGradient id="SVGID_12_" gradientUnits="userSpaceOnUse" x1="418.3489" y1="918.6111" x2="1392.8036" y2="918.6111" gradientTransform="matrix(-1 0 0 1 3018.6462 0)">
		<stop  offset="0" style="stop-color:#72BDC0"/>
		<stop  offset="1" style="stop-color:#72BDC0;stop-opacity:0"/>
	</linearGradient>
	<path class="st12" d="M2370.9,294.4c47.5,27,103.7,38.7,158.1,32.8c26.6-2.9,56.2-12.5,67.2-37c9.3-20.7,1.8-45.4-11.1-64
		c-12.9-18.6-30.8-33.2-45.3-50.6c-32.3-38.7-46.6-89.1-72.2-132.6S2396-39.9,2346.4-31c-35.1,6.4-61.3,34.9-84.8,61.7
		c-44,50-91.3,101.6-154.3,123.4c-24,8.3-54.1,16.2-59.9,40.9c-6.3,26.4,21.2,48,45.9,59.3c60.6,27.9,127.4,42.2,194.2,41.4
		c11-0.1,24.7,1,28.8,11.2c2,5,0.8,10.7-1.1,15.8c-19.4,53.5-93.4,64.3-126.1,110.9c-18.4,26.1-21.1,59.7-31,90.1
		c-2.1,6.5-5.1,13.4-11.2,16.3c-7.9,3.7-16.9-0.8-25.4-2.4c-14.9-2.8-31.2,4.4-39.2,17.3c-7.9,12.9-7,30.7,2.3,42.7
		c9.6,12.4,26.1,17.9,35.4,30.5c18.1,24.4,0.6,57.9-5.4,87.6c-9,44.5,10.2,89.9,34.8,128c24.6,38.1,55.3,72.7,73.8,114.1
		c9.5,21.4,28.9,49,34.9,70.4c6.7,24.1-9.1,52.3-20.2,73.9c-26.1,50.9-65.8,94.9-114.5,125.2c-72.1,45-162.8,59.1-245.3,38.2
		c-1.6,15.7-16,27.9-17.4,43.6c-2.3,26.5,30.5,40.3,56.6,45.4s59,18,57.7,44.6c-1.2,23.6-29,35-52,40.6
		c-47.2,11.6-94.7,22.9-139.3,42.3c-38,16.4-73.2,38.4-108.3,60.3c-25.4,15.9-54.4,39.3-48.6,68.7c4.3,21.9,26,34.9,44.7,47
		c18.7,12.2,38.2,30.9,34.1,52.8c-1.6,8.3-6.5,15.9-6.8,24.4c-0.6,17.9,18.7,29.2,35.6,35c98.5,34.2,211.3,25.6,301.8,77.5
		c5.7,3.3,11.6,6.8,18.1,6.9c6.4,0.1,12.3-3.3,18.2-5.7c33.1-13.5,70.3,0.9,103.4,14.4c19.3,7.8,48.8,10.8,54-9.4
		c-37.8-2.4-59.7-42.4-89.5-65.8c-28-22-64.3-29.4-98.2-40.2c-38.5-12.3-75.3-29.7-109.2-51.7c-15-9.7-31-23.1-31-41
		c0-27.1,33.9-38.9,60.8-41.9c33.7-3.8,68.5-6.1,99.2-20.6c30.7-14.5,56.9-44.7,54.9-78.6c-1.9-32.9-28-69.7-6.6-94.8
		c14.2-16.7,40.8-14.5,61.1-6.2c20.3,8.2,39.7,21.1,61.6,21.5c21.9,0.4,45.8-20.7,37.3-40.9c-4.5-10.6-15.9-16.6-22.2-26.2
		c-9.7-14.9-4.8-35.6,5.8-49.9c10.6-14.3,26-24.3,39.5-35.9c47.4-40.9,72.6-106.3,64.8-168.5c-1.9-15.5-5.8-31.1-4.5-46.7
		c1.1-14,6.4-27.5,8-41.4c3.9-33.8-13.6-65.8-29.2-96c-19.8-38.4-44.7-81.7-53.8-124.1c-9.6-44.4-1.7-94.1,4.5-138.4
		c19.8-13.7,46.4-9,70.1-12.9s49-28.7,36-49c-5.3-8.3-15.2-12.2-23.9-16.6c-36.9-18.7-63.2-57-67.5-98.1s13.5-84,45.8-110
		c14.4-11.6,31.7-20.2,43-34.9c11.3-14.7,13.8-38.9-1.2-49.8"/>
</g>
<g>
	
		<linearGradient id="SVGID_13_" gradientUnits="userSpaceOnUse" x1="236.5369" y1="1912.4148" x2="1818.4119" y2="1912.4148" gradientTransform="matrix(-1 0 0 1 3018.6462 0)">
		<stop  offset="0" style="stop-color:#72BDC0"/>
		<stop  offset="1" style="stop-color:#72BDC0;stop-opacity:0"/>
	</linearGradient>
	<path class="st13" d="M1224.3,1754.3c-14.2-25.9-28.9-54.9-22.4-83.8c4.8-21.5,20.7-38.6,35.9-54.6c14.8-15.5,29.6-31.1,44.3-46.6
		c10.5-11.1,21.8-22.6,36.5-26.8s33.6,2.2,37.4,17c2.5,9.6-1.8,19.5-4.6,29.1c-11.5,39.6,6.1,85.9,41,107.9
		c15.1,9.5,32.6,14.7,48,23.6c16.7,9.7,30.6,23.5,44.3,37.2c28.5,28.6,140.5,180.5,186.3,145c15.7-12.2,16.9-34.9,20.9-54.4
		c11.6-57.1,61-104.6,118.5-113.9c15.2-2.5,32.6-1.7,43.3,9.4c11.5,12,10.4,30.9,9.2,47.5c-2.3,31.5-1.3,65.9,18.2,90.8
		c21.1,27,58.9,35.5,93.1,32.4c34.1-3.1,66.6-15.7,100-23.3c53-12,108-11.3,162.3-8.2c180.6,10.3,369.2,50.6,504,171.3
		c19.1,17.1,37.8,37.5,41.1,62.8c5,37.6-24.7,70-52.3,96c-20.9,19.7-42.4,39.5-68.4,51.5c-32.3,14.8-68.8,16.2-104.3,17.4
		c-85.5,2.9-172.6,5.5-255.1-17.3c-14.7-4.1-32-12.4-32.6-27.6c-0.6-14.7,14.6-24.2,27.5-31.2c26-14.1,51.9-31.9,65.1-58.4
		c13.2-26.5,8.9-63.7-16.3-79.3c-11.3-7-24.9-8.8-38.1-10.5c-76.4-9.7-152.9-19.4-229.3-29.1c-5.9-0.7-12.1-1.5-17.6,0.8
		c-9.7,4-13.4,15.4-17.2,25.2c-14.5,37-46.1,66.9-83.9,79.3c-37.8,12.3-81,6.9-114.5-14.5c-6.2-4-12.4-8.8-15.3-15.6
		c-3.2-7.7-1.6-16.4-0.4-24.6c3.5-24.3,2.7-50.8-11.3-71s-44.4-30.1-64-15.4c-29.6,22.2-14.1,77.5-44.7,98.3
		c-6.3,4.3-13.9,6.4-21.3,8.2c-70.5,16.6-147.5,6.8-209.9-30c-68.1-40.2-90.3-96.6-120.6-164.5c-13.6-30.4-33.6-38.9-60-58.2
		C1263.7,1822.1,1243.7,1789.7,1224.3,1754.3z"/>
</g>
<g>
	<g>
		<path class="st1" d="M960.2-109.3c5.8,0,5.8-9,0-9C954.5-118.3,954.4-109.3,960.2-109.3L960.2-109.3z"/>
	</g>
</g>
<g>
	<g>
		<path class="st1" d="M1106.7,125.8c5.8,0,5.8-9,0-9C1100.9,116.8,1100.9,125.8,1106.7,125.8L1106.7,125.8z"/>
	</g>
</g>
<g>
	<g>
		<path class="st1" d="M1300.6,277.3c5.8,0,5.8-9,0-9C1294.8,268.3,1294.8,277.3,1300.6,277.3L1300.6,277.3z"/>
	</g>
</g>
<g>
	<g>
		<path class="st1" d="M1300.6,28.9c5.8,0,5.8-9,0-9C1294.8,19.9,1294.8,28.9,1300.6,28.9L1300.6,28.9z"/>
	</g>
</g>
<g>
	<g>
		<path class="st1" d="M1161.2-89.3c5.8,0,5.8-9,0-9C1155.4-98.3,1155.4-89.3,1161.2-89.3L1161.2-89.3z"/>
	</g>
</g>
<g>
	<g>
		<path class="st1" d="M970.3,47c5.8,0,5.8-9,0-9C964.5,38,964.5,47,970.3,47L970.3,47z"/>
	</g>
</g>
<g>
	<g>
		<path class="st1" d="M1430.9-86.3c5.8,0,5.8-9,0-9C1425.1-95.3,1425.1-86.3,1430.9-86.3L1430.9-86.3z"/>
	</g>
</g>
<g>
	<g>
		<path class="st1" d="M1443.1,113.7c5.8,0,5.8-9,0-9C1437.3,104.7,1437.3,113.7,1443.1,113.7L1443.1,113.7z"/>
	</g>
</g>
<g>
	<g>
		<path class="st1" d="M1618.8,295.5c5.8,0,5.8-9,0-9C1613,286.5,1613,295.5,1618.8,295.5L1618.8,295.5z"/>
	</g>
</g>
<g>
	<g>
		<path class="st1" d="M1646.1,453.1c5.8,0,5.8-9,0-9C1640.3,444.1,1640.3,453.1,1646.1,453.1L1646.1,453.1z"/>
	</g>
</g>
<g>
	<g>
		<path class="st1" d="M1894.6,398.6c5.8,0,5.8-9,0-9C1888.8,389.6,1888.8,398.6,1894.6,398.6L1894.6,398.6z"/>
	</g>
</g>
<g>
	<g>
		<path class="st1" d="M1821.8,631.9c5.8,0,5.8-9,0-9C1816,622.9,1816,631.9,1821.8,631.9L1821.8,631.9z"/>
	</g>
</g>
<g>
	<g>
		<path class="st1" d="M1688.5,616.7c5.8,0,5.8-9,0-9C1682.7,607.7,1682.7,616.7,1688.5,616.7L1688.5,616.7z"/>
	</g>
</g>
<g>
	<g>
		<path class="st1" d="M2155.2,416.7c5.8,0,5.8-9,0-9C2149.4,407.7,2149.4,416.7,2155.2,416.7L2155.2,416.7z"/>
	</g>
</g>
<g>
	<g>
		<path class="st1" d="M2324.9,719.8c5.8,0,5.8-9,0-9C2319.1,710.8,2319.1,719.8,2324.9,719.8L2324.9,719.8z"/>
	</g>
</g>
<g>
	<g>
		<path class="st1" d="M2330.9,859.2c5.8,0,5.8-9,0-9C2325.1,850.2,2325.1,859.2,2330.9,859.2L2330.9,859.2z"/>
	</g>
</g>
<g>
	<g>
		<path class="st1" d="M2158.2,901.6c5.8,0,5.8-9,0-9C2152.4,892.6,2152.4,901.6,2158.2,901.6L2158.2,901.6z"/>
	</g>
</g>
<g>
	<g>
		<path class="st1" d="M2570.3,847c5.8,0,5.8-9,0-9C2564.5,838,2564.5,847,2570.3,847L2570.3,847z"/>
	</g>
</g>
<g>
	<g>
		<path class="st1" d="M2412.7,1053.1c5.8,0,5.8-9,0-9C2407,1044.1,2406.9,1053.1,2412.7,1053.1L2412.7,1053.1z"/>
	</g>
</g>
<g>
	<g>
		<path class="st1" d="M2600.6,195.5c5.8,0,5.8-9,0-9C2594.8,186.5,2594.8,195.5,2600.6,195.5L2600.6,195.5z"/>
	</g>
</g>
<g>
	<g>
		<path class="st1" d="M1209.7,286.4c5.8,0,5.8-9,0-9C1203.9,277.4,1203.9,286.4,1209.7,286.4L1209.7,286.4z"/>
	</g>
</g>
<g>
	<g>
		<path class="st1" d="M979.4,962.2c5.8,0,5.8-9,0-9C973.6,953.2,973.6,962.2,979.4,962.2L979.4,962.2z"/>
	</g>
</g>
<g>
	<g>
		<path class="st1" d="M1218.8,771.3c5.8,0,5.8-9,0-9C1213,762.3,1213,771.3,1218.8,771.3L1218.8,771.3z"/>
	</g>
</g>
<g>
	<g>
		<path class="st1" d="M2267.3,322.8c5.8,0,5.8-9,0-9C2261.5,313.8,2261.5,322.8,2267.3,322.8L2267.3,322.8z"/>
	</g>
</g>
<g>
	
		<linearGradient id="SVGID_14_" gradientUnits="userSpaceOnUse" x1="242.6065" y1="423.1371" x2="748.5853" y2="423.1371" gradientTransform="matrix(-1 0 0 1 3018.6462 0)">
		<stop  offset="0" style="stop-color:#72BDC0"/>
		<stop  offset="1" style="stop-color:#72BDC0;stop-opacity:0"/>
	</linearGradient>
	<path class="st14" d="M2461.8,253.6c29.2-5.8,58.8,5,86.6,15.6c33.7,12.9,68.6,26.5,93.5,52.6c33.8,35.4,45.8,90.4,87.1,116.6
		c20.7,13.1,51.6,25.9,46.5,49.9c-2.1,10.1-10.7,17.3-18.8,23.7c-26.8,21.3-60.1,44-92.6,33.1c-7.3-2.4-14.2-6.5-21.8-7.2
		c-19.8-1.7-33.3,18.5-47.5,32.4c-36.7,36-104.6,31.7-136.5-8.7c-3.3-4.1-6.5-8.8-11.5-10.3c-7-2.1-14,2.7-20.2,6.7
		c-40.5,26.6-97.6,25-136.5-3.9c-8.2-6.1-16-13.8-18.8-23.6c-6.1-21.4,12.4-40.9,22.2-60.8c24.2-49.2-2.2-117.3,34.9-157.7
		c10.5-11.5,24.9-18.7,39.1-25c36-16,73.7-28,112.3-35.7"/>
</g>
<g>
	
		<linearGradient id="SVGID_15_" gradientUnits="userSpaceOnUse" x1="417.7744" y1="957.8887" x2="727.6589" y2="957.8887" gradientTransform="matrix(-1 0 0 1 3018.6462 0)">
		<stop  offset="0" style="stop-color:#72BDC0"/>
		<stop  offset="1" style="stop-color:#72BDC0;stop-opacity:0"/>
	</linearGradient>
	<path class="st15" d="M2454.5,604.8c14.1-41.9,66.4-53.1,90.1-87.8c9.9-14.5,20-33.5,10.6-48.3c-9.2-14.5-30.7-13.8-47.1-8.4
		c-76.3,25.4-74.7,97.1-121.2,151.4c-21.1,24.6-41,57.1-29.8,87.5c4.3,11.8,12,27.5,1.5,34.5c-3.5,2.3-7.9,2.5-12.1,2.8
		c-17.4,1.1-35.8,6-47.2,19.2s-11.9,36.5,2.6,46.3c16.3,11,40.8,0.2,56.7,11.6c16.8,12,11.6,37.6,15,58c6.3,36.9,43.3,58.7,75.4,78
		c32.1,19.3,66.5,48.5,62.3,85.7c-2.4,21.4-17.5,38.8-29.6,56.6c-52,75.9-56.5,181.6-11.1,261.6c14,24.7,32.6,47.8,38.3,75.6
		c1.1,5.3,1.7,10.8,4.2,15.7c4.8,9.3,15.7,14.2,26.2,14.5c36.5,0.9,57.8-44.5,52.1-80.6s-27.6-67.7-36.4-103.2
		c-14.6-58.5,7.5-119.1,25.8-176.6c18.3-57.5,32.5-122.7,4.2-176c-21.1-39.7-61.6-64.5-91.6-98c-11.7-13.1-22.1-28.3-24.7-45.7
		s4.5-37.1,20.2-44.9c9.9-4.9,21.6-4.6,31.7-9.1c14.8-6.6,23.8-24.1,20.6-40c-3.2-15.9-18.4-28.5-34.6-28.7
		c-8.1-0.1-16.1,2.5-24.2,1.7C2459.3,656,2447.1,626.6,2454.5,604.8z"/>
</g>
<g>
	
		<linearGradient id="SVGID_16_" gradientUnits="userSpaceOnUse" x1="901.1033" y1="1245.0305" x2="2339.5774" y2="1245.0305" gradientTransform="matrix(-1 0 0 1 3018.6462 0)">
		<stop  offset="0" style="stop-color:#72BDC0"/>
		<stop  offset="1" style="stop-color:#72BDC0;stop-opacity:0"/>
	</linearGradient>
	<path class="st16" d="M1176.1,841.9c7.7-20.7,28.9-34.1,50.5-38.5c21.7-4.4,44.1-1.2,66,2c134.7,20.3,278.5,51.9,369.8,153.1
		c68,75.4,102.3,185.1,192,232.7c70.7,37.5,159.4,26.1,230.4,62.9c8.2,4.2,16.3,9.3,21.9,16.7c5.6,7.3,8.3,16.5,9.7,25.6
		c8.7,55.6-32.8,114.3-88.1,124.7c-8.3,1.6-17,2.3-24.1,6.8c-11.5,7.3-15,22.1-18.9,35.1c-23.1,76.8-93.9,137-173.4,147.5
		c-50.1,6.7-102.4-4.8-150.8,9.6c-27.6,8.2-52.2,24.3-78.1,36.9c-31,15.1-64.4,25.2-98.5,30c-22.4,3.1-46.7,3.6-66.1-8.1
		c-42.3-25.6-40.2-94.3-82.1-120.5c-32.4-20.2-74.7-5.3-108.7,12c-34.1,17.2-72.4,37-108.6,24.8c-11.4-3.9-21.6-10.7-33.1-14.3
		c-33.1-10.3-67.4,8.3-101.2,16.1c-46.5,10.6-98.1-0.9-134.1-32.1c-36.1-31.2-55-81.9-45.8-128.7c3.4-17.3,10.3-34.1,11.3-51.7
		s-6.1-37.6-22.4-44.3c-11.9-4.9-25.5-1.7-38.3-3.2c-44.3-5.1-62.1-58.8-70-102.6c-6.2-34.3-11.9-72.1,5.9-102.1
		c21.7-36.5,69-47,111-53.3c10.3-1.6,21.2-3,31,0.7c11.5,4.4,19.2,15.3,29.5,22.2c27.3,18.2,63.8,4.7,93.6-9.3
		c56.9-26.6,119.7-60,137.1-120.3c4.7-16.4,5.7-34.2,14.4-48.9c9.8-16.6,27.6-26.5,42.6-38.6c15-12.1,28.6-30.4,24.2-49.2"/>
</g>
<g>
	
		<linearGradient id="SVGID_17_" gradientUnits="userSpaceOnUse" x1="493.3892" y1="1087.6971" x2="1446.7609" y2="1087.6971" gradientTransform="matrix(-1 0 0 1 3018.6462 0)">
		<stop  offset="0" style="stop-color:#72BDC0"/>
		<stop  offset="1" style="stop-color:#72BDC0;stop-opacity:0"/>
	</linearGradient>
	<path class="st17" d="M2089.2,756.3c75,26.6,143,72.7,195.4,132.6c20.3,23.1,38.3,48.2,59.6,70.3c24.2,25,52.5,46,83.5,61.8
		c38.5,19.6,86.7,37.7,96,79.9c5.2,23.5-4.6,48.6-21.1,66.1s-38.9,28.4-61.7,36.1c-9,3-18.4,5.7-26,11.4
		c-10.5,7.9-16.1,20.4-21.5,32.3c-16.8,37.1-35.5,74.8-66.3,101.4s-76.9,39.5-113.2,21c-3.1,32-35.3,55.9-67.4,56.6
		c-32.1,0.7-62.3-17.4-83.5-41.5c-21.2-24.1-35-53.7-48.5-82.8c-31.2,30.9-81.9,38.5-122.3,21.4c-40.4-17.1-69.6-56.5-78-99.6
		c-28,20.9-67.7,7.4-98.9-8.5c-31.7-16.2-62.5-34.3-92.1-54c-11.6-7.7-23.9-17.1-26.3-30.8c-1.4-8.3,1.2-17-0.3-25.3
		c-2.4-13.9-15-23.5-21-36.2c-9.6-20.4-0.1-45.7,16.6-60.9c16.7-15.2,38.9-22.4,60.6-28.6c8.8-2.5,18-5.2,24.3-11.9
		c7-7.4,8.8-18,11.1-27.9c8.7-36.5,28.8-70.2,56.8-95.2c38.8-34.7,90.3-51.5,140.9-63.9c71.4-17.4,144.5-27.6,217.9-30.6"/>
</g>
<g>
	
		<linearGradient id="SVGID_18_" gradientUnits="userSpaceOnUse" x1="768.0507" y1="1888.5745" x2="1434.7819" y2="1888.5745" gradientTransform="matrix(-1 0 0 1 3018.6462 0)">
		<stop  offset="0" style="stop-color:#72BDC0"/>
		<stop  offset="1" style="stop-color:#72BDC0;stop-opacity:0"/>
	</linearGradient>
	<path class="st18" d="M2082.3,1548c7.4,28.9-9.9,58.2-29.7,80.5c-19.8,22.3-43.4,42.8-53.1,71c-13.8,40,4.5,83.7,27.1,119.4
		c13.9,21.9,15.5,35.9,16.5,60c0.8,20.4-3.4,42.5,18.3,56.9c11.4,7.5,26,7.4,39.7,7.1c24.4-0.6,48.7-1.3,73.1-1.9
		c15.3-0.4,33,0.2,42.6,12.2c12.1,15,2.2,39.3-14.6,48.8c-16.8,9.5-37.4,8.5-56.7,7.2c-10.4,20.6,12.3,43.8,34.9,48.8
		c22.5,5,47,0.6,68.3,9.4c7.9,27.3-10.3,56.7-34.8,71c-24.6,14.3-54,16.9-82.3,18.8c-83.6,5.7-167.4,8.1-251.2,7.3
		c-24.7-0.2-52.7,0.6-68.9,19.2c-6.3,7.2-10,16.3-16.3,23.5c-15.9,18.5-43.5,20.3-67.9,20.7c-24,0.4-48,0.8-72,1.3
		c-15.1,0.3-30.9,0.4-44.2-6.8c-19.5-10.5-28.4-34.6-27.3-56.7s10.5-42.8,19.6-63c2.7-5.9,5.7-12.2,11.3-15.4
		c9.2-5.4,21.2-0.5,31.5-3.2c10.3-2.7,17-12.3,24.3-20c41.6-43.7,112.3-33,171.8-22.7c5.8,1,12.5,1.7,16.7-2.3
		c3.8-3.6,4.1-9.5,3.8-14.8c-1.4-29.5-9-58.8-22.2-85.2c-2.4-4.8-5-10.4-2.9-15.3c1.9-4.3,6.7-6.4,11.2-7.8
		c18.8-6.2,38.8-8.9,58.6-7.8"/>
</g>
<g>
	<linearGradient id="SVGID_19_" gradientUnits="userSpaceOnUse" x1="979.8163" y1="505.0363" x2="1369.7577" y2="505.0363">
		<stop  offset="0" style="stop-color:#776DAE"/>
		<stop  offset="6.263512e-02" style="stop-color:#7470AE"/>
		<stop  offset="0.1669" style="stop-color:#6F77AF"/>
		<stop  offset="0.2998" style="stop-color:#6686B3"/>
		<stop  offset="0.4545" style="stop-color:#599EB9"/>
		<stop  offset="0.5674" style="stop-color:#4EB3BD"/>
		<stop  offset="0.8652" style="stop-color:#BC5FA1"/>
		<stop  offset="0.9944" style="stop-color:#D34D5B"/>
	</linearGradient>
	<path class="st19" d="M1031.3,181c52.9,11.6,94.9,53.2,121.7,100.3c17,29.9,34.1,66.7,67.9,72.9c40.7,7.5,84.8-35.2,119.8-13.1
		c14.9,9.4,21.4,27.7,25.5,44.8c4.3,17.8,6.6,38.3-4.4,53c-9,12.1-24.6,16.9-37.5,24.8s-24,24.1-16.9,37.4
		c4.6,8.5,14.7,12,23.2,16.7c27.5,15.3,41,51.8,30.2,81.3c-5.2,14.2-15.1,26.5-18,41.3c-3.2,16.6,2.9,33.4,4.4,50.2
		c3.5,38.9-20.6,78.7-56.7,93.6c-6.8,2.8-15.3,4.5-20.8-0.4c-3.8-3.4-4.8-8.9-5.3-14c-3.3-32.7,3.3-65.7,1.5-98.5
		c-1.8-32.8-15-68.5-44.7-82.6c-15.2-7.2-37.6-5.1-43.5,10.7c-5.5,14.9,7,29.7,13.5,44.2c10.8,24.1,5.1,52-0.9,77.7
		c-4.5,19.3-8.9,38.5-13.4,57.8c-4.3,18.3-10.4,39.1-27.5,47c-26.2,12.1-54.6-17.4-58.4-46s5.8-57.7,2.4-86.3
		c-3.4-28.7-30.5-58.9-57.2-48.1c-6.1,2.5-11.4,6.9-17.8,8.7c-16.2,4.7-33-9.5-37-25.9c-4-16.3,1.2-33.4,7.3-49.1
		c25.6-66.1,67.3-133.3,51.5-202.4c-8.9-39-35.2-71.7-48.8-109.3c-6.6-18.3-10-38.7-3.3-56.9c6.7-18.2,26.2-32.7,45.1-28.5"/>
	<g>
		<linearGradient id="SVGID_20_" gradientUnits="userSpaceOnUse" x1="979.3163" y1="505.0425" x2="1370.2577" y2="505.0425">
			<stop  offset="0" style="stop-color:#776DAE"/>
			<stop  offset="6.263512e-02" style="stop-color:#7470AE"/>
			<stop  offset="0.1669" style="stop-color:#6F77AF"/>
			<stop  offset="0.2998" style="stop-color:#6686B3"/>
			<stop  offset="0.4545" style="stop-color:#599EB9"/>
			<stop  offset="0.5674" style="stop-color:#4EB3BD"/>
			<stop  offset="0.8652" style="stop-color:#BC5FA1"/>
			<stop  offset="0.9944" style="stop-color:#D34D5B"/>
		</linearGradient>
		<path class="st20" d="M1030.9,182.4c36,8.1,67,30,91,57.5c12.1,13.9,22.4,29.1,31.4,45.2c8,14.3,15.7,29,25.8,42.1
			c9.2,12,20.8,22.6,35.5,27.1c15,4.6,30.7,1.7,45.4-2.7c29.3-8.9,68.8-29.9,91.7,2.4c10.3,14.5,15.2,35.1,16.4,52.6
			c0.7,10-0.4,20.5-5.8,29.2c-5.3,8.5-13.9,13.6-22.6,18.2c-14.2,7.5-30.6,15.3-35.1,32.3c-1.9,6.9-0.5,14.2,4.2,19.7
			c5.5,6.4,13.9,9.4,21.1,13.4c14.8,8.3,25.5,22.8,30.3,39c5.3,17.9,2.6,35.3-5.8,51.8c-4.2,8.3-9.1,16.4-11.8,25.4
			c-2.9,9.7-2.4,19.8-0.9,29.7c1.7,11,4.4,21.8,4.4,33c0,8.8-1.3,17.5-3.8,25.8c-5.1,17-15.1,32.6-28.5,44.3
			c-10.9,9.5-43.2,30.8-47.5,5c-3.8-22.5-0.5-46.2,0.8-68.8c1-19.2,1.3-38.5-3.1-57.3c-6.5-28.1-25.9-61.7-58.2-63.5
			c-12.9-0.7-27.3,4.8-30.3,18.7c-3.9,18,12.6,33.9,17.4,50.1c6.2,21.1,1.8,43.6-2.9,64.4c-5,22.1-10,44.2-15.4,66.1
			c-4,16.1-10.1,35.6-26.9,42.5c-17.6,7.2-35.2-5.3-44.8-19.4c-25-36.6,1.3-81.3-9.6-121c-4.1-15.1-13.9-29.9-27.7-37.9
			c-6.1-3.5-13.1-5.5-20.1-5c-8.8,0.6-15.4,5.6-23.1,9.3c-20.3,9.5-38.7-10.8-40.5-29.8c-2.1-22.1,9.2-44.4,17.6-64.1
			c16-37.5,34.6-74.8,42.4-115.1c3.7-18.8,4.7-38.2,1.6-57.2c-3.2-19.4-10.9-37.6-19.7-55c-9.3-18.3-19.8-35.9-27.6-54.9
			c-8.1-19.6-14-42.4-6.6-63.2c6.2-17.5,24.4-32,43.6-28.3c1.9,0.4,2.7-2.5,0.8-2.9c-16.4-3.2-32.1,5.6-41.4,18.8
			c-11.3,16.1-10.8,37.4-6.2,55.7c10.2,40.7,38.8,73.8,50.5,113.9c12.3,41.9,1.7,85-13.6,124.6c-8,20.7-17.3,40.8-26,61.2
			c-8,18.7-17.8,38.7-18.6,59.4c-0.6,16.7,7.3,34,23.6,40.5c7.2,2.8,14.7,2.3,21.6-1c9.3-4.4,17-10.2,27.9-8.6
			c18.6,2.7,32.4,20.8,37.8,37.7c6.9,21.5,1.5,45.3-0.2,67.2c-1.6,19.3-1,38.6,9.7,55.4c8,12.5,21,24,36.4,24.8
			c16.2,0.8,28.4-11.1,34.8-24.9c8.1-17.6,11-37.9,15.3-56.7c5-21.7,11.5-43.6,13-65.9c0.7-9.9,0.2-20-2.4-29.7
			c-2.6-9.7-7.9-18.1-12.4-27c-4.7-9.1-9-20.5-2.6-30c4.6-6.8,13.1-9.5,20.9-9.8c18-0.6,33.7,11.3,43.6,25.4
			c24.3,34.5,19,78,16.9,117.6c-0.6,11.6-0.9,23.2-0.2,34.7c0.5,7.5,0.7,17.3,7.7,22c6.3,4.2,14.7,2.1,21.2-0.5
			c7.7-3.2,14.8-7.5,21.3-12.7c28-22.4,40.6-57.9,34.7-92.9c-2-12.3-5.2-24.8-3.3-37.3c1.6-10.5,7-19.8,11.9-29.1
			c8.1-15.4,12.2-31,9.2-48.4c-2.8-15.6-10.8-30.5-22.7-41c-6.4-5.7-13.9-9.1-21.3-13.2c-9.3-5.1-16.4-13-13.4-24.3
			c5.5-20.7,28.6-26,44.2-36.6c15.1-10.2,20.6-26.1,19.4-43.8c-2.1-30.8-15.4-72.4-52.2-73.3c-33.6-0.8-63.4,25.7-97.5,19.5
			c-35.5-6.4-51.8-45.8-67.8-73.6c-18-31.3-42.4-60-73.2-79.4c-15-9.4-31.4-16.4-48.6-20.3C1029.8,179.1,1029,182,1030.9,182.4
			L1030.9,182.4z"/>
	</g>
</g>
<g>
	<linearGradient id="SVGID_21_" gradientUnits="userSpaceOnUse" x1="1664.4141" y1="96.713" x2="2212.8086" y2="96.713">
		<stop  offset="0" style="stop-color:#776DAE"/>
		<stop  offset="6.263512e-02" style="stop-color:#7470AE"/>
		<stop  offset="0.1669" style="stop-color:#6F77AF"/>
		<stop  offset="0.2998" style="stop-color:#6686B3"/>
		<stop  offset="0.4545" style="stop-color:#599EB9"/>
		<stop  offset="0.5674" style="stop-color:#4EB3BD"/>
		<stop  offset="0.8652" style="stop-color:#BC5FA1"/>
		<stop  offset="0.9944" style="stop-color:#D34D5B"/>
	</linearGradient>
	<path class="st21" d="M1838-343.5c55.8-3.6,103.4,44,124.1,96c20.6,52,22.3,109.3,34.5,163.9c12.2,54.6,39.7,111.3,91,133.5
		c27,11.7,58.5,12.8,82.6,29.6c40.1,27.9,43.3,85,42.5,133.8c-0.6,37.3-1.3,74.5-1.9,111.8c-0.2,12.6-0.6,25.7-6.7,36.7
		c-16.2,29.3-63.7,29.1-79.1,58.8c-9.1,17.8-3,39.4-6.4,59.1c-3.9,22.5-20.5,41.4-40.6,52.2c-15.2,8.2-34,12.1-49.7,4.9
		c-23.6-10.8-30.5-41.8-26-67.4c4.5-25.5,17.1-49.1,21-74.8c8.9-59-31.1-116.1-80.9-148.9c-23.1,46.4-35,98.3-34.6,150.1
		c0.1,18.2,1.4,37.9-8.6,53.1c-18.1,27.4-64,21.2-84.4-4.5s-21.6-61.6-17.8-94.3c3.8-32.6,11.4-65.7,5.1-98
		c-9.1-46.8-47-88.2-40.8-135.4c3.1-23.3,17-45.5,13-68.7c-8-47.4-78.4-55.9-99.6-99c-6-12.3-7.4-26.3-8.6-39.9
		c-2.4-26.4-4-55.2,10.8-77.1c18.9-27.9,58.5-35.6,78.2-63c15.9-22.2,15.1-52.1,24.2-77.9c9.1-25.8,40.3-49.3,62.2-33"/>
	<g>
		<linearGradient id="SVGID_22_" gradientUnits="userSpaceOnUse" x1="1663.9141" y1="96.7055" x2="2213.3086" y2="96.7055">
			<stop  offset="0" style="stop-color:#776DAE"/>
			<stop  offset="6.263512e-02" style="stop-color:#7470AE"/>
			<stop  offset="0.1669" style="stop-color:#6F77AF"/>
			<stop  offset="0.2998" style="stop-color:#6686B3"/>
			<stop  offset="0.4545" style="stop-color:#599EB9"/>
			<stop  offset="0.5674" style="stop-color:#4EB3BD"/>
			<stop  offset="0.8652" style="stop-color:#BC5FA1"/>
			<stop  offset="0.9944" style="stop-color:#D34D5B"/>
		</linearGradient>
		<path class="st22" d="M1838-342c48.6-2.7,89.2,32.6,111.9,72.7c27.7,48.7,30.8,107.1,40.3,161.1c8.1,45.8,22,93.1,53.9,128.3
			c15.2,16.7,33.9,28.9,55.3,35.9c23.9,7.8,50.3,10.6,71.1,25.7c37.9,27.3,40.9,80.7,40.7,123.3c-0.2,30.1-1,60.2-1.5,90.3
			c-0.3,15.1,0.3,30.5-1.2,45.5c-1.3,12.3-5.6,23.4-14.9,31.7c-14.4,12.8-33.9,17.6-50.1,27.6c-7.1,4.4-13.6,9.8-18.1,16.9
			c-6.5,10.3-7.3,22.5-7.3,34.3c0,12.9,0.7,25.8-3.6,38.2c-4.2,11.9-12.1,22.3-21.6,30.5c-19,16.4-51.1,28.5-72.8,10
			c-16.7-14.2-20-39.6-16.4-60c4.7-27.3,18.6-52.1,21.6-79.7c5.2-47.7-20.9-92.9-54.9-124.3c-8.5-7.9-17.7-15-27.3-21.4
			c-0.6-0.4-1.7-0.2-2.1,0.5c-21,42.4-32.9,89.1-34.6,136.4c-0.8,21.4,3.9,47-8.2,66.1c-9.4,14.8-27.7,19.7-44.3,17.2
			c-18.1-2.7-33.8-13-43.3-28.6c-11.2-18.3-14.3-40.3-14-61.4c0.3-23.8,5.2-47.1,7.7-70.7c2.5-23.9,1.9-47.5-5.9-70.4
			c-13.2-38.8-42.8-76.8-35.3-119.8c3.7-21.5,15.9-42,12.8-64.4c-2-14.2-10-26.1-20.6-35.5c-22.6-20.2-53.5-30.4-72.6-54.6
			c-14-17.8-15-41.5-16.4-63.2c-1.4-21.9-0.8-45.8,12.5-64.4c21.9-30.7,65.8-36.2,83.1-71.4c9.4-19.1,10.5-40.8,16.2-61
			c5.2-18.7,17.8-37.1,37.1-43.3c8.8-2.9,17.7-1.9,25.3,3.5c1.6,1.1,3.1-1.5,1.5-2.6c-14.6-10.3-32.3-4.5-45,6.1
			c-15.8,13.3-21.6,31.7-25.6,51.3c-4.5,22.2-8.1,45.4-24.8,62.1c-13.8,13.8-32,21.9-48,32.8c-16.6,11.3-28.8,26-33.3,45.9
			c-4.9,21.6-2.5,44.9,0.2,66.6c2.4,19,9,35.2,22.9,48.4c11.6,11,25.5,19.1,38.9,27.6c13.3,8.4,27.3,17.3,36.5,30.3
			c4.4,6.1,7.4,13.1,8.7,20.6c2.1,12.8-1.4,25.5-5.2,37.7c-3.4,11.1-7.2,22.1-8.3,33.7c-0.9,10,0.1,20.2,2.4,30
			c4.9,20.9,15,40.2,23.8,59.7c10.1,22.3,17.4,44.6,17.3,69.4c0,26.6-6,52.7-8.3,79.1c-3.2,37.1,1.7,85.1,39.5,103.5
			c13.9,6.8,30.8,9.2,45.6,4c17.2-6,26.3-21.4,28.7-38.8c1.5-10.8,0.9-21.8,0.9-32.7c0-12.7,0.7-25.3,2.1-37.9
			c2.9-25.6,8.9-50.9,17.6-75.1c4.3-11.8,9.2-23.3,14.7-34.5c-0.7,0.2-1.4,0.4-2.1,0.5c41.8,27.8,78.5,72.9,81.3,124.9
			c1.5,28.8-10.5,54.3-18.3,81.3c-6,20.9-8,43.9,2.1,64c10.8,21.4,33.6,28.8,56.1,22.5c22.2-6.2,42.6-22.8,52.3-43.8
			c5.1-11.1,6.2-22.6,6.2-34.6c-0.1-13.7-1.3-28.5,5.6-41c9.7-17.5,30.7-24.2,47.6-32.5c8.6-4.2,17.1-9,23.8-15.8
			c7.5-7.7,11.4-17.5,12.9-28c2-14.8,1.3-30,1.6-44.9c0.3-16,0.5-31.9,0.8-47.9c0.5-26.5,1.8-53.1-0.3-79.5
			c-1.7-21.5-5.5-43.5-15.6-62.8c-10.8-20.6-28.3-34.5-50.1-42.3c-24.5-8.7-50.7-11.5-73.2-25.3c-41.3-25.1-63.3-72.9-74.6-118.2
			c-14-56.6-14.4-116.4-36.2-171.1c-16.4-41.1-49-80.7-92.8-93.4c-10.6-3.1-21.7-4.3-32.8-3.7C1836.1-344.9,1836.1-341.9,1838-342
			L1838-342z"/>
	</g>
</g>
<g>
	<linearGradient id="SVGID_23_" gradientUnits="userSpaceOnUse" x1="1938.6113" y1="1271.7483" x2="2080.3762" y2="1271.7483">
		<stop  offset="0" style="stop-color:#776DAE"/>
		<stop  offset="6.263512e-02" style="stop-color:#7470AE"/>
		<stop  offset="0.1669" style="stop-color:#6F77AF"/>
		<stop  offset="0.2998" style="stop-color:#6686B3"/>
		<stop  offset="0.4545" style="stop-color:#599EB9"/>
		<stop  offset="0.5674" style="stop-color:#4EB3BD"/>
		<stop  offset="0.8652" style="stop-color:#BC5FA1"/>
		<stop  offset="0.9944" style="stop-color:#D34D5B"/>
	</linearGradient>
	<path class="st23" d="M1979.5,1224.6c25.4-2.8,51.5,0.7,75.4,10c8.5,3.3,17.4,7.9,21.5,16.1c2.6,5.1,3.1,11.1,3.4,16.8
		c0.8,12.5,1.5,25.8-4.5,36.8c-6.2,11.2-18.6,18-31.2,20.4c-12.6,2.4-25.6,1.1-38.3-0.2c-6.6-0.7-13.5-1.5-18.8-5.3
		c-9.7-6.9-10.9-20.9-17.8-30.6c-8.5-11.9-25.4-17.5-29.7-31.5c-4.4-14.4,8.3-29.1,22.5-34.1c14.2-5,29.7-3.7,44.6-5.6"/>
	<g>
		<linearGradient id="SVGID_24_" gradientUnits="userSpaceOnUse" x1="1938.1113" y1="1271.7255" x2="2080.8762" y2="1271.7255">
			<stop  offset="0" style="stop-color:#776DAE"/>
			<stop  offset="6.263512e-02" style="stop-color:#7470AE"/>
			<stop  offset="0.1669" style="stop-color:#6F77AF"/>
			<stop  offset="0.2998" style="stop-color:#6686B3"/>
			<stop  offset="0.4545" style="stop-color:#599EB9"/>
			<stop  offset="0.5674" style="stop-color:#4EB3BD"/>
			<stop  offset="0.8652" style="stop-color:#BC5FA1"/>
			<stop  offset="0.9944" style="stop-color:#D34D5B"/>
		</linearGradient>
		<path class="st24" d="M1979.5,1226.1c15-1.5,30.2-1.1,45.1,1.5c13.3,2.4,27.7,6,39.4,12.9c6.1,3.6,10.8,8.4,12.7,15.3
			c1.9,6.9,1.9,14.8,2.1,21.9c0.3,14.9-3.2,29.1-16.2,37.8c-11.6,7.8-25.8,9.3-39.5,8.7c-6.9-0.3-13.8-0.9-20.6-1.8
			c-8.4-1.1-15.8-3.6-20.5-11.1c-5.5-8.7-7.2-19.3-14.3-27.1c-7.3-8.1-18.2-12.9-24.2-22.2c-8.7-13.5,1.4-28.7,13.8-35.4
			c14.8-8,33.1-5.8,49.2-7.8c1.9-0.2,1.9-3.2,0-3c-15.7,1.9-32.6,0.3-47.4,6.6c-10.8,4.6-21,14.7-22,26.9c-1,12.8,9.1,21,18.2,28.1
			c5.2,4.1,10.5,8.3,13.9,14c3.4,5.6,5.2,12,8.1,17.8c2.6,5.3,6.2,10,11.6,12.7c6.6,3.3,14.4,3.6,21.6,4.3
			c15.5,1.5,31.8,2.3,46.4-4.3c12.8-5.7,21.7-16.3,24-30.3c1.3-7.5,0.9-15.2,0.4-22.7c-0.4-7-0.8-14.4-4.5-20.5
			c-7.9-13.2-27-18.2-40.9-21.6c-18.5-4.6-37.7-5.9-56.6-3.9C1977.6,1223.3,1977.6,1226.3,1979.5,1226.1L1979.5,1226.1z"/>
	</g>
</g>
<g>
	<linearGradient id="SVGID_25_" gradientUnits="userSpaceOnUse" x1="1457.7578" y1="1270.9716" x2="1626.6326" y2="1270.9716">
		<stop  offset="0" style="stop-color:#776DAE"/>
		<stop  offset="6.263512e-02" style="stop-color:#7470AE"/>
		<stop  offset="0.1669" style="stop-color:#6F77AF"/>
		<stop  offset="0.2998" style="stop-color:#6686B3"/>
		<stop  offset="0.4545" style="stop-color:#599EB9"/>
		<stop  offset="0.5674" style="stop-color:#4EB3BD"/>
		<stop  offset="0.8652" style="stop-color:#BC5FA1"/>
		<stop  offset="0.9944" style="stop-color:#D34D5B"/>
	</linearGradient>
	<path class="st25" d="M1463.9,1233.8c42.8-0.1,85.6,4.5,127.4,13.8c8.8,1.9,17.8,4.2,24.8,9.9c13.5,11,14.1,34.4,1.1,46
		c-12.9,11.7-36.1,8.7-45.7-5.9c-2.5-3.8-4.2-8.2-7.2-11.6c-9.6-11.1-27.4-7.5-41.2-2.6c-13.8,4.9-30.8,9.7-41.8,0
		c-8.7-7.7-9.2-21.1-15.8-30.7c-2.6-3.8-6.2-7.1-7.5-11.6c-1.3-4.4,1.6-10.5,6.2-10"/>
	<g>
		<linearGradient id="SVGID_26_" gradientUnits="userSpaceOnUse" x1="1457.2578" y1="1270.9763" x2="1627.1326" y2="1270.9763">
			<stop  offset="0" style="stop-color:#776DAE"/>
			<stop  offset="6.263512e-02" style="stop-color:#7470AE"/>
			<stop  offset="0.1669" style="stop-color:#6F77AF"/>
			<stop  offset="0.2998" style="stop-color:#6686B3"/>
			<stop  offset="0.4545" style="stop-color:#599EB9"/>
			<stop  offset="0.5674" style="stop-color:#4EB3BD"/>
			<stop  offset="0.8652" style="stop-color:#BC5FA1"/>
			<stop  offset="0.9944" style="stop-color:#D34D5B"/>
		</linearGradient>
		<path class="st26" d="M1463.9,1235.3c33.3,0,66.5,2.7,99.4,8.3c14.7,2.5,31.2,4.3,44.8,10.7c11.7,5.5,18.1,17,16.9,29.8
			c-1.1,12.3-9.5,22.3-21.8,24.6c-12,2.3-24.9-2.7-31.3-13.2c-3-5-5.3-10.3-10.2-13.8c-4-2.8-8.8-4.1-13.6-4.3
			c-11.9-0.7-22.8,4.2-33.9,7.5c-7.4,2.1-15.6,3.9-23.2,2c-8-2-12.7-8-15.7-15.3c-2.5-5.9-4.1-12.2-7.3-17.7
			c-1.8-3.1-4.3-5.6-6.3-8.6c-2.3-3.4-4.5-12.4,2.5-12.5c1.9,0,1.9-3,0-3c-4.5,0.1-7.4,3.7-7.9,8c-0.8,6.9,5.4,11.7,8.7,17
			c6.9,11.1,7.2,26.7,20.3,33.2c12.2,6.1,27,0.9,38.9-3.2c14.5-5,33.2-8.6,42.2,7.1c3.3,5.7,6.1,10.8,11.6,14.6
			c4.5,3.1,9.7,4.9,15,5.6c11.3,1.4,23-2.8,29.5-12.4c6.5-9.5,7.1-22.6,2.3-32.9c-6-12.9-19.5-17.4-32.4-20.4
			c-42.2-9.5-85.4-14.1-128.6-14C1462,1232.3,1462,1235.3,1463.9,1235.3L1463.9,1235.3z"/>
	</g>
</g>
<g>
	<linearGradient id="SVGID_27_" gradientUnits="userSpaceOnUse" x1="2328.5332" y1="262.232" x2="2570.8889" y2="262.232">
		<stop  offset="0" style="stop-color:#776DAE"/>
		<stop  offset="6.263512e-02" style="stop-color:#7470AE"/>
		<stop  offset="0.1669" style="stop-color:#6F77AF"/>
		<stop  offset="0.2998" style="stop-color:#6686B3"/>
		<stop  offset="0.4545" style="stop-color:#599EB9"/>
		<stop  offset="0.5674" style="stop-color:#4EB3BD"/>
		<stop  offset="0.8652" style="stop-color:#BC5FA1"/>
		<stop  offset="0.9944" style="stop-color:#D34D5B"/>
	</linearGradient>
	<path class="st27" d="M2480,115.1c3.6,47.6,67.6,66.7,85.6,110.9c15.8,39-9.1,82.5-7.2,124.6c0.3,6.8,1.3,13.8-1.4,20.1
		c-2.2,5.3-6.8,9.2-11.2,12.9c-13.1,11.1-26.5,22.3-42.4,28.8c-15.9,6.5-35,7.5-49.5-1.6c-15.4-9.6-22.8-28.7-23.4-46.9
		c-0.5-13.1,1.9-27-3.9-38.8c-5.8-11.8-25-17.4-31.5-6c-2.7,4.7-2.2,10.5-3.5,15.7c-4.4,17.6-29.4,23.7-44.5,13.6
		c-15.1-10.1-20.4-30.5-17.9-48.5c1.7-12.2,6.3-23.9,7.3-36.2c1.4-16.7-3.8-33.2-4.3-49.9s5.9-35.9,21.6-41.7
		c15.2-5.6,34,3.4,47.8-5.3c7.9-5,11.6-14.4,15.4-23c6.1-14,14.8-28.1,28.8-34.3c14-6.2,34,0,37.1,14.9"/>
	<g>
		<linearGradient id="SVGID_28_" gradientUnits="userSpaceOnUse" x1="2328.0332" y1="262.4554" x2="2571.3889" y2="262.4554">
			<stop  offset="0" style="stop-color:#776DAE"/>
			<stop  offset="6.263512e-02" style="stop-color:#7470AE"/>
			<stop  offset="0.1669" style="stop-color:#6F77AF"/>
			<stop  offset="0.2998" style="stop-color:#6686B3"/>
			<stop  offset="0.4545" style="stop-color:#599EB9"/>
			<stop  offset="0.5674" style="stop-color:#4EB3BD"/>
			<stop  offset="0.8652" style="stop-color:#BC5FA1"/>
			<stop  offset="0.9944" style="stop-color:#D34D5B"/>
		</linearGradient>
		<path class="st28" d="M2478.5,115.1c2.2,25,20.4,42.6,38.3,58.2c20.1,17.5,43.6,35.2,50.3,62.5c8.7,35.2-9,70.6-10.3,105.7
			c-0.4,9.2,2.4,19.9-1.3,28.6c-3.5,8.3-12.7,14.2-19.4,19.7c-14.2,11.7-30.1,22.8-48.7,25.6c-18.9,2.8-37.2-4.1-47.1-20.9
			c-4.4-7.4-6.9-16-7.9-24.5c-1-8.9-0.1-17.8-0.4-26.7c-0.6-13.3-5-26.5-18.9-30.7c-4.8-1.5-10.4-1.6-14.8,1.1
			c-5.2,3.2-6.5,9.1-7.3,14.8c-1.1,8.2-3.7,14.8-11.1,19.2c-5.8,3.5-12.9,4.8-19.7,4.1c-16.5-1.9-26.5-17.2-29.3-32.4
			c-3.4-18.3,4.4-35,6.6-52.8c2.4-19.1-4.7-37.6-4-56.7c0.5-15.2,7.1-33,23.3-37.1c15.2-3.8,32.7,4.5,46.5-5.4
			c5.7-4.1,9.1-10.4,12-16.6c3.4-7.5,6.5-15,11-21.9c8.8-13.4,23.5-24.3,40.2-18.8c7.1,2.3,12.8,7.3,14.6,14.7
			c0.5,1.9,3.4,1.1,2.9-0.8c-3-12.4-15.8-18.8-27.9-18.4c-15.4,0.5-27,12.5-34.4,25c-4.4,7.5-7.2,15.7-11.3,23.3
			c-5,9.4-12.4,14.8-23.1,15.3c-15.4,0.8-32-4.2-44.4,7.9c-10.4,10.3-13.2,26.3-12.2,40.3c0.7,10.5,3,20.9,3.9,31.4
			c1,11.2-0.5,21.7-3.2,32.5c-4.1,16.6-7,33-0.3,49.4c5.1,12.4,15.4,22.4,29,23.9c11.8,1.3,25.4-3.6,30.9-14.7
			c3.6-7.2,1-18.4,8.2-23.5c6.3-4.5,15.7-1.2,21,3.4c7.6,6.5,8.6,17.5,8.6,26.8c0.1,8.9-0.6,17.8,0.8,26.6
			c2.4,15.2,9.8,30.6,23.3,38.9c33.4,20.7,70.3-7.3,94.9-28.5c6.2-5.3,11.1-11,12-19.4c1-9.5-0.7-19.1,0.1-28.6
			c1.6-19.6,7.2-38.6,10.2-58c2.7-17.4,3.3-35.4-3.4-52c-4.9-12.2-13.3-22.5-22.6-31.7c-19.1-19-44.9-34.2-57.3-58.9
			c-3.1-6.2-5-13-5.6-19.9C2481.4,113.2,2478.4,113.2,2478.5,115.1L2478.5,115.1z"/>
	</g>
</g>
<g>
	<linearGradient id="SVGID_29_" gradientUnits="userSpaceOnUse" x1="1890.9115" y1="732.6577" x2="2157.2769" y2="732.6577">
		<stop  offset="0" style="stop-color:#776DAE"/>
		<stop  offset="6.263512e-02" style="stop-color:#7470AE"/>
		<stop  offset="0.1669" style="stop-color:#6F77AF"/>
		<stop  offset="0.2998" style="stop-color:#6686B3"/>
		<stop  offset="0.4545" style="stop-color:#599EB9"/>
		<stop  offset="0.5674" style="stop-color:#4EB3BD"/>
		<stop  offset="0.8652" style="stop-color:#BC5FA1"/>
		<stop  offset="0.9944" style="stop-color:#D34D5B"/>
	</linearGradient>
	<path class="st29" d="M1963.4,544.9c-8.8-7.4-17.8-15-28.8-18.5c-10.9-3.5-24.4-1.8-31.6,7.1c-4,4.8-5.7,11-7,17.1
		c-7.3,33.1-6.8,67.9,1.5,100.8c8.3,33.1,24.4,66.6,16.3,99.7c-2.5,10.1-7.2,19.6-8.5,30c-1.3,10.3,1.9,22.3,11.1,27.1
		c4.8,2.5,10.4,2.6,15.7,3.6c17.7,3.4,32.9,17.7,37.2,35.2c5.1,20.7-4.1,42-5.8,63.3c-1.6,21.3,11.1,47.9,32.3,45.7
		c12.8-1.3,22.2-13.1,25.8-25.4c3.6-12.3,2.8-25.4,3.7-38.2c1.5-20.1,7.3-39.9,17.1-57.5c4.3-7.7,9.6-15.4,17.6-19.3
		c7.9-3.9,19-2.7,23.7,4.8c5.1,7.9,1.3,18.3-1.2,27.4c-5.2,18.8-4.1,39.2,3.1,57.3c1,2.5,2.3,5.2,4.7,6.4c2.7,1.4,5.9,0.5,8.7-0.8
		c18.8-8.7,23.9-32.9,24.4-53.7c0.5-20.7-0.3-43.8,13.5-59.3c5.6-6.3,13.4-10.9,17.5-18.3c10.9-19.8-11.2-42.2-32.6-49.2
		c-21.4-7-47-9.4-60.2-27.6c-21.1-29,6-74.2-13.5-104.2c-17-26.3-63-29.6-68.3-60.4c-1.1-6.5,0-13.3-2.1-19.6
		c-2.1-6.2-9.6-11.6-15.1-8c-9,5.2-9.7,20.2-1.3,26.2"/>
	<g>
		<linearGradient id="SVGID_30_" gradientUnits="userSpaceOnUse" x1="1890.4115" y1="732.7611" x2="2157.7769" y2="732.7611">
			<stop  offset="0" style="stop-color:#776DAE"/>
			<stop  offset="6.263512e-02" style="stop-color:#7470AE"/>
			<stop  offset="0.1669" style="stop-color:#6F77AF"/>
			<stop  offset="0.2998" style="stop-color:#6686B3"/>
			<stop  offset="0.4545" style="stop-color:#599EB9"/>
			<stop  offset="0.5674" style="stop-color:#4EB3BD"/>
			<stop  offset="0.8652" style="stop-color:#BC5FA1"/>
			<stop  offset="0.9944" style="stop-color:#D34D5B"/>
		</linearGradient>
		<path class="st30" d="M1964.5,543.8c-15.4-13-40.1-30.7-59.7-14.3c-9.4,7.9-10.9,22.3-12.7,33.6c-2.3,14.4-3.1,29-2.5,43.6
			c0.6,14.6,2.6,29.1,6,43.2c3.3,13.8,8,27.3,11.9,41c4.1,14.3,7.5,29.2,6.9,44.2c-0.6,15.5-7.9,28.7-10.3,43.7
			c-1.5,9.3-0.1,20.3,6.9,27.2c3.5,3.4,7.9,5,12.6,5.8c6.9,1.3,13.4,2,19.7,5.2c11,5.6,19.9,15.6,23.7,27.5
			c4.5,14.2,1.3,29.2-1.5,43.4c-2.3,11.6-4.9,23.4-2.9,35.3c1.5,9.2,5.3,18.5,11.7,25.4c5.9,6.4,14.1,9.9,22.9,8.6
			c10-1.6,17.9-9.2,22.5-17.9c6.1-11.6,6.2-25,6.7-37.8c0.5-14.3,2.5-28.2,6.9-41.8c4.2-13,10.2-28,20.3-37.7
			c5.1-4.9,11.9-8,19.1-6.8c7.8,1.3,12.3,7.5,12.1,15.3c-0.1,6.7-2.8,13-4.4,19.4c-1.6,6.7-2.5,13.6-2.6,20.5
			c-0.2,12.2,1.6,27,7.7,37.8c5.2,9.3,15.9,4,22.1-1.4c7.1-6.2,11.3-15,13.8-23.9c6.3-22.8,0.4-47.2,8.2-69.6
			c2-5.8,5.1-11.2,9.4-15.7c4.5-4.7,9.9-8.4,14-13.5c6.1-7.7,7.3-17.3,3.5-26.3c-8.7-20.9-30.9-28.5-50.9-33.8
			c-11.2-3-22.7-6-32.4-12.5c-10-6.7-16-16.9-17.8-28.7c-3.5-22,4.3-44.3,0.9-66.3c-3-19.5-16.2-31.2-32.5-40.5
			c-14.9-8.5-35.8-16.4-41.5-34.2c-3.3-10.2,1.1-23.7-8.5-31.2c-7.1-5.5-15.3-1.6-18.5,6.1c-3,7.2-1.3,16.1,4.9,21
			c1.5,1.2,3.6-0.9,2.1-2.1c-4-3.2-5.9-7.9-5.4-13c0.5-5.9,5.3-13.7,12.2-11.3c12.3,4.4,7.1,22.9,10.8,32.8
			c5.6,14.9,21,22.8,34.1,29.9c16,8.7,32.9,18.1,38,36.9c5.6,20.1-0.8,41.3-0.5,61.7c0.3,19.4,8.2,36,26,45
			c18.9,9.6,41.5,9.6,59.2,21.8c9,6.2,18.2,16,19,27.5c0.9,12.9-9.7,19.6-17.8,27.6c-15.9,15.8-15.5,39.4-16,60.3
			c-0.4,18.8-3.7,47.7-24.7,55.1c-8.7,3-11.2-7.1-13-13.5c-2.1-7.2-3.2-14.7-3.4-22.3c-0.2-6.4,0.3-12.7,1.5-19
			c1.3-6.6,3.7-12.9,4.9-19.5c1.5-8.9-0.6-18.3-9.6-22.1c-8.1-3.4-17.2-1-23.8,4.4c-9,7.2-14.4,18.7-18.8,29
			c-4.9,11.6-8.3,23.8-10.1,36.2c-3.1,22.4,3.2,57.1-21.8,69.2c-22.2,10.8-36.8-16.4-38.1-34.6c-1.8-25.3,13.4-50.1,4.5-75.3
			c-3.2-9.2-9.3-17.3-17.1-23.2c-8.6-6.5-17.6-8.4-28-10.3c-13.3-2.5-18.9-13.8-17.8-26.6c1.2-13.2,8.1-25.3,10-38.4
			c3.7-26.4-5.8-52.2-13.2-77c-8.1-27-12.3-54.6-10.6-82.9c0.8-13.5,2.3-27.8,6.6-40.7c4.2-12.6,15.5-18.5,28.4-17
			c13.5,1.6,24.5,11.1,34.5,19.5C1963.8,547.2,1966,545.1,1964.5,543.8L1964.5,543.8z"/>
	</g>
</g>
<g>
	<linearGradient id="SVGID_31_" gradientUnits="userSpaceOnUse" x1="104.6841" y1="1429.2822" x2="742.9937" y2="1429.2822">
		<stop  offset="0" style="stop-color:#76B75F"/>
		<stop  offset="1" style="stop-color:#76B75F;stop-opacity:0"/>
	</linearGradient>
	<path class="st31" d="M298,1603.9c-96.5-135.9-163-293.2-193.3-457.4c15.8-9.2,34.3,6,46.2,20c100.5,119.1,185.3,251.5,251.7,392.7
		c-34.4-160.9-22.7-331.5,33.4-486.2c69,122.5,117.8,256.5,143.7,395c21.2-106.2,77.2-205.1,157.3-277.5
		c26.5,133.3-38.2,266-100.9,386.4c-28.3,54.3-56.6,108.5-84.8,162.8c-34.3-38.2-73.1-72.2-115.3-101.1
		c-7.1,48.9-14.2,97.7-21.3,146.6c-48.8-52.9-92.2-110.9-129.1-172.8"/>
</g>
<g>
	<linearGradient id="SVGID_32_" gradientUnits="userSpaceOnUse" x1="1796.6127" y1="1618.3218" x2="2326.1985" y2="1618.3218">
		<stop  offset="0" style="stop-color:#76B75F"/>
		<stop  offset="1" style="stop-color:#76B75F;stop-opacity:0"/>
	</linearGradient>
	<path class="st32" d="M1957,1762.2c-80-111.9-135.2-241.5-160.4-376.8c13.1-7.5,28.5,4.9,38.3,16.5
		c83.3,98.1,153.8,207.2,208.8,323.5c-28.5-132.5-18.8-273.1,27.7-400.5c57.3,100.9,97.7,211.3,119.2,325.4
		c17.6-87.5,64.1-169,130.5-228.6c22,109.8-31.7,219.1-83.7,318.3c-23.5,44.7-46.9,89.4-70.4,134.1c-28.4-31.4-60.6-59.5-95.7-83.3
		c-5.9,40.2-11.8,80.5-17.7,120.7c-40.5-43.6-76.5-91.4-107.1-142.4"/>
</g>
<g>
	<linearGradient id="SVGID_33_" gradientUnits="userSpaceOnUse" x1="787.6342" y1="1075.8595" x2="1390.9104" y2="1075.8595">
		<stop  offset="0" style="stop-color:#DD7EA6"/>
		<stop  offset="1" style="stop-color:#DD7EA6;stop-opacity:0"/>
	</linearGradient>
	<path class="st33" d="M970.4,1219.7c-91.2-111.9-154-241.5-182.7-376.8c15-7.5,32.5,4.9,43.6,16.5
		c94.9,98.1,175.2,207.2,237.9,323.5c-32.5-132.5-21.4-273.1,31.5-400.5c65.3,100.9,111.3,211.3,135.8,325.4
		c20-87.5,73-169,148.7-228.6c25.1,109.8-36.1,219.1-95.4,318.3c-26.7,44.7-53.5,89.4-80.2,134.1c-32.4-31.4-69-59.5-109-83.3
		c-6.7,40.2-13.4,80.5-20.1,120.7c-46.1-43.6-87.1-91.4-122.1-142.4"/>
</g>
<g>
	<linearGradient id="SVGID_34_" gradientUnits="userSpaceOnUse" x1="950.0015" y1="1400.4697" x2="1479.5874" y2="1400.4697">
		<stop  offset="0" style="stop-color:#DD7EA6"/>
		<stop  offset="1" style="stop-color:#DD7EA6;stop-opacity:0"/>
	</linearGradient>
	<path class="st34" d="M1110.4,1544.3c-80-111.9-135.2-241.5-160.4-376.8c13.1-7.5,28.5,4.9,38.3,16.5
		c83.3,98.1,153.8,207.2,208.8,323.5c-28.5-132.5-18.8-273.1,27.7-400.5c57.3,100.9,97.7,211.3,119.2,325.4
		c17.6-87.5,64.1-169,130.5-228.6c22,109.8-31.7,219.1-83.7,318.3c-23.5,44.7-46.9,89.4-70.4,134.1c-28.4-31.4-60.6-59.5-95.7-83.3
		c-5.9,40.2-11.8,80.5-17.7,120.7c-40.5-43.6-76.5-91.4-107.1-142.4"/>
</g>
<g>
	
		<linearGradient id="SVGID_35_" gradientUnits="userSpaceOnUse" x1="269.1752" y1="1402.7018" x2="798.761" y2="1402.7018" gradientTransform="matrix(-0.8889 0 0 1 2194.325 0)">
		<stop  offset="0" style="stop-color:#599DCD"/>
		<stop  offset="1" style="stop-color:#599DCD;stop-opacity:0"/>
	</linearGradient>
	<path class="st35" d="M1812.5,1546.6c71.1-111.9,120.2-241.5,142.6-376.8c-11.7-7.5-25.3,4.9-34,16.5
		c-74.1,98.1-136.7,207.2-185.6,323.5c25.3-132.5,16.7-273.1-24.6-400.5c-50.9,100.9-86.9,211.3-105.9,325.4
		c-15.6-87.5-57-169-116-228.6c-19.6,109.8,28.2,219.1,74.4,318.3c20.9,44.7,41.7,89.4,62.6,134.1c25.3-31.4,53.9-59.5,85-83.3
		c5.2,40.2,10.5,80.5,15.7,120.7c36-43.6,68-91.4,95.2-142.4"/>
</g>
<g>
	<linearGradient id="SVGID_36_" gradientUnits="userSpaceOnUse" x1="742.0089" y1="1688.8157" x2="1359.2852" y2="1688.8157">
		<stop  offset="0" style="stop-color:#DD7EA6"/>
		<stop  offset="1" style="stop-color:#DD7EA6;stop-opacity:0"/>
	</linearGradient>
	<path class="st36" d="M929,1858.3c-93.3-131.8-157.6-284.5-187-443.9c15.3-8.9,33.2,5.8,44.6,19.4
		c97.1,115.6,179.2,244.1,243.4,381.2c-33.2-156.2-21.9-321.8,32.3-471.8c66.8,118.9,113.9,249,138.9,383.3
		c20.5-103.1,74.7-199.1,152.1-269.3c25.7,129.4-36.9,258.2-97.6,375c-27.4,52.7-54.7,105.3-82.1,158c-33.1-37-70.7-70.1-111.5-98.1
		c-6.9,47.4-13.7,94.8-20.6,142.3c-47.2-51.4-89.1-107.7-124.9-167.7"/>
</g>
<g>
	<linearGradient id="SVGID_37_" gradientUnits="userSpaceOnUse" x1="763.7986" y1="1213.3927" x2="1293.3845" y2="1213.3927">
		<stop  offset="0" style="stop-color:#DD7EA6"/>
		<stop  offset="1" style="stop-color:#DD7EA6;stop-opacity:0"/>
	</linearGradient>
	<path class="st37" d="M924.2,1357.3c-80-111.9-135.2-241.5-160.4-376.8c13.1-7.5,28.5,4.9,38.3,16.5
		c83.3,98.1,153.8,207.2,208.8,323.5c-28.5-132.5-18.8-273.1,27.7-400.5c57.3,100.9,97.7,211.3,119.2,325.4
		c17.6-87.5,64.1-169,130.5-228.6c22,109.8-31.7,219.1-83.7,318.3c-23.5,44.7-46.9,89.4-70.4,134.1c-28.4-31.4-60.6-59.5-95.7-83.3
		c-5.9,40.2-11.8,80.5-17.7,120.7c-40.5-43.6-76.5-91.4-107.1-142.4"/>
</g>
<g>
	<linearGradient id="SVGID_38_" gradientUnits="userSpaceOnUse" x1="812.7986" y1="1575.7354" x2="1342.3845" y2="1575.7354">
		<stop  offset="0" style="stop-color:#DD7EA6"/>
		<stop  offset="1" style="stop-color:#DD7EA6;stop-opacity:0"/>
	</linearGradient>
	<path class="st38" d="M973.2,1719.6c-80-111.9-135.2-241.5-160.4-376.8c13.1-7.5,28.5,4.9,38.3,16.5
		c83.3,98.1,153.8,207.2,208.8,323.5c-28.5-132.5-18.8-273.1,27.7-400.5c57.3,100.9,97.7,211.3,119.2,325.4
		c17.6-87.5,64.1-169,130.5-228.6c22,109.8-31.7,219.1-83.7,318.3c-23.5,44.7-46.9,89.4-70.4,134.1c-28.4-31.4-60.6-59.5-95.7-83.3
		c-5.9,40.2-11.8,80.5-17.7,120.7c-40.5-43.6-76.5-91.4-107.1-142.4"/>
</g>
<g>
	<linearGradient id="SVGID_39_" gradientUnits="userSpaceOnUse" x1="2150.7986" y1="1423.3927" x2="2680.3845" y2="1423.3927">
		<stop  offset="0" style="stop-color:#599DCD"/>
		<stop  offset="1" style="stop-color:#599DCD;stop-opacity:0"/>
	</linearGradient>
	<path class="st39" d="M2311.2,1567.3c-80-111.9-135.2-241.5-160.4-376.8c13.1-7.5,28.5,4.9,38.3,16.5
		c83.3,98.1,153.8,207.2,208.8,323.5c-28.5-132.5-18.8-273.1,27.7-400.5c57.3,100.9,97.7,211.3,119.2,325.4
		c17.6-87.5,64.1-169,130.5-228.6c22,109.8-31.7,219.1-83.7,318.3c-23.5,44.7-46.9,89.4-70.4,134.1c-28.4-31.4-60.6-59.5-95.7-83.3
		c-5.9,40.2-11.8,80.5-17.7,120.7c-40.5-43.6-76.5-91.4-107.1-142.4"/>
</g>
<g>
	<linearGradient id="SVGID_40_" gradientUnits="userSpaceOnUse" x1="2005.2681" y1="1792.3068" x2="2534.854" y2="1792.3068">
		<stop  offset="0" style="stop-color:#76B75F"/>
		<stop  offset="1" style="stop-color:#76B75F;stop-opacity:0"/>
	</linearGradient>
	<path class="st40" d="M2165.7,1936.2c-80-111.9-135.2-241.5-160.4-376.8c13.1-7.5,28.5,4.9,38.3,16.5
		c83.3,98.1,153.8,207.2,208.8,323.5c-28.5-132.5-18.8-273.1,27.7-400.5c57.3,100.9,97.7,211.3,119.2,325.4
		c17.6-87.5,64.1-169,130.5-228.6c22,109.8-31.7,219.1-83.7,318.3c-23.5,44.7-46.9,89.4-70.4,134.1c-28.4-31.4-60.6-59.5-95.7-83.3
		c-5.9,40.2-11.8,80.5-17.7,120.7c-40.5-43.6-76.5-91.4-107.1-142.4"/>
</g>
<g>
	<linearGradient id="SVGID_41_" gradientUnits="userSpaceOnUse" x1="2215.699" y1="1716.7354" x2="2854.0088" y2="1716.7354">
		<stop  offset="0" style="stop-color:#76B75F"/>
		<stop  offset="1" style="stop-color:#76B75F;stop-opacity:0"/>
	</linearGradient>
	<path class="st41" d="M2409,1891.4c-96.5-135.9-163-293.2-193.3-457.4c15.8-9.2,34.3,6,46.2,20
		c100.5,119.1,185.3,251.5,251.7,392.7c-34.4-160.9-22.7-331.5,33.4-486.2c69,122.5,117.8,256.5,143.7,395
		c21.2-106.2,77.2-205.1,157.3-277.5c26.5,133.3-38.2,266-100.9,386.4c-28.3,54.3-56.6,108.5-84.8,162.8
		c-34.3-38.2-73.1-72.2-115.3-101.1c-7.1,48.9-14.2,97.7-21.3,146.6c-48.8-52.9-92.2-110.9-129.1-172.8"/>
</g>
<g>
	<linearGradient id="SVGID_42_" gradientUnits="userSpaceOnUse" x1="1067.0367" y1="1611.7354" x2="1553.8054" y2="1611.7354">
		<stop  offset="0" style="stop-color:#D96C6C"/>
		<stop  offset="6.342469e-02" style="stop-color:#D06C70"/>
		<stop  offset="0.169" style="stop-color:#BE6D79"/>
		<stop  offset="0.3036" style="stop-color:#A26D88"/>
		<stop  offset="0.4603" style="stop-color:#7F6A9C"/>
		<stop  offset="0.5674" style="stop-color:#6C69AC"/>
		<stop  offset="0.8652" style="stop-color:#BC5FA1"/>
		<stop  offset="0.9944" style="stop-color:#915DA1"/>
	</linearGradient>
	<path class="st42" d="M1067.9,1661.8c-2.9-40.1,20-77.9,42.2-113.3c28.1-44.8,56.2-89.6,85.6-133.9c8.9-13.5,20.3-28.3,38-30.5
		c22.5-2.8,39.8,15.7,55.1,30.3s42.7,27.1,58.8,13.2c15.7-13.5,3.6-38.3,15-54.7c9.6-13.8,33.2-15.8,49.6-8.2
		c16.4,7.6,26.9,22,35.4,36.2c31.2,52.5,45,111.5,71.1,166c12.3,25.7,27.5,50.8,33.2,78.3c5.8,27.4,0.2,58.6-23.4,77.4
		c-14.5,11.5-33.8,17.1-50,26.8s-29.7,26.9-23.3,43c9.7,11.5,19.5,23.8,21.2,37.9c1.7,14.1-8,30.3-24.3,32.4
		c-16,2-29.3-9.5-42.1-18.1s-33.7-13.9-43.2-2.6c19.8-40.7,22.2-87.6,6.6-129.7c-25.7,28.9-32.6,69.6-17.5,103.6
		c3.4,7.6,7.6,16.8,1.9,23.3c-3.7,4.2-10.2,5.5-16.2,6.5c-32.6,5.4-78.2,3.9-84.6-24.4c-1.4-5.9-0.5-12.2-2.6-18
		c-4.8-12.8-22.7-18.1-38.3-17.8c-15.5,0.3-31.1,4.2-46.4,2c-29.8-4.3-48.9-29.6-60.2-53.9s-19.6-51.2-42.3-68.5"/>
</g>
<g>
	<path class="st1" d="M1210.2,1425.4c7.3-2.6,12.8-9.1,20.1-11.7c11.5-4,23.7,2.6,34.1,9c-7.5,1.1-12.3,10.2-19.9,10
		c-9-0.3-14.2-13.7-23.1-12.4"/>
</g>
<g>
	<path class="st1" d="M1377.1,1402.8c5.7-2.7,11.5-5.5,17.2-8.2c2.7-1.3,5.5-2.6,8.4-2.3c3.8,0.3,6.8,3,10,5.1
		c6.3,4.1,14,5.9,21.4,5.1c-8.7-2-17,4.1-25,8.1s-20.2,4.5-23.6-3.8"/>
	<g>
		<path class="st1" d="M1377.4,1403.4c4.9-2.3,9.8-4.7,14.7-7c3.2-1.5,6.1-3.1,9.7-3.2c3.8-0.1,6.2,1.7,9.2,3.8
			c7,4.7,14.7,6.8,23.1,6.1c0.8-0.1,1.1-1.3,0.2-1.5c-9-1.5-16.3,3.5-24.1,7.4c-7.3,3.7-19.7,6.4-24.1-2.8c-0.4-0.9-1.7-0.1-1.3,0.8
			c3,6.3,9.9,7.6,16.3,6.7c11.6-1.7,20.5-12.6,32.7-10.5c0.1-0.5,0.1-1,0.2-1.5c-6.1,0.5-12-0.4-17.5-3c-4.1-2-7.6-5.7-12.1-6.8
			c-3.8-0.9-7.2,0.6-10.6,2.1c-5.8,2.7-11.5,5.5-17.2,8.2C1375.8,1402.5,1376.6,1403.8,1377.4,1403.4L1377.4,1403.4z"/>
	</g>
</g>
<g>
	<linearGradient id="SVGID_43_" gradientUnits="userSpaceOnUse" x1="1584.8041" y1="1637.3737" x2="2114.3899" y2="1637.3737">
		<stop  offset="0" style="stop-color:#599DCD"/>
		<stop  offset="1" style="stop-color:#599DCD;stop-opacity:0"/>
	</linearGradient>
	<path class="st43" d="M1745.2,1781.2c-80-111.9-135.2-241.5-160.4-376.8c13.1-7.5,28.5,4.9,38.3,16.5
		c83.3,98.1,153.8,207.2,208.8,323.5c-28.5-132.5-18.8-273.1,27.7-400.5c57.3,100.9,97.7,211.3,119.2,325.4
		c17.6-87.5,64.1-169,130.5-228.6c22,109.8-31.7,219.1-83.7,318.3c-23.5,44.7-46.9,89.4-70.4,134.1c-28.4-31.4-60.6-59.5-95.7-83.3
		c-5.9,40.2-11.8,80.5-17.7,120.7c-40.5-43.6-76.5-91.4-107.1-142.4"/>
</g>
<g>
	<g>
		<path class="st1" d="M1268.3,1478c34.6-12.6,72.1-15.6,108.2-8.2c9.4,1.9,13.5-12.5,4-14.5c-38.7-7.9-79.1-5.3-116.2,8.2
			C1255.3,1466.9,1259.2,1481.4,1268.3,1478L1268.3,1478z"/>
	</g>
</g>
<g>
	<g>
		<path class="st44" d="M1242.5,1426.5c9.7,0,9.7-15,0-15C1232.9,1411.5,1232.9,1426.5,1242.5,1426.5L1242.5,1426.5z"/>
	</g>
</g>
<g>
	<g>
		<path class="st44" d="M1401.4,1409.5c11.6,0,11.6-18,0-18C1389.8,1391.5,1389.8,1409.5,1401.4,1409.5L1401.4,1409.5z"/>
	</g>
</g>
<g>
	<linearGradient id="SVGID_44_" gradientUnits="userSpaceOnUse" x1="1682.672" y1="1863.0475" x2="2212.2578" y2="1863.0475">
		<stop  offset="0" style="stop-color:#76B75F"/>
		<stop  offset="1" style="stop-color:#76B75F;stop-opacity:0"/>
	</linearGradient>
	<path class="st45" d="M1843.1,2006.9c-80-111.9-135.2-241.5-160.4-376.8c13.1-7.5,28.5,4.9,38.3,16.5
		c83.3,98.1,153.8,207.2,208.8,323.5c-28.5-132.5-18.8-273.1,27.7-400.5c57.3,100.9,97.7,211.3,119.2,325.4
		c17.6-87.5,64.1-169,130.5-228.6c22,109.8-31.7,219.1-83.7,318.3c-23.5,44.7-46.9,89.4-70.4,134.1c-28.4-31.4-60.6-59.5-95.7-83.3
		c-5.9,40.2-11.8,80.5-17.7,120.7c-40.5-43.6-76.5-91.4-107.1-142.4"/>
</g>
<g>
	
		<linearGradient id="SVGID_45_" gradientUnits="userSpaceOnUse" x1="1935.7894" y1="1344.031" x2="2950.2783" y2="1344.031" gradientTransform="matrix(-1 0 0 1 3018.6462 0)">
		<stop  offset="0" style="stop-color:#72BDC0"/>
		<stop  offset="1" style="stop-color:#72BDC0;stop-opacity:0"/>
	</linearGradient>
	<path class="st46" d="M1061.2,2111.6c61.6-175-12.3-387.8-169-487c-5.1-3.2-10.7-6.8-12.5-12.6c-3-9.6,5.6-18.4,12.2-25.9
		c15-16.9,23.1-39.7,22.1-62.3c-0.1-3.6-0.7-7.6-3.6-9.7c-4.8-3.6-11.4,0.7-17.4,0.6c-6-0.1-6.7-12.5-1.7-9.2
		c-29,19.9-50.1,51-57.7,85.4c-39.3-14.3-69.4-48.1-87.2-85.9s-24.8-79.9-29.4-121.5c-6.2-55.9-8.4-112.3-6.5-168.6
		c2.2-68,18.3-147.7,80.3-175.8c10.2-4.6,21.8-8,28.2-17.1c6.2-8.8,5.8-20.8,11-30.2c9.8-18,34.1-20,54-25
		c58.4-14.5,100.7-76.9,92.5-136.6c-8.2-59.7-65.7-108.4-125.9-106.6c-8.9,0.3-18.7,1.3-26.1-3.7c-9.1-6.2-10.7-18.6-12.9-29.4
		c-15-72.2-91.6-114.8-164.1-128.3c-33.8-6.3-69.8-8.2-101.7,4.7c-19.6,7.9-36.6,21-54,33c-47.3,32.8-98.9,59-150.3,85.1
		c-46.4,23.5-94.2,47.5-146,52c-44.3,3.9-100.6-0.6-120.4,39.2c-4.3,8.6-5.9,18.2-6.5,27.8c-4.6,73.1,61,143,134.3,143
		c8.7,0,18-0.7,25.7,3.5c14.5,7.9,15.4,27.7,19.4,43.7c8.4,33.5,38,59,71.1,68.9c33.1,9.9,69,6,102-4.1
		c35.1-10.6,70-28.2,106.3-23.6c35.6,4.6,67.1,32.6,75.7,67.5c-16.3,67.5-2.9,138.1,10.5,206.3c4.7,23.7,9.4,47.6,19.2,69.7
		c9.1,20.5,22.4,38.9,31.7,59.4c29,63.3,21.5,146.9,75,191.4c19.9,16.5,45.6,24.8,64.9,42c16.2,14.5,26.6,34.3,36.6,53.7
		c42.7,82.5,85.8,165.9,107.7,256.2c11.9,49,19,102.7,53.4,139.6c4.2,4.5,9.3,8.9,15.4,9.7c20,2.6,39.5-32.2,53.1-17.3"/>
</g>
<g>
	
		<linearGradient id="SVGID_47_" gradientUnits="userSpaceOnUse" x1="-66.1058" y1="1588.1267" x2="948.3831" y2="1588.1267" gradientTransform="matrix(-1 0 0 1 3018.6462 0)">
		<stop  offset="0" style="stop-color:#72BDC0"/>
		<stop  offset="1" style="stop-color:#72BDC0;stop-opacity:0"/>
	</linearGradient>
	<path class="st47" d="M3063.1,2355.7c61.6-175-12.3-387.8-169-487c-5.1-3.2-10.7-6.8-12.5-12.6c-3-9.6,5.6-18.4,12.2-25.9
		c15-16.9,23.1-39.7,22.1-62.3c-0.1-3.6-0.8-7.6-3.6-9.7c-4.8-3.6-11.4,0.7-17.4,0.6c-6-0.1-6.7-12.5-1.7-9.2
		c-29,19.9-50.1,51-57.7,85.4c-39.3-14.3-69.4-48.1-87.2-85.9c-17.9-37.9-24.8-79.9-29.4-121.5c-6.2-55.9-8.4-112.3-6.5-168.6
		c2.2-68,18.3-147.7,80.3-175.8c10.2-4.6,21.8-8,28.2-17.1c6.2-8.8,5.8-20.8,11-30.2c9.8-18,34.1-20,54-25
		c58.4-14.5,100.7-76.9,92.5-136.6c-8.2-59.7-65.7-108.4-125.9-106.6c-8.9,0.3-18.7,1.3-26.1-3.7c-9.1-6.2-10.7-18.6-12.9-29.4
		c-15-72.2-91.6-114.8-164.1-128.3c-33.8-6.3-69.8-8.2-101.7,4.7c-19.6,7.9-36.6,21-54,33c-47.3,32.8-98.9,59-150.3,85.1
		c-46.4,23.5-94.2,47.5-146,52c-44.3,3.9-100.6-0.6-120.4,39.2c-4.3,8.6-5.9,18.2-6.5,27.8c-4.6,73.1,61,143,134.3,143
		c8.7,0,18-0.7,25.7,3.5c14.5,7.9,15.4,27.7,19.4,43.7c8.4,33.5,38,59,71.1,68.9c33.1,9.9,69,6,102-4.1
		c35.1-10.6,70-28.2,106.3-23.6c35.6,4.6,67.1,32.6,75.7,67.5c-16.3,67.5-2.9,138.1,10.5,206.3c4.7,23.7,9.4,47.6,19.2,69.7
		c9.1,20.5,22.4,38.9,31.7,59.4c29,63.3,21.5,146.9,75,191.4c19.9,16.5,45.6,24.8,64.9,42c16.2,14.5,26.6,34.3,36.6,53.7
		c42.7,82.5,85.8,165.9,107.7,256.2c11.9,49,19,102.7,53.4,139.6c4.2,4.5,9.3,8.9,15.4,9.7c20,2.6,39.5-32.2,53.1-17.3"/>
</g>
<g>
	
		<linearGradient id="SVGID_48_" gradientUnits="userSpaceOnUse" x1="2355.3608" y1="1147.0406" x2="3734.2966" y2="1147.0406" gradientTransform="matrix(1 0 0 1 -2620.99 0)">
		<stop  offset="0" style="stop-color:#72BDC0"/>
		<stop  offset="1" style="stop-color:#72BDC0;stop-opacity:0"/>
	</linearGradient>
	<path class="st48" d="M-236.2,2010.1c-83.7-196.8,16.7-436.1,229.7-547.7c7-3.6,14.5-7.7,17-14.2c4.1-10.8-7.6-20.7-16.6-29.1
		c-20.3-19-31.3-44.7-30.1-70.1c0.2-4,1-8.5,4.9-10.9c6.5-4,15.6,0.8,23.7,0.7s9.1-14,2.3-10.3c39.4,22.4,68.1,57.4,78.5,96
		c53.5-16.1,94.3-54,118.6-96.6c24.3-42.6,33.8-89.9,40-136.7c8.4-62.9,11.4-126.3,8.9-189.6c-3-76.5-24.9-166.1-109.2-197.7
		c-13.8-5.2-29.6-9-38.3-19.3c-8.4-9.9-7.9-23.4-15-34c-13.4-20.2-46.3-22.5-73.4-28.1c-79.4-16.3-136.9-86.5-125.8-153.6
		s89.3-121.9,171.1-119.9c12.2,0.3,25.4,1.4,35.5-4.2c12.4-7,14.5-20.9,17.6-33c20.5-81.1,124.5-129.1,223-144.2
		c46-7.1,94.9-9.2,138.2,5.3c26.7,8.9,49.8,23.6,73.4,37.2c64.3,36.9,134.4,66.3,204.3,95.6c63,26.4,128,53.4,198.5,58.5
		c60.2,4.4,136.8-0.7,163.6,44.1c5.8,9.7,8.1,20.5,8.9,31.3c6.2,82.2-83,160.8-182.6,160.8c-11.9,0-24.5-0.8-34.9,3.9
		c-19.7,8.9-20.9,31.2-26.3,49.2c-11.4,37.7-51.7,66.4-96.7,77.5c-45,11.1-93.8,6.7-138.7-4.6c-47.7-12-95.1-31.7-144.6-26.5
		c-48.4,5.1-91.2,36.7-102.9,75.9c22.1,75.9,3.9,155.3-14.3,231.9c-6.3,26.6-12.8,53.5-26.1,78.3c-12.4,23.1-30.4,43.8-43.1,66.8
		c-39.4,71.2-29.2,165.2-102,215.2c-27,18.5-62,27.9-88.2,47.2c-22.1,16.3-36.1,38.6-49.8,60.3c-58,92.7-116.6,186.6-146.4,288
		c-16.2,55.1-25.8,115.5-72.6,157c-5.8,5.1-12.6,10.1-20.9,10.9c-27.2,2.9-53.7-36.2-72.1-19.4"/>
</g>
<g>
	<linearGradient id="SVGID_49_" gradientUnits="userSpaceOnUse" x1="414.2758" y1="1863.0475" x2="943.8618" y2="1863.0475">
		<stop  offset="0" style="stop-color:#599DCD"/>
		<stop  offset="1" style="stop-color:#599DCD;stop-opacity:0"/>
	</linearGradient>
	<path class="st49" d="M574.7,2006.9c-80-111.9-135.2-241.5-160.4-376.8c13.1-7.5,28.5,4.9,38.3,16.5
		c83.3,98.1,153.8,207.2,208.8,323.5c-28.5-132.5-18.8-273.1,27.7-400.5c57.3,100.9,97.7,211.3,119.2,325.4
		c17.6-87.5,64.1-169,130.5-228.6c22,109.8-31.7,219.1-83.7,318.3c-23.5,44.7-46.9,89.4-70.4,134.1c-28.4-31.4-60.6-59.5-95.7-83.3
		c-5.9,40.2-11.8,80.5-17.7,120.7c-40.5-43.6-76.5-91.4-107.1-142.4"/>
</g>
<g>
	<linearGradient id="SVGID_50_" gradientUnits="userSpaceOnUse" x1="46.0265" y1="1738.5067" x2="575.6124" y2="1738.5067">
		<stop  offset="0" style="stop-color:#599DCD"/>
		<stop  offset="1" style="stop-color:#599DCD;stop-opacity:0"/>
	</linearGradient>
	<path class="st50" d="M206.4,1882.4c-80-111.9-135.2-241.5-160.4-376.8c13.1-7.5,28.5,4.9,38.3,16.5
		c83.3,98.1,153.8,207.2,208.8,323.5c-28.5-132.5-18.8-273.1,27.7-400.5c57.3,100.9,97.7,211.3,119.2,325.4
		c17.6-87.5,64.1-169,130.5-228.6c22,109.8-31.7,219.1-83.7,318.3c-23.5,44.7-46.9,89.4-70.4,134.1c-28.4-31.4-60.6-59.5-95.7-83.3
		c-5.9,40.2-11.8,80.5-17.7,120.7c-40.5-43.6-76.5-91.4-107.1-142.4"/>
</g>
<g>
	
		<linearGradient id="SVGID_51_" gradientUnits="userSpaceOnUse" x1="347.0075" y1="557.1495" x2="736.9489" y2="557.1495" gradientTransform="matrix(-1 0 0 1 761.2833 0)">
		<stop  offset="0" style="stop-color:#776DAE"/>
		<stop  offset="6.263512e-02" style="stop-color:#7470AE"/>
		<stop  offset="0.1669" style="stop-color:#6F77AF"/>
		<stop  offset="0.2998" style="stop-color:#6686B3"/>
		<stop  offset="0.4545" style="stop-color:#599EB9"/>
		<stop  offset="0.5674" style="stop-color:#4EB3BD"/>
		<stop  offset="0.8652" style="stop-color:#BC5FA1"/>
		<stop  offset="0.9944" style="stop-color:#D34D5B"/>
	</linearGradient>
	<path class="st51" d="M362.8,233.1c-52.9,11.6-94.9,53.2-121.7,100.3c-17,29.9-34.1,66.7-67.9,72.9c-40.7,7.5-84.8-35.2-119.8-13.1
		c-14.9,9.4-21.4,27.7-25.5,44.8c-4.3,17.8-6.6,38.3,4.4,53c9,12.1,24.6,16.9,37.5,24.8c12.8,8,24,24.1,16.9,37.4
		c-4.6,8.5-14.7,12-23.2,16.7c-27.5,15.3-41,51.8-30.2,81.3c5.2,14.2,15.1,26.5,18,41.3c3.2,16.6-2.9,33.4-4.4,50.2
		c-3.5,38.9,20.6,78.7,56.7,93.6c6.8,2.8,15.3,4.5,20.8-0.4c3.8-3.4,4.8-8.9,5.3-14c3.3-32.7-3.3-65.7-1.5-98.5
		c1.8-32.8,15-68.5,44.7-82.6c15.2-7.2,37.6-5.1,43.5,10.7c5.5,14.9-7,29.7-13.5,44.2c-10.8,24.1-5.1,52,0.9,77.7
		c4.5,19.3,8.9,38.5,13.4,57.8c4.3,18.3,10.4,39.1,27.5,47c26.2,12.1,54.6-17.4,58.4-46s-5.8-57.7-2.4-86.3s30.5-58.9,57.2-48.1
		c6.1,2.5,11.4,6.9,17.8,8.7c16.2,4.7,33-9.5,37-25.9c4-16.3-1.2-33.4-7.3-49.1C380,565.6,338.3,498.4,354,429.2
		c8.9-39,35.2-71.7,48.8-109.3c6.6-18.3,10-38.7,3.3-56.9c-6.7-18.2-26.2-32.7-45.1-28.5"/>
</g>
<g>
	
		<linearGradient id="SVGID_52_" gradientUnits="userSpaceOnUse" x1="2538.1426" y1="1087.6971" x2="2928.084" y2="1087.6971" gradientTransform="matrix(-1 0 0 1 5155.0151 0)">
		<stop  offset="0" style="stop-color:#776DAE"/>
		<stop  offset="6.263512e-02" style="stop-color:#7470AE"/>
		<stop  offset="0.1669" style="stop-color:#6F77AF"/>
		<stop  offset="0.2998" style="stop-color:#6686B3"/>
		<stop  offset="0.4545" style="stop-color:#599EB9"/>
		<stop  offset="0.5674" style="stop-color:#4EB3BD"/>
		<stop  offset="0.8652" style="stop-color:#BC5FA1"/>
		<stop  offset="0.9944" style="stop-color:#D34D5B"/>
	</linearGradient>
	<path class="st52" d="M2565.4,763.6c-52.9,11.6-94.9,53.2-121.7,100.3c-17,29.9-34.1,66.7-67.9,72.9
		c-40.7,7.5-84.8-35.2-119.8-13.1c-14.9,9.4-21.4,27.7-25.5,44.8c-4.3,17.8-6.6,38.3,4.4,53c9,12.1,24.6,16.9,37.5,24.8
		s24,24.1,16.9,37.4c-4.6,8.5-14.7,12-23.2,16.7c-27.5,15.3-41,51.8-30.2,81.3c5.2,14.2,15.1,26.5,18,41.3
		c3.2,16.6-2.9,33.4-4.4,50.2c-3.5,38.9,20.6,78.7,56.7,93.6c6.8,2.8,15.3,4.5,20.8-0.4c3.8-3.4,4.8-8.9,5.3-14
		c3.3-32.7-3.3-65.7-1.5-98.5c1.8-32.8,15-68.5,44.7-82.6c15.2-7.2,37.6-5.1,43.5,10.7c5.5,14.9-7,29.7-13.5,44.2
		c-10.8,24.1-5.1,52,0.9,77.7c4.5,19.3,8.9,38.5,13.4,57.8c4.3,18.3,10.4,39.1,27.5,47c26.2,12.1,54.6-17.4,58.4-46
		s-5.8-57.7-2.4-86.3s30.5-58.9,57.2-48.1c6.1,2.5,11.4,6.9,17.8,8.7c16.2,4.7,33-9.5,37-25.9c4-16.3-1.2-33.4-7.3-49.1
		c-25.6-66.1-67.3-133.3-51.5-202.4c8.9-39,35.2-71.7,48.8-109.3c6.6-18.3,10-38.7,3.3-56.9c-6.7-18.2-26.2-32.7-45.1-28.5"/>
</g>
</svg>
