<?xml version="1.0" encoding="utf-8"?>
<!-- Generator: Adobe Illustrator 22.1.0, SVG Export Plug-In . SVG Version: 6.00 Build 0)  -->
<svg version="1.1" xmlns="http://www.w3.org/2000/svg" xmlns:xlink="http://www.w3.org/1999/xlink" x="0px" y="0px"
	 viewBox="0 0 1130.8 676.9" style="enable-background:new 0 0 1130.8 676.9;" xml:space="preserve">
<style type="text/css">
	.st0{fill:#FFFFFF;}
	.st1{display:none;}
	.st2{display:inline;}
	.st3{fill:url(#SVGID_1_);}
	.st4{fill:url(#SVGID_2_);}
	.st5{fill:url(#SVGID_3_);}
	.st6{fill:url(#SVGID_4_);}
	.st7{fill:url(#SVGID_5_);}
	.st8{fill:url(#SVGID_6_);}
	.st9{fill:url(#SVGID_7_);}
	.st10{fill:url(#SVGID_8_);}
	.st11{fill:url(#SVGID_9_);}
	.st12{fill:url(#SVGID_10_);}
	.st13{fill:url(#SVGID_11_);}
	.st14{fill:url(#SVGID_12_);}
	.st15{fill:url(#SVGID_13_);}
	.st16{fill:url(#SVGID_14_);}
	.st17{fill:url(#SVGID_15_);}
	.st18{fill:url(#SVGID_16_);}
	.st19{fill:url(#SVGID_17_);}
	.st20{fill:url(#SVGID_18_);}
	.st21{fill:url(#SVGID_19_);}
	.st22{fill:url(#SVGID_20_);}
	.st23{fill:url(#SVGID_21_);}
	.st24{fill:url(#SVGID_22_);}
	.st25{fill:url(#SVGID_23_);}
	.st26{fill:url(#SVGID_24_);}
	.st27{fill:url(#SVGID_25_);}
	.st28{fill:url(#SVGID_26_);}
	.st29{fill:url(#SVGID_27_);}
	.st30{fill:url(#SVGID_28_);}
	.st31{fill:url(#SVGID_29_);}
	.st32{fill:url(#SVGID_30_);}
	.st33{fill:url(#SVGID_31_);}
	.st34{fill:url(#SVGID_32_);}
	.st35{fill:url(#SVGID_33_);}
	.st36{fill:url(#SVGID_34_);}
	.st37{fill:url(#SVGID_35_);}
	.st38{fill:url(#SVGID_36_);}
	.st39{fill:url(#SVGID_37_);}
	.st40{fill:url(#SVGID_38_);}
	.st41{fill:url(#SVGID_39_);}
	.st42{fill:url(#SVGID_40_);}
</style>
<g id="Слой_3">
	<g>
		<g>
			<path class="st0" d="M-1378.8-202.1c5.8,0,5.8-9,0-9C-1384.6-211.1-1384.6-202.1-1378.8-202.1L-1378.8-202.1z"/>
		</g>
	</g>
	<g>
		<g>
			<path class="st0" d="M-1061.2-313.9c5.8,0,5.8-9,0-9C-1067-322.9-1067-313.9-1061.2-313.9L-1061.2-313.9z"/>
		</g>
	</g>
	<g>
		<g>
			<path class="st0" d="M-1011.2-140.3c5.8,0,5.8-9,0-9C-1017-149.3-1017-140.3-1011.2-140.3L-1011.2-140.3z"/>
		</g>
	</g>
	<g>
		<g>
			<path class="st0" d="M-1684.5-417.7c5.8,0,5.8-9,0-9C-1690.3-426.7-1690.3-417.7-1684.5-417.7L-1684.5-417.7z"/>
		</g>
	</g>
	<g>
		<g>
			<path class="st0" d="M-1161-641.3c5.8,0,5.8-9,0-9C-1166.8-650.3-1166.8-641.3-1161-641.3L-1161-641.3z"/>
		</g>
	</g>
	<g>
		<g>
			<path class="st0" d="M-1355.3-493.3c5.8,0,5.8-9,0-9C-1361.1-502.3-1361.1-493.3-1355.3-493.3L-1355.3-493.3z"/>
		</g>
	</g>
	<g>
		<g>
			<path class="st0" d="M-1002.1-511.9c5.8,0,5.8-9,0-9C-1007.9-520.9-1007.9-511.9-1002.1-511.9L-1002.1-511.9z"/>
		</g>
	</g>
	<g>
		<g>
			<path class="st0" d="M-1661-750.1c5.8,0,5.8-9,0-9C-1666.8-759.1-1666.8-750.1-1661-750.1L-1661-750.1z"/>
		</g>
	</g>
	<g>
		<g>
			<path class="st0" d="M-1614.1-258c5.8,0,5.8-9,0-9C-1619.9-267-1619.9-258-1614.1-258L-1614.1-258z"/>
		</g>
	</g>
	<g>
		<g>
			<path class="st0" d="M-2499.4-25.6c5.8,0,5.8-9,0-9C-2505.2-34.6-2505.2-25.6-2499.4-25.6L-2499.4-25.6z"/>
		</g>
	</g>
	<g>
		<g>
			<path class="st0" d="M-1722.9-340.3c5.8,0,5.8-9,0-9C-1728.7-349.3-1728.7-340.3-1722.9-340.3L-1722.9-340.3z"/>
		</g>
	</g>
	<g>
		<g>
			<path class="st0" d="M-1537.4-406c5.8,0,5.8-9,0-9C-1543.2-415-1543.2-406-1537.4-406L-1537.4-406z"/>
		</g>
	</g>
	<g>
		<g>
			<path class="st0" d="M-1341.8-769.7c5.8,0,5.8-9,0-9C-1347.6-778.7-1347.6-769.7-1341.8-769.7L-1341.8-769.7z"/>
		</g>
	</g>
	<g>
		<g>
			<path class="st0" d="M-929.9-634.5c5.8,0,5.8-9,0-9C-935.7-643.5-935.7-634.5-929.9-634.5L-929.9-634.5z"/>
		</g>
	</g>
	<g>
		<g>
			<path class="st0" d="M-1440.4-620.7c5.8,0,5.8-9,0-9C-1446.2-629.7-1446.2-620.7-1440.4-620.7L-1440.4-620.7z"/>
		</g>
	</g>
	<g>
		<g>
			<path class="st0" d="M-2075.7-788.3c5.8,0,5.8-9,0-9C-2081.5-797.3-2081.5-788.3-2075.7-788.3L-2075.7-788.3z"/>
		</g>
	</g>
	<g>
		<g>
			<path class="st0" d="M-1881.6-561.9c5.8,0,5.8-9,0-9C-1887.3-570.9-1887.4-561.9-1881.6-561.9L-1881.6-561.9z"/>
		</g>
	</g>
	<g>
		<g>
			<path class="st0" d="M-1752.1-579.5c5.8,0,5.8-9,0-9C-1757.9-588.5-1757.9-579.5-1752.1-579.5L-1752.1-579.5z"/>
		</g>
	</g>
	<g>
		<g>
			<path class="st0" d="M-1916.6-639.4c5.8,0,5.8-9,0-9C-1922.4-648.4-1922.4-639.4-1916.6-639.4L-1916.6-639.4z"/>
		</g>
	</g>
	<g>
		<g>
			<path class="st0" d="M-1619.5-636.5c5.8,0,5.8-9,0-9C-1625.3-645.5-1625.3-636.5-1619.5-636.5L-1619.5-636.5z"/>
		</g>
	</g>
	<g>
		<g>
			<path class="st0" d="M-1627.1-749.1c5.8,0,5.8-9,0-9C-1632.9-758.1-1632.9-749.1-1627.1-749.1L-1627.1-749.1z"/>
		</g>
	</g>
	<g>
		<g>
			<path class="st0" d="M-1157.8-715.9c5.8,0,5.8-9,0-9C-1163.6-724.9-1163.6-715.9-1157.8-715.9L-1157.8-715.9z"/>
		</g>
	</g>
	<g>
		<g>
			<path class="st0" d="M-1096-604.1c5.8,0,5.8-9,0-9C-1101.8-613.1-1101.8-604.1-1096-604.1L-1096-604.1z"/>
		</g>
	</g>
	<g>
		<g>
			<path class="st0" d="M-969.5-692.3c5.8,0,5.8-9,0-9C-975.3-701.3-975.3-692.3-969.5-692.3L-969.5-692.3z"/>
		</g>
	</g>
	<g>
		<g>
			<path class="st0" d="M-934.7-393.3c5.8,0,5.8-9,0-9C-940.5-402.3-940.5-393.3-934.7-393.3L-934.7-393.3z"/>
		</g>
	</g>
	<g>
		<g>
			<path class="st0" d="M-1305.1-764.8c5.8,0,5.8-9,0-9C-1310.9-773.8-1310.9-764.8-1305.1-764.8L-1305.1-764.8z"/>
		</g>
	</g>
	<g>
		<g>
			<path class="st0" d="M-2297.7-763.8c5.8,0,5.8-9,0-9C-2303.5-772.8-2303.5-763.8-2297.7-763.8L-2297.7-763.8z"/>
		</g>
	</g>
	<g>
		<g>
			<path class="st0" d="M-2284.5-776.6c5.8,0,5.8-9,0-9C-2290.3-785.6-2290.3-776.6-2284.5-776.6L-2284.5-776.6z"/>
		</g>
	</g>
	<g>
		<g>
			<path class="st0" d="M-1915.2-622.7c5.8,0,5.8-9,0-9C-1921-631.7-1921-622.7-1915.2-622.7L-1915.2-622.7z"/>
		</g>
	</g>
	<g>
		<g>
			<path class="st0" d="M-2131.3-621.8c5.8,0,5.8-9,0-9C-2137.1-630.8-2137.1-621.8-2131.3-621.8L-2131.3-621.8z"/>
		</g>
	</g>
	<g>
		<g>
			<path class="st0" d="M-1707.8-760c5.8,0,5.8-9,0-9C-1713.6-769-1713.6-760-1707.8-760L-1707.8-760z"/>
		</g>
	</g>
	<g>
		<g>
			<path class="st0" d="M-1425.4-739.4c5.8,0,5.8-9,0-9C-1431.2-748.4-1431.2-739.4-1425.4-739.4L-1425.4-739.4z"/>
		</g>
	</g>
	<g>
		<g>
			<path class="st0" d="M-2298.9-721.8c5.8,0,5.8-9,0-9C-2304.7-730.8-2304.7-721.8-2298.9-721.8L-2298.9-721.8z"/>
		</g>
	</g>
	<g>
		<g>
			<path class="st0" d="M-2497.7-731.5c5.8,0,5.8-9,0-9C-2503.5-740.5-2503.5-731.5-2497.7-731.5L-2497.7-731.5z"/>
		</g>
	</g>
	<g>
		<g>
			<path class="st0" d="M-2048.9-757c5.8,0,5.8-9,0-9C-2054.7-766-2054.7-757-2048.9-757L-2048.9-757z"/>
		</g>
	</g>
	<g>
		<g>
			<path class="st0" d="M-2384.7,27.3c5.8,0,5.8-9,0-9C-2390.5,18.3-2390.5,27.3-2384.7,27.3L-2384.7,27.3z"/>
		</g>
	</g>
	<g>
		<g>
			<path class="st0" d="M-2499.4-116.8c5.8,0,5.8-9,0-9C-2505.2-125.8-2505.2-116.8-2499.4-116.8L-2499.4-116.8z"/>
		</g>
	</g>
	<g>
		<g>
			<path class="st0" d="M-2514.1,109.7c5.8,0,5.8-9,0-9C-2519.9,100.7-2519.9,109.7-2514.1,109.7L-2514.1,109.7z"/>
		</g>
	</g>
	<g>
		<g>
			<path class="st0" d="M-896.5-34.5c5.8,0,5.8-9,0-9C-902.3-43.5-902.3-34.5-896.5-34.5L-896.5-34.5z"/>
		</g>
	</g>
	<g>
		<g>
			<path class="st0" d="M-1205.3-108c5.8,0,5.8-9,0-9C-1211.1-117-1211.1-108-1205.3-108L-1205.3-108z"/>
		</g>
	</g>
	<g>
		<g>
			<path class="st0" d="M-1202.4-466.8c5.8,0,5.8-9,0-9C-1208.1-475.8-1208.2-466.8-1202.4-466.8L-1202.4-466.8z"/>
		</g>
	</g>
	<g>
		<g>
			<path class="st0" d="M-872.7-591.3c5.8,0,5.8-9,0-9C-878.5-600.3-878.5-591.3-872.7-591.3L-872.7-591.3z"/>
		</g>
	</g>
	<g class="st1">
		<g class="st2">
			<path class="st0" d="M-2501.9-704.1c5.8,0,5.8-9,0-9C-2507.7-713.1-2507.7-704.1-2501.9-704.1L-2501.9-704.1z"/>
		</g>
	</g>
	<g>
		
			<linearGradient id="SVGID_1_" gradientUnits="userSpaceOnUse" x1="-2791.8013" y1="112.6085" x2="-1777.3124" y2="112.6085" gradientTransform="matrix(-1 0 0 1 -3383.0518 0)">
			<stop  offset="0" style="stop-color:#6CD6D2"/>
			<stop  offset="1" style="stop-color:#6CD6D2;stop-opacity:0"/>
		</linearGradient>
		<path class="st3" d="M-612.9,880.1c61.6-175-12.3-387.8-169-487c-5.1-3.2-10.7-6.8-12.5-12.6c-3-9.6,5.6-18.4,12.2-25.9
			c15-16.9,23.1-39.7,22.1-62.3c-0.1-3.6-0.7-7.6-3.6-9.7c-4.8-3.6-11.4,0.7-17.4,0.6c-6-0.1-6.7-12.5-1.7-9.2
			c-29,19.9-50.1,51-57.7,85.4c-39.3-14.3-69.4-48.1-87.2-85.9s-24.8-79.9-29.4-121.5c-6.2-55.9-8.4-112.3-6.5-168.6
			c2.2-68,18.3-147.7,80.3-175.8c10.2-4.6,21.8-8,28.2-17.1c6.2-8.8,5.8-20.8,11-30.2c9.8-18,34.1-20,54-25
			c58.4-14.5,100.7-76.9,92.5-136.6c-8.2-59.7-65.7-108.4-125.9-106.6c-8.9,0.3-18.7,1.3-26.1-3.7c-9.1-6.2-10.7-18.6-12.9-29.4
			c-15-72.2-91.6-114.8-164.1-128.3c-33.8-6.3-69.8-8.2-101.7,4.7c-19.6,7.9-36.6,21-54,33c-47.3,32.8-98.9,59-150.3,85.1
			c-46.4,23.5-94.2,47.5-146,52c-44.3,3.9-100.6-0.6-120.4,39.2c-4.3,8.6-5.9,18.2-6.5,27.8c-4.6,73.1,61,143,134.3,143
			c8.7,0,18-0.7,25.7,3.5c14.5,7.9,15.4,27.7,19.4,43.7c8.4,33.5,38,59,71.1,68.9c33.1,9.9,69,6,102-4.1
			c35.1-10.6,70-28.2,106.3-23.6c35.6,4.6,67.1,32.6,75.7,67.5c-16.3,67.5-2.9,138.1,10.5,206.3c4.7,23.7,9.4,47.6,19.2,69.7
			c9.1,20.5,22.4,38.9,31.7,59.4c29,63.3,21.5,146.9,75,191.4c19.9,16.5,45.6,24.8,64.9,42c16.2,14.5,26.6,34.3,36.6,53.7
			c42.7,82.5,85.8,165.9,107.7,256.2c11.9,49,19,102.7,53.4,139.6c4.2,4.5,9.3,8.9,15.4,9.7c20,2.6,39.5-32.2,53.1-17.3"/>
	</g>
	<g>
		
			<linearGradient id="SVGID_2_" gradientUnits="userSpaceOnUse" x1="-2088.8621" y1="281.0185" x2="-1098.8977" y2="281.0185" gradientTransform="matrix(-1 0 0 1 -3383.0518 0)">
			<stop  offset="0" style="stop-color:#6CD6D2"/>
			<stop  offset="1" style="stop-color:#6CD6D2;stop-opacity:0"/>
		</linearGradient>
		<path class="st4" d="M-1747.2-28.5c109.2,21.6,210.4,81.7,281.6,167.2c19.7,23.7,37.5,49.8,45.7,79.5c11.3,41,4.5,88.2,28.4,123.4
			c16.5,24.2,44.3,37.7,66.6,56.7c22.3,19,39.7,51.1,25.8,76.9c-5.6,10.4-15.5,17.8-25.7,23.7c-35.6,20.4-79.8,25.4-119.1,13.5
			c-14.1-4.3-29.3-10.6-42.8-4.9c-7.1,3-12.4,8.8-17.8,14.3c-24.3,24.9-53.1,45.4-84.5,60.3c-9.9,4.7-20.5,8.9-31.4,8.4
			c-10.7-0.5-20.7-5.5-30-11c-34.2-20.3-63.6-48.7-85-82.2c-36.3,34.9-92.2,47.9-140.3,32.6s-86.1-58.3-95.5-107.8
			c-7,29.3-40,47.3-69.9,44c-29.9-3.3-55.7-23.8-72.7-48.7c-17-24.9-26.5-53.9-35.9-82.5c-1.9-5.7-4.7-12.3-10.6-13.7
			c-3.2-0.7-6.4,0.4-9.5,1.5c-21.1,7.6-42.8,18-64.9,14.1c-33.4-5.9-53.4-44.4-48.7-77.9s27.7-61.7,53.4-83.8
			c71.1-61.2,164.3-88.4,253-118.8c22.7-7.8,45.7-16.1,65-30.3c25.9-19.1,48.6-50.1,80.8-48.3c15.3,0.8,29.5,9.5,44.9,9.6
			c23.7,0.2,45.8-19.9,68.9-14.2"/>
	</g>
	<g>
		
			<linearGradient id="SVGID_3_" gradientUnits="userSpaceOnUse" x1="-3926.4509" y1="402.1287" x2="-3383.0518" y2="402.1287" gradientTransform="matrix(-1 0 0 1 -3383.0518 0)">
			<stop  offset="0" style="stop-color:#6CD6D2"/>
			<stop  offset="1" style="stop-color:#6CD6D2;stop-opacity:0"/>
		</linearGradient>
		<path class="st5" d="M497.1,154.4c12.6,31.9-1.3,69.5-33.5,90.7c-10.9,7.2-23.7,12.6-32.6,21.3s-12.9,22.5-3.9,31.1
			c9.6,9.2,27.1,7.8,41.9,8.2c12.2,0.3,24.4,2.4,35.7,6.2c8.1,2.7,16.6,7.2,18,14.2c0.9,4.4-1.4,8.8-4.7,12.3
			c-9.9,10.7-30.3,13.7-44.3,6.7c6.7,9.4,0.2,23.3-12.7,26.6c-12.9,3.2-28.1-5.3-28.7-16.2c-4.5,8.4-17.2,13.3-28.2,10.9
			c-10.9-2.4-18.7-11.9-17.3-21c-19.9,1.5-26.7,22.1-41.3,33.1c-7.6,5.8-17.7,8.9-27.6,11.6c-32.9,9-67.3,14.5-102,16.4
			c-23,1.2-46.9,0.8-68.2-6.5c-11.4-3.9-21.8-9.7-33.7-12.5s-26.4-1.8-34.2,5.9c-9.7,9.5-4.9,23.7,0.8,35.1c3,6,6.3,12.2,12.4,16.5
			c6,4.1,13.9,5.9,21.5,7.5c34.8,7.3,69.8,14.7,105.7,16.5c19.9,1,40.2,0.3,59.6,4.2c12.1,2.5,23.5,6.7,34.8,10.9
			c22.7,8.4,45.4,16.9,68,25.6c44.2,17,65.5,49.8,53.6,89.8c5.3,3.1,13,0.9,17.8-2.7c4.8-3.5,8.3-8.3,13.7-11.3
			c7.2-4.1,16.5-4.4,25.3-4.6c10.6-0.2,21.8-0.4,31.1,3.9s15,14.6,9,21.7c-7.6,9.1-29.4,8.8-30.5,19.7c-0.7,6.9,8.4,11.6,16.6,13.6
			c8.2,2,17.7,3.5,22.1,9.4c4.6,6.3,0.7,14.8-6.4,19.3c-7.1,4.5-16.4,5.8-25.4,6.6c-60.8,5.3-121.8-8.4-183-7.4
			c-12.3,0.2-24.9,1-36.7-2.1c-11.7-3-22.6-11-22.9-21c-0.4-11.1,11.4-19.6,21.2-27.4c9.9-7.8,19.3-19.3,13.2-29.2
			c-5.7-9.3-21.1-11-33.9-10.2c-2.4,0.1-5,0.4-6.6,1.9c-2.3,2.2-1.1,5.5-1.8,8.3c-1.9,7.4-17.2,6.6-21.2-0.2c-4-6.8,0.1-14.9,5.7-21
			c8.5-9.3,22.4-20,12.9-32.4c-3.7-4.8-9.6-8-15.5-10.9C180,493.7,105,485.1,47.4,451c-21.5-12.7-40.7-29.8-46.1-50.9
			c-5.4-21.1,7.2-46,32.5-52.8c10.4-2.8,21.7-2.3,32.6-3.2c25.7-2.1,49.8-12,75.5-13.7c20.6-1.4,41.4,2.4,61.9,0.2
			c24.4-2.6,46.1-13.5,69.9-18.5c17.3-3.6,35.6-4.1,52.5-8.9c16.9-4.8,33.1-15.6,34.7-30c-9.2,2.6-20.5-1.3-24.4-8.5
			c-4-7.2,0-16.6,8.5-20.4c-10.9,4-24.4-2.7-28.5-11.9s-1.1-19.4,3.6-28.3c2.1-4,6.3-8.6,11.5-7.5c4.6,0.9,6.4,5.7,10.6,7.5
			c7.2,3.1,14.6-4,22.6-5.4c9.5-1.6,17.6,5.1,26.4,8.3c11.8,4.2,26.7,1.6,35.3-6.1c12-10.8,10.1-27.1,11.4-41.5
			c1.3-14.4,11.1-31.7,29-31.5c3.8,12.2,15.6,22.6,30.3,26.6"/>
	</g>
	<g>
		
			<linearGradient id="SVGID_4_" gradientUnits="userSpaceOnUse" x1="-4375.8027" y1="406.8975" x2="-3851.8044" y2="406.8975" gradientTransform="matrix(-1 0 0 1 -3383.0518 0)">
			<stop  offset="0" style="stop-color:#6CD6D2"/>
			<stop  offset="1" style="stop-color:#6CD6D2;stop-opacity:0"/>
		</linearGradient>
		<path class="st6" d="M695,330c13.9,8,31.6,6.1,47.9,7.4c35.4,2.9,66.5,22.2,94.1,42.8c27.6,20.6,54.1,43.4,87,55.8
			c19.4,7.3,40.2,10.7,60.9,13.4c2.3,0.3,4.9,0.7,6.5,2.3c2.5,2.6,1.2,6.6-0.5,9.7c-19.4,36.1-71.8,53.7-112,37.7
			c-2.8-1.1-5.7-2.4-8.6-1.9c-2.1,0.3-3.9,1.4-5.6,2.6c-16.4,10.8-30.3,25-48,34c-17.7,9-41.7,11.7-56.9-0.5
			c-2.7-2.2-5.5-4.9-9.2-4.8c-2.4,0.1-4.4,1.4-6.3,2.6c-15,10.1-29.3,22-47.3,26.5c-33.2,8.3-67.3-12-88.6-36.7
			c-12.7,12.1-26.2,24.6-43.7,29.4c-17.4,4.7-36.5,1-52.6-6.6c-16.1-7.6-29.8-18.9-43.3-30c6.8-5,13.6-10.1,20.4-15.1
			c4.7-3.5,9.6-7.2,12.2-12.3c3.5-7.1,1.8-15.3,0.2-23c-7.9-37.6-9.5-79,12.5-111.5c10-14.7,24.1-26.6,38-38.3
			c12.3-10.3,24.7-20.7,37-31c6.3-5.3,12.6-10.6,19.9-14.6c8-4.4,17-7.2,26.1-9.3c23-5.3,47.7-6.4,70.4,0s43.3,20.9,52.9,40.8
			c3.4,7.1,5.5,14.8,10.4,21c6.8,8.6,17.9,13.1,28.4,17.6c17.7,7.7,34.9,16.4,51.4,26.1c9.1,5.4,18.2,11.2,24.1,19.5
			c5.9,8.3,8,19.6,2.5,28.1"/>
	</g>
	<g>
		
			<linearGradient id="SVGID_5_" gradientUnits="userSpaceOnUse" x1="-4496.6421" y1="321.4261" x2="-4161.7432" y2="321.4261" gradientTransform="matrix(-1 0 0 1 -3383.0518 0)">
			<stop  offset="0" style="stop-color:#6CD6D2"/>
			<stop  offset="1" style="stop-color:#6CD6D2;stop-opacity:0"/>
		</linearGradient>
		<path class="st7" d="M1093.6,336.4c-26.6-22.4-68.8-22.4-96.6-43.5c-15-11.4-24.3-28-37.9-40.8c-13.6-12.9-35.3-22-52.4-13.4
			c-17.1,8.6-20.4,29.8-32.5,43.8c-9.9,11.5-25.2,17.7-40.1,23c-14.9,5.3-30.4,10.4-42,20.6c-11.5,10.2-17.8,27-9.9,39.8
			c2.2,3.6,5.5,6.7,9.4,8.9c8.1,4.5,18.2,4.8,27.6,3.9c16.3-1.6,32.2-6.4,46.3-13.9c9.5,11.3,3.4,30.5,15.6,39.3
			c11.1,8,27.2,0.5,38.4-7.5c1.8-1.3,3.7-2.6,5.9-2.7c5.5-0.3,8.1,5.9,11.9,9.4c7.2,6.7,19.6,4,28.2-1s16.8-11.8,26.9-12.6
			c3.7-0.3,7.4,0.3,11.1,0.4c18.9,0.6,36-10.1,49.3-22.4c3.1-2.9,6.2-6,10.1-7.9c3.5-1.8,7.5-2.5,11.4-3.6
			c14.4-4,26.9-12.2,39.1-20.4c-4.4-2-9.6-2.6-14.3-1.6"/>
	</g>
	<g>
		
			<linearGradient id="SVGID_6_" gradientUnits="userSpaceOnUse" x1="-4404.0708" y1="462.0428" x2="-4272.8535" y2="462.0428" gradientTransform="matrix(-1 0 0 1 -3383.0518 0)">
			<stop  offset="0" style="stop-color:#6CD6D2"/>
			<stop  offset="1" style="stop-color:#6CD6D2;stop-opacity:0"/>
		</linearGradient>
		<path class="st8" d="M889.8,389.5c6,11.9,16.1,21.9,28.6,28.2c17.7,9,40.4,11,53.7,24.9c1.5,1.6,2.9,3.3,3.2,5.4
			c0.8,6-7.5,9.4-14.1,9.3c-9.6-0.2-18.9-3.4-28.4-4.8c-9.5-1.4-20.4-0.4-26.9,6.1c-0.7,0.7-1.4,1.6-1.5,2.6
			c-0.2,1.3,0.6,2.5,1.4,3.5c4.6,5.1,12.5,5.9,19.5,7.4s14.8,5.3,15.2,11.9c0.4,6.8-7.2,11.3-13.5,14.8c-6.3,3.5-13.1,9.7-10.4,16
			c1.2,2.8,4.2,4.7,7.1,6.2c19,10,41.6,11.8,63.5,13.4c1.8,0.1,3.8,0.2,5.4-0.6c4.5-2.3,1.8-9-2.7-11.3c-4.5-2.3-10.1-2.5-14-5.6
			c-7.6-6.1-2.7-18.2,5.6-23.6c8.3-5.3,18.8-7.1,27-12.6c14.3-9.7,16.9-31,5.2-43.3c-6-6.3-14.5-9.9-22.2-14.3
			c-13.6-7.6-25.4-17.9-34.5-29.9"/>
	</g>
	<g>
		
			<linearGradient id="SVGID_7_" gradientUnits="userSpaceOnUse" x1="-1856.5345" y1="227.4267" x2="-919.2964" y2="227.4267" gradientTransform="matrix(-1 0 0 1 -3383.0518 0)">
			<stop  offset="0" style="stop-color:#6CD6D2"/>
			<stop  offset="1" style="stop-color:#6CD6D2;stop-opacity:0"/>
		</linearGradient>
		<path class="st9" d="M-1764.4-119.3c-19.5,13.6-43,19.6-64.4,29.9c-26.4,12.6-49.3,31.3-71.9,49.9
			c-52,42.7-103.9,85.4-155.9,128.1c-10.8,8.9-22.7,20.7-20,34.4c1.6,7.8,7.7,13.8,13.8,19c25,21.1,54.8,36.5,86.5,44.8
			c15.3,4,31.2,6.4,45.3,13.7c14.1,7.2,26.3,20.7,26.5,36.5c0.3,24.8-27.6,40.4-52.2,43c-24.7,2.6-50.9-1.6-73.4,8.7
			c-6.1,2.8-12.1,7.1-14.7,13.3c-4.5,11,3.2,23.1,11.5,31.5c21.9,22.2,50.8,35.8,79.1,48.9c106.1,49.4,212.2,98.9,318.4,148.3
			c45.4,21.1,96,48.5,107.1,97.3c12.7,55.7-32.4,105.6-61.4,154.9c-18.8,31.9-31.7,67.2-37.8,103.7
			c-64.3-0.3-124.9-50.5-137.1-113.7c-3.7-19.1-3.4-39-10.2-57.2c-12.4-33.2-45.1-53.7-75.8-71.3c-88.4-50.6-178.7-98-270.6-142.1
			c-40.5-19.4-82.5-39-112.2-72.7c-29.7-33.7-43.6-85.8-20.2-124.1c6.1-10.1,14.7-19.2,16.8-30.8c2.9-15.7-7.6-31.4-20.9-40.1
			s-29.4-12.3-44.7-16.8c-72.5-21.4-140.8-74-158.3-147.5c-2.7-11.3-4.1-23.3-0.3-34.3c7-20.4,30.6-31.3,52.2-30.6
			c21.6,0.7,41.7,10.5,61.1,20.1c6.1-26.3,42.8-31.6,68-21.8c25.2,9.9,47.3,28.9,74.2,31.6c28.7,2.8,55.8-13.9,77.2-33.3
			c26.7-24.2,48.3-53.4,69.7-82.3c23.5-31.8,47-63.6,70.6-95.4c4.9-6.7,10-13.6,12-21.6c2.3-9.2,0.4-18.8-1.2-28.1
			c-7.8-46.4-20.9-122.2,12.4-160.3c29.1-33.2,75.4-48.4,119.5-45.7c56.7,3.4,110.9,35,141.8,82.7c9.5,14.7,17,31.8,14.8,49.1
			c-4.2,33.4-30,54.6-33.4,89.2C-1726.4-174-1731.6-142.1-1764.4-119.3z"/>
	</g>
	<g>
		
			<linearGradient id="SVGID_8_" gradientUnits="userSpaceOnUse" x1="-4046.502" y1="127.2654" x2="-3712.3481" y2="127.2654" gradientTransform="matrix(-1 0 0 1 -3383.0518 0)">
			<stop  offset="0" style="stop-color:#6CD6D2"/>
			<stop  offset="1" style="stop-color:#6CD6D2;stop-opacity:0"/>
		</linearGradient>
		<path class="st10" d="M534,24.8c12.7,5.3,25.1,11.5,37.1,18.4c6.6,3.8,13.5,8.3,16.7,15.3c2.8,6.1,2.4,13,2.3,19.7
			c-0.2,16.4,2.3,33.4,10.7,47.4s23.8,24.7,40.1,24.1c7.4-0.3,16.5-2.1,20.9,3.9c3.2,4.3,1.6,10.9-2,14.8c-3.7,3.9-8.9,5.9-14,7.6
			c2.5,7.3,5.1,15.1,3,22.5c-2.6,9.4-11.9,15.5-21.4,17.8c-14.7,3.6-31-0.2-42.6-10c-3.3,6.3-6.7,12.6-11.7,17.6s-11.9,8.6-18.9,7.8
			c-7-0.7-13.6-6.7-13.5-13.8c-3.7,2.1-7,5.2-11.2,6.1c-5.9,1.3-12-2.4-15.4-7.4c-3.4-5-4.6-11.2-5.8-17.1
			c-10.6,5.7-19.1,15.1-30,20.3c-18.8,8.8-43.4,2.2-55.2-14.9c-5.8,9.1-18.7,12.7-28.4,8.1c-7.7-3.7-12.8-11.9-14.2-20.4
			s0.4-17.3,3.8-25.2c0.4-0.9,0.8-1.9,0.5-2.8c-0.6-2.1-3.5-2-5.5-1.6c-10.2,2.3-21.1,4.4-30.8,0.7s-16.9-15.9-11.7-25.1
			c-7.2-9.4-9.2-22.6-5.2-33.7s14-19.9,25.6-22.4c1.2-0.3,2.6-0.6,3.2-1.7c0.3-0.6,0.3-1.4,0.2-2.1c-0.9-17.8,17.6-33.8,35-30.3
			c-3.8,2.4-0.9,8.4,2.6,11.5c5.1,4.5,10.9,8.4,17,11.4c1.2,0.6,2.4,1.1,3.7,1.1c1.6-0.1,3.1-1.1,4.4-2.2c3.7-3,7.2-6.2,10.7-9.4
			c5.1-4.6,10.2-9.3,15.3-13.9c5.2-4.7,10.4-9.5,16.4-13.2c19.9-12.3,44.8-11.4,68.1-10.2c4.1,0.2,9.8,2.7,8.2,6.5"/>
	</g>
	<g>
		
			<linearGradient id="SVGID_9_" gradientUnits="userSpaceOnUse" x1="-4071.2468" y1="1427.4105" x2="-3388.0308" y2="1427.4105" gradientTransform="matrix(-0.2692 0.1523 0.1179 0.2085 -893.2095 417.2176)">
			<stop  offset="0" style="stop-color:#6CD6D2"/>
			<stop  offset="1" style="stop-color:#6CD6D2;stop-opacity:0"/>
		</linearGradient>
		<path class="st11" d="M290.3,83.2c17.2-2.1,33.4,3.5,40.6,14.1c5.1,7.4,8,18.2,19.8,18.5c4.4,0.1,9-1.4,13.5-2
			c10.6-1.4,20.4,2.8,23.3,10.1c2.9,7.2-1.5,16.9-10.3,22.8c2.1,3,8.7,1,13.2,1.8c6.1,1,7.2,7.5,3.7,12.4s-10.1,8.1-16.6,10.5
			c-9.5,3.5-19.6,5.5-29.3,6c4.1,7.6-3.2,18.7-14,23.9c-10.8,5.2-23.7,5.2-33.3,1.8c-4.7,7.2-11.2,15.6-20.9,17
			c-5,0.7-9.4-0.7-13.5-2.2c-12.4-4.6-24-10.3-34.5-17c-2-1.3-4.7-2.7-7.5-1.7c-1.4,0.5-2.4,1.4-3.5,2.3c-4.1,3.4-8.9,6.4-14.3,7.7
			c-5.4,1.3-11.3,0.6-13.9-2.5c-2.8-3.3-1.4-8.3-2-12.6c-1.4-9.1-12.1-14.2-17.9-21.5c-5.2-6.6-6.6-15.3-3.6-23.9
			c4.2-12.3,16.3-23.3,29.1-32.5c12.9-9.2,27-17.4,38.5-27.6c3.5-3.1,6.7-6.4,10.9-9c8.7-5.3,19.5-6.4,29.5-7.1
			c4.6-0.3,10-0.3,11.5,2.7c1.2,2.5,0,6.8,3.6,6.9"/>
	</g>
	<g>
		
			<linearGradient id="SVGID_10_" gradientUnits="userSpaceOnUse" x1="-3775.072" y1="422.8409" x2="-3477.4753" y2="422.8409" gradientTransform="matrix(-1 0 0 1 -3383.0518 0)">
			<stop  offset="0" style="stop-color:#6CD6D2"/>
			<stop  offset="1" style="stop-color:#6CD6D2;stop-opacity:0"/>
		</linearGradient>
		<path class="st12" d="M307.9,179.2c1.1,1.8,2.2,3.6,3.3,5.4c5.9,9.8,12.7,20.4,25,25c11.7,4.4,29.1,4.2,32.8,14.2
			c2.4,6.5-3.8,13.5-11.5,16.3s-16.5,2.7-25,3c-4.3,0.2-8.8,0.5-12.3,2.6c-9.3,5.5-4.2,17.1,0.1,25.8c17.8,36-0.1,81.3-40.5,102.3
			c-23.4,12.2-54,17.7-69,36.6c-8.5,10.7-10.4,24.6-4.8,36.5c10,21.4,39.6,32,67,38c14.5,3.2,29.6,5.8,41.9,12.7
			c13.1,7.3,22,19.5,23.9,32.2c1.6,10.5,3.7,27.7-8,34.8c-4.4,2.7-10.1,4.1-13.7,7.4c-3.2,3-4.4,7.4-2.9,11.2
			c15.2,1.6,30.8,1.1,45.6,4.3c14.8,3.2,29.3,11.6,32.1,23.7c0.7,3.2,0.4,6.9-2.5,9.2c-1.9,1.5-4.6,2.2-7.2,2.8
			c-16.1,3.8-34,7.6-49.1,1.7c-3.1-1.2-6.1-2.8-9.5-3.1c-8.1-0.7-14.1,6.3-15.5,12.8c-1.5,6.5-0.5,13.4-4,19.3
			c-7,11.9-27,13.5-43.4,13.3c-8.6-0.1-17.4-0.2-25.5-2.5c-9.5-2.7-17.4-8.1-26.3-11.9c-14.1-6-30.4-7.9-44.9-13.2
			c-2.6-0.9-5.2-2-6.9-3.8c-2.1-2.2-2.6-5.1-3-7.8c-2.3-15.6-3.5-33.6,10.5-44.4c7-5.4,16.7-7.9,25.2-11.7s16.7-10.2,16.3-18.1
			c-0.1-2.8-1.1-6.1,1.6-7.9c1.7-1.2,4.1-1.1,6.3-1c14.6,0.8,29.1,1.6,43.7,2.3c2.8-9.7,4.6-21.8-5.3-27.7
			c-9.3-5.5-15.2-12.2-24.5-17.3c-15.7-8.5-34.6-14.7-51.3-21.8c-9.6-4.1-19.2-8.2-27.6-13.6c-13.3-8.6-23.1-20.1-32.5-31.6
			c-13.4-16.4-26.7-35.8-20.1-54.8c5.6-16,24.5-26.9,44-32.2s40.4-6.5,60.4-10.5c20-3.9,40.4-11.5,51.1-25.7
			c5.1-6.7,7.7-14.5,9.9-22.2c4.1-14.5,7.2-29.1,9.3-43.9c-13.5,4.6-27.9,7.3-42.4,8c-3,0.2-6.3,0.2-8.9-1.1
			c-3.4-1.7-4.7-5.1-5.7-8.2c-1.7-5-3.4-10.4-1.4-15.3c3.2-7.8,14-11.5,20.9-17.6c6.7-5.8,9.7-14.1,8.1-21.9
			c4.4-1.5,8.5,2.2,12.2,4.6c8.2,5.3,20.3,4.7,29.6,0.8c9.3-3.8,16.4-10.3,23.3-16.7"/>
	</g>
	<g>
		
			<linearGradient id="SVGID_11_" gradientUnits="userSpaceOnUse" x1="-4206.3442" y1="321.1539" x2="-3896.5461" y2="321.1539" gradientTransform="matrix(-1 0 0 1 -3383.0518 0)">
			<stop  offset="0" style="stop-color:#6CD6D2"/>
			<stop  offset="1" style="stop-color:#6CD6D2;stop-opacity:0"/>
		</linearGradient>
		<path class="st13" d="M750.4,171.5c15.1,6.5,33,9.3,50.3,7.9c8.5-0.7,17.9-3,21.4-8.9c3-5,0.6-10.9-3.5-15.4
			c-4.1-4.5-9.8-8-14.4-12.1c-10.3-9.3-14.8-21.4-22.9-31.8c-8.1-10.4-22.7-19.9-38.5-17.7c-11.2,1.5-19.5,8.4-27,14.8
			c-14,12-29,24.4-49.1,29.6c-7.6,2-17.2,3.9-19.1,9.8c-2,6.3,6.7,11.5,14.6,14.2c19.3,6.7,40.5,10.1,61.7,9.9
			c3.5,0,7.9,0.2,9.1,2.7c0.6,1.2,0.2,2.6-0.3,3.8c-6.2,12.8-29.7,15.4-40.1,26.6c-5.8,6.3-6.7,14.3-9.9,21.6
			c-0.7,1.5-1.6,3.2-3.6,3.9c-2.5,0.9-5.4-0.2-8.1-0.6c-4.7-0.7-9.9,1-12.4,4.1c-2.5,3.1-2.2,7.4,0.7,10.2c3,3,8.3,4.3,11.2,7.3
			c5.7,5.9,0.2,13.9-1.7,21c-2.9,10.7,3.2,21.6,11.1,30.7c7.8,9.1,17.6,17.4,23.4,27.4c3,5.1,9.2,11.8,11.1,16.9
			c2.1,5.8-2.9,12.5-6.4,17.7c-8.3,12.2-20.9,22.8-36.4,30c-22.9,10.8-51.8,14.2-78,9.2c-0.5,3.8-5.1,6.7-5.5,10.5
			c-0.7,6.4,9.7,9.7,18,10.9s18.8,4.3,18.3,10.7c-0.4,5.7-9.2,8.4-16.5,9.7c-15,2.8-30.1,5.5-44.3,10.1
			c-12.1,3.9-23.3,9.2-34.4,14.5c-8.1,3.8-17.3,9.4-15.5,16.5c1.4,5.2,8.3,8.4,14.2,11.3c5.9,2.9,12.1,7.4,10.8,12.7
			c-0.5,2-2.1,3.8-2.2,5.8c-0.2,4.3,6,7,11.3,8.4c31.3,8.2,67.2,6.1,95.9,18.6c1.8,0.8,3.7,1.6,5.8,1.7c2,0,3.9-0.8,5.8-1.4
			c10.5-3.2,22.3,0.2,32.9,3.4c6.1,1.9,15.5,2.6,17.2-2.3c-12-0.6-19-10.2-28.5-15.8c-8.9-5.3-20.4-7-31.2-9.6
			c-12.2-2.9-23.9-7.1-34.7-12.4c-4.8-2.3-9.9-5.5-9.9-9.8c0-6.5,10.8-9.3,19.3-10.1c10.7-0.9,21.8-1.5,31.5-4.9
			c9.8-3.5,18.1-10.7,17.5-18.8c-0.6-7.9-8.9-16.7-2.1-22.7c4.5-4,13-3.5,19.4-1.5s12.6,5.1,19.6,5.2c7,0.1,14.6-5,11.9-9.8
			c-1.4-2.5-5.1-4-7.1-6.3c-3.1-3.6-1.5-8.5,1.9-12s8.3-5.8,12.5-8.6c15.1-9.8,23.1-25.5,20.6-40.4c-0.6-3.7-1.8-7.4-1.4-11.2
			c0.4-3.4,2-6.6,2.5-9.9c1.2-8.1-4.3-15.8-9.3-23c-6.3-9.2-14.2-19.6-17.1-29.7c-3-10.6-0.5-22.6,1.4-33.2
			c6.3-3.3,14.7-2.2,22.3-3.1c7.5-0.9,15.6-6.9,11.4-11.7c-1.7-2-4.8-2.9-7.6-4c-11.7-4.5-20.1-13.7-21.5-23.5s4.3-20.1,14.6-26.4
			c4.6-2.8,10.1-4.9,13.7-8.4c3.6-3.5,4.4-9.3-0.4-11.9"/>
	</g>
	<g>
		
			<linearGradient id="SVGID_12_" gradientUnits="userSpaceOnUse" x1="-4408.1743" y1="501.8423" x2="-3660.4026" y2="501.8423" gradientTransform="matrix(-1 0 0 1 -3383.0518 0)">
			<stop  offset="0" style="stop-color:#6CD6D2"/>
			<stop  offset="1" style="stop-color:#6CD6D2;stop-opacity:0"/>
		</linearGradient>
		<path class="st14" d="M288.7,433.3c-6.7-11.3-13.7-23.8-10.6-36.3c2.3-9.3,9.8-16.8,17-23.7c7-6.7,14-13.5,21-20.2
			c5-4.8,10.3-9.8,17.2-11.6c6.9-1.8,15.9,1,17.7,7.4c1.2,4.2-0.8,8.5-2.2,12.6c-5.4,17.2,2.9,37.2,19.4,46.8
			c7.1,4.1,15.4,6.4,22.7,10.2c7.9,4.2,14.5,10.2,20.9,16.2c13.5,12.4,66.4,78.3,88,62.9c7.4-5.3,8-15.1,9.9-23.6
			c5.5-24.8,28.8-45.4,56-49.4c7.2-1.1,15.4-0.7,20.5,4.1c5.4,5.2,4.9,13.4,4.3,20.6c-1.1,13.7-0.6,28.6,8.6,39.4
			c10,11.7,27.9,15.4,44,14.1c16.1-1.3,31.5-6.8,47.3-10.1c25.1-5.2,51.1-4.9,76.7-3.5c85.4,4.5,174.5,21.9,238.2,74.3
			c9,7.4,17.9,16.3,19.5,27.3c2.4,16.3-11.7,30.4-24.7,41.6c-9.9,8.5-20,17.2-32.4,22.3c-15.3,6.4-32.5,7-49.3,7.5
			c-40.4,1.2-81.6,2.4-120.6-7.5c-7-1.8-15.1-5.4-15.4-12c-0.3-6.4,6.9-10.5,13-13.6c12.3-6.1,24.5-13.8,30.8-25.3
			c6.2-11.5,4.2-27.6-7.7-34.4c-5.3-3-11.8-3.8-18-4.6c-36.1-4.2-72.3-8.4-108.4-12.6c-2.8-0.3-5.7-0.6-8.3,0.4
			c-4.6,1.7-6.3,6.7-8.1,10.9c-6.8,16.1-21.8,29-39.7,34.4c-17.9,5.3-38.3,3-54.1-6.3c-3-1.7-5.9-3.8-7.2-6.8
			c-1.5-3.3-0.8-7.1-0.2-10.7c1.7-10.5,1.3-22-5.3-30.8c-6.6-8.8-21-13.1-30.3-6.7c-14,9.6-6.7,33.6-21.1,42.6
			c-3,1.9-6.6,2.8-10.1,3.5c-33.3,7.2-69.7,2.9-99.2-13c-32.2-17.4-42.7-41.9-57-71.3c-6.4-13.2-15.9-16.9-28.4-25.2
			C307.3,462.7,297.9,448.6,288.7,433.3z"/>
	</g>
	<text transform="matrix(1 0 0 1 -1702.1422 707.9023)"><tspan x="0" y="0" class="st0" style="font-family:'CenturyGothic-Bold'; font-size:55px;">ЛАВКА С МАГИЧЕСКИМИ </tspan><tspan x="0" y="66" class="st0" style="font-family:'CenturyGothic-Bold'; font-size:55px;">               ЗЕЛЬЯМИ «СНАДОБ’»</tspan></text>
	<g id="Слой_5">
		<g>
			<g>
				<path class="st0" d="M-1731.9-683.4c5.8,0,5.8-9,0-9C-1737.7-692.4-1737.7-683.4-1731.9-683.4L-1731.9-683.4z"/>
			</g>
		</g>
		<g>
			<g>
				<path class="st0" d="M-1868.3-574.3c5.8,0,5.8-9,0-9C-1874.1-583.3-1874.1-574.3-1868.3-574.3L-1868.3-574.3z"/>
			</g>
		</g>
		<g>
			<g>
				<path class="st0" d="M-2333.3-601.7c5.8,0,5.8-9,0-9C-2339-610.7-2339.1-601.7-2333.3-601.7L-2333.3-601.7z"/>
			</g>
		</g>
		<g>
			<g>
				<path class="st0" d="M-2080.4-725.8c5.8,0,5.8-9,0-9C-2086.2-734.8-2086.2-725.8-2080.4-725.8L-2080.4-725.8z"/>
			</g>
		</g>
		<g>
			<g>
				<path class="st0" d="M-2483.4-589.4c5.8,0,5.8-9,0-9C-2489.2-598.4-2489.2-589.4-2483.4-589.4L-2483.4-589.4z"/>
			</g>
		</g>
		<g>
			<g>
				<path class="st0" d="M-2507.7-765.2c5.8,0,5.8-9,0-9C-2513.5-774.2-2513.5-765.2-2507.7-765.2L-2507.7-765.2z"/>
			</g>
		</g>
		<g>
			<g>
				<path class="st0" d="M-1781.7-619.9c5.8,0,5.8-9,0-9C-1787.5-628.9-1787.5-619.9-1781.7-619.9L-1781.7-619.9z"/>
			</g>
		</g>
		<g>
			<g>
				<path class="st0" d="M-2472.7-729c5.8,0,5.8-9,0-9C-2478.4-738-2478.5-729-2472.7-729L-2472.7-729z"/>
			</g>
		</g>
		<g>
			<g>
				<path class="st0" d="M-2283.4-716.7c5.8,0,5.8-9,0-9C-2289.2-725.7-2289.2-716.7-2283.4-716.7L-2283.4-716.7z"/>
			</g>
		</g>
		<g>
			<g>
				<path class="st0" d="M-2090.8-738.1c5.8,0,5.8-9,0-9C-2096.6-747.1-2096.6-738.1-2090.8-738.1L-2090.8-738.1z"/>
			</g>
		</g>
		<g>
			<g>
				<path class="st0" d="M-2257.5-756.3c5.8,0,5.8-9,0-9C-2263.3-765.3-2263.3-756.3-2257.5-756.3L-2257.5-756.3z"/>
			</g>
		</g>
		<g>
			<g>
				<path class="st0" d="M-1901.6-759.1c5.8,0,5.8-9,0-9C-1907.4-768.1-1907.4-759.1-1901.6-759.1L-1901.6-759.1z"/>
			</g>
		</g>
		<g>
			<g>
				<path class="st0" d="M-1406-671.4c5.8,0,5.8-9,0-9C-1411.8-680.4-1411.8-671.4-1406-671.4L-1406-671.4z"/>
			</g>
		</g>
		<g>
			<g>
				<path class="st0" d="M-1498.6-722.8c5.8,0,5.8-9,0-9C-1504.4-731.8-1504.4-722.8-1498.6-722.8L-1498.6-722.8z"/>
			</g>
		</g>
		<g>
			<g>
				<path class="st0" d="M-1675.7-771.4c5.8,0,5.8-9,0-9C-1681.5-780.4-1681.5-771.4-1675.7-771.4L-1675.7-771.4z"/>
			</g>
		</g>
		<g>
			<g>
				<path class="st0" d="M-1881.7-662.3c5.8,0,5.8-9,0-9C-1887.5-671.3-1887.5-662.3-1881.7-662.3L-1881.7-662.3z"/>
			</g>
		</g>
		<g>
			<g>
				<path class="st0" d="M-1083.4-810.6c5.8,0,5.8-9,0-9C-1089.2-819.6-1089.2-810.6-1083.4-810.6L-1083.4-810.6z"/>
			</g>
		</g>
		<g>
			<g>
				<path class="st0" d="M-1095.6-692.5c5.8,0,5.8-9,0-9C-1101.3-701.5-1101.4-692.5-1095.6-692.5L-1095.6-692.5z"/>
			</g>
		</g>
		<g>
			<g>
				<path class="st0" d="M-1319.8-744c5.8,0,5.8-9,0-9C-1325.6-753-1325.6-744-1319.8-744L-1319.8-744z"/>
			</g>
		</g>
		<g>
			<g>
				<path class="st0" d="M-889.5-701.6c5.8,0,5.8-9,0-9C-895.3-710.6-895.3-701.6-889.5-701.6L-889.5-701.6z"/>
			</g>
		</g>
		<g>
			<g>
				<path class="st0" d="M-987.8-707.8c5.8,0,5.8-9,0-9C-993.6-716.8-993.6-707.8-987.8-707.8L-987.8-707.8z"/>
			</g>
		</g>
		<g>
			<g>
				<path class="st0" d="M-1209-662.3c5.8,0,5.8-9,0-9C-1214.8-671.3-1214.8-662.3-1209-662.3L-1209-662.3z"/>
			</g>
		</g>
		<g>
			<g>
				<path class="st0" d="M-1272.7-777.5c5.8,0,5.8-9,0-9C-1278.4-786.5-1278.5-777.5-1272.7-777.5L-1272.7-777.5z"/>
			</g>
		</g>
		<g>
			<g>
				<path class="st0" d="M-1590.8-622.9c5.8,0,5.8-9,0-9C-1596.6-631.9-1596.6-622.9-1590.8-622.9L-1590.8-622.9z"/>
			</g>
		</g>
		<g>
			<g>
				<path class="st0" d="M-1889.8-754.4c5.8,0,5.8-9,0-9C-1895.6-763.4-1895.6-754.4-1889.8-754.4L-1889.8-754.4z"/>
			</g>
		</g>
		<g>
			<g>
				<path class="st0" d="M-2163.6-638.1c5.8,0,5.8-9,0-9C-2169.4-647.1-2169.4-638.1-2163.6-638.1L-2163.6-638.1z"/>
			</g>
		</g>
		<g>
			<g>
				<path class="st0" d="M-869.6-607.8c5.8,0,5.8-9,0-9C-875.4-616.8-875.4-607.8-869.6-607.8L-869.6-607.8z"/>
			</g>
		</g>
		<g>
			<g>
				<path class="st0" d="M-2089.5-544c5.8,0,5.8-9,0-9C-2095.3-553-2095.3-544-2089.5-544L-2089.5-544z"/>
			</g>
		</g>
		<g>
			<g>
				<path class="st0" d="M-2513.7-450c5.8,0,5.8-9,0-9C-2519.5-459-2519.5-450-2513.7-450L-2513.7-450z"/>
			</g>
		</g>
		<g>
			<g>
				<path class="st0" d="M-2367.3-214.9c5.8,0,5.8-9,0-9C-2373.1-223.9-2373.1-214.9-2367.3-214.9L-2367.3-214.9z"/>
			</g>
		</g>
		<g>
			<g>
				<path class="st0" d="M-2173.4-63.4c5.8,0,5.8-9,0-9C-2179.1-72.4-2179.2-63.4-2173.4-63.4L-2173.4-63.4z"/>
			</g>
		</g>
		<g>
			<g>
				<path class="st0" d="M-2173.4-311.8c5.8,0,5.8-9,0-9C-2179.1-320.8-2179.2-311.8-2173.4-311.8L-2173.4-311.8z"/>
			</g>
		</g>
		<g>
			<g>
				<path class="st0" d="M-2312.7-430c5.8,0,5.8-9,0-9C-2318.5-439-2318.5-430-2312.7-430L-2312.7-430z"/>
			</g>
		</g>
		<g>
			<g>
				<path class="st0" d="M-2503.7-293.7c5.8,0,5.8-9,0-9C-2509.4-302.7-2509.5-293.7-2503.7-293.7L-2503.7-293.7z"/>
			</g>
		</g>
		<g>
			<g>
				<path class="st0" d="M-2043.1-427c5.8,0,5.8-9,0-9C-2048.8-436-2048.9-427-2043.1-427L-2043.1-427z"/>
			</g>
		</g>
		<g>
			<g>
				<path class="st0" d="M-2030.9-227c5.8,0,5.8-9,0-9C-2036.7-236-2036.7-227-2030.9-227L-2030.9-227z"/>
			</g>
		</g>
		<g>
			<g>
				<path class="st0" d="M-2258.2-569.4c5.8,0,5.8-9,0-9C-2264-578.4-2264-569.4-2258.2-569.4L-2258.2-569.4z"/>
			</g>
		</g>
		<g>
			<g>
				<path class="st0" d="M-1855.2-45.2c5.8,0,5.8-9,0-9C-1861-54.2-1861-45.2-1855.2-45.2L-1855.2-45.2z"/>
			</g>
		</g>
		<g>
			<g>
				<path class="st0" d="M-1827.9,112.4c5.8,0,5.8-9,0-9C-1833.7,103.4-1833.7,112.4-1827.9,112.4L-1827.9,112.4z"/>
			</g>
		</g>
		<g>
			<g>
				<path class="st0" d="M-1579.4,57.9c5.8,0,5.8-9,0-9C-1585.2,48.9-1585.2,57.9-1579.4,57.9L-1579.4,57.9z"/>
			</g>
		</g>
		<g>
			<g>
				<path class="st0" d="M-1652.1,291.2c5.8,0,5.8-9,0-9C-1657.9,282.2-1657.9,291.2-1652.1,291.2L-1652.1,291.2z"/>
			</g>
		</g>
		<g>
			<g>
				<path class="st0" d="M-1785.5,276c5.8,0,5.8-9,0-9C-1791.3,267-1791.3,276-1785.5,276L-1785.5,276z"/>
			</g>
		</g>
		<g>
			<g>
				<path class="st0" d="M-1318.8,76c5.8,0,5.8-9,0-9C-1324.6,67-1324.6,76-1318.8,76L-1318.8,76z"/>
			</g>
		</g>
		<g>
			<g>
				<path class="st0" d="M-1149.1,379.1c5.8,0,5.8-9,0-9C-1154.9,370.1-1154.9,379.1-1149.1,379.1L-1149.1,379.1z"/>
			</g>
		</g>
		<g>
			<g>
				<path class="st0" d="M-1143.1,518.5c5.8,0,5.8-9,0-9C-1148.8,509.5-1148.9,518.5-1143.1,518.5L-1143.1,518.5z"/>
			</g>
		</g>
		<g>
			<g>
				<path class="st0" d="M-1315.8,560.9c5.8,0,5.8-9,0-9C-1321.6,551.9-1321.6,560.9-1315.8,560.9L-1315.8,560.9z"/>
			</g>
		</g>
		<g>
			<g>
				<path class="st0" d="M-903.7,506.3c5.8,0,5.8-9,0-9C-909.4,497.3-909.5,506.3-903.7,506.3L-903.7,506.3z"/>
			</g>
		</g>
		<g>
			<g>
				<path class="st0" d="M-1061.2,712.4c5.8,0,5.8-9,0-9C-1067,703.4-1067,712.4-1061.2,712.4L-1061.2,712.4z"/>
			</g>
		</g>
		<g>
			<g>
				<path class="st0" d="M-873.4-145.2c5.8,0,5.8-9,0-9C-879.1-154.2-879.2-145.2-873.4-145.2L-873.4-145.2z"/>
			</g>
		</g>
		<g>
			<g>
				<path class="st0" d="M-1258.2-669.4c5.8,0,5.8-9,0-9C-1264-678.4-1264-669.4-1258.2-669.4L-1258.2-669.4z"/>
			</g>
		</g>
		<g>
			<g>
				<path class="st0" d="M-2264.3-54.3c5.8,0,5.8-9,0-9C-2270.1-63.3-2270.1-54.3-2264.3-54.3L-2264.3-54.3z"/>
			</g>
		</g>
		<g>
			<g>
				<path class="st0" d="M-2494.6,621.5c5.8,0,5.8-9,0-9C-2500.4,612.5-2500.4,621.5-2494.6,621.5L-2494.6,621.5z"/>
			</g>
		</g>
		<g>
			<g>
				<path class="st0" d="M-2255.2,430.6c5.8,0,5.8-9,0-9C-2261,421.6-2261,430.6-2255.2,430.6L-2255.2,430.6z"/>
			</g>
		</g>
		<g>
			<g>
				<path class="st0" d="M-1206.7-17.9c5.8,0,5.8-9,0-9C-1212.5-26.9-1212.5-17.9-1206.7-17.9L-1206.7-17.9z"/>
			</g>
		</g>
		
			<text transform="matrix(1 0 0 1 -2463.7559 615.4478)" style="fill:#FFFFFF;stroke:#FFFFFF;stroke-miterlimit:10; font-family:'CenturyGothic-Bold'; font-size:347px;">СНАДОБ’</text>
	</g>
	<g>
		
			<linearGradient id="SVGID_13_" gradientUnits="userSpaceOnUse" x1="-2685.1094" y1="82.4403" x2="-2179.1306" y2="82.4403" gradientTransform="matrix(-1 0 0 1 -3383.0518 0)">
			<stop  offset="0" style="stop-color:#6CD6D2"/>
			<stop  offset="1" style="stop-color:#6CD6D2;stop-opacity:0"/>
		</linearGradient>
		<path class="st15" d="M-1012.2-87.1c29.2-5.8,58.8,5,86.6,15.6c33.7,12.9,68.6,26.5,93.5,52.6c33.8,35.4,45.8,90.4,87.1,116.6
			c20.7,13.1,51.6,25.9,46.5,49.9c-2.1,10.1-10.7,17.3-18.8,23.7c-26.8,21.3-60.1,44-92.6,33.1c-7.3-2.4-14.2-6.5-21.8-7.2
			c-19.8-1.7-33.3,18.5-47.5,32.4c-36.7,36-104.6,31.7-136.5-8.7c-3.3-4.1-6.5-8.8-11.5-10.3c-7-2.1-14,2.7-20.2,6.7
			c-40.5,26.6-97.6,25-136.5-3.9c-8.2-6.1-16-13.8-18.8-23.6c-6.1-21.4,12.4-40.9,22.2-60.8c24.2-49.2-2.2-117.3,34.9-157.7
			c10.5-11.5,24.9-18.7,39.1-25c36-16,73.7-28,112.3-35.7"/>
	</g>
	<g>
		
			<linearGradient id="SVGID_14_" gradientUnits="userSpaceOnUse" x1="-4128.979" y1="310.4052" x2="-3448.9944" y2="310.4052" gradientTransform="matrix(-1 0 0 1 -3383.0518 0)">
			<stop  offset="0" style="stop-color:#6CD6D2"/>
			<stop  offset="1" style="stop-color:#6CD6D2;stop-opacity:0"/>
		</linearGradient>
		<path class="st16" d="M300.9,156.3c3.6-7.9,13.6-13,23.9-14.7c10.2-1.7,20.8-0.5,31.2,0.8c63.7,7.7,131.7,19.8,174.8,58.5
			c32.1,28.8,48.3,70.8,90.7,88.9c33.4,14.3,75.3,10,108.9,24c3.9,1.6,7.7,3.5,10.4,6.4c2.6,2.8,3.9,6.3,4.6,9.8
			c4.1,21.3-15.5,43.7-41.7,47.7c-3.9,0.6-8.1,0.9-11.4,2.6c-5.4,2.8-7.1,8.4-9,13.4c-10.9,29.4-44.4,52.4-82,56.4
			c-23.7,2.5-48.4-1.8-71.3,3.7c-13.1,3.1-24.7,9.3-36.9,14.1c-14.7,5.8-30.4,9.6-46.6,11.5c-10.6,1.2-22.1,1.4-31.2-3.1
			c-20-9.8-19-36-38.8-46c-15.3-7.7-35.3-2-51.4,4.6c-16.1,6.6-34.2,14.2-51.3,9.5c-5.4-1.5-10.2-4.1-15.6-5.5
			c-15.7-3.9-31.9,3.2-47.9,6.1c-22,4.1-46.4-0.3-63.4-12.3c-17.1-11.9-26-31.3-21.7-49.2c1.6-6.6,4.9-13,5.3-19.8
			c0.5-6.7-2.9-14.4-10.6-16.9c-5.6-1.9-12-0.7-18.1-1.2C81,343.6,72.5,323,68.8,306.3c-2.9-13.1-5.6-27.6,2.8-39
			c10.3-14,32.6-18,52.5-20.4c4.9-0.6,10-1.2,14.7,0.3c5.5,1.7,9.1,5.8,14,8.5c12.9,7,30.2,1.8,44.2-3.5
			c26.9-10.2,56.6-22.9,64.8-46c2.2-6.3,2.7-13.1,6.8-18.7c4.6-6.4,13.1-10.1,20.1-14.8c7.1-4.6,13.5-11.6,11.4-18.8"/>
	</g>
	
		<text transform="matrix(1 0 0 1 -1464.4884 815.2974)" style="fill:#FFFFFF;stroke:#FFFFFF;stroke-miterlimit:10; font-family:'CenturyGothic-Bold'; font-size:31px;">УЛ.ПИОНЕРСКАЯ Д.12</text>
	<g>
		
			<linearGradient id="SVGID_15_" gradientUnits="userSpaceOnUse" x1="-4330.0957" y1="311.2686" x2="-3879.425" y2="311.2686" gradientTransform="matrix(-1 0 0 1 -3383.0518 0)">
			<stop  offset="0" style="stop-color:#6CD6D2"/>
			<stop  offset="1" style="stop-color:#6CD6D2;stop-opacity:0"/>
		</linearGradient>
		<path class="st17" d="M740.9,184.6c35.4,10.2,67.6,27.8,92.4,50.7c9.6,8.8,18.1,18.4,28.2,26.9c11.4,9.6,24.8,17.6,39.5,23.6
			c18.2,7.5,41,14.4,45.4,30.6c2.5,9-2.2,18.6-10,25.3c-7.8,6.7-18.4,10.9-29.2,13.8c-4.3,1.2-8.7,2.2-12.3,4.3
			c-4.9,3-7.6,7.8-10.2,12.3c-7.9,14.2-16.8,28.6-31.4,38.8s-36.4,15.1-53.5,8c-1.5,12.2-16.7,21.4-31.9,21.6s-29.4-6.7-39.5-15.9
			c-10-9.2-16.5-20.5-22.9-31.7c-14.7,11.8-38.7,14.7-57.8,8.2s-32.9-21.6-36.9-38.1c-13.2,8-32,2.8-46.7-3.3
			c-15-6.2-29.5-13.1-43.6-20.7c-5.5-3-11.3-6.6-12.4-11.8c-0.7-3.2,0.6-6.5-0.1-9.7c-1.1-5.3-7.1-9-9.9-13.8
			c-4.5-7.8,0-17.5,7.8-23.3s18.4-8.6,28.6-10.9c4.1-1,8.5-2,11.5-4.5c3.3-2.8,4.2-6.9,5.3-10.6c4.1-14,13.6-26.8,26.8-36.4
			c18.4-13.3,42.7-19.7,66.6-24.4c33.7-6.6,68.3-10.6,103-11.7"/>
	</g>
	<g>
		
			<linearGradient id="SVGID_16_" gradientUnits="userSpaceOnUse" x1="-4191.8745" y1="529.1814" x2="-3876.7024" y2="529.1814" gradientTransform="matrix(-1 0 0 1 -3383.0518 0)">
			<stop  offset="0" style="stop-color:#6CD6D2"/>
			<stop  offset="1" style="stop-color:#6CD6D2;stop-opacity:0"/>
		</linearGradient>
		<path class="st18" d="M729.3,381.5c3.5,12.5-4.7,25.2-14,34.9s-20.5,18.6-25.1,30.8c-6.5,17.3,2.1,36.3,12.8,51.8
			c6.6,9.5,7.3,15.6,7.8,26c0.4,8.9-1.6,18.4,8.7,24.7c5.4,3.3,12.3,3.2,18.8,3.1c11.5-0.3,23-0.5,34.6-0.8
			c7.2-0.2,15.6,0.1,20.1,5.3c5.7,6.5,1,17-6.9,21.2c-8,4.1-17.7,3.7-26.8,3.1c-4.9,8.9,5.8,19,16.5,21.2
			c10.7,2.2,22.2,0.3,32.3,4.1c3.7,11.8-4.9,24.6-16.5,30.8c-11.6,6.2-25.5,7.3-38.9,8.2c-39.5,2.5-79.1,3.5-118.7,3.2
			c-11.7-0.1-24.9,0.3-32.6,8.3c-3,3.1-4.7,7.1-7.7,10.2c-7.5,8-20.5,8.8-32.1,9c-11.3,0.2-22.7,0.4-34,0.5
			c-7.1,0.1-14.6,0.2-20.9-2.9c-9.2-4.6-13.4-15-12.9-24.6c0.5-9.6,4.9-18.6,9.3-27.3c1.3-2.6,2.7-5.3,5.3-6.7
			c4.4-2.3,10-0.2,14.9-1.4c4.9-1.2,8-5.3,11.5-8.7c19.7-18.9,53.1-14.3,81.2-9.9c2.7,0.4,5.9,0.7,7.9-1c1.8-1.6,1.9-4.1,1.8-6.4
			c-0.7-12.8-4.3-25.5-10.5-37c-1.1-2.1-2.4-4.5-1.4-6.6c0.9-1.9,3.2-2.8,5.3-3.4c8.9-2.7,18.4-3.8,27.7-3.4"/>
	</g>
	<g>
		<g>
			<linearGradient id="SVGID_17_" gradientUnits="userSpaceOnUse" x1="-3179.1768" y1="-374.068" x2="-3176.2788" y2="-374.068">
				<stop  offset="0" style="stop-color:#6CD6D2"/>
				<stop  offset="1" style="stop-color:#6CD6D2;stop-opacity:0"/>
			</linearGradient>
			<path class="st19" d="M-3177.7-372.6c1.9,0,1.9-3,0-3C-3179.7-375.6-3179.7-372.6-3177.7-372.6L-3177.7-372.6z"/>
		</g>
	</g>
	<g>
		<linearGradient id="SVGID_18_" gradientUnits="userSpaceOnUse" x1="-2494.1658" y1="164.3395" x2="-2104.2244" y2="164.3395">
			<stop  offset="0" style="stop-color:#763FF5"/>
			<stop  offset="8.104094e-02" style="stop-color:#7248F2"/>
			<stop  offset="0.2158" style="stop-color:#6862E9"/>
			<stop  offset="0.3876" style="stop-color:#578BDB"/>
			<stop  offset="0.5674" style="stop-color:#43BEC9"/>
			<stop  offset="0.8652" style="stop-color:#E828CB"/>
			<stop  offset="0.9944" style="stop-color:#FF1E44"/>
		</linearGradient>
		<path class="st20" d="M-2442.7-159.7c52.9,11.6,94.9,53.2,121.7,100.3c17,29.9,34.1,66.7,67.9,72.9c40.7,7.5,84.8-35.2,119.8-13.1
			c14.9,9.4,21.4,27.7,25.5,44.8c4.3,17.8,6.6,38.3-4.4,53c-9,12.1-24.6,16.9-37.5,24.8s-24,24.1-16.9,37.4
			c4.6,8.5,14.7,12,23.2,16.7c27.5,15.3,41,51.8,30.2,81.3c-5.2,14.2-15.1,26.5-18,41.3c-3.2,16.6,2.9,33.4,4.4,50.2
			c3.5,38.9-20.6,78.7-56.7,93.6c-6.8,2.8-15.3,4.5-20.8-0.4c-3.8-3.4-4.8-8.9-5.3-14c-3.3-32.7,3.3-65.7,1.5-98.5
			c-1.8-32.8-15-68.5-44.7-82.6c-15.2-7.2-37.6-5.1-43.5,10.7c-5.5,14.9,7,29.7,13.5,44.2c10.8,24.1,5.1,52-0.9,77.7
			c-4.5,19.3-8.9,38.5-13.4,57.8c-4.3,18.3-10.4,39.1-27.5,47c-26.2,12.1-54.6-17.4-58.4-46s5.8-57.7,2.4-86.3
			c-3.4-28.7-30.5-58.9-57.2-48.1c-6.1,2.5-11.4,6.9-17.8,8.7c-16.2,4.7-33-9.5-37-25.9c-4-16.3,1.2-33.4,7.3-49.1
			c25.6-66.1,67.3-133.3,51.5-202.4c-8.9-39-35.2-71.7-48.8-109.3c-6.6-18.3-10-38.7-3.3-56.9s26.2-32.7,45.1-28.5"/>
		<g>
			<linearGradient id="SVGID_19_" gradientUnits="userSpaceOnUse" x1="-2494.6658" y1="164.3458" x2="-2103.7244" y2="164.3458">
				<stop  offset="0" style="stop-color:#763FF5"/>
				<stop  offset="8.104094e-02" style="stop-color:#7248F2"/>
				<stop  offset="0.2158" style="stop-color:#6862E9"/>
				<stop  offset="0.3876" style="stop-color:#578BDB"/>
				<stop  offset="0.5674" style="stop-color:#43BEC9"/>
				<stop  offset="0.8652" style="stop-color:#E828CB"/>
				<stop  offset="0.9944" style="stop-color:#FF1E44"/>
			</linearGradient>
			<path class="st21" d="M-2443.1-158.3c36,8.1,67,30,91,57.5c12.1,13.9,22.4,29.1,31.4,45.2c8,14.3,15.7,29,25.8,42.1
				c9.2,12,20.8,22.6,35.5,27.1c15,4.6,30.7,1.7,45.4-2.7c29.3-8.9,68.8-29.9,91.7,2.4c10.3,14.5,15.2,35.1,16.4,52.6
				c0.7,10-0.4,20.5-5.8,29.2c-5.3,8.5-13.9,13.6-22.6,18.2c-14.2,7.5-30.6,15.3-35.1,32.3c-1.9,6.9-0.5,14.2,4.2,19.7
				c5.5,6.4,13.9,9.4,21.1,13.4c14.8,8.3,25.5,22.8,30.3,39c5.3,17.9,2.6,35.3-5.8,51.8c-4.2,8.3-9.1,16.4-11.8,25.4
				c-2.9,9.7-2.4,19.8-0.9,29.7c1.7,11,4.4,21.8,4.4,33c0,8.8-1.3,17.5-3.8,25.8c-5.1,17-15.1,32.6-28.5,44.3
				c-10.9,9.5-43.2,30.8-47.5,5c-3.8-22.5-0.5-46.2,0.8-68.8c1-19.2,1.3-38.5-3.1-57.3c-6.5-28.1-25.9-61.7-58.2-63.5
				c-12.9-0.7-27.3,4.8-30.3,18.7c-3.9,18,12.6,33.9,17.4,50.1c6.2,21.1,1.8,43.6-2.9,64.4c-5,22.1-10,44.2-15.4,66.1
				c-4,16.1-10.1,35.6-26.9,42.5c-17.6,7.2-35.2-5.3-44.8-19.4c-25-36.6,1.3-81.3-9.6-121c-4.1-15.1-13.9-29.9-27.7-37.9
				c-6.1-3.5-13.1-5.5-20.1-5c-8.8,0.6-15.4,5.6-23.1,9.3c-20.3,9.5-38.7-10.8-40.5-29.8c-2.1-22.1,9.2-44.4,17.6-64.1
				c16-37.5,34.6-74.8,42.4-115.1c3.7-18.8,4.7-38.2,1.6-57.2c-3.2-19.4-10.9-37.6-19.7-55c-9.3-18.3-19.8-35.9-27.6-54.9
				c-8.1-19.6-14-42.4-6.6-63.2c6.2-17.5,24.4-32,43.6-28.3c1.9,0.4,2.7-2.5,0.8-2.9c-16.4-3.2-32.1,5.6-41.4,18.8
				c-11.3,16.1-10.8,37.4-6.2,55.7c10.2,40.7,38.8,73.8,50.5,113.9c12.3,41.9,1.7,85-13.6,124.6c-8,20.7-17.3,40.8-26,61.2
				c-8,18.7-17.8,38.7-18.6,59.4c-0.6,16.7,7.3,34,23.6,40.5c7.2,2.8,14.7,2.3,21.6-1c9.3-4.4,17-10.2,27.9-8.6
				c18.6,2.7,32.4,20.8,37.8,37.7c6.9,21.5,1.5,45.3-0.2,67.2c-1.6,19.3-1,38.6,9.7,55.4c8,12.5,21,24,36.4,24.8
				c16.2,0.8,28.4-11.1,34.8-24.9c8.1-17.6,11-37.9,15.3-56.7c5-21.7,11.5-43.6,13-65.9c0.7-9.9,0.2-20-2.4-29.7
				c-2.6-9.7-7.9-18.1-12.4-27c-4.7-9.1-9-20.5-2.6-30c4.6-6.8,13.1-9.5,20.9-9.8c18-0.6,33.7,11.3,43.6,25.4
				c24.3,34.5,19,78,16.9,117.6c-0.6,11.6-0.9,23.2-0.2,34.7c0.5,7.5,0.7,17.3,7.7,22c6.3,4.2,14.7,2.1,21.2-0.5
				c7.7-3.2,14.8-7.5,21.3-12.7c28-22.4,40.6-57.9,34.7-92.9c-2-12.3-5.2-24.8-3.3-37.3c1.6-10.5,7-19.8,11.9-29.1
				c8.1-15.4,12.2-31,9.2-48.4c-2.8-15.6-10.8-30.5-22.7-41c-6.4-5.7-13.9-9.1-21.3-13.2c-9.3-5.1-16.4-13-13.4-24.3
				c5.5-20.7,28.6-26,44.2-36.6c15.1-10.2,20.6-26.1,19.4-43.8c-2.1-30.8-15.4-72.4-52.2-73.3c-33.6-0.8-63.4,25.7-97.5,19.5
				c-35.5-6.4-51.8-45.8-67.8-73.6c-18-31.3-42.4-60-73.2-79.4c-15-9.4-31.4-16.4-48.6-20.3C-2444.2-161.6-2445-158.7-2443.1-158.3
				L-2443.1-158.3z"/>
		</g>
	</g>
	<g>
		<linearGradient id="SVGID_20_" gradientUnits="userSpaceOnUse" x1="-1809.5681" y1="-243.9837" x2="-1261.1735" y2="-243.9837">
			<stop  offset="0" style="stop-color:#763FF5"/>
			<stop  offset="8.104094e-02" style="stop-color:#7248F2"/>
			<stop  offset="0.2158" style="stop-color:#6862E9"/>
			<stop  offset="0.3876" style="stop-color:#578BDB"/>
			<stop  offset="0.5674" style="stop-color:#43BEC9"/>
			<stop  offset="0.8652" style="stop-color:#E828CB"/>
			<stop  offset="0.9944" style="stop-color:#FF1E44"/>
		</linearGradient>
		<path class="st22" d="M-1636-684.2c55.8-3.6,103.4,44,124.1,96c20.6,52,22.3,109.3,34.5,163.9c12.2,54.6,39.7,111.3,91,133.5
			c27,11.7,58.5,12.8,82.6,29.6c40.1,27.9,43.3,85,42.5,133.8c-0.6,37.3-1.3,74.5-1.9,111.8c-0.2,12.6-0.6,25.7-6.7,36.7
			c-16.2,29.3-63.7,29.1-79.1,58.8c-9.1,17.8-3,39.4-6.4,59.1c-3.9,22.5-20.5,41.4-40.6,52.2c-15.2,8.2-34,12.1-49.7,4.9
			c-23.6-10.8-30.5-41.8-26-67.4s17.1-49.1,21-74.8c8.9-59-31.1-116.1-80.9-148.9c-23.1,46.4-35,98.3-34.6,150.1
			c0.1,18.2,1.4,37.9-8.6,53.1c-18.1,27.4-64,21.2-84.4-4.5c-20.5-25.7-21.6-61.6-17.8-94.3c3.8-32.6,11.4-65.7,5.1-98
			c-9.1-46.8-47-88.2-40.8-135.4c3.1-23.3,17-45.5,13-68.7c-8-47.4-78.4-55.9-99.6-99c-6-12.3-7.4-26.3-8.6-39.9
			c-2.4-26.4-4-55.2,10.8-77.1c18.9-27.9,58.5-35.6,78.2-63c15.9-22.2,15.1-52.1,24.2-77.9c9.1-25.8,40.3-49.3,62.2-33"/>
		<g>
			<linearGradient id="SVGID_21_" gradientUnits="userSpaceOnUse" x1="-1810.0681" y1="-243.9913" x2="-1260.6735" y2="-243.9913">
				<stop  offset="0" style="stop-color:#763FF5"/>
				<stop  offset="8.104094e-02" style="stop-color:#7248F2"/>
				<stop  offset="0.2158" style="stop-color:#6862E9"/>
				<stop  offset="0.3876" style="stop-color:#578BDB"/>
				<stop  offset="0.5674" style="stop-color:#43BEC9"/>
				<stop  offset="0.8652" style="stop-color:#E828CB"/>
				<stop  offset="0.9944" style="stop-color:#FF1E44"/>
			</linearGradient>
			<path class="st23" d="M-1636-682.7c48.6-2.7,89.2,32.6,111.9,72.7c27.7,48.7,30.8,107.1,40.3,161.1c8.1,45.8,22,93.1,53.9,128.3
				c15.2,16.7,33.9,28.9,55.3,35.9c23.9,7.8,50.3,10.6,71.1,25.7c37.9,27.3,40.9,80.7,40.7,123.3c-0.2,30.1-1,60.2-1.5,90.3
				c-0.3,15.1,0.3,30.5-1.2,45.5c-1.3,12.3-5.6,23.4-14.9,31.7c-14.4,12.8-33.9,17.6-50.1,27.6c-7.1,4.4-13.6,9.8-18.1,16.9
				c-6.5,10.3-7.3,22.5-7.3,34.3c0,12.9,0.7,25.8-3.6,38.2c-4.2,11.9-12.1,22.3-21.6,30.5c-19,16.4-51.1,28.5-72.8,10
				c-16.7-14.2-20-39.6-16.4-60c4.7-27.3,18.6-52.1,21.6-79.7c5.2-47.7-20.9-92.9-54.9-124.3c-8.5-7.9-17.7-15-27.3-21.4
				c-0.6-0.4-1.7-0.2-2.1,0.5c-21,42.4-32.9,89.1-34.6,136.4c-0.8,21.4,3.9,47-8.2,66.1c-9.4,14.8-27.7,19.7-44.3,17.2
				c-18.1-2.7-33.8-13-43.3-28.6c-11.2-18.3-14.3-40.3-14-61.4c0.3-23.8,5.2-47.1,7.7-70.7c2.5-23.9,1.9-47.5-5.9-70.4
				c-13.2-38.8-42.8-76.8-35.3-119.8c3.7-21.5,15.9-42,12.8-64.4c-2-14.2-10-26.1-20.6-35.5c-22.6-20.2-53.5-30.4-72.6-54.6
				c-14-17.8-15-41.5-16.4-63.2c-1.4-21.9-0.8-45.8,12.5-64.4c21.9-30.7,65.8-36.2,83.1-71.4c9.4-19.1,10.5-40.8,16.2-61
				c5.2-18.7,17.8-37.1,37.1-43.3c8.8-2.9,17.7-1.9,25.3,3.5c1.6,1.1,3.1-1.5,1.5-2.6c-14.6-10.3-32.3-4.5-45,6.1
				c-15.8,13.3-21.6,31.7-25.6,51.3c-4.5,22.2-8.1,45.4-24.8,62.1c-13.8,13.8-32,21.9-48,32.8c-16.6,11.3-28.8,26-33.3,45.9
				c-4.9,21.6-2.5,44.9,0.2,66.6c2.4,19,9,35.2,22.9,48.4c11.6,11,25.5,19.1,38.9,27.6c13.3,8.4,27.3,17.3,36.5,30.3
				c4.4,6.1,7.4,13.1,8.7,20.6c2.1,12.8-1.4,25.5-5.2,37.7c-3.4,11.1-7.2,22.1-8.3,33.7c-0.9,10,0.1,20.2,2.4,30
				c4.9,20.9,15,40.2,23.8,59.7c10.1,22.3,17.4,44.6,17.3,69.4c0,26.6-6,52.7-8.3,79.1c-3.2,37.1,1.7,85.1,39.5,103.5
				c13.9,6.8,30.8,9.2,45.6,4c17.2-6,26.3-21.4,28.7-38.8c1.5-10.8,0.9-21.8,0.9-32.7c0-12.7,0.7-25.3,2.1-37.9
				c2.9-25.6,8.9-50.9,17.6-75.1c4.3-11.8,9.2-23.3,14.7-34.5c-0.7,0.2-1.4,0.4-2.1,0.5c41.8,27.8,78.5,72.9,81.3,124.9
				c1.5,28.8-10.5,54.3-18.3,81.3c-6,20.9-8,43.9,2.1,64c10.8,21.4,33.6,28.8,56.1,22.5c22.2-6.2,42.6-22.8,52.3-43.8
				c5.1-11.1,6.2-22.6,6.2-34.6c-0.1-13.7-1.3-28.5,5.6-41c9.7-17.5,30.7-24.2,47.6-32.5c8.6-4.2,17.1-9,23.8-15.8
				c7.5-7.7,11.4-17.5,12.9-28c2-14.8,1.3-30,1.6-44.9c0.3-16,0.5-31.9,0.8-47.9c0.5-26.5,1.8-53.1-0.3-79.5
				c-1.7-21.5-5.5-43.5-15.6-62.8c-10.8-20.6-28.3-34.5-50.1-42.3c-24.5-8.7-50.7-11.5-73.2-25.3c-41.3-25.1-63.3-72.9-74.6-118.2
				c-14-56.6-14.4-116.4-36.2-171.1c-16.4-41.1-49-80.7-92.8-93.4c-10.6-3.1-21.7-4.3-32.8-3.7
				C-1637.9-685.6-1637.9-682.6-1636-682.7L-1636-682.7z"/>
		</g>
	</g>
	<g>
		<linearGradient id="SVGID_22_" gradientUnits="userSpaceOnUse" x1="-1535.3707" y1="931.0515" x2="-1393.606" y2="931.0515">
			<stop  offset="0" style="stop-color:#763FF5"/>
			<stop  offset="8.104094e-02" style="stop-color:#7248F2"/>
			<stop  offset="0.2158" style="stop-color:#6862E9"/>
			<stop  offset="0.3876" style="stop-color:#578BDB"/>
			<stop  offset="0.5674" style="stop-color:#43BEC9"/>
			<stop  offset="0.8652" style="stop-color:#E828CB"/>
			<stop  offset="0.9944" style="stop-color:#FF1E44"/>
		</linearGradient>
		<path class="st24" d="M-1494.5,883.9c25.4-2.8,51.5,0.7,75.4,10c8.5,3.3,17.4,7.9,21.5,16.1c2.6,5.1,3.1,11.1,3.4,16.8
			c0.8,12.5,1.5,25.8-4.5,36.8c-6.2,11.2-18.6,18-31.2,20.4c-12.6,2.4-25.6,1.1-38.3-0.2c-6.6-0.7-13.5-1.5-18.8-5.3
			c-9.7-6.9-10.9-20.9-17.8-30.6c-8.5-11.9-25.4-17.5-29.7-31.5c-4.4-14.4,8.3-29.1,22.5-34.1c14.2-5,29.7-3.7,44.6-5.6"/>
		<g>
			<linearGradient id="SVGID_23_" gradientUnits="userSpaceOnUse" x1="-1535.8707" y1="931.0287" x2="-1393.106" y2="931.0287">
				<stop  offset="0" style="stop-color:#763FF5"/>
				<stop  offset="8.104094e-02" style="stop-color:#7248F2"/>
				<stop  offset="0.2158" style="stop-color:#6862E9"/>
				<stop  offset="0.3876" style="stop-color:#578BDB"/>
				<stop  offset="0.5674" style="stop-color:#43BEC9"/>
				<stop  offset="0.8652" style="stop-color:#E828CB"/>
				<stop  offset="0.9944" style="stop-color:#FF1E44"/>
			</linearGradient>
			<path class="st25" d="M-1494.5,885.4c15-1.5,30.2-1.1,45.1,1.5c13.3,2.4,27.7,6,39.4,12.9c6.1,3.6,10.8,8.4,12.7,15.3
				c1.9,6.9,1.9,14.8,2.1,21.9c0.3,14.9-3.2,29.1-16.2,37.8c-11.6,7.8-25.8,9.3-39.5,8.7c-6.9-0.3-13.8-0.9-20.6-1.8
				c-8.4-1.1-15.8-3.6-20.5-11.1c-5.5-8.7-7.2-19.3-14.3-27.1c-7.3-8.1-18.2-12.9-24.2-22.2c-8.7-13.5,1.4-28.7,13.8-35.4
				c14.8-8,33.1-5.8,49.2-7.8c1.9-0.2,1.9-3.2,0-3c-15.7,1.9-32.6,0.3-47.4,6.6c-10.8,4.6-21,14.7-22,26.9c-1,12.8,9.1,21,18.2,28.1
				c5.2,4.1,10.5,8.3,13.9,14c3.4,5.6,5.2,12,8.1,17.8c2.6,5.3,6.2,10,11.6,12.7c6.6,3.3,14.4,3.6,21.6,4.3
				c15.5,1.5,31.8,2.3,46.4-4.3c12.8-5.7,21.7-16.3,24-30.3c1.3-7.5,0.9-15.2,0.4-22.7c-0.4-7-0.8-14.4-4.5-20.5
				c-7.9-13.2-27-18.2-40.9-21.6c-18.5-4.6-37.7-5.9-56.6-3.9C-1496.4,882.6-1496.4,885.6-1494.5,885.4L-1494.5,885.4z"/>
		</g>
	</g>
	<g>
		<linearGradient id="SVGID_24_" gradientUnits="userSpaceOnUse" x1="-2016.2244" y1="930.2747" x2="-1847.3496" y2="930.2747">
			<stop  offset="0" style="stop-color:#763FF5"/>
			<stop  offset="8.104094e-02" style="stop-color:#7248F2"/>
			<stop  offset="0.2158" style="stop-color:#6862E9"/>
			<stop  offset="0.3876" style="stop-color:#578BDB"/>
			<stop  offset="0.5674" style="stop-color:#43BEC9"/>
			<stop  offset="0.8652" style="stop-color:#E828CB"/>
			<stop  offset="0.9944" style="stop-color:#FF1E44"/>
		</linearGradient>
		<path class="st26" d="M-2010,893.1c42.8-0.1,85.6,4.5,127.4,13.8c8.8,1.9,17.8,4.2,24.8,9.9c13.5,11,14.1,34.4,1.1,46
			c-12.9,11.7-36.1,8.7-45.7-5.9c-2.5-3.8-4.2-8.2-7.2-11.6c-9.6-11.1-27.4-7.5-41.2-2.6c-13.8,4.9-30.8,9.7-41.8,0
			c-8.7-7.7-9.2-21.1-15.8-30.7c-2.6-3.8-6.2-7.1-7.5-11.6c-1.3-4.4,1.6-10.5,6.2-10"/>
		<g>
			<linearGradient id="SVGID_25_" gradientUnits="userSpaceOnUse" x1="-2016.7244" y1="930.2796" x2="-1846.8496" y2="930.2796">
				<stop  offset="0" style="stop-color:#763FF5"/>
				<stop  offset="8.104094e-02" style="stop-color:#7248F2"/>
				<stop  offset="0.2158" style="stop-color:#6862E9"/>
				<stop  offset="0.3876" style="stop-color:#578BDB"/>
				<stop  offset="0.5674" style="stop-color:#43BEC9"/>
				<stop  offset="0.8652" style="stop-color:#E828CB"/>
				<stop  offset="0.9944" style="stop-color:#FF1E44"/>
			</linearGradient>
			<path class="st27" d="M-2010,894.6c33.3,0,66.5,2.7,99.4,8.3c14.7,2.5,31.2,4.3,44.8,10.7c11.7,5.5,18.1,17,16.9,29.8
				c-1.1,12.3-9.5,22.3-21.8,24.6c-12,2.3-24.9-2.7-31.3-13.2c-3-5-5.3-10.3-10.2-13.8c-4-2.8-8.8-4.1-13.6-4.3
				c-11.9-0.7-22.8,4.2-33.9,7.5c-7.4,2.1-15.6,3.9-23.2,2c-8-2-12.7-8-15.7-15.3c-2.5-5.9-4.1-12.2-7.3-17.7
				c-1.8-3.1-4.3-5.6-6.3-8.6c-2.3-3.4-4.5-12.4,2.5-12.5c1.9,0,1.9-3,0-3c-4.5,0.1-7.4,3.7-7.9,8c-0.8,6.9,5.4,11.7,8.7,17
				c6.9,11.1,7.2,26.7,20.3,33.2c12.2,6.1,27,0.9,38.9-3.2c14.5-5,33.2-8.6,42.2,7.1c3.3,5.7,6.1,10.8,11.6,14.6
				c4.5,3.1,9.7,4.9,15,5.6c11.3,1.4,23-2.8,29.5-12.4c6.5-9.5,7.1-22.6,2.3-32.9c-6-12.9-19.5-17.4-32.4-20.4
				c-42.2-9.5-85.4-14.1-128.6-14C-2012,891.6-2012,894.6-2010,894.6L-2010,894.6z"/>
		</g>
	</g>
	<g>
		<linearGradient id="SVGID_26_" gradientUnits="userSpaceOnUse" x1="-1145.449" y1="-78.4647" x2="-903.0932" y2="-78.4647">
			<stop  offset="0" style="stop-color:#763FF5"/>
			<stop  offset="8.104094e-02" style="stop-color:#7248F2"/>
			<stop  offset="0.2158" style="stop-color:#6862E9"/>
			<stop  offset="0.3876" style="stop-color:#578BDB"/>
			<stop  offset="0.5674" style="stop-color:#43BEC9"/>
			<stop  offset="0.8652" style="stop-color:#E828CB"/>
			<stop  offset="0.9944" style="stop-color:#FF1E44"/>
		</linearGradient>
		<path class="st28" d="M-994-225.6c3.6,47.6,67.6,66.7,85.6,110.9c15.8,39-9.1,82.5-7.2,124.6c0.3,6.8,1.3,13.8-1.4,20.1
			c-2.2,5.3-6.8,9.2-11.2,12.9c-13.1,11.1-26.5,22.3-42.4,28.8c-15.9,6.5-35,7.5-49.5-1.6c-15.4-9.6-22.8-28.7-23.4-46.9
			c-0.5-13.1,1.9-27-3.9-38.8c-5.8-11.8-25-17.4-31.5-6c-2.7,4.7-2.2,10.5-3.5,15.7c-4.4,17.6-29.4,23.7-44.5,13.6
			c-15.1-10.1-20.4-30.5-17.9-48.5c1.7-12.2,6.3-23.9,7.3-36.2c1.4-16.7-3.8-33.2-4.3-49.9c-0.5-16.7,5.9-35.9,21.6-41.7
			c15.2-5.6,34,3.4,47.8-5.3c7.9-5,11.6-14.4,15.4-23c6.1-14,14.8-28.1,28.8-34.3c14-6.2,34,0,37.1,14.9"/>
		<g>
			<linearGradient id="SVGID_27_" gradientUnits="userSpaceOnUse" x1="-1145.949" y1="-78.2414" x2="-902.5932" y2="-78.2414">
				<stop  offset="0" style="stop-color:#763FF5"/>
				<stop  offset="8.104094e-02" style="stop-color:#7248F2"/>
				<stop  offset="0.2158" style="stop-color:#6862E9"/>
				<stop  offset="0.3876" style="stop-color:#578BDB"/>
				<stop  offset="0.5674" style="stop-color:#43BEC9"/>
				<stop  offset="0.8652" style="stop-color:#E828CB"/>
				<stop  offset="0.9944" style="stop-color:#FF1E44"/>
			</linearGradient>
			<path class="st29" d="M-995.5-225.6c2.2,25,20.4,42.6,38.3,58.2c20.1,17.5,43.6,35.2,50.3,62.5c8.7,35.2-9,70.6-10.3,105.7
				c-0.4,9.2,2.4,19.9-1.3,28.6c-3.5,8.3-12.7,14.2-19.4,19.7c-14.2,11.7-30.1,22.8-48.7,25.6c-18.9,2.8-37.2-4.1-47.1-20.9
				c-4.4-7.4-6.9-16-7.9-24.5c-1-8.9-0.1-17.8-0.4-26.7c-0.6-13.3-5-26.5-18.9-30.7c-4.8-1.5-10.4-1.6-14.8,1.1
				c-5.2,3.2-6.5,9.1-7.3,14.8c-1.1,8.2-3.7,14.8-11.1,19.2c-5.8,3.5-12.9,4.8-19.7,4.1c-16.5-1.9-26.5-17.2-29.3-32.4
				c-3.4-18.3,4.4-35,6.6-52.8c2.4-19.1-4.7-37.6-4-56.7c0.5-15.2,7.1-33,23.3-37.1c15.2-3.8,32.7,4.5,46.5-5.4
				c5.7-4.1,9.1-10.4,12-16.6c3.4-7.5,6.5-15,11-21.9c8.8-13.4,23.5-24.3,40.2-18.8c7.1,2.3,12.8,7.3,14.6,14.7
				c0.5,1.9,3.4,1.1,2.9-0.8c-3-12.4-15.8-18.8-27.9-18.4c-15.4,0.5-27,12.5-34.4,25c-4.4,7.5-7.2,15.7-11.3,23.3
				c-5,9.4-12.4,14.8-23.1,15.3c-15.4,0.8-32-4.2-44.4,7.9c-10.4,10.3-13.2,26.3-12.2,40.3c0.7,10.5,3,20.9,3.9,31.4
				c1,11.2-0.5,21.7-3.2,32.5c-4.1,16.6-7,33-0.3,49.4c5.1,12.4,15.4,22.4,29,23.9c11.8,1.3,25.4-3.6,30.9-14.7
				c3.6-7.2,1-18.4,8.2-23.5c6.3-4.5,15.7-1.2,21,3.4c7.6,6.5,8.6,17.5,8.6,26.8c0.1,8.9-0.6,17.8,0.8,26.6
				c2.4,15.2,9.8,30.6,23.3,38.9c33.4,20.7,70.3-7.3,94.9-28.5c6.2-5.3,11.1-11,12-19.4c1-9.4-0.7-19.1,0.1-28.6
				c1.6-19.6,7.2-38.6,10.2-58c2.7-17.4,3.3-35.4-3.4-52c-4.9-12.2-13.3-22.5-22.6-31.7c-19.1-19-44.9-34.2-57.3-58.9
				c-3.1-6.2-5-13-5.6-19.9C-992.6-227.5-995.6-227.5-995.5-225.6L-995.5-225.6z"/>
		</g>
	</g>
	<g>
		<linearGradient id="SVGID_28_" gradientUnits="userSpaceOnUse" x1="-1583.0707" y1="391.9609" x2="-1316.7053" y2="391.9609">
			<stop  offset="0" style="stop-color:#763FF5"/>
			<stop  offset="8.104094e-02" style="stop-color:#7248F2"/>
			<stop  offset="0.2158" style="stop-color:#6862E9"/>
			<stop  offset="0.3876" style="stop-color:#578BDB"/>
			<stop  offset="0.5674" style="stop-color:#43BEC9"/>
			<stop  offset="0.8652" style="stop-color:#E828CB"/>
			<stop  offset="0.9944" style="stop-color:#FF1E44"/>
		</linearGradient>
		<path class="st30" d="M-1510.6,204.2c-8.8-7.4-17.8-15-28.8-18.5c-10.9-3.5-24.4-1.8-31.6,7.1c-4,4.8-5.7,11-7,17.1
			c-7.3,33.1-6.8,67.9,1.5,100.8c8.3,33.1,24.4,66.6,16.3,99.7c-2.5,10.1-7.2,19.6-8.5,30s1.9,22.3,11.1,27.1
			c4.8,2.5,10.4,2.6,15.7,3.6c17.7,3.4,32.9,17.7,37.2,35.2c5.1,20.7-4.1,42-5.8,63.3c-1.6,21.3,11.1,47.9,32.3,45.7
			c12.8-1.3,22.2-13.1,25.8-25.4c3.6-12.3,2.8-25.4,3.7-38.2c1.5-20.1,7.3-39.9,17.1-57.5c4.3-7.7,9.6-15.4,17.6-19.3
			s19-2.7,23.7,4.8c5.1,7.9,1.3,18.3-1.2,27.4c-5.2,18.8-4.1,39.2,3.1,57.3c1,2.5,2.3,5.2,4.7,6.4c2.7,1.4,5.9,0.5,8.7-0.8
			c18.8-8.7,23.9-32.9,24.4-53.7c0.5-20.7-0.3-43.8,13.5-59.3c5.6-6.3,13.4-10.9,17.5-18.3c10.9-19.8-11.2-42.2-32.6-49.2
			c-21.4-7-47-9.4-60.2-27.6c-21.1-29,6-74.2-13.5-104.2c-17-26.3-63-29.6-68.3-60.4c-1.1-6.5,0-13.3-2.1-19.6
			c-2.1-6.2-9.6-11.6-15.1-8c-9,5.2-9.7,20.2-1.3,26.2"/>
		<g>
			<linearGradient id="SVGID_29_" gradientUnits="userSpaceOnUse" x1="-1583.5707" y1="392.0644" x2="-1316.2053" y2="392.0644">
				<stop  offset="0" style="stop-color:#763FF5"/>
				<stop  offset="8.104094e-02" style="stop-color:#7248F2"/>
				<stop  offset="0.2158" style="stop-color:#6862E9"/>
				<stop  offset="0.3876" style="stop-color:#578BDB"/>
				<stop  offset="0.5674" style="stop-color:#43BEC9"/>
				<stop  offset="0.8652" style="stop-color:#E828CB"/>
				<stop  offset="0.9944" style="stop-color:#FF1E44"/>
			</linearGradient>
			<path class="st31" d="M-1509.5,203.1c-15.4-13-40.1-30.7-59.7-14.3c-9.4,7.9-10.9,22.3-12.7,33.6c-2.3,14.4-3.1,29-2.5,43.6
				c0.6,14.6,2.6,29.1,6,43.2c3.3,13.8,8,27.3,11.9,41c4.1,14.3,7.5,29.2,6.9,44.2c-0.6,15.5-7.9,28.7-10.3,43.7
				c-1.5,9.3-0.1,20.3,6.9,27.2c3.5,3.4,7.9,5,12.6,5.8c6.9,1.3,13.4,2,19.7,5.2c11,5.6,19.9,15.6,23.7,27.5
				c4.5,14.2,1.3,29.2-1.5,43.4c-2.3,11.6-4.9,23.4-2.9,35.3c1.5,9.2,5.3,18.5,11.7,25.4c5.9,6.4,14.1,9.9,22.9,8.6
				c10-1.6,17.9-9.2,22.5-17.9c6.1-11.6,6.2-25,6.7-37.8c0.5-14.3,2.5-28.2,6.9-41.8c4.2-13,10.2-28,20.3-37.7
				c5.1-4.9,11.9-8,19.1-6.8c7.8,1.3,12.3,7.5,12.1,15.3c-0.1,6.7-2.8,13-4.4,19.4c-1.6,6.7-2.5,13.6-2.6,20.5
				c-0.2,12.2,1.6,27,7.7,37.8c5.2,9.3,15.9,4,22.1-1.4c7.1-6.2,11.3-15,13.8-23.9c6.3-22.8,0.4-47.2,8.2-69.6
				c2-5.8,5.1-11.2,9.4-15.7c4.5-4.7,9.9-8.4,14-13.5c6.1-7.7,7.3-17.3,3.5-26.3c-8.7-20.9-30.9-28.5-50.9-33.8
				c-11.2-3-22.7-6-32.4-12.5c-10-6.7-16-16.9-17.8-28.7c-3.5-22,4.3-44.3,0.9-66.3c-3-19.5-16.2-31.2-32.5-40.5
				c-14.9-8.5-35.8-16.4-41.5-34.2c-3.3-10.2,1.1-23.7-8.5-31.2c-7.1-5.5-15.3-1.6-18.5,6.1c-3,7.2-1.3,16.1,4.9,21
				c1.5,1.2,3.6-0.9,2.1-2.1c-4-3.2-5.9-7.9-5.4-13c0.5-5.9,5.3-13.7,12.2-11.3c12.3,4.4,7.1,22.9,10.8,32.8
				c5.6,14.9,21,22.8,34.1,29.9c16,8.7,32.9,18.1,38,36.9c5.6,20.1-0.8,41.3-0.5,61.7c0.3,19.4,8.2,36,26,45
				c18.9,9.6,41.5,9.6,59.2,21.8c9,6.2,18.2,16,19,27.5c0.9,12.9-9.7,19.6-17.8,27.6c-15.9,15.8-15.5,39.4-16,60.3
				c-0.4,18.8-3.7,47.7-24.7,55.1c-8.7,3-11.2-7.1-13-13.5c-2.1-7.2-3.2-14.7-3.4-22.3c-0.2-6.4,0.3-12.7,1.5-19
				c1.3-6.6,3.7-12.9,4.9-19.5c1.5-8.9-0.6-18.3-9.6-22.1c-8.1-3.4-17.2-1-23.8,4.4c-9,7.2-14.4,18.7-18.8,29
				c-4.9,11.6-8.3,23.8-10.1,36.2c-3.1,22.4,3.2,57.1-21.8,69.2c-22.2,10.8-36.8-16.4-38.1-34.6c-1.8-25.3,13.4-50.1,4.5-75.3
				c-3.2-9.2-9.3-17.3-17.1-23.2c-8.6-6.5-17.6-8.4-28-10.3c-13.3-2.5-18.9-13.8-17.8-26.6c1.2-13.2,8.1-25.3,10-38.4
				c3.7-26.4-5.8-52.2-13.2-77c-8.1-27-12.3-54.6-10.6-82.9c0.8-13.5,2.3-27.8,6.6-40.7c4.2-12.6,15.5-18.5,28.4-17
				c13.5,1.6,24.5,11.1,34.5,19.5C-1510.2,206.5-1508,204.4-1509.5,203.1L-1509.5,203.1z"/>
		</g>
	</g>
</g>
<g id="Слой_2">
</g>
<g id="Слой_1">
	<g>
		<linearGradient id="SVGID_30_" gradientUnits="userSpaceOnUse" x1="594.2195" y1="423.0432" x2="844.5614" y2="423.0432">
			<stop  offset="0" style="stop-color:#74BF44"/>
			<stop  offset="1" style="stop-color:#74BF44;stop-opacity:0"/>
		</linearGradient>
		<path class="st32" d="M670,485.4c-37.8-48.5-63.9-104.7-75.8-163.4c6.2-3.3,13.5,2.1,18.1,7.2C651.7,371.7,685,419,711,469.5
			c-13.5-57.5-8.9-118.4,13.1-173.7c27.1,43.8,46.2,91.7,56.3,141.1c8.3-38,30.3-73.3,61.7-99.1c10.4,47.6-15,95-39.6,138.1
			c-11.1,19.4-22.2,38.8-33.3,58.2c-13.4-13.6-28.7-25.8-45.2-36.1c-2.8,17.5-5.6,34.9-8.3,52.4c-19.1-18.9-36.1-39.6-50.6-61.7"/>
	</g>
	<g>
		<linearGradient id="SVGID_31_" gradientUnits="userSpaceOnUse" x1="194.0159" y1="369.8228" x2="444.3577" y2="369.8228">
			<stop  offset="0" style="stop-color:#F17AA9"/>
			<stop  offset="1" style="stop-color:#F17AA9;stop-opacity:0"/>
		</linearGradient>
		<path class="st33" d="M269.8,424.8c-37.8-42.8-63.9-92.3-75.8-144c6.2-2.9,13.5,1.9,18.1,6.3c39.4,37.5,72.7,79.2,98.7,123.7
			c-13.5-50.7-8.9-104.4,13.1-153.1c27.1,38.6,46.2,80.8,56.3,124.4c8.3-33.5,30.3-64.6,61.7-87.4c10.4,42-15,83.8-39.6,121.7
			c-11.1,17.1-22.2,34.2-33.3,51.3c-13.4-12-28.7-22.7-45.2-31.8c-2.8,15.4-5.6,30.8-8.3,46.2c-19.1-16.7-36.1-34.9-50.6-54.4"/>
	</g>
	<g>
		
			<linearGradient id="SVGID_32_" gradientUnits="userSpaceOnUse" x1="-5084.8262" y1="365.0752" x2="-4834.4844" y2="365.0752" gradientTransform="matrix(-0.8889 0 0 1 -3851.6069 0)">
			<stop  offset="0" style="stop-color:#54A3DA"/>
			<stop  offset="1" style="stop-color:#54A3DA;stop-opacity:0"/>
		</linearGradient>
		<path class="st34" d="M600.7,420.1c33.6-42.8,56.8-92.3,67.4-144c-5.5-2.9-12,1.9-16.1,6.3c-35,37.5-64.6,79.2-87.8,123.7
			c12-50.7,7.9-104.4-11.6-153.1c-24.1,38.6-41.1,80.8-50.1,124.4c-7.4-33.5-26.9-64.6-54.8-87.4c-9.2,42,13.3,83.8,35.2,121.7
			c9.9,17.1,19.7,34.2,29.6,51.3c11.9-12,25.5-22.7,40.2-31.8c2.5,15.4,4.9,30.8,7.4,46.2c17-16.7,32.1-34.9,45-54.4"/>
	</g>
	<g>
		<linearGradient id="SVGID_33_" gradientUnits="userSpaceOnUse" x1="124.1689" y1="440.5398" x2="374.5108" y2="440.5398">
			<stop  offset="0" style="stop-color:#F17AA9"/>
			<stop  offset="1" style="stop-color:#F17AA9;stop-opacity:0"/>
		</linearGradient>
		<path class="st35" d="M200,502.9c-37.8-48.5-63.9-104.7-75.8-163.4c6.2-3.3,13.5,2.1,18.1,7.2C181.7,389.2,215,436.5,241,487
			c-13.5-57.5-8.9-118.4,13.1-173.7c27.1,43.8,46.2,91.7,56.3,141.1c8.3-38,30.3-73.3,61.7-99.1c10.4,47.6-15,95-39.6,138.1
			c-11.1,19.4-22.2,38.8-33.3,58.2c-13.4-13.6-28.7-25.8-45.2-36.1c-2.8,17.5-5.6,34.9-8.3,52.4c-19.1-18.9-36.1-39.6-50.6-61.7"/>
	</g>
	<g>
		<linearGradient id="SVGID_34_" gradientUnits="userSpaceOnUse" x1="730.7518" y1="324.6871" x2="981.0937" y2="324.6871">
			<stop  offset="0" style="stop-color:#54A3DA"/>
			<stop  offset="1" style="stop-color:#54A3DA;stop-opacity:0"/>
		</linearGradient>
		<path class="st36" d="M806.6,379.7c-37.8-42.8-63.9-92.3-75.8-144c6.2-2.9,13.5,1.9,18.1,6.3c39.4,37.5,72.7,79.2,98.7,123.7
			c-13.5-50.7-8.9-104.4,13.1-153.1c27.1,38.6,46.2,80.8,56.3,124.4c8.3-33.5,30.3-64.6,61.7-87.4c10.4,42-15,83.8-39.6,121.7
			c-11.1,17.1-22.2,34.2-33.3,51.3c-13.4-12-28.7-22.7-45.2-31.8c-2.8,15.4-5.6,30.8-8.3,46.2c-19.1-16.7-36.1-34.9-50.6-54.4"/>
	</g>
	<g>
		<linearGradient id="SVGID_35_" gradientUnits="userSpaceOnUse" x1="690.2128" y1="530.5609" x2="940.5547" y2="530.5609">
			<stop  offset="0" style="stop-color:#74BF44"/>
			<stop  offset="1" style="stop-color:#74BF44;stop-opacity:0"/>
		</linearGradient>
		<path class="st37" d="M766,593c-37.8-48.5-63.9-104.7-75.8-163.4c6.2-3.3,13.5,2.1,18.1,7.2C747.7,479.3,781,526.6,807,577
			c-13.5-57.5-8.9-118.4,13.1-173.7c27.1,43.8,46.2,91.7,56.3,141.1c8.3-38,30.3-73.3,61.7-99.1c10.4,47.6-15,95-39.6,138.1
			c-11.1,19.4-22.2,38.8-33.3,58.2c-13.4-13.6-28.7-25.8-45.2-36.1c-2.8,17.5-5.6,34.9-8.3,52.4c-19.1-18.9-36.1-39.6-50.6-61.7"/>
	</g>
	<g>
		<linearGradient id="SVGID_36_" gradientUnits="userSpaceOnUse" x1="792.3269" y1="465.7254" x2="1094.0638" y2="465.7254">
			<stop  offset="0" style="stop-color:#74BF44"/>
			<stop  offset="1" style="stop-color:#74BF44;stop-opacity:0"/>
		</linearGradient>
		<path class="st38" d="M883.7,541.5c-45.6-58.9-77-127.1-91.4-198.4c7.5-4,16.2,2.6,21.8,8.7c47.5,51.6,87.6,109.1,119,170.3
			c-16.2-69.8-10.7-143.8,15.8-210.8c32.6,53.1,55.7,111.3,67.9,171.3c10-46.1,36.5-89,74.4-120.3c12.5,57.8-18,115.4-47.7,167.6
			c-13.4,23.5-26.7,47.1-40.1,70.6c-16.2-16.6-34.5-31.3-54.5-43.8c-3.4,21.2-6.7,42.4-10.1,63.6c-23.1-23-43.6-48.1-61-74.9"/>
	</g>
	<g>
		<linearGradient id="SVGID_37_" gradientUnits="userSpaceOnUse" x1="249.3399" y1="420.1866" x2="479.4415" y2="420.1866">
			<stop  offset="0" style="stop-color:#F96161"/>
			<stop  offset="6.759749e-02" style="stop-color:#F05B6A"/>
			<stop  offset="0.18" style="stop-color:#D64C82"/>
			<stop  offset="0.3233" style="stop-color:#AD33A9"/>
			<stop  offset="0.4904" style="stop-color:#7411DE"/>
			<stop  offset="0.5674" style="stop-color:#5700F9"/>
			<stop  offset="0.8652" style="stop-color:#E828CB"/>
			<stop  offset="0.9944" style="stop-color:#A71FCC"/>
		</linearGradient>
		<path class="st39" d="M249.7,441.9c-1.3-17.4,9.4-33.8,19.9-49.1c13.3-19.4,26.6-38.9,40.4-58.1c4.2-5.8,9.6-12.3,18-13.2
			c10.6-1.2,18.8,6.8,26,13.1c7.2,6.3,20.2,11.8,27.8,5.7c7.4-5.9,1.7-16.6,7.1-23.7c4.5-6,15.7-6.9,23.4-3.6
			c7.7,3.3,12.7,9.5,16.7,15.7c14.8,22.8,21.3,48.3,33.6,72c5.8,11.2,13,22.1,15.7,33.9c2.7,11.9,0.1,25.4-11.1,33.6
			c-6.8,5-16,7.4-23.6,11.6c-7.6,4.2-14,11.7-11,18.6c4.6,5,9.2,10.3,10,16.4c0.8,6.1-3.8,13.2-11.5,14c-7.6,0.9-13.9-4.1-19.9-7.8
			c-6-3.7-15.9-6-20.4-1.1c9.4-17.7,10.5-38,3.1-56.3c-12.2,12.5-15.4,30.2-8.3,44.9c1.6,3.3,3.6,7.3,0.9,10.1
			c-1.7,1.8-4.8,2.4-7.7,2.8c-15.4,2.3-36.9,1.7-40-10.6c-0.6-2.6-0.2-5.3-1.2-7.8c-2.3-5.5-10.7-7.8-18.1-7.7
			c-7.3,0.1-14.7,1.8-21.9,0.9c-14.1-1.8-23.1-12.8-28.4-23.4c-5.3-10.5-9.3-22.2-20-29.7"/>
	</g>
	<g>
		<path class="st0" d="M317,339.4c3.5-1.1,6-4,9.5-5.1c5.4-1.7,11.2,1.1,16.1,3.9c-3.5,0.5-5.8,4.4-9.4,4.3
			c-4.3-0.1-6.7-5.9-10.9-5.4"/>
	</g>
	<g>
		<path class="st0" d="M395.9,329.6c2.7-1.2,5.4-2.4,8.2-3.6c1.3-0.6,2.6-1.1,4-1c1.8,0.1,3.2,1.3,4.7,2.2c3,1.8,6.6,2.6,10.1,2.2
			c-4.1-0.9-8,1.8-11.8,3.5s-9.5,1.9-11.1-1.7"/>
		<g>
			<path class="st0" d="M396.3,330.2c2.2-0.9,4.3-1.9,6.5-2.8c4-1.7,6.6-1.1,10.2,0.8c3.1,1.6,6.4,2.2,9.8,2c1-0.1,0.9-1.4,0-1.5
				c-3.2-0.3-5.7,0.5-8.6,1.9c-3.7,1.7-10.6,5.5-13.7,0.3c-0.5-0.8-1.8-0.1-1.3,0.8c5.2,8.6,17.2-2.1,23.6-1.5c0-0.5,0-1,0-1.5
				c-3.5,0.2-6.7-0.4-9.7-2.1c-1.6-0.9-3.1-2.1-5-2.3c-4-0.3-9.1,3.1-12.6,4.7C394.6,329.3,395.4,330.6,396.3,330.2L396.3,330.2z"/>
		</g>
	</g>
	<g>
		<linearGradient id="SVGID_38_" gradientUnits="userSpaceOnUse" x1="436.2151" y1="488.3904" x2="686.5569" y2="488.3904">
			<stop  offset="0" style="stop-color:#54A3DA"/>
			<stop  offset="1" style="stop-color:#54A3DA;stop-opacity:0"/>
		</linearGradient>
		<path class="st40" d="M512,550.8c-37.8-48.5-63.9-104.7-75.8-163.4c6.2-3.3,13.5,2.1,18.1,7.2c39.4,42.5,72.7,89.8,98.7,140.3
			c-13.5-57.5-8.9-118.4,13.1-173.7c27.1,43.8,46.2,91.7,56.3,141.1c8.3-38,30.3-73.3,61.7-99.1c10.4,47.6-15,95-39.6,138.1
			c-11.1,19.4-22.2,38.8-33.3,58.2c-13.4-13.6-28.7-25.8-45.2-36.1c-2.8,17.5-5.6,34.9-8.3,52.4c-19.1-18.9-36.1-39.6-50.6-61.7"/>
	</g>
	<g>
		<g>
			<path class="st0" d="M344.7,363.4c16.4-5.4,33.7-6.7,50.7-3.6c5.7,1,8.1-7.6,2.4-8.7c-18.6-3.4-37.5-2.3-55.4,3.6
				C336.8,356.5,339.2,365.2,344.7,363.4L344.7,363.4z"/>
		</g>
	</g>
	<g>
		<g>
			<path d="M332.3,341.1c5.8,0,5.8-9,0-9C326.5,332.1,326.5,341.1,332.3,341.1L332.3,341.1z"/>
		</g>
	</g>
	<g>
		<g>
			<path d="M407.4,333.1c5.8,0,5.8-9,0-9C401.6,324.1,401.6,333.1,407.4,333.1L407.4,333.1z"/>
		</g>
	</g>
	<g>
		<linearGradient id="SVGID_39_" gradientUnits="userSpaceOnUse" x1="460.0951" y1="593.2628" x2="551.427" y2="593.2628">
			<stop  offset="0" style="stop-color:#763FF5"/>
			<stop  offset="8.104094e-02" style="stop-color:#7248F2"/>
			<stop  offset="0.2158" style="stop-color:#6862E9"/>
			<stop  offset="0.3876" style="stop-color:#578BDB"/>
			<stop  offset="0.5674" style="stop-color:#43BEC9"/>
			<stop  offset="0.8652" style="stop-color:#E828CB"/>
			<stop  offset="0.9944" style="stop-color:#FF1E44"/>
		</linearGradient>
		<path class="st41" d="M477.7,567.5c-7-0.4-16,1.3-17.4,7.6c-0.9,4.3,2.5,8.5,6.8,10.3c4.3,1.8,9.2,1.7,14,1.5
			c4-0.2,9.1,0.1,10.6,3.5c1.4,3.5-2.2,7.4-0.9,10.9c1.5,3.8,7.3,3.9,11.5,2.6c4.2-1.3,8.9-3.1,12.6-1c6.7,3.9,1.8,16,8.8,19.4
			c4.2,2,9.3-1.1,11.5-4.9c2.2-3.8,2.5-8.3,4.3-12.3c2.2-4.8,6.5-8.6,9.4-13.1c2.9-4.5,3.9-10.9-0.1-14.6c-2.3-2.1-5.7-2.9-8.2-4.9
			c-2.4-1.9-3.7-4.8-6.2-6.7c-2.8-2.1-6.7-2.3-10.3-2.4c-16-0.4-32,0.8-47.7,3.6"/>
		<g>
			<linearGradient id="SVGID_40_" gradientUnits="userSpaceOnUse" x1="459.5951" y1="593.2054" x2="551.927" y2="593.2054">
				<stop  offset="0" style="stop-color:#763FF5"/>
				<stop  offset="8.104094e-02" style="stop-color:#7248F2"/>
				<stop  offset="0.2158" style="stop-color:#6862E9"/>
				<stop  offset="0.3876" style="stop-color:#578BDB"/>
				<stop  offset="0.5674" style="stop-color:#43BEC9"/>
				<stop  offset="0.8652" style="stop-color:#E828CB"/>
				<stop  offset="0.9944" style="stop-color:#FF1E44"/>
			</linearGradient>
			<path class="st42" d="M477.7,566c-6.3-0.3-15.6,0.6-18.4,7.3c-3,7.3,4.4,13.2,10.7,14.6c4.7,1,9.4,0.2,14.2,0.5
				c4.1,0.3,6.5,1.8,5.7,6.5c-0.3,2-1.2,3.6-0.9,5.7c1.2,8.1,11.8,5.2,16.8,3.9c15.3-4,8.7,9.6,14.3,17c4.2,5.6,12.1,2.9,15.6-2
				c3.2-4.4,3.2-10.2,5.8-14.9c2.6-4.6,6.9-8.1,9.3-12.9c3.6-6.9,2.4-13.9-4.7-17.7c-3.1-1.7-5.2-3.1-7.5-5.9
				c-1.4-1.7-2.7-3.3-4.7-4.3c-4.6-2.4-10.6-1.9-15.6-1.9c-14.2,0-28.3,1.3-42.3,3.7c-1.9,0.3-1.1,3.2,0.8,2.9
				c9.9-1.7,19.9-2.9,30-3.3c4.5-0.2,8.9-0.3,13.4-0.3c5.6,0,11.1-0.3,15.3,4.1c2.3,2.3,3.7,4.6,6.6,6.3c4.8,2.7,8.9,5,7.4,11.4
				c-1.8,7.6-9.4,12.3-12.2,19.6c-1.5,4.1-1.9,9-4.9,12.3c-2.2,2.4-6.7,4.2-9.5,1.5c-1.3-1.3-1.7-3.2-2-4.9
				c-0.8-4.5-0.5-9.9-4.5-12.9c-5.9-4.6-12.9,1-19.2,0.9c-3.5-0.1-5.2-2.1-5-5.7c0.1-1.4,0.9-2.8,1.1-4.3c0.2-2.1-0.3-4.1-2-5.5
				c-5.6-5-15.7-1-22.3-3.1c-5.7-1.8-10.8-9-4.2-13.3c3.7-2.4,8.6-2.5,12.8-2.3C479.6,569.1,479.6,566.1,477.7,566L477.7,566z"/>
		</g>
	</g>
</g>
<g id="Слой_4">
	<path id="SVGID_x5F_41_x5F_" style="fill:none;" d="M-3218-488.8c45.8,38.9,94.7,74.1,146.1,105.1c14.5,8.8,29.8,17.7,39.3,31.8
		c12.7,18.7,12.6,44.6,2.1,64.6c-10.5,20-30.4,34.3-52.1,40.6c-21.5,6.2-49.1,2.5-59.4-17.4c-4.9-9.6-12.5-24.6-21.2-18.3
		c-2,1.5-3.1,3.9-4.3,6.2c-17,34.7-62.3,57.6-96.1,38.7c-28.5-16-37.2-52.8-38.2-85.4c-0.5-16.5,0.2-33.3-5.2-48.9
		c-5.1-14.8-15.2-27.3-22.9-41c-24.9-44.6-21.8-99-18-149.9c0.3-4.4,0.8-9.2,3.8-12.4c4.5-4.9,12.5-4,18.9-2.1
		c45.9,13.4,77.8,53.7,106.6,91.8"/>
	<text>	<textPath  xlink:href="#SVGID_x5F_41_x5F_" startOffset="78.6741%">
<tspan  style="font-family:'CenturyGothic-Bold'; font-size:72px;"> УA</tspan>	</textPath>
</text>
</g>
</svg>
