<?xml version="1.0" encoding="utf-8"?>
<!-- Generator: Adobe Illustrator 22.1.0, SVG Export Plug-In . SVG Version: 6.00 Build 0)  -->
<svg version="1.1" id="Слой_1" xmlns="http://www.w3.org/2000/svg" xmlns:xlink="http://www.w3.org/1999/xlink" x="0px" y="0px"
	 viewBox="0 0 255 212.5" style="enable-background:new 0 0 255 212.5;" xml:space="preserve">
<style type="text/css">
	.st0{fill:#00FCCC;}
</style>
<g>
	<path class="st0" d="M144,75.7c-4.5-12.4-9-24.9-16.6-35.7c-7.6-10.8-18.7-19.7-31.7-21.8c-3-0.5-6.3-0.5-9,1
		c-2.5,1.5-4.1,4.1-5.4,6.8c-8,17.4-5.3,39.2,6.8,54.1c1.6,2,3.4,4,3.6,6.5c0.4,5-5.4,8-10.1,9.7c-18.8,6.7-39,18.6-41.8,38.4
		c-0.3,2.4-0.3,5,0.9,7.2c1.5,2.6,4.6,3.8,7.5,4.7c19.8,5.8,42.2,2,59-9.9c-0.5,18,4,36.1,12.8,51.7c2.6,4.7,6.3,9.6,11.6,10.1
		c6,0.6,10.9-4.5,14.4-9.5c13.7-19.7,20.8-43.8,20.1-67.7c-0.1-2.6-0.2-5.4,1.3-7.4c1.2-1.6,3.1-2.5,5-3.3
		c24-10.4,48.4-28.8,50.7-54.9c0.2-2.1,0.2-4.4-0.9-6.2c-1.4-2.3-4.3-3.2-6.9-3.9c-13.7-3.5-28.4-5.1-42-0.9
		c-13.5,4.2-25.6,15.2-27.8,29.2"/>
	<g>
		<path class="st0" d="M148.8,74.3c-8.1-22.6-18.1-47.9-41.9-58c-9.8-4.2-22.1-5.9-28.5,4.5c-5.6,9.1-7.4,21.2-6.4,31.6
			c1,10.9,4.9,21.2,11.6,29.9c1.8,2.4,4.4,4.3,1.4,6.7c-1.7,1.4-4,2-6.1,2.8c-5.1,1.9-10.1,4-14.9,6.6c-9.1,4.8-17.6,11.3-23.3,20
			c-4.8,7.3-9.7,20.5-2.8,27.9c3.8,4.1,9.9,5.4,15.2,6.4c6.7,1.3,13.5,1.7,20.3,1.1c13.1-1.2,25.6-5.5,36.4-13
			c-2.5-1.4-5-2.9-7.5-4.3c-0.2,13.8,2,27.6,7.1,40.5c3.8,9.8,9.9,25.6,22.4,26.4c12.8,0.7,20.7-14.1,25.8-23.7
			c6.3-12,10.6-25,12.5-38.5c0.9-6.1,1.3-12.2,1.3-18.4c0-4.1-0.3-6.2,3.8-8.1c3.1-1.5,6.3-2.8,9.3-4.5c9.9-5.2,19.5-11.8,27.3-20
			c7.7-8.1,13.8-18.1,15.9-29.2c1-5.5,1.8-12-2.5-16.3c-4.3-4.3-11.8-5.1-17.4-6.1c-15-2.6-30.9-2.5-44.6,4.9
			c-11.1,6-20,16.4-22.2,28.9c-1.1,6.3,8.5,9,9.6,2.7c4.1-22.5,28.5-29.7,48.5-27.7c5.4,0.5,11.3,1.3,16.4,3.2
			c3.3,1.2,3.2,3.1,2.7,6.4c-0.3,2.3-0.9,4.6-1.6,6.9c-2.9,9.2-9,17-16.1,23.3c-7,6.4-15.2,11.4-23.7,15.7
			c-3.8,1.9-8.5,3.2-11.6,6.1c-4.2,3.9-3.8,9.3-3.8,14.6c0.1,22-6.6,44.7-19.5,62.6c-3.4,4.8-8.6,9.9-13.8,4.4
			c-4.2-4.3-6.8-11-8.9-16.4c-4.8-12.1-6.9-24.9-6.7-37.8c0.1-3.6-4.4-6.5-7.5-4.3c-15.7,10.8-38.1,16-56.4,9
			c-5-1.9-3.9-6.3-2.5-10.6c1.4-4.3,3.9-8.1,6.9-11.4c5.8-6.3,13.2-10.8,20.9-14.4c7.1-3.3,17.5-4.9,21.7-12.4
			c4.9-8.6-4.2-15.5-7.9-22.4c-4.5-8.3-6.3-18-5.4-27.3c0.4-4.6,1.6-9.2,3.4-13.4c0.8-2,1.9-4.7,3.9-5.8c2.3-1.3,5.7-0.5,8.1,0.1
			c24.3,5.8,34.3,32.5,41.8,53.4C141.3,83,151,80.4,148.8,74.3L148.8,74.3z"/>
	</g>
</g>
</svg>
