<?xml version="1.0" encoding="utf-8"?>
<!-- Generator: Adobe Illustrator 22.1.0, SVG Export Plug-In . SVG Version: 6.00 Build 0)  -->
<svg version="1.1" id="Слой_1" xmlns="http://www.w3.org/2000/svg" xmlns:xlink="http://www.w3.org/1999/xlink" x="0px" y="0px"
	 viewBox="0 0 118.2 86.4" style="enable-background:new 0 0 118.2 86.4;" xml:space="preserve">
<style type="text/css">
	.st0{fill:#5B3E91;stroke:#DC0781;stroke-miterlimit:10;}
	.st1{fill:#FFFFFF;}
	.st2{fill:#0DE7DC;}
</style>
<g>
	<path class="st0" d="M32.6,33.8c0.6-3.8-1.3-11.5-0.7-15.2s3.6-7.8,7.6-7.4c2.6,0.3,4.6,2.4,6.8,3.8s5.7,1.9,7.1-0.2
		c0.4-0.6,0.5-1.3,0.8-1.9c1.1-2,3.9-2.6,6.3-2.9c2.3-0.3,5.2-0.3,6.4,1.6c1,1.5,0.3,3.7,1.4,5.2c1.2,1.7,3.7,1.6,5.8,1.8
		c6.5,0.5,12.3,4.8,15.3,10.3s3.5,12,2.5,18.1c-0.2,1.3-0.5,2.5-1.2,3.6c-1.5,2.3-4.6,3-7.2,4c-4.6,1.7-8.8,4.6-11.9,8.3
		c0.2-2-0.2-4.1-1.1-6c-1,1.4-2.8,2.6-4.6,2.2c-1.8-0.5-2.5-3.2-0.8-3.9c-1.7-0.6-3.4-1.3-5.1-1.9c3-1.4,6-2.9,9-4.3
		c-1.9-1.8-3.9-3.7-6.4-4.7s-5.7-1-7.7,0.7c-3.4,2.8-2,7.9-2.4,12.1c-0.5,5-4.2,9.6-9.2,11.3c0.4-2.7,1.4-5.2,2.8-7.5
		c-1.3-0.6-2.8-0.9-4.2-0.9c3.8-3.3,2.1-9.1,0.1-13.6c-0.3-0.7-0.6-1.4-1.3-1.7c-1.5-0.7-3.1,1.3-2.8,2.9c0.3,1.6,1.5,2.9,2,4.4
		c1,2.9-0.8,6.2-3.5,8c-2.6,1.8-5.9,2.5-9.1,3.1c0.9-1.1,1.9-2.3,2.8-3.4C28,59,26,58.2,23.9,57.5c1.6-2.8,6-3.2,7.7-6
		c0.8-1.4,0.9-3,0.9-4.6c0-5.8,0-11.7,0-17.5"/>
	<g>
		<path class="st0" d="M35.1,33.8c0.5-4.8-1.3-9.5-0.8-14.2c0.4-4.2,3.3-6.9,7.5-4.8c1.9,1,3.3,2.6,5.4,3.3c3.1,1,6.3,0.6,8.4-2.1
			c1.7-2.2,2.1-3.2,5.2-3.5c1.2-0.1,3.4-0.3,4.2,1c0.4,0.7,0.3,2.4,0.6,3.3c1.6,4.2,5.9,3.8,9.6,4.5c6.7,1.2,11.8,6.5,13.7,12.9
			c1,3.5,1.2,7.1,0.7,10.7c-0.6,4.6-2.9,5.7-6.8,7.2c-5.1,2-9.4,4.9-13,9c1.4,0.6,2.8,1.2,4.3,1.8c0.1-2.4-0.3-4.4-1.2-6.6
			c-0.7-1.6-2.8-2.7-4.2-1.1c-0.6,0.6-1.2,1.2-1.8,1.8c1.6-1.3,0.5-3.6-1.1-4.2c-1.7-0.6-3.4-1.3-5.1-1.9c0.2,1.5,0.4,3,0.6,4.6
			c3-1.4,6-2.9,9-4.3c1.4-0.7,1.6-2.9,0.5-3.9c-4.7-4.4-13.1-9.6-18.6-3.1c-2,2.3-2.1,5.4-2.2,8.3c-0.1,6-1.3,11-7.5,13.5
			c1,1,2.1,2.1,3.1,3.1c0.5-2.5,1.3-4.7,2.6-6.9c0.9-1.5,0-3.1-1.5-3.7c-1.7-0.6-3.1-0.9-4.9-1c0.6,1.4,1.2,2.8,1.8,4.3
			c2.9-3.1,3.4-6.7,2.5-10.8c-0.6-2.9-1.8-7.9-5.2-8.7c-3.2-0.8-5.8,2.3-5.6,5.3c0.2,2.8,2.9,5.2,1.7,8.2c-1.5,3.5-7.1,4.3-10.4,4.9
			c0.8,1.4,1.6,2.8,2.4,4.2c0.9-1.1,1.9-2.3,2.8-3.4c1.2-1.5,0.8-3.5-1.1-4.2c-2.1-0.7-4.1-1.5-6.2-2.2c0.5,1.2,1,2.4,1.5,3.7
			c1.5-2,4.3-2.5,6.1-4.2c1.7-1.5,2.4-3.2,2.7-5.4c0.9-6.4,0.2-13.3,0.2-19.8c0-3.2-5-3.2-5,0c0,6,1,12.9-0.1,18.8
			c-0.7,4-5.7,4.9-8.2,8.1c-1.1,1.4,0.2,3.2,1.5,3.7c2.1,0.7,4.1,1.5,6.2,2.2c-0.4-1.4-0.7-2.8-1.1-4.2c-0.9,1.1-1.9,2.3-2.8,3.4
			c-1.6,1.9-0.1,4.7,2.4,4.2c5.5-1.1,12.2-3,14.2-9c0.7-2.2,0.7-5.3-0.8-7.2c-1.8-2.3-0.6,0.6-0.3,1.7c0.7,2.6,1.1,5.1-0.9,7.3
			c-1.5,1.6-0.4,4.2,1.8,4.3c1.3,0,2.4,0.2,3.6,0.8c-0.5-1.2-1-2.4-1.5-3.7c-1.5,2.6-2.5,5.2-3.1,8.1C40.6,69.5,42,71.8,44,71
			c5.2-2.1,9.5-6.1,10.8-11.7c0.6-2.8-0.1-5.8,0.4-8.6c1.4-7.9,8.7-2.9,12.2,0.3c0.2-1.3,0.3-2.6,0.5-3.9c-3,1.4-6,2.9-9,4.3
			c-2.1,1-1.2,3.9,0.6,4.6c1.7,0.6,3.4,1.3,5.1,1.9c-0.4-1.4-0.7-2.8-1.1-4.2c-2.2,1.9-2.2,5.2,0.1,7.1c2.9,2.4,6.7,0.6,8.8-1.8
			c-1.4-0.4-2.8-0.7-4.2-1.1c0.7,1.8,1.1,3.4,1,5.3c-0.1,2.1,2.8,3.4,4.3,1.8c3.2-3.6,6.9-6.2,11.5-7.9c2.6-1,5.3-1.8,7.2-3.9
			c3.9-4.4,3.3-13,2.2-18.3c-1.4-6.2-5.1-11.8-10.5-15.2c-2.5-1.6-5.2-2.6-8.1-3c-2.2-0.3-4.3-0.5-5.6-2.7c-0.6-1.1-0.4-2.6-1.3-3.7
			c-2.8-3.6-9.4-2.9-13.1-1.2c-2.1,1-4.3,5-6.5,4.9c-2.8-0.7-5.3-4.3-7.9-5c-5-1.5-9.4,1.8-11.2,6.4c-2.3,5.9,0.5,12.4-0.1,18.4
			C29.8,37,34.8,36.9,35.1,33.8L35.1,33.8z"/>
	</g>
</g>
<g>
	<g>
		<path class="st1" d="M38.2,17.3c3.2,0,3.2-5,0-5C34.9,12.3,34.9,17.3,38.2,17.3L38.2,17.3z"/>
	</g>
</g>
<g>
	<g>
		<path class="st1" d="M60.4,16.5c3.2,0,3.2-5,0-5C57.1,11.5,57.1,16.5,60.4,16.5L60.4,16.5z"/>
	</g>
</g>
<g>
	<g>
		<path class="st2" d="M13.6,56.7c5.3-9.4,18.1-16.1,27.7-20c5.1-2,10.3-3.6,15.7-4.5c4.7-0.8,11.7-2,15.7,1.4
			c4.3,3.6,0.7,10,1.3,14.7c0.4,3.5,2.5,6.3,5.9,7.4c8.8,2.7,18.8-6.4,24.4-12.1c2.3-2.3-1.3-5.8-3.5-3.5
			c-4.2,4.2-9.6,9.2-15.5,10.7c-9.4,2.3-5-9.2-5.5-14.1c-1-8.1-9.6-10.5-16.6-10.1C53,27,42.6,30.5,33.5,35
			c-8.6,4.3-19.3,10.7-24.2,19.4C7.7,57,12,59.5,13.6,56.7L13.6,56.7z"/>
	</g>
</g>
<g>
	<g>
		<path class="st2" d="M31.5,55.1c3.8-1.5,7.6-3,11.4-4.5c1.7-0.7,3.5-1.4,5.2-2.1c2.3-0.9,3.6-1.6,4.2,1.6c1,5.2-2.1,10.1,1.8,14.8
			c3.3,4,9.5,4.5,14.4,4.8c7.5,0.5,15-0.8,22.1-3.5c3-1.1,1.7-6-1.3-4.8c-7.2,2.7-14.8,4-22.5,3.2c-4.2-0.4-9.6-1.3-9.8-6.5
			c-0.1-2.9,0.6-5.8,0.5-8.6c-0.2-3.9-2-7.8-6.5-7.2c-3,0.4-6.4,2.4-9.2,3.5c-3.8,1.5-7.6,3-11.4,4.5C27.2,51.4,28.5,56.2,31.5,55.1
			L31.5,55.1z"/>
	</g>
</g>
</svg>
