<?xml version="1.0" encoding="utf-8"?>
<!-- Generator: Adobe Illustrator 22.1.0, SVG Export Plug-In . SVG Version: 6.00 Build 0)  -->
<svg version="1.1" id="Слой_1" xmlns="http://www.w3.org/2000/svg" xmlns:xlink="http://www.w3.org/1999/xlink" x="0px" y="0px"
	 viewBox="0 0 1102.9 615" style="enable-background:new 0 0 1102.9 615;" xml:space="preserve">
<style type="text/css">
	.st0{fill:url(#SVGID_1_);}
	.st1{fill:url(#SVGID_2_);}
	.st2{fill:url(#SVGID_3_);}
	.st3{fill:url(#SVGID_4_);}
	.st4{fill:url(#SVGID_5_);}
	.st5{opacity:0.63;}
	.st6{fill:url(#SVGID_6_);}
	.st7{fill:url(#SVGID_7_);}
	.st8{fill:#00FCCC;}
	.st9{fill:#FFFFFF;}
	.st10{fill:#F44E72;}
	.st11{fill:#DD87B9;}
	.st12{fill:#EF0F94;}
	.st13{fill:#1C0412;}
	.st14{fill:url(#SVGID_8_);}
	.st15{fill:url(#SVGID_9_);}
</style>
<g>
	
		<linearGradient id="SVGID_1_" gradientUnits="userSpaceOnUse" x1="20.799" y1="354.488" x2="252.0625" y2="354.488" gradientTransform="matrix(-0.9994 3.395460e-02 3.395460e-02 0.9994 974.7023 0.2763)">
		<stop  offset="0" style="stop-color:#3EB4F0"/>
		<stop  offset="1" style="stop-color:#80589E"/>
	</linearGradient>
	<path class="st0" d="M753.7,400.5c13.6-30.7,40.7-53.1,66.9-74.2c18.2-14.7,36.5-29.5,54.7-44.2c-0.6,11.1-1.2,22.2-1.7,33.3
		c-0.2,4.3-0.2,9.2,3,12.1c3,2.8,7.6,2.5,11.7,2.1c16-1.5,32-3.1,48-4.6c1.7-0.2,3.5-0.3,5,0.5c2.1,1.2,2.8,3.9,3,6.3
		c2.1,20.6-11.8,41.8-31.5,48c19.7,3.7,40.6,8,54.8,22.1c-9.8,3.1-20.2,3.7-30.4,4.4c-67.4,4.8-134.3,15.8-199.7,32.8
		c0.6-15.9,9.3-31.3,22.6-40"/>
</g>
<g>
	
		<linearGradient id="SVGID_2_" gradientUnits="userSpaceOnUse" x1="140.3495" y1="350.4264" x2="371.6131" y2="350.4264" gradientTransform="matrix(0.9994 3.395460e-02 -3.395460e-02 0.9994 23.0087 0.2763)">
		<stop  offset="0" style="stop-color:#3EB4F0"/>
		<stop  offset="1" style="stop-color:#80589E"/>
	</linearGradient>
	<path class="st1" d="M363.6,400.5c-13.6-30.7-40.7-53.1-66.9-74.2c-18.2-14.7-36.5-29.5-54.7-44.2c0.6,11.1,1.2,22.2,1.7,33.3
		c0.2,4.3,0.2,9.2-3,12.1c-3,2.8-7.6,2.5-11.7,2.1c-16-1.5-32-3.1-48-4.6c-1.7-0.2-3.5-0.3-5,0.5c-2.1,1.2-2.8,3.9-3,6.3
		c-2.1,20.6,11.8,41.8,31.5,48c-19.7,3.7-40.6,8-54.8,22.1c9.8,3.1,20.2,3.7,30.4,4.4c67.4,4.8,134.3,15.8,199.7,32.8
		c-0.6-15.9-9.3-31.3-22.6-40"/>
	<g>
		<linearGradient id="SVGID_3_" gradientUnits="userSpaceOnUse" x1="147.9055" y1="360.7856" x2="380.975" y2="360.7856">
			<stop  offset="0" style="stop-color:#3EB4F0"/>
			<stop  offset="1" style="stop-color:#80589E"/>
		</linearGradient>
		<path class="st2" d="M367.9,398c-11.1-24.5-30.3-43.9-50.6-61.2c-23.5-20-47.8-38.9-71.8-58.3c-3.1-2.5-8.8-1.2-8.5,3.5
			c0.5,9.8,1,19.6,1.5,29.4c0.2,3.2,1.6,10.2-1.4,12.6c-2.4,1.9-7.3,0.7-10.1,0.5c-9.6-0.9-19.2-1.9-28.8-2.8
			c-4.5-0.4-9-0.9-13.4-1.3c-3.6-0.3-7.3-1-10.8,0.6c-6,2.9-6.5,10.7-6.3,16.5c0.2,7,2,13.8,5,20.1c6,12.8,17.1,22.6,30.4,27.1
			c0-3.2,0-6.4,0-9.6c-20.4,3.8-41.6,8.5-57,23.4c-2.8,2.7-1.3,7.3,2.2,8.4c18.1,5.4,38,4.9,56.8,6.6c19.4,1.8,38.8,4.2,58.1,7
			c38.8,5.8,77.3,13.7,115.3,23.5c3,0.8,6.5-1.5,6.3-4.8c-1-18-10.2-34.2-25.1-44.3c-5.3-3.6-10.3,5-5,8.6
			c11.9,8.1,19.4,21.4,20.2,35.7c2.1-1.6,4.2-3.2,6.3-4.8c-38-9.9-76.5-17.7-115.3-23.5c-18.9-2.8-37.9-5.2-56.9-7
			c-9.6-0.9-19.2-1.7-28.9-2.4c-9.8-0.7-19.6-1.4-29.1-4.2c0.7,2.8,1.5,5.6,2.2,8.4c14.1-13.6,34.1-17.3,52.6-20.8
			c5.2-1,4.3-8.2,0-9.6c-12.2-4.1-22-14.3-26-26.5c-1-3.1-1.8-6.4-2-9.7c-0.1-1.6-0.8-7.8,0.6-9c0.6-0.5,3.6,0.2,4.4,0.3
			c2.6,0.2,5.1,0.5,7.7,0.7c4.2,0.4,8.3,0.8,12.5,1.2c8.6,0.8,17.3,1.8,25.9,2.5c6.1,0.5,12.6,0.1,16.6-5.2c4.3-5.7,3.1-13.4,2.8-20
			c-0.5-9.1-1-18.3-1.4-27.4c-2.8,1.2-5.7,2.4-8.5,3.5c23.5,19,47.4,37.7,70.5,57.2c20.2,17,39.3,35.8,50.3,60.2
			C361.9,408.9,370.5,403.8,367.9,398L367.9,398z"/>
	</g>
</g>
<g>
	<linearGradient id="SVGID_4_" gradientUnits="userSpaceOnUse" x1="316.9342" y1="282.1097" x2="779.4696" y2="282.1097">
		<stop  offset="0" style="stop-color:#3EB4F0"/>
		<stop  offset="1" style="stop-color:#80589E"/>
	</linearGradient>
	<path class="st3" d="M468.1,460.3c-40.2,8-82.8-11.2-109.4-42.5c-26.6-31.3-38.7-72.8-41.2-113.7c-3.7-59.1,11.5-119.3,42.9-169.5
		c15.1-24.1,35.2-46.9,62.2-55.6s61.6,1.7,72,28.1c4.3,10.9,5.8,25.3,16.7,29.6c4.7,1.9,10,1.2,15.1,0.5c18.6-2.7,37.3-5.3,55.9-8
		c5.4-0.8,11.2-1.8,15-5.7c7.4-7.6,2.6-20.1,3.9-30.7c2.1-17.6,37-28.7,54.6-26c17.6,2.7,45.1,10.6,57.5,23.3
		c66.6,68.3,72.9,172,61.7,266.8c-2.6,22.1-7.7,44.4-19.5,63.4c-30.6,49.2-95.4,62.1-152.8,69.8c-55.4,7.4-112.9,14-166.4-2.3
		c-53.5-16.3-102.1-61.9-103.9-117.8"/>
	<g>
		<linearGradient id="SVGID_5_" gradientUnits="userSpaceOnUse" x1="315.9342" y1="282.1169" x2="780.4696" y2="282.1169">
			<stop  offset="0" style="stop-color:#3EB4F0"/>
			<stop  offset="1" style="stop-color:#80589E"/>
		</linearGradient>
		<path class="st4" d="M466.8,455.4c-27.6,5.3-56-2.8-79.1-18.4c-24.3-16.4-41.5-41.2-51.8-68.4c-21.9-57.8-17.1-124.9,4.3-182.1
			c10.4-27.6,25-55.5,45.4-77.1c17.8-18.9,42.5-32.9,69.2-27.3c11.1,2.3,21.9,7.6,29.2,16.5c7.6,9.2,8.3,21.3,13.7,31.5
			c2.6,4.9,6.5,8.9,11.6,11c7.1,2.9,14.9,1.2,22.2,0.2c17-2.4,34.1-4.9,51.1-7.3c6.5-0.9,13.3-2.2,18.2-7.1c4.5-4.5,5.7-10.9,5.7-17
			c0-5.9-1.8-12.8,0-18.5c1.3-4,4.8-7.1,8.2-9.5c8.7-6,19.8-9.5,30.3-10.4c10.9-1,22,2.1,32.4,5.3c11.4,3.5,23.7,8.1,32.3,16.7
			c9.7,9.7,18.1,20.7,25.5,32.3c14.5,22.9,24.2,48.5,30.3,74.8c6.3,27.2,8.7,55.1,8.9,82.9c0.1,28.2-1.4,57.1-6.2,85
			c-4.9,28.9-16.5,55.3-39.4,74.3c-19.6,16.2-44.2,25.3-68.5,31.5c-26.8,6.9-54.4,10.4-81.9,13.6c-33.3,4-67.1,6.7-100.6,3
			c-53.8-5.9-109.3-33.2-132.2-85c-5-11.4-7.9-23.7-8.3-36.2c-0.2-6.4-10.2-6.4-10,0c2.2,55.9,46.9,99.7,96.7,118.9
			c31.4,12.1,66,14.9,99.3,13.9c33.3-1,66.8-5.4,99.7-10.6c51.1-8,109.2-23.3,137.6-70.8c16.5-27.6,19.6-60.8,22-92.2
			c2.3-29.5,2.5-59.3-0.6-88.8c-5.9-55.8-24.6-113.9-65.7-154c-9.3-9.1-22-14.3-34.2-18.2c-11-3.5-23.3-7.1-34.9-6.5
			c-18.4,0.9-49.1,9.9-51.1,32.1c-0.6,6.9,1.3,13.9,0.2,20.7c-1.4,8.6-10.1,9.3-17.3,10.3c-18,2.6-36,5.3-54,7.7
			c-7.7,1-14.3,0.7-18.4-6.6c-3-5.3-4.2-11.3-6.1-17c-4-11.6-11.4-21-21.7-27.6c-22-14-50.4-12.6-72.8-0.4
			c-26.3,14.4-44.7,40.5-58.7,66.4c-30.9,57-42.9,125.1-30.9,189c5.8,30.7,18,60.5,38.2,84.6c18.4,22,44.6,38.4,72.8,44.1
			c13.9,2.8,28,3,42,0.3C475.7,463.9,473.1,454.2,466.8,455.4L466.8,455.4z"/>
	</g>
</g>
<g class="st5">
	<linearGradient id="SVGID_6_" gradientUnits="userSpaceOnUse" x1="7.5" y1="439.2646" x2="1088.9038" y2="439.2646">
		<stop  offset="0" style="stop-color:#3EB4F0"/>
		<stop  offset="1" style="stop-color:#D55987"/>
	</linearGradient>
	<path class="st6" d="M32.2,436.1c18.9,4.3,37.5-8.8,49.7-23.8c12.3-15,21.5-32.9,37.1-44.4c13.5-10,30.3-14.1,46.6-18.1
		c36.8-8.8,78.2-17,110.2,3c15.4,9.6,26.5,24.7,40.7,36s34.6,18.6,50.4,9.6c13.8-7.8,18.9-24.7,27.9-37.7
		c24.1-34.4,83.2-34.6,107.6-0.5c6.3,8.9,10.5,19.4,18.5,26.7c16.4,15.2,42.9,11.9,63,2s37.4-25.2,58.4-32.7
		c34-12.2,75.1-0.6,97.6,27.6c5.9,7.4,10.9,15.9,19.1,20.5c13.6,7.5,30.9,1.2,42.9-8.7c12-9.8,21.2-22.9,33.9-31.8
		c30.7-21.3,74.2-12.2,105,9c12.9,8.9,25.4,20.1,41,22.1c19.1,2.5,36.5-9.5,54-17.6c17.4-8.1,41.4-11.2,53,4.1
		c-17.3,15.8-17.5,42.4-20.2,65.7s-14.7,50.7-38.1,52.4c13.2-8,3.7-31.2-11.5-33.9c-15.2-2.8-29.6,6.9-41.7,16.6
		c-22.8,18.1-45.9,38.5-74.6,43.5c-42.8,7.5-83.5-21-126.7-25.4c-40.3-4.1-79.2,13-117.3,26.8c-38.1,13.8-81.1,24.4-118.1,8.1
		c-20.7-9.1-37.1-25.6-56.6-37c-30.5-17.8-66.8-22.3-101.9-26.2c-9.6-1.1-19.4-2.1-28.7,0.5c-10.1,2.9-18.4,9.9-26.8,16.2
		c-53.5,40-133,54.5-185.9,13.8c-13.7-10.5-26.8-25-44.1-25.1c-27.4-0.2-43.9,35.6-71.2,37.5c-7,0.5-15.1-2.4-17.3-9
		c-0.9-2.8-0.6-5.8-0.3-8.7c1.7-16.3,3.4-32.7,5.1-49c1.1-10.7,9.6-25.3,18.5-19.1"/>
	<g>
		<linearGradient id="SVGID_7_" gradientUnits="userSpaceOnUse" x1="6.5" y1="439.3018" x2="1090.2521" y2="439.3018">
			<stop  offset="0" style="stop-color:#3EB4F0"/>
			<stop  offset="1" style="stop-color:#D55987"/>
		</linearGradient>
		<path class="st7" d="M30.8,440.9c21.1,4.3,40.3-8.2,53.5-23.7c14.1-16.6,23.9-37.5,43.2-48.9c9.5-5.6,20.1-8.7,30.7-11.5
			c10.8-2.8,21.6-5.3,32.5-7.4c21.2-4.1,43.9-6.5,64.9-0.2c22.6,6.8,36.2,24.8,53.3,39.7c14.3,12.5,34.9,23.3,54.2,16.7
			c19-6.5,25-25.9,35.2-41.1c9.2-13.6,24.4-21.7,40.4-24c15.9-2.3,32.8,0.9,46.3,9.8c7.1,4.7,12.5,11.1,16.9,18.3
			c5.4,8.7,10.1,18,18.4,24.4c15.1,11.7,35.8,11.2,53.2,5.7c20.8-6.6,37.6-21.1,56.6-31.3c18-9.7,37.9-13.3,58-9
			c18.6,3.9,35.8,13.8,47.8,28.6c6.3,7.8,11.6,16.9,20.6,21.9c8.4,4.7,18.4,4.9,27.5,2.2c21.5-6.2,33.4-25.4,49.7-39.1
			c16.2-13.6,37.7-17.3,58.2-13.8c21,3.6,38.7,13.6,55.7,25.9c8.5,6.2,17.5,12.3,27.8,14.9c10.1,2.6,20.5,1.4,30.3-1.9
			c19.3-6.7,36.2-20.9,57.3-21.2c8.8-0.1,16.7,2.4,22.3,9.4c0-2.4,0-4.7,0-7.1c-18.2,17.2-18.8,43.6-21.4,66.9
			c-2.1,18.9-10.6,47.6-33.4,49.7c0.8,3.1,1.7,6.2,2.5,9.3c12.7-8.4,9.9-25.4,0.6-35.4c-13.7-14.7-35.2-7.3-49.4,2.3
			c-17.5,11.8-32.4,26.7-50.6,37.5c-19,11.2-39.5,15.9-61.4,12.4c-21-3.3-40.9-11.6-61.2-17.8c-21.2-6.5-42.5-9.8-64.6-7.1
			c-45.9,5.5-86.7,29.6-131.6,39c-21.7,4.6-44.7,5.7-66-1.7c-20.9-7.2-37.3-22.9-55.4-34.8c-17.9-11.8-38.3-19.1-59.2-23.6
			c-10.5-2.3-21.1-3.9-31.8-5.2c-11.2-1.5-22.6-3.3-33.9-3.5c-10.3-0.2-19.9,2-28.8,7.3c-8.8,5.2-16.5,12.1-25,17.8
			c-16.1,10.6-33.8,18.8-52.3,24.1c-35.7,10.3-76.1,9.9-108.7-9.7c-15.9-9.6-28.4-25.8-46.6-31.3c-16.4-5-30.9,2.7-43.5,12.7
			c-11.3,8.9-23.6,22.7-39,23.3c-3.7,0.1-8.9-0.7-11.1-4.1c-2.7-4.3-0.4-12.5,0.1-17.2c1.3-12.4,2.6-24.9,3.9-37.3
			c0.4-4,4.1-22.3,11.3-18c5.5,3.3,10.6-5.3,5-8.6c-7.1-4.3-14.3-1.2-19,5c-6.1,8-6.9,17.3-7.9,26.9c-1.3,12.4-2.6,24.9-3.9,37.3
			c-1,9.4-0.6,18.2,8.6,23.1c15,8,32-1.7,43.8-10.9c11.4-8.9,23.2-22.4,38.4-23.7c19.7-1.7,34.6,18,49.4,28.1
			c15.1,10.3,32.6,16.8,50.6,19.5c37.8,5.7,76.9-3.5,110.4-21.3c8.6-4.6,16.9-9.9,24.8-15.7c8.5-6.3,16.9-13.7,27.5-16.2
			c10.9-2.6,22.9-0.2,33.8,1.1c11,1.3,22,2.7,33,4.7c22.1,4.1,43.7,10.6,62.8,22.7c18.2,11.6,34.1,26.7,54.2,35.1
			c42.4,17.6,89.3,2.7,130-12.4c22.2-8.2,44.4-16.8,67.8-21c23.1-4.2,45.3-2,67.7,4.6c20.7,6.1,40.7,14.6,62,18.3
			c20.7,3.6,40.8,1.6,59.9-7.3c19.1-8.9,35.3-22.9,51.7-35.9c12.3-9.8,37.8-27.7,49.6-8c3,5,4.6,12.6-1.1,16.3
			c-3.8,2.5-2.8,9.8,2.5,9.3c24.2-2.2,36.8-25.5,41.4-47c5.2-24.1,0.9-54,20.4-72.5c2.1-2,1.7-5,0-7.1c-11.6-14.4-32-14.2-48.3-9.2
			c-20.1,6.2-38.4,23.3-60.5,21.3c-11.1-1-20.7-7.6-29.5-13.9c-8.6-6.2-17-12.3-26.6-17c-18-8.9-38.6-14.2-58.7-12.2
			c-21.3,2.1-37.8,12.3-52.5,27.4c-13,13.4-33.7,36.8-54.8,25.5c-8.8-4.7-13.7-14.7-20.1-22.1c-6.3-7.3-14-13.5-22.3-18.3
			c-16.2-9.5-35.5-14.2-54.3-13c-20.9,1.4-38.8,10.7-56.2,21.8c-17.7,11.3-35.9,23.7-57.6,24c-9.6,0.1-19.4-2.3-26.6-8.9
			c-7.9-7.3-11.9-17.7-18.1-26.3c-9.4-12.9-23.5-21.6-38.9-25.2c-15.7-3.7-32.7-2.7-47.7,3.4c-16.3,6.6-27.2,18.3-35.7,33.5
			c-4.7,8.4-9.1,17.9-17.1,23.7c-8.4,6.1-19,5.9-28.5,2.8c-21.6-7-34.6-27.2-51.7-40.8c-35.9-28.5-83.3-19-124.2-9.1
			c-21.4,5.2-42,11.8-57.4,28.3c-14.8,15.9-24.1,37.1-42.3,49.8c-8.6,6-18.8,9.9-29.4,7.8C27.2,430,24.5,439.6,30.8,440.9
			L30.8,440.9z"/>
	</g>
</g>
<g>
	<path class="st8" d="M203.3,124c-4.5-12.4-9-24.9-16.6-35.7c-7.6-10.8-18.7-19.7-31.7-21.8c-3-0.5-6.3-0.5-9,1
		c-2.5,1.5-4.1,4.1-5.4,6.8c-8,17.4-5.3,39.2,6.8,54.1c1.6,2,3.4,4,3.6,6.5c0.4,5-5.4,8-10.1,9.7c-18.8,6.7-39,18.6-41.8,38.4
		c-0.3,2.4-0.3,5,0.9,7.2c1.5,2.6,4.6,3.8,7.5,4.7c19.8,5.8,42.2,2,59-9.9c-0.5,18,4,36.1,12.8,51.7c2.6,4.7,6.3,9.6,11.6,10.1
		c6,0.6,10.9-4.5,14.4-9.5c13.7-19.7,20.8-43.8,20.1-67.7c-0.1-2.6-0.2-5.4,1.3-7.4c1.2-1.6,3.1-2.5,5-3.3
		c24-10.4,48.4-28.8,50.7-54.9c0.2-2.1,0.2-4.4-0.9-6.2c-1.4-2.3-4.3-3.2-6.9-3.9c-13.7-3.5-28.4-5.1-42-0.9
		c-13.5,4.2-25.6,15.2-27.8,29.2"/>
	<g>
		<path class="st8" d="M208.1,122.6c-8.1-22.6-18.1-47.9-41.9-58c-9.8-4.2-22.1-5.9-28.5,4.5c-5.6,9.1-7.4,21.2-6.4,31.6
			c1,10.9,4.9,21.2,11.6,29.9c1.8,2.4,4.4,4.3,1.4,6.7c-1.7,1.4-4,2-6.1,2.8c-5.1,1.9-10.1,4-14.9,6.6c-9.1,4.8-17.6,11.3-23.3,20
			c-4.8,7.3-9.7,20.5-2.8,27.9c3.8,4.1,9.9,5.4,15.2,6.4c6.7,1.3,13.5,1.7,20.3,1.1c13.1-1.2,25.6-5.5,36.4-13
			c-2.5-1.4-5-2.9-7.5-4.3c-0.2,13.8,2,27.6,7.1,40.5c3.8,9.8,9.9,25.6,22.4,26.4c12.8,0.7,20.7-14.1,25.8-23.7
			c6.3-12,10.6-25,12.5-38.5c0.9-6.1,1.3-12.2,1.3-18.4c0-4.1-0.3-6.2,3.8-8.1c3.1-1.5,6.3-2.8,9.3-4.5c9.9-5.2,19.5-11.8,27.3-20
			c7.7-8.1,13.8-18.1,15.9-29.2c1-5.5,1.8-12-2.5-16.3c-4.3-4.3-11.8-5.1-17.4-6.1c-15-2.6-30.9-2.5-44.6,4.9
			c-11.1,6-20,16.4-22.2,28.9c-1.1,6.3,8.5,9,9.6,2.7c4.1-22.5,28.5-29.7,48.5-27.7c5.4,0.5,11.3,1.3,16.4,3.2
			c3.3,1.2,3.2,3.1,2.7,6.4c-0.3,2.3-0.9,4.6-1.6,6.9c-2.9,9.2-9,17-16.1,23.3c-7,6.4-15.2,11.4-23.7,15.7
			c-3.8,1.9-8.5,3.2-11.6,6.1c-4.2,3.9-3.8,9.3-3.8,14.6c0.1,22-6.6,44.7-19.5,62.6c-3.4,4.8-8.6,9.9-13.8,4.4
			c-4.2-4.3-6.8-11-8.9-16.4c-4.8-12.1-6.9-24.9-6.7-37.8c0.1-3.6-4.4-6.5-7.5-4.3c-15.7,10.8-38.1,16-56.4,9
			c-5-1.9-3.9-6.3-2.5-10.6c1.4-4.3,3.9-8.1,6.9-11.4c5.8-6.3,13.2-10.8,20.9-14.4c7.1-3.3,17.5-4.9,21.7-12.4
			c4.9-8.6-4.2-15.5-7.9-22.4c-4.5-8.3-6.3-18-5.4-27.3c0.4-4.6,1.6-9.2,3.4-13.4c0.8-2,1.9-4.7,3.9-5.8c2.3-1.3,5.7-0.5,8.1,0.1
			c24.3,5.8,34.3,32.5,41.8,53.4C200.6,131.3,210.3,128.7,208.1,122.6L208.1,122.6z"/>
	</g>
</g>
<g>
	<path class="st9" d="M380.3,325.4c57.1-6,101.8-55.4,158.6-64c69.9-10.5,137.8,43.5,207.6,32.2c-23.5,20.2-46.9,40.5-70.4,60.7
		c-12.3,10.6-24.8,21.3-39.7,27.7c-14.9,6.4-31.3,8-47.5,8.4c-74.8,1.8-150-23.1-208.9-69.1"/>
	<g>
		<path class="st9" d="M380.3,330.4c49.9-5.6,87.9-40.8,133.8-57.4c24-8.7,48.6-9.7,73.6-5c25.5,4.8,49.8,13.8,74.6,21
			c27.8,8.1,56.4,13.9,85.4,9.4c-1.6-2.8-3.2-5.6-4.9-8.4c-22.5,19.4-44.9,38.8-67.4,58.1c-9.9,8.5-19.7,17.3-30.9,24
			c-11.8,7.1-25,10.8-38.6,12.2c-50.1,5.3-102.8-4.7-149.1-24c-26.2-10.9-51-25.3-73.4-42.7c-5-3.9-12.2,3.1-7.1,7.1
			c41.6,32.3,90.6,54.7,142.4,64.6c26,5,52.7,7.2,79.1,5.6c14-0.8,28.1-3.1,41-8.7c12.1-5.3,22.7-13.3,32.8-21.7
			c26.4-22.1,52.3-45,78.4-67.5c4.2-3.6-0.5-9-4.9-8.4c-51.7,8-100.7-19.1-150.1-29.4c-24.4-5.1-49.4-6.1-73.6,0.8
			c-23.3,6.7-44.5,18.9-65.6,30.7c-23.6,13.2-48.2,26.6-75.6,29.6C374,321.1,373.9,331.1,380.3,330.4L380.3,330.4z"/>
	</g>
</g>
<g>
	<path class="st8" d="M899.2,79.7c-7.6-18.4-21.9-33.9-39.5-43.1c-4.6-2.4-9.7-4.5-14.9-4.2c-14.1,0.7-21.9,19.6-15.3,32.1
		S852.1,82.1,866,80c2.7-0.4,5.7-0.9,7.8,0.7c3.4,2.7,1.5,8.1-0.4,12c-4.6,9.5-7.2,19.9-7.8,30.4c-0.2,3.4-0.1,7,1.8,9.8
		c1.4,2,3.5,3.4,5.8,4.4c9.9,4.4,22.3,2.3,30.1-5.1c7.8-7.4,10.6-19.7,6.8-29.8c4.1-2.3,7.9,3.1,10.9,6.7c8.6,10.2,28,5.5,32.2-7.1
		s-6.6-27.4-19.9-28.5c-8.3-0.7-19.8,1.2-22.3-6.8c-0.6-2.1-0.3-4.3,0-6.5c1-7.3,2.1-14.7,3.1-22c0.5-3.8,1-7.9-0.6-11.3
		c-3.8-7.9-16.5-6.7-22,0.1s-5.8,16.3-5.8,25.1"/>
	<g>
		<path class="st8" d="M903.5,77.2c-8.8-20.6-26.1-39.5-47.2-47.6c-9.4-3.6-19.7-2.5-26.7,5.2c-5.9,6.5-8.5,15.8-7,24.4
			c1.6,9.4,8.5,17.2,16.9,21.4c4.5,2.3,9.3,3.7,14.3,4.4c2.3,0.3,4.6,0.5,6.9,0.5c2.5,0,6.5-1.5,8.9-0.8c2.5,0.7,0.5,3.7-0.3,5.6
			c-1.1,2.6-2.3,5-3.3,7.7c-2.4,6.5-3.9,13.2-4.7,20.1c-0.6,5-1.1,10.3,0.8,15.1c2.2,5.4,7.3,8.5,12.7,10.2
			c25.4,8,48.9-17.4,40.3-42.1c-1.2,2.1-2.3,4.1-3.5,6.2c2.1-0.8,5.6,5.1,7.2,6.7c2.5,2.3,5.6,4,8.8,5c6.4,1.7,13.3,0.7,19.1-2.3
			c13.9-7.3,15.8-24.7,6.7-36.7c-4.5-6-11.2-10.2-18.7-11.2c-4.5-0.6-17.8,1.7-18.9-4.2c-0.9-4.6,1.2-11,1.9-15.7
			c0.7-5.1,1.9-10.3,2-15.5c0.1-7.6-3.7-14.3-11.3-16.3c-7.2-1.9-15.6,0.9-20.4,6.5c-6.7,7.9-7.2,18.8-7.3,28.6c0,6.4,10,6.4,10,0
			c0.1-7-0.2-15.4,4.2-21.4c2.6-3.5,9.4-6.4,13.2-3c2.6,2.4,1.5,7,1.1,10c-0.6,4.6-1.3,9.2-2,13.7c-0.9,6.5-3.3,14.2,0.8,20.1
			c7.3,10.7,22.5,3.4,32.2,9.3c10.2,6.2,13,22.1,0.5,27.4c-5,2.1-11.2,2-15.3-1.9c-4.6-4.5-8.9-11.9-16.5-8.9
			c-2.4,1-4.5,3.4-3.5,6.2c3,8.6,1.3,18.5-5.5,24.9c-6.4,6-16.7,7.7-24.6,4.1c-8.8-4.1-3.5-20.1-1.4-27.2c2.2-7.4,9.8-17.4,5.8-25.4
			c-4.3-8.4-14.5-4.4-21.8-4.7c-7.8-0.4-16.1-3.4-21.3-9.5c-10-11.7-1.1-33,15.5-27.3c19.5,6.6,35.1,25.3,42.9,43.6
			C897.4,88.2,906,83.1,903.5,77.2L903.5,77.2z"/>
	</g>
</g>
<g>
	<path class="st10" d="M383.5,135.9c3.9-14.5,13.1-27.6,25.5-36.1c10.3-7.1,23-11.1,35.5-9.6c17.5,2.2,32.9,15.9,37,33.1
		c0.5,1.9,0.8,4,0.1,5.8c-1.7,4.4-7.5,4.9-11.8,6.6c-9.4,3.8-13.3,15.1-21.2,21.4c-8.9,7.1-21.9,6.9-32.3,2.4
		c-10.4-4.4-18.9-12.4-27.1-20.3"/>
	<g>
		<path class="st10" d="M388.3,137.3c8.2-29.1,43.1-55.1,72.1-35.7c5.8,3.9,10.5,9.4,13.6,15.6c1.1,2.3,3.6,7.2,2.9,9.7
			c-0.8,2.6-6.2,3.1-8.5,4c-12.8,5-16.1,21.1-28.9,25.5c-18.3,6.3-34.8-9.2-46.9-20.7c-4.7-4.4-11.7,2.6-7.1,7.1
			c13.9,13.3,30.3,27.3,50.9,24.5c9-1.2,16-5.9,21.5-12.9c2.4-3,4.5-6.2,7-9c3.3-3.6,6.6-5,11.1-6.5c8.8-3,12.3-9.1,9.8-18.3
			c-2.3-8.3-7.1-16.1-13.4-22c-13.8-13.1-33.4-16.9-51.2-10.6c-21,7.4-36.7,25.4-42.7,46.6C376.9,140.8,386.6,143.5,388.3,137.3
			L388.3,137.3z"/>
	</g>
</g>
<g>
	<path class="st10" d="M618,129.9c3.9-14.5,13.1-27.6,25.5-36.1c10.3-7.1,23-11.1,35.5-9.6c17.5,2.2,32.9,15.9,37,33.1
		c0.5,1.9,0.8,4,0.1,5.8c-1.7,4.4-7.5,4.9-11.8,6.6c-9.4,3.8-13.3,15.1-21.2,21.4c-8.9,7.1-21.9,6.9-32.3,2.4
		c-10.4-4.4-18.9-12.4-27.1-20.3"/>
	<g>
		<path class="st10" d="M622.8,131.3c8.2-29.1,43.1-55.1,72.1-35.7c5.8,3.9,10.5,9.4,13.6,15.6c1.1,2.3,3.6,7.2,2.9,9.7
			c-0.8,2.6-6.2,3.1-8.5,4c-12.8,5-16.1,21.1-28.9,25.5c-18.3,6.3-34.8-9.2-46.9-20.7c-4.7-4.4-11.7,2.6-7.1,7.1
			c13.9,13.3,30.3,27.3,50.9,24.5c9-1.2,16-5.9,21.5-12.9c2.4-3,4.5-6.2,7-9c3.3-3.6,6.6-5,11.1-6.5c8.8-3,12.3-9.1,9.8-18.3
			c-2.3-8.3-7.1-16.1-13.4-22c-13.8-13.1-33.4-16.9-51.2-10.6c-21,7.4-36.7,25.4-42.7,46.6C611.4,134.8,621.1,137.5,622.8,131.3
			L622.8,131.3z"/>
	</g>
</g>
<g>
	<path class="st11" d="M535.3,299.8c-9.8,2.1-20,0.1-30-0.4c-10-0.5-21.1,1.1-27.9,8.4c-5.5,6-7,14.7-8,22.8
		c-1.7,14.3-2.3,28.8-2.1,43.2c0.1,5.8,0.4,11.7,2.2,17.2c2.1,6.2,5.9,11.6,9.9,16.9c11.4,15.2,23.8,29.7,36.9,43.4
		c2.8,3,6.4,6.2,10.5,5.6c3.2-0.5,5.6-3.1,7.7-5.6c5.4-6.4,10.7-12.9,16.1-19.3c1.5-1.8,3.2-3.7,5.5-3.9c3-0.3,5.3,2.3,7.3,4.6
		c6.7,7.9,14.4,15,22.9,21c1.7,1.2,3.7,2.4,5.7,2.2c2.3-0.3,3.9-2.2,5.3-4c22-28.8,37.3-62.6,44.3-98.1c1.6-8,2.7-16.1,1.8-24.2
		c-2.6-22.3-22-40.4-43.9-45.5c-21.9-5-45.3,1.4-64.2,13.5"/>
	<g>
		<path class="st11" d="M534.8,298c-18.6,3.5-42.9-7.5-58.2,8c-6.1,6.1-7.8,14.9-8.9,23.1c-1.5,11.9-2.2,23.9-2.3,35.9
			c-0.1,10-0.5,20.7,3.7,30c4.2,9.5,11.6,17.8,18,25.8c6.9,8.6,14.1,17,21.6,25.1c4.8,5.2,11.9,15.5,20.4,12.3
			c4-1.5,6.6-5.4,9.2-8.6c3.7-4.5,7.4-8.9,11.1-13.4c2.6-3.2,5.1-8,10.5-4.6c1.7,1.1,3,3.4,4.3,4.9c3.8,4.3,8,8.3,12.4,12
			c5,4.2,12.9,12.7,19.6,7c3.3-2.8,5.8-7.1,8.2-10.6c3.1-4.5,6.1-9,8.9-13.7c10.8-17.8,19.2-37.1,25-57.1c5.3-18.4,11-39.6,3.2-58
			c-7.5-17.7-24.8-30.6-43.4-34.4c-22.2-4.5-45.1,2.2-64,14c-2,1.3-0.2,4.5,1.9,3.2c16.1-10.1,35-16.4,54.2-14.7
			c17,1.5,33.3,10.3,43,24.4c11.6,16.7,8.7,35.7,4.2,54.4c-4.4,18.3-11.1,36-19.7,52.7c-4.2,8.2-8.9,16.1-14.1,23.7
			c-2.5,3.7-5.2,9-8.6,11.9c-5.5,4.7-12.3-2.6-16.4-6.1c-3.3-2.8-6.4-5.8-9.4-8.9c-2.8-3-5.3-7-8.8-9.1c-7.2-4.2-12.2,4.6-16.1,9.2
			c-3.1,3.7-6.2,7.4-9.3,11.2c-1.4,1.6-2.7,3.4-4.2,4.9c-3.6,3.3-7.4,2.6-10.9-0.4c-7.2-6.2-13.4-14.1-19.6-21.3
			c-6.7-7.8-13.2-15.8-19.3-24c-6-8-10.7-15.9-11.5-26.1c-1-11.4-0.4-23.1,0.3-34.5c0.7-10.7,0.7-23.6,6.1-33.2
			c11.5-20.4,41.6-8.1,59.8-11.5C538.2,301.2,537.2,297.6,534.8,298L534.8,298z"/>
	</g>
</g>
<g>
	<path class="st12" d="M527.8,374.2c0.1-20.3,0.2-40.5,0.2-60.8c0-3.4-1.2-8.1-4.2-7.7c-1.4,0.2-2.8,1.6-4,0.8
		c-1.2-0.7-1-2.8-0.6-4.2c1.7-6.2,3.4-12.3,5-18.5c0.3-1,0.6-2,1.3-2.6c1.5-1.2,3.6,0.2,5,1.7c5.1,5.3,9.5,11.4,13.2,17.9
		c0.4,0.7,0.8,1.5,0.7,2.3c-0.2,2.6-3.8,2.3-5.5,4.1c-1.2,1.2-1.2,3.2-1.2,5c0.1,5.4,0.2,10.8,0.3,16.2c3.6,1.8,7.8-1.7,9.1-5.9
		c1.3-4.2,0.5-8.7,0.1-13.1c-0.5-6.4-0.2-12.8,1-19c0.5-2.6,1.1-5.3,0.6-7.9c-0.5-2.6-2.7-5-5-4.5c1.9-4.6,5.8-14.9,10-17.4
		c4.7-2.7,9.5,4.6,13.6,8.4c1.2,1.1,2.4,2.3,3,3.9c0.5,1.3,0.8,2.5,1.6,3.6c-10.4,4-6.8,14.5-7.9,25.5c-0.9,8.8-1.7,17.5-2.6,26.3
		c3.7-0.1,7.4-0.2,11.1-0.2c1,0,2-0.1,2.8-0.8c1-0.9,1.1-2.6,1.1-4c0-10,0-20.1,0-30.1c0-0.9-0.1-2-0.7-2.5c-1-0.9-2.7,0.2-3.7-0.6
		c-1-0.8-0.5-2.5,0.1-3.7c1.9-4.1,6.8-16.8,10.6-14.3c1.3,0.9,7.7,13.7,7.5,13.9c-1.2,1.1-3.5-0.7-4.4,0.8c3.4,3.8,3.6,9.7,3.6,15.1
		c0,7.8-0.1,15.6-0.1,23.4c0,1.8-0.6,3.7-1,5.3c3.5,1.2,7.2-2.1,8.7-5.5c1.7-3.9,1.8-8.3,1.8-12.6c-1.2-1.5-3.1-2.2-4.9-2.1
		c1.4-4.1,3.6-7.9,6.5-10.9c6.6,4.7,6.1,15.4,5,24c-2.1,15.5-4.3,31-6.4,46.5c-0.2,1.8-0.6,3.8-1.9,4.9c-0.9,0.7-2.1,0.9-3.2,1
		c-21.9,2.1-43.9,2.9-65.9,2.4c-2.5-0.1-5.2-0.2-7.3-1.7c-3.2-2.3-4.1-6.8-4.7-11c-1-7.4,0.2-17.2-1.7-24.2c-0.5-1.7-7.5-11-9.2-7.3
		c1-2.1,8.8-15.9,10.7-15.9c0.9-1.3,2-2.7,3.5-2.7c1.1,0,2.1,0.8,2.9,1.7c2.6,2.8,4.9,6.1,6.5,9.7c-0.8,3.6-4.7,2.9-6,5.5
		c-0.9,1.9-1.1,7.4-0.3,9.3c1.1,2.6,3.7,2.5,5,5c0.3,0.7,0.4,1.4,0.4,2.2c0.4,8.3,0.9,16.5,1.3,24.8"/>
	<g>
		<path class="st12" d="M529,374.2c0.1-15.4,0.1-30.7,0.2-46.1c0-5.9,1.1-12.9-0.4-18.6c-0.9-3.5-2.2-4.2-5.3-5
			c-0.5,0.2-0.9,0.3-1.4,0.5c-1.8-1.1-2.2-2.5-1.2-4.2c0.1-1.8,1.1-3.9,1.5-5.5c0.8-2.9,1.2-7.7,2.8-10.2c3-4.7,7,1.3,9,3.8
			c2.5,3,4.7,6.2,6.8,9.6c0.9,1.4,2.8,4,1.3,5.7c-0.2,0.2-2.5,1-2.9,1.3c-1.4,1-2,2.1-2.4,3.7c-0.6,2.6-0.1,5.9-0.1,8.5
			c0.1,3.6,0.1,7.2,0.2,10.8c0,0.6,0.4,1,0.9,1.2c4.3,1.4,8.1-1.3,10-5.1c2.7-5.5,0.9-12.2,0.7-18c-0.2-4.7,0-9.3,0.8-14
			c0.4-2.8,1.3-5.7,1.1-8.5c-0.2-3.8-2.4-7.4-6.5-7.3c0.4,0.5,0.8,1.1,1.2,1.6c1.2-2.9,2.3-5.8,3.7-8.6c1.7-3.4,3.5-8,7.6-7.9
			c3.8,0.1,6.4,4.2,8.8,6.7c1.2,1.2,2.7,2.4,3.6,3.8c0.9,1.5,1.3,3.2,2.2,4.7c0.1-0.6,0.3-1.1,0.4-1.7c-7.5,3.3-8.3,10.1-8.3,17.5
			c0,11.8-1.7,23.6-2.8,35.3c-0.1,0.7,0.6,1.3,1.3,1.3c3.1-0.1,6.2-0.1,9.3-0.2c1.7-0.1,3.8,0.2,5.3-1c2.9-2.3,1.7-8.6,1.7-11.7
			c0-6.3,0-12.5,0-18.8c0-2,0.5-4.8-0.3-6.7c-0.8-1.9-1.2-1-2.5-2c-3-2.4,0.7-7.6,2.1-10.3c1.3-2.5,3.8-8,6.2-4
			c1.8,2.8,3.3,5.9,4.7,8.9c0.2,0.4,0.7,1.2,0.8,1.7c0.1,1.2,0.3-0.3-0.8-0.4c-1.5-0.1-1.8,0-2.9,0.9c-0.6,0.4-0.4,1.3,0,1.8
			c4.5,5.6,3.2,14.3,3.2,21c0,7.1,0.8,14.7-1.1,21.6c-0.2,0.6,0.2,1.4,0.9,1.5c6.3,1.2,10.3-4.6,11.4-10.2
			c1.2-5.9,2.1-12.3-5.5-12.5c0.4,0.5,0.8,1.1,1.2,1.6c1.4-3.9,3.4-7.2,6.2-10.3c-0.6,0-1.2,0-1.8,0c7.2,5.8,5.5,16.7,4.4,24.8
			c-1.4,10.3-2.8,20.7-4.3,31c-0.4,2.6-0.7,5.2-1.1,7.7c-0.3,2.1-0.2,5.2-1,7.2c-2.3,5.3-10.7,4.2-15.3,4.6
			c-10.3,0.8-20.7,1.3-31,1.5c-5.2,0.1-10.3,0.1-15.5,0.1c-5.3,0-13.5,1.3-16.5-4.1c-4.1-7.3-2.1-17.5-2.8-25.5
			c-0.4-5.3-1.7-8.9-5.5-12.7c-1.9-1.9-5-4.4-7-1.3c0.7,0.4,1.4,0.8,2.2,1.3c2.2-4.6,5-9.5,8.2-13.5c0.7-0.8,1.1-1.4,2-1.9
			c0.2-0.1,0.3-0.4,0.4-0.4c1.5-0.2,2.9-0.5,4.4-0.7c0.4,0.4,0.7,0.8,1.1,1.2c1.8,1.4,4.7,5.7,4.1,7.9c-0.5,1.9-1.9,1.7-3.3,2.8
			c-3.3,2.5-3.7,10.1-1.2,13.4c1.1,1.5,2.3,2,3.4,3.6c1.8,2.7,1.4,6.1,1.6,9.4c0.3,5.7,0.6,11.4,0.9,17.2c0.1,1.6,2.6,1.6,2.5,0
			c-0.4-7-0.8-14-1.1-21c-0.3-4.9-0.4-6.3-3.8-9.5c-2.3-2.2-3.2-6.1-1.9-9.2c1-2.5,3.3-2.4,5-4.1c3-3.1-0.1-6.6-2.1-9.4
			c-1.6-2.3-4.2-6.4-7.4-6.1c-2,0.2-3.7,2.3-5,3.6c-4.2,4.2-7.4,10.2-9.9,15.5c-0.7,1.4,1.3,2.6,2.2,1.3c0.7-1.1,4.3,3.2,4.9,3.9
			c2,2.5,2.5,4.8,2.9,8c0.7,6.9-0.1,13.8,1.1,20.7c0.8,4.7,2.5,9.8,7.4,11.5c3,1,6.4,0.8,9.5,0.8c4.5,0.1,9.1,0.1,13.6,0
			c8.4-0.1,16.8-0.3,25.2-0.8c7.9-0.4,16.8-0.1,24.5-1.9c5.6-1.3,5.2-7.8,5.8-12.4c1.2-8.7,2.4-17.4,3.6-26.1
			c1.6-11.5,7.5-31-3.3-39.8c-0.5-0.4-1.3-0.5-1.8,0c-3,3.4-5.2,7.2-6.8,11.4c-0.3,0.8,0.5,1.6,1.2,1.6c1.2,0.8,2.4,1.6,3.7,2.4
			c0,0.5,0,1.1,0,1.6c0.3,1.4-0.2,3.3-0.4,4.6c-0.7,3.9-3,10.1-8.4,9.1c0.3,0.5,0.6,1,0.9,1.5c2.3-8.3,1.1-17.6,1.2-26.1
			c0-6.6,0.4-13.5-3.9-18.9c0,0.6,0,1.2,0,1.8c0.8-0.6,2.9-0.1,4.1-0.6c0.4-0.2,0.6-0.7,0.6-1.1c-0.1-1.9-1.6-3.9-2.4-5.6
			c-1.3-2.7-2.7-6.3-4.8-8.5c-4.2-4.4-8.1,3-9.7,6.2c-1.4,2.8-3.6,6.3-4.1,9.4c-0.8,4.5,3.8,3.2,4.8,6.7c0.8,2.9,0,7.3,0,10.3
			c0,3.4,0,6.9,0,10.3c0,3.2,1.3,10.4-2.6,12c-2.7,1.1-8.2,0.2-11.1,0.2c0.4,0.4,0.8,0.8,1.3,1.3c1-9.9,2.5-19.9,2.8-29.8
			c0.2-7.8-1.6-17.1,7.1-20.8c0.6-0.3,0.8-1.2,0.4-1.7c-1.2-2-1.6-4.2-3.1-6c-1.6-2-3.7-3.7-5.4-5.6c-2.3-2.4-5.3-5.7-9-5.5
			c-7.3,0.4-10.8,13.4-13,18.8c-0.3,0.8,0.5,1.6,1.2,1.6c0.9,0,3.9,4.9,4,5.6c0.1,1.1-0.2,2.5-0.4,3.6c-0.3,1.8-0.7,3.7-0.9,5.5
			c-0.5,3.8-0.7,7.7-0.6,11.6c0.1,3.8,0.8,7.5,0.8,11.3c0,2.2-0.2,4.5-1.2,6.5c-0.5,1.1-1.9,3.3-3.1,3.6c-2.8,0.9-3-1-3.1-3.1
			c-0.1-3.6-0.2-7.2-0.2-10.8c0-2.6,1.1-4.7,3.3-6.4c0.8-0.6,1.7-0.7,2.3-1.5c2.9-3.4-2.2-9-4.1-11.7c-2.9-4.2-7.2-11.7-12.1-13.6
			c-5.4-2.1-6.2,5.8-7.1,9.1c-1,3.7-2,7.4-3,11.1c-0.5,1.8-1.5,4.5-0.4,6.3c0.8,1.3,1.6,1.4,3,1.5c2,0.2,3.7-1.1,5,1.2
			c1,1.7,0.7,4.3,0.7,6.2c0,19.6-0.2,39.2-0.2,58.8C526.5,375.8,529,375.8,529,374.2L529,374.2z"/>
	</g>
</g>
<g>
	<path class="st13" d="M432.1,96.2c-14.3,20.4-13,50.4,3,69.4c16-20.7,14.6-53-3.3-72.2"/>
	<g>
		<path class="st13" d="M430.5,95.3c-14.8,21.6-13.2,51.5,3.3,71.7c0.8,1,2.3,0.5,2.9-0.4c16.5-21.9,14.7-54.2-3.6-74.5
			c-1.6-1.8-4.3,0.9-2.7,2.7c17.3,19.1,18.4,49.4,3,70c1-0.1,2-0.3,2.9-0.4c-15.5-18.9-16.5-47-2.7-67.1
			C435.1,95.2,431.9,93.3,430.5,95.3L430.5,95.3z"/>
	</g>
</g>
<g>
	<path class="st13" d="M665.1,87c-14.3,20.4-13,50.4,3,69.4c16-20.7,14.6-53-3.3-72.2"/>
	<g>
		<path class="st13" d="M663.5,86.1c-14.8,21.6-13.2,51.5,3.3,71.7c0.8,1,2.3,0.5,2.9-0.4c16.5-21.9,14.7-54.2-3.6-74.5
			c-1.6-1.8-4.3,0.9-2.7,2.7c17.3,19.1,18.4,49.4,3,70c1-0.1,2-0.3,2.9-0.4c-15.5-18.9-16.5-47-2.7-67.1
			C668.1,86,664.9,84.1,663.5,86.1L663.5,86.1z"/>
	</g>
</g>
<g>
	<path class="st8" d="M791.9,255.7c-4.5-12.4-9-24.9-16.6-35.7c-7.6-10.8-18.7-19.7-31.7-21.8c-3-0.5-6.3-0.5-9,1
		c-2.5,1.5-4.1,4.1-5.4,6.8c-8,17.4-5.3,39.2,6.8,54.1c1.6,2,3.4,4,3.6,6.5c0.4,5-5.4,8-10.1,9.7c-18.8,6.7-39,18.6-41.8,38.4
		c-0.3,2.4-0.3,5,0.9,7.2c1.5,2.6,4.6,3.8,7.5,4.7c19.8,5.8,42.2,2,59-9.9c-0.5,18,4,36.1,12.8,51.7c2.6,4.7,6.3,9.6,11.6,10.1
		c6,0.6,10.9-4.5,14.4-9.5c13.7-19.7,20.8-43.8,20.1-67.7c-0.1-2.6-0.2-5.4,1.3-7.4c1.2-1.6,3.1-2.5,5-3.3
		c24-10.4,48.4-28.8,50.7-54.9c0.2-2.1,0.2-4.4-0.9-6.2c-1.4-2.3-4.3-3.2-6.9-3.9c-13.7-3.5-28.4-5.1-42-0.9
		c-13.5,4.2-25.6,15.2-27.8,29.2"/>
	<g>
		<path class="st8" d="M796.7,254.3c-8.1-22.6-18.1-47.9-41.9-58c-9.8-4.2-22.1-5.9-28.5,4.5c-5.6,9.1-7.4,21.2-6.4,31.6
			c1,10.9,4.9,21.2,11.6,29.9c1.8,2.4,4.4,4.3,1.4,6.7c-1.7,1.4-4,2-6.1,2.8c-5.1,1.9-10.1,4-14.9,6.6c-9.1,4.8-17.6,11.3-23.3,20
			c-4.8,7.3-9.7,20.5-2.8,27.9c3.8,4.1,9.9,5.4,15.2,6.4c6.7,1.3,13.5,1.7,20.3,1.1c13.1-1.2,25.6-5.5,36.4-13
			c-2.5-1.4-5-2.9-7.5-4.3c-0.2,13.8,2,27.6,7.1,40.5c3.8,9.8,9.9,25.6,22.4,26.4c12.8,0.7,20.7-14.1,25.8-23.7
			c6.3-12,10.6-25,12.5-38.5c0.9-6.1,1.3-12.2,1.3-18.4c0-4.1-0.3-6.2,3.8-8.1c3.1-1.5,6.3-2.8,9.3-4.5c9.9-5.2,19.5-11.8,27.3-20
			c7.7-8.1,13.8-18.1,15.9-29.2c1-5.5,1.8-12-2.5-16.3c-4.3-4.3-11.8-5.1-17.4-6.1c-15-2.6-30.9-2.5-44.6,4.9
			c-11.1,6-20,16.4-22.2,28.9c-1.1,6.3,8.5,9,9.6,2.7c4.1-22.5,28.5-29.7,48.5-27.7c5.4,0.5,11.3,1.3,16.4,3.2
			c3.3,1.2,3.2,3.1,2.7,6.4c-0.3,2.3-0.9,4.6-1.6,6.9c-2.9,9.2-9,17-16.1,23.3c-7,6.4-15.2,11.4-23.7,15.7
			c-3.8,1.9-8.5,3.2-11.6,6.1c-4.2,3.9-3.8,9.3-3.8,14.6c0.1,22-6.6,44.7-19.5,62.6c-3.4,4.8-8.6,9.9-13.8,4.4
			c-4.2-4.3-6.8-11-8.9-16.4c-4.8-12.1-6.9-24.9-6.7-37.8c0.1-3.6-4.4-6.5-7.5-4.3c-15.7,10.8-38.1,16-56.4,9
			c-5-1.9-3.9-6.3-2.5-10.6c1.4-4.3,3.9-8.1,6.9-11.4c5.8-6.3,13.2-10.8,20.9-14.4c7.1-3.3,17.5-4.9,21.7-12.4
			c4.9-8.6-4.2-15.5-7.9-22.4c-4.5-8.3-6.3-18-5.4-27.3c0.4-4.6,1.6-9.2,3.4-13.4c0.8-2,1.9-4.7,3.9-5.8c2.3-1.3,5.7-0.5,8.1,0.1
			c24.3,5.8,34.3,32.5,41.8,53.4C789.2,263,798.9,260.4,796.7,254.3L796.7,254.3z"/>
	</g>
</g>
<g class="st5">
	<linearGradient id="SVGID_8_" gradientUnits="userSpaceOnUse" x1="7.5" y1="497.8084" x2="1088.9038" y2="497.8084">
		<stop  offset="0" style="stop-color:#3EB4F0"/>
		<stop  offset="1" style="stop-color:#D55987"/>
	</linearGradient>
	<path class="st14" d="M32.2,494.6c18.9,4.3,37.5-8.8,49.7-23.8c12.3-15,21.5-32.9,37.1-44.4c13.5-10,30.3-14.1,46.6-18.1
		c36.8-8.8,78.2-17,110.2,3c15.4,9.6,26.5,24.7,40.7,36c14.2,11.3,34.6,18.6,50.4,9.6c13.8-7.8,18.9-24.7,27.9-37.7
		c24.1-34.4,83.2-34.6,107.6-0.5c6.3,8.9,10.5,19.4,18.5,26.7c16.4,15.2,42.9,11.9,63,2s37.4-25.2,58.4-32.7
		c34-12.2,75.1-0.6,97.6,27.6c5.9,7.4,10.9,15.9,19.1,20.5c13.6,7.5,30.9,1.2,42.9-8.7c12-9.8,21.2-22.9,33.9-31.8
		c30.7-21.3,74.2-12.2,105,9c12.9,8.9,25.4,20.1,41,22.1c19.1,2.5,36.5-9.5,54-17.6c17.4-8.1,41.4-11.2,53,4.1
		c-17.3,15.8-17.5,42.4-20.2,65.7c-2.8,23.3-14.7,50.7-38.1,52.4c13.2-8,3.7-31.2-11.5-33.9c-15.2-2.8-29.6,6.9-41.7,16.6
		c-22.8,18.1-45.9,38.5-74.6,43.5c-42.8,7.5-83.5-21-126.7-25.4c-40.3-4.1-79.2,13-117.3,26.8c-38.1,13.8-81.1,24.4-118.1,8.1
		c-20.7-9.1-37.1-25.6-56.6-37c-30.5-17.8-66.8-22.3-101.9-26.2c-9.6-1.1-19.4-2.1-28.7,0.5c-10.1,2.9-18.4,9.9-26.8,16.2
		c-53.5,40-133,54.5-185.9,13.8c-13.7-10.5-26.8-25-44.1-25.1c-27.4-0.2-43.9,35.6-71.2,37.5c-7,0.5-15.1-2.4-17.3-9
		c-0.9-2.8-0.6-5.8-0.3-8.7c1.7-16.3,3.4-32.7,5.1-49c1.1-10.7,9.6-25.3,18.5-19.1"/>
	<g>
		<linearGradient id="SVGID_9_" gradientUnits="userSpaceOnUse" x1="6.5" y1="497.8456" x2="1090.2521" y2="497.8456">
			<stop  offset="0" style="stop-color:#3EB4F0"/>
			<stop  offset="1" style="stop-color:#D55987"/>
		</linearGradient>
		<path class="st15" d="M30.8,499.5c21.1,4.3,40.3-8.2,53.5-23.7c14.1-16.6,23.9-37.5,43.2-48.9c9.5-5.6,20.1-8.7,30.7-11.5
			c10.8-2.8,21.6-5.3,32.5-7.4c21.2-4.1,43.9-6.5,64.9-0.2c22.6,6.8,36.2,24.8,53.3,39.7c14.3,12.5,34.9,23.3,54.2,16.7
			c19-6.5,25-25.9,35.2-41.1c9.2-13.6,24.4-21.7,40.4-24c15.9-2.3,32.8,0.9,46.3,9.8c7.1,4.7,12.5,11.1,16.9,18.3
			c5.4,8.7,10.1,18,18.4,24.4c15.1,11.7,35.8,11.2,53.2,5.7c20.8-6.6,37.6-21.1,56.6-31.3c18-9.7,37.9-13.3,58-9
			c18.6,3.9,35.8,13.8,47.8,28.6c6.3,7.8,11.6,16.9,20.6,21.9c8.4,4.7,18.4,4.9,27.5,2.2c21.5-6.2,33.4-25.4,49.7-39.1
			c16.2-13.6,37.7-17.3,58.2-13.8c21,3.6,38.7,13.6,55.7,25.9c8.5,6.2,17.5,12.3,27.8,14.9c10.1,2.6,20.5,1.4,30.3-1.9
			c19.3-6.7,36.2-20.9,57.3-21.2c8.8-0.1,16.7,2.4,22.3,9.4c0-2.4,0-4.7,0-7.1c-18.2,17.2-18.8,43.6-21.4,66.9
			c-2.1,18.9-10.6,47.6-33.4,49.7c0.8,3.1,1.7,6.2,2.5,9.3c12.7-8.4,9.9-25.4,0.6-35.4c-13.7-14.7-35.2-7.3-49.4,2.3
			c-17.5,11.8-32.4,26.7-50.6,37.5c-19,11.2-39.5,15.9-61.4,12.4c-21-3.3-40.9-11.6-61.2-17.8c-21.2-6.5-42.5-9.8-64.6-7.1
			c-45.9,5.5-86.7,29.6-131.6,39c-21.7,4.6-44.7,5.7-66-1.7c-20.9-7.2-37.3-22.9-55.4-34.8c-17.9-11.8-38.3-19.1-59.2-23.6
			c-10.5-2.3-21.1-3.9-31.8-5.2c-11.2-1.5-22.6-3.3-33.9-3.5c-10.3-0.2-19.9,2-28.8,7.3c-8.8,5.2-16.5,12.1-25,17.8
			c-16.1,10.6-33.8,18.8-52.3,24.1c-35.7,10.3-76.1,9.9-108.7-9.7c-15.9-9.6-28.4-25.8-46.6-31.3c-16.4-5-30.9,2.7-43.5,12.7
			c-11.3,8.9-23.6,22.7-39,23.3c-3.7,0.1-8.9-0.7-11.1-4.1c-2.7-4.3-0.4-12.5,0.1-17.2c1.3-12.4,2.6-24.9,3.9-37.3
			c0.4-4,4.1-22.3,11.3-18c5.5,3.3,10.6-5.3,5-8.6c-7.1-4.3-14.3-1.2-19,5c-6.1,8-6.9,17.3-7.9,26.9c-1.3,12.4-2.6,24.9-3.9,37.3
			c-1,9.4-0.6,18.2,8.6,23.1c15,8,32-1.7,43.8-10.9c11.4-8.9,23.2-22.4,38.4-23.7c19.7-1.7,34.6,18,49.4,28.1
			c15.1,10.3,32.6,16.8,50.6,19.5c37.8,5.7,76.9-3.5,110.4-21.3c8.6-4.6,16.9-9.9,24.8-15.7c8.5-6.3,16.9-13.7,27.5-16.2
			c10.9-2.6,22.9-0.2,33.8,1.1c11,1.3,22,2.7,33,4.7c22.1,4.1,43.7,10.6,62.8,22.7c18.2,11.6,34.1,26.7,54.2,35.1
			c42.4,17.6,89.3,2.7,130-12.4c22.2-8.2,44.4-16.8,67.8-21c23.1-4.2,45.3-2,67.7,4.6c20.7,6.1,40.7,14.6,62,18.3
			c20.7,3.6,40.8,1.6,59.9-7.3c19.1-8.9,35.3-22.9,51.7-35.9c12.3-9.8,37.8-27.7,49.6-8c3,5,4.6,12.6-1.1,16.3
			c-3.8,2.5-2.8,9.8,2.5,9.3c24.2-2.2,36.8-25.5,41.4-47c5.2-24.1,0.9-54,20.4-72.5c2.1-2,1.7-5,0-7.1c-11.6-14.4-32-14.2-48.3-9.2
			c-20.1,6.2-38.4,23.3-60.5,21.3c-11.1-1-20.7-7.6-29.5-13.9c-8.6-6.2-17-12.3-26.6-17c-18-8.9-38.6-14.2-58.7-12.2
			c-21.3,2.1-37.8,12.3-52.5,27.4c-13,13.4-33.7,36.8-54.8,25.5c-8.8-4.7-13.7-14.7-20.1-22.1c-6.3-7.3-14-13.5-22.3-18.3
			c-16.2-9.5-35.5-14.2-54.3-13c-20.9,1.4-38.8,10.7-56.2,21.8c-17.7,11.3-35.9,23.7-57.6,24c-9.6,0.1-19.4-2.3-26.6-8.9
			c-7.9-7.3-11.9-17.7-18.1-26.3c-9.4-12.9-23.5-21.6-38.9-25.2c-15.7-3.7-32.7-2.7-47.7,3.4c-16.3,6.6-27.2,18.3-35.7,33.5
			c-4.7,8.4-9.1,17.9-17.1,23.7c-8.4,6.1-19,5.9-28.5,2.8c-21.6-7-34.6-27.2-51.7-40.8c-35.9-28.5-83.3-19-124.2-9.1
			c-21.4,5.2-42,11.8-57.4,28.3C90.3,448.2,81,469.4,62.9,482c-8.6,6-18.8,9.9-29.4,7.8C27.2,488.5,24.5,498.2,30.8,499.5
			L30.8,499.5z"/>
	</g>
</g>
</svg>
