<?xml version="1.0" encoding="utf-8"?>
<!-- Generator: Adobe Illustrator 22.1.0, SVG Export Plug-In . SVG Version: 6.00 Build 0)  -->
<svg version="1.1" id="Слой_1" xmlns="http://www.w3.org/2000/svg" xmlns:xlink="http://www.w3.org/1999/xlink" x="0px" y="0px"
	 viewBox="0 0 289 382" style="enable-background:new 0 0 289 382;" xml:space="preserve">
<style type="text/css">
	.st0{fill:#E888A5;}
	.st1{fill:#3A3737;}
	.st2{fill:#EC1C57;stroke:#EC1C57;stroke-miterlimit:10;}
	.st3{fill:#6CC178;}
</style>
<g>
	<path class="st0" d="M126.4,203.4c-0.8-8.2-12.1-10.6-19.7-7.7c-7.7,2.9-14.2,8.9-22.4,9.9c-7.6,0.9-14.9-2.8-22.2-5
		c-7.3-2.2-16.6-2.4-21.3,3.6c-2.7,3.4-3.2,7.9-3.5,12.2c-2.6,38.4,10.9,80,42.7,101.8c17.5,12,38.7,17,59.3,21.8
		c10.5,2.4,22,4.8,31.6,0c9.1-4.6,14.2-14.4,21.3-21.7c7.8-8,18.1-12.9,27.1-19.5c18.4-13.4,31.2-34.2,35-56.6
		c2.1-12.7,1-27-7.6-36.6c-9.2-10.3-25-12.5-38.3-8.8c-2.7,0.8-5.5,1.8-8.3,1.2c-3.1-0.6-5.6-3.2-8.7-3.9
		c-5.9-1.5-11.2,3.8-14.5,8.8s-6.6,11.1-12.5,12.4c-12.2,2.9-22.6-16.5-34.2-11.6"/>
	<g>
		<path class="st0" d="M128.8,202.7c-1.3-8.2-10.1-11.3-17.5-10.6c-11.1,1-19,11.6-30.5,11.1c-11.6-0.5-21.7-9-33.7-5.8
			c-10.6,2.8-12.2,13.1-12.6,22.7c-1.8,42.5,16.2,87.6,55.9,107.2c11,5.4,22.8,9,34.7,12c11.5,2.9,24.1,7,36.1,5.9
			c11.1-1,18.4-7.7,25.1-16c3.2-3.9,6.3-7.9,10-11.3c5.2-4.7,11.4-8.3,17.3-12.1c18.8-12.1,33.3-29.3,40.2-50.8
			c6-18.6,7.1-43.8-11.1-56.1c-9.1-6.1-20.9-7.3-31.4-5.2c-4.1,0.8-8.2,3.1-12.4,1.4c-2.3-0.9-4.2-2.6-6.7-3.3
			c-4.9-1.2-9.6,1.3-13,4.6c-4.5,4.3-6.5,10.7-11.4,14.6c-5,4-10.3,1.7-15-1.3c-6.9-4.4-14.3-11.5-23.1-8.3c-3,1.1-1.7,5.9,1.3,4.8
			c7.1-2.6,13.7,4.2,19.3,7.8c5.7,3.6,12.4,6,18.7,2.3c7.6-4.4,10.9-19.6,20.5-19.7c4.5,0,7.8,4.1,12.5,4.2c5.1,0,10-2.5,15.1-2.9
			c9.6-0.9,20.1,1.5,27,8.5c7.4,7.4,9.2,18.4,8.7,28.4c-1.2,20.3-11.2,40.2-25.7,54.3c-7.7,7.5-16.9,12.6-25.8,18.7
			c-8.2,5.6-14,12.5-20.3,20.1c-3.1,3.7-6.4,7.4-10.7,9.6c-5.8,3.1-12.5,3.2-18.8,2.4c-10.9-1.4-21.9-4.5-32.5-7.4
			c-20.7-5.8-40.2-14.8-54.3-31.5c-12.3-14.5-19.7-32.8-23.1-51.4c-1.9-10.4-2.5-21.1-1.9-31.7c0.4-6.9,1.7-14.1,9.5-15.8
			c5.9-1.3,11.9,0.7,17.4,2.6c5.5,1.9,11.1,3.8,17,3.4c4.9-0.3,9.3-2.3,13.5-4.6c4.9-2.7,9.8-6.2,15.6-6.5c5-0.2,10.6,1.5,11.4,7
			C124.5,207.2,129.3,205.9,128.8,202.7L128.8,202.7z"/>
	</g>
</g>
<g>
	<g>
		<path d="M-509,334.5c3.2,0,3.2-5,0-5C-512.2,329.5-512.2,334.5-509,334.5L-509,334.5z"/>
	</g>
</g>
<g>
	<g>
		<path d="M-479,330.5c3.2,0,3.2-5,0-5C-482.2,325.5-482.2,330.5-479,330.5L-479,330.5z"/>
	</g>
</g>
<g>
	<g>
		<path class="st1" d="M81.1,46.9c-2.8-2-5.9-3.2-9.2-4.3c-3.4-1.2-8.1-2.2-10.2-5.5C55.4,27,77.4,21.9,83.1,20.3
			c22.2-6.1,45.1-9.2,68.1-9c10.6,0.1,22,0.1,32.3,2.6c4,1,9,2.6,11,6.5c3,5.8-2.7,12-7.7,14.4c-5.5,2.7-12,2.9-17.6,5.6
			c-6.8,3.3-5.4,9.3-5.2,16c0.8,19.5,4.3,38.9,6.9,58.2c0.1,1,1.4,1.9,2.4,1.8c10.6-1.1,21.7,3.2,31.4,7.1
			c10.1,4.1,20.5,8.8,29.5,15c21,14.5,31.5,40.2,38,63.9c3.8,13.8,6.7,27.6,6,42c-0.8,16-5,31.6-10.3,46.7
			c-4,11.3-8.8,22.4-16.4,31.9c-7.8,9.7-17.9,17.6-28.1,24.5c-11.8,8-24.6,15-38.1,19.6c-13.7,4.6-26.6,5.2-40.8,3.7
			c-13.9-1.4-27.9-3.2-41.4-7.3c-13.8-4.3-24.7-11.4-36-20.1c-9.8-7.6-19.6-15.1-26.4-25.7c-7.2-11.3-12.1-24.1-16.3-36.7
			c-4.2-12.7-7.9-26-9.3-39.3c-1.5-14.5,0.2-29.1,4.5-43c8.5-27.4,27.1-50.5,50.8-66.4c5.5-3.7,11.2-7,17.1-9.9
			c3.1-1.5,6.3-3,9.5-4.3c2.8-1.1,6.1-1.9,8.6-3.7c4.5-3.2,4.1-9.4,4.3-14.4c0.4-8.6,0.6-17.2,0.6-25.8c0-8.3-0.2-16.6-0.6-24.8
			c-0.1-1.7-1.5-2.8-3.2-2.4c-9.9,2.3-20.5,2.1-30.2-1.3c-7.4-2.6-4-8.7,1-11.8c3.6-2.3,7.9-3.6,11.9-4.8c20.1-6.3,41-9.8,62.1-10.2
			c3.2-0.1,8.7-0.9,11.4,1.4c5,4.1-4.4,8.9-7.7,10.6c-7.8,4.1-16.6,5.8-25.3,6.1c-8.2,0.2-17.4-0.2-25.2-2.9c-1.4-0.5-6.7-2.7-6-3.8
			c0.8-1.1,3.6-1.9,4.8-2.3c4.4-1.7,9-3.1,13.6-4.4c1.8-0.5,6.5-1.1,7.4-3.1c0.4-0.9,0.5-2.3-0.4-3c-1.4-1.1-3-0.7-4.7-0.5
			c-3.1,0.4-3.2,5.4,0,5c0.5-0.1,1.5,0,1.9-0.2c0.9-0.5,1.7,1.1-0.7-0.7c-0.1-1-0.3-2-0.4-3c0.6-1.3,1.3-0.7-0.2-0.4
			c-0.8,0.1-1.8,0.5-2.6,0.8c-2.9,0.9-5.8,1.7-8.7,2.6c-4.3,1.4-10.6,2.7-13.8,6.1c-5.1,5.4,4.9,10.8,9.2,12.1
			c10.7,3.3,23.3,3.6,34.3,2.1c9.8-1.4,20.6-4.9,27.9-11.9c7.4-7,1.1-14.2-7.1-15.3c-12.1-1.6-25.8,0.6-37.8,2.5
			c-13.7,2.1-28,5.1-40.9,10.4c-6.7,2.7-20.4,12.8-11.4,20.8c4.1,3.7,11.9,4.7,17.1,5.4c7.3,0.9,14.6,0.5,21.8-1.2
			c-1.1-0.8-2.1-1.6-3.2-2.4c0.8,17.9,0.8,35.8-0.2,53.6c-0.1,2.5,0,4.6-1.7,6.6c-1.6,1.8-3.8,2.3-5.9,3.1c-3.1,1.2-6.3,2.6-9.3,4
			c-6.4,3-12.7,6.5-18.6,10.4c-23.8,15.6-42.8,37.9-52.6,64.7c-5,13.8-7.5,28.6-7,43.2c0.5,13.9,3.9,27.8,8,41.1
			c4,13.1,8.9,26.2,15.4,38.3c6.3,11.6,15,20.4,25.3,28.4c10.6,8.3,20.7,16.6,33.3,21.8c12.9,5.4,26.6,8,40.4,9.8
			c14.3,1.8,28.7,3.7,42.9,0.7c14.1-3,27.6-9.1,40-16.4c22-12.9,41.9-29.1,52.4-52.8c12.5-28,19.8-59.6,13.2-90
			c-5.4-24.8-13.5-51-30.9-70.3c-7.7-8.6-17.2-14.5-27.4-19.6c-11-5.5-22.6-10.6-34.6-13.3c-4.7-1.1-9.6-1.8-14.4-1.3
			c0.8,0.6,1.6,1.2,2.4,1.8c-2.8-20.7-6.5-41.6-6.9-62.5c0-2.5-0.5-3.9,1.6-5.4c1.4-1,3.4-1.5,5-2c3.8-1.1,7.7-1.8,11.4-3.2
			c7.1-2.6,14.5-10,13.2-18.2c-1.4-8.5-10.5-12.1-18-13.4c-11.9-2.1-24.5-2.4-36.6-2.2c-25,0.4-51.4,3.9-74.9,12.5
			c-7.7,2.8-18,9.6-14,19.2c3.5,8.6,15.3,8.5,22,13.2C81.2,53.1,83.7,48.8,81.1,46.9L81.1,46.9z"/>
	</g>
</g>
<ellipse transform="matrix(0.4727 -0.8813 0.8813 0.4727 -146.077 252.2007)" class="st2" cx="137.7" cy="248.2" rx="49.5" ry="42"/>
<g>
	<g>
		<path class="st3" d="M518,107.5c3.2,0,3.2-5,0-5C514.8,102.5,514.8,107.5,518,107.5L518,107.5z"/>
	</g>
</g>
<g>
	<path class="st3" d="M135.4,199c-2.3-7.7-2.5-16-0.7-23.8c0.2-0.8,0.5-1.8,1.3-2c1.3-0.4,2.2,1.2,2.5,2.5
		c2.1,7.9,4.1,15.8,6.2,23.7c2.5-6.3,5.4-13.1,11.3-16.6c0.9-0.5,1.9-1,2.9-0.7c2.4,0.5,2.6,3.8,2.2,6.2c-0.7,4.6-1.4,9.3-2.2,13.9
		c5.1-7.5,13.4-12.7,22.3-14.2c1-0.2,2.2-0.3,2.9,0.4c1.3,1.2,0.3,3.4-0.8,4.8c-2.4,3.1-4.9,6.2-7.3,9.4c5-2.4,10.6-3.4,16.1-2.7
		c1.6,0.2,3.4,0.6,4.4,1.9c1.9,2.5-0.6,6.2-3.4,7.6c-2.9,1.4-6.3,1.8-8.6,4c3,4.1,9.8,3.4,13,7.4c2,2.4,1.9,6.2-0.2,8.5
		s-5.9,2.8-8.5,1.1c4.1,2,8.7,4.7,9.5,9.2c0.8,4.3-3.1,8.8-7.5,8.7c-3.4-0.1-6.3-2.6-8.3-5.3c-2-2.8-3.4-5.9-5.5-8.6
		c-5.6-7.1-15.1-9.5-22.9-14.1c-10.1-6-17.4-16.4-19.6-28"/>
	<g>
		<path class="st3" d="M137.9,198.3c-1.1-4-1.8-8-1.8-12.1c0-1.9,0.1-3.7,0.3-5.6c0.2-1.6,0.5-3.2,0.8-4.8c-1,0.1-1.3,0.6-0.7,1.4
			c-0.4,2.8,2.1,8.2,2.8,10.9c1,4,2.1,7.9,3.1,11.9c0.7,2.6,4,2.1,4.8,0c1.7-4.2,4.5-12.7,9.2-14.5c3.7-1.4,2,4.1,1.7,6.4
			c-0.5,3.2-1,6.4-1.5,9.6c-0.4,2.8,2.9,4.3,4.6,1.9c3.5-4.9,8.3-8.8,13.9-11.1c1.3-0.5,2.6-1,4-1.4c0.5-0.1,1-0.2,1.5-0.4
			c2.1-0.8,2.4-0.5,0.9,1c-0.9,2.8-5.2,6.8-7,9.1c-1.8,2.3,0.4,5.1,3,3.9c2.7-1.2,5.6-2.1,8.6-2.4c1.9-0.2,10.3-1.1,7.7,3.6
			c-0.9,1.7-4.6,2.3-6.3,3c-1.7,0.7-3.1,1.5-4.5,2.7c-1.1,0.9-0.8,2.6,0,3.5c1.9,2.2,4.3,3.2,6.9,4.2c1.5,0.6,3.4,0.9,4.7,2
			c4.3,3.4,0.5,9.4-4.3,6.9c-2.9-1.5-5.4,2.8-2.5,4.3c3.7,1.9,10.8,5.5,7.5,10.8c-3.9,6.3-10-0.8-12.3-4.5
			c-4-6.3-7.8-10.7-14.5-14.3c-6.9-3.6-14-6.2-19.7-11.6c-6-5.8-10-13.2-11.7-21.3c-0.7-3.1-5.5-1.8-4.8,1.3
			c2.3,10.5,8,19.9,16.5,26.5c9.4,7.3,22.2,9,28.7,19.7c4.1,6.8,12.4,16.9,20.7,8.7c7.8-7.8-0.5-16-7.7-19.6
			c-0.8,1.4-1.7,2.9-2.5,4.3c6,3.1,13.7-0.1,13.8-7.5c0.2-9.6-10.3-8.1-15.1-13.4c0,1.2,0,2.4,0,3.5c3.7-3,8.7-2.7,11.7-6.8
			c1.7-2.4,2.3-5.6,0.5-8.1c-4.8-6.4-17.9-2.5-23.7,0.1c1,1.3,2,2.6,3,3.9c2.9-3.7,8.7-8.7,9.3-13.6c0.5-3.8-2.5-5.5-5.9-5.2
			c-9.9,0.9-18.9,7.7-24.5,15.5c1.5,0.6,3,1.3,4.6,1.9c0.8-5.4,2.6-11.3,2.4-16.8c-0.1-2.9-1.4-5.9-4.5-6.5c-4-0.7-8.1,3.4-10.3,6.2
			c-3,3.8-4.9,8.4-6.6,12.9c1.6,0,3.2,0,4.8,0c-1.7-6.7-3.5-13.4-5.2-20.1c-0.8-2.9-1.6-8.5-5.9-8c-4.3,0.4-4.4,6.8-4.8,10
			c-0.7,6.4,0,12.8,1.7,19C133.9,202.7,138.7,201.4,137.9,198.3L137.9,198.3z"/>
	</g>
</g>
</svg>
